<svg xmlns="http://www.w3.org/2000/svg" xmlns:xlink="http://www.w3.org/1999/xlink" viewBox="0 0 220 231.5"><defs><style>.cls-1{isolation:isolate;}.cls-2{fill:#e0e0e2;}.cls-3{fill:url(#linear-gradient);}.cls-4{fill:#b3b3b3;opacity:0.35;}.cls-5{fill:#aaaae8;opacity:0.09;mix-blend-mode:color-dodge;}.cls-6{fill:#ff3131;}.cls-7{fill:#ff7373;}.cls-8{fill:#3f3f3f;opacity:0.1;mix-blend-mode:multiply;}.cls-9{fill:url(#Gradient_bez_nazwy_21);}.cls-10{fill:#fff;}.cls-11{fill:#e2e2e2;}.cls-12{fill:#f8aa00;}.cls-13{fill:#fb3;}.cls-14{fill:#ed9e00;}.cls-15{fill:url(#Gradient_bez_nazwy_114);}.cls-16{fill:#ffb6ea;}.cls-17{fill:#ff3158;}.cls-18{fill:url(#Gradient_bez_nazwy_114-2);}.cls-19{fill:url(#Gradient_bez_nazwy_21-2);}</style><linearGradient id="linear-gradient" x1="215.02" y1="187.7" x2="-3.54" y2="-13.08" gradientUnits="userSpaceOnUse"><stop offset="0" stop-color="#efefef"/><stop offset="1" stop-color="#a9a9a9"/></linearGradient><linearGradient id="Gradient_bez_nazwy_21" x1="102.32" y1="81.8" x2="45.57" y2="-17.7" gradientUnits="userSpaceOnUse"><stop offset="0" stop-color="aqua"/><stop offset="1" stop-color="#9e005d"/></linearGradient><linearGradient id="Gradient_bez_nazwy_114" x1="74.1" y1="92.07" x2="31.43" y2="87.4" gradientUnits="userSpaceOnUse"><stop offset="0" stop-color="aqua"/><stop offset="0.69" stop-color="#9e005d"/><stop offset="1" stop-color="#ed1e79"/></linearGradient><linearGradient id="Gradient_bez_nazwy_114-2" x1="182.31" y1="72.64" x2="234.81" y2="-11.36" gradientTransform="translate(172.48 -142.22) rotate(67.83)" xlink:href="#Gradient_bez_nazwy_114"/><linearGradient id="Gradient_bez_nazwy_21-2" x1="101.71" y1="163.54" x2="33.21" y2="136.04" xlink:href="#Gradient_bez_nazwy_21"/></defs><title>dashboard-image</title><g class="cls-1"><g id="Objects"><ellipse class="cls-2" cx="137.93" cy="221.09" rx="25.76" ry="3.25"/><path class="cls-3" d="M91.16,32.6c-4.33,1.8-21,8.75-30.3,26.72-2,3.82-11.28,21.79-4.43,37.67,9.07,21,36.74,15.91,49.43,35.68,10.92,17-11.7,33.73-2,54,5.08,10.58,16.79,19.4,27.63,20.22,33.82,2.54,94.55-70.32,69.85-127.46C183.41,37.82,126,18.07,91.16,32.6Z"/><path class="cls-4" d="M125,200.49c-1,0-1.9,0-2.79-.07-17.56-.87-31.3-6.85-38.69-16.85-7.92-10.72-6.2-22.1-4.37-34.15,1.63-10.74,3.31-21.84-2.27-32.73-5-9.69-14.45-11.54-24.5-13.5-10.27-2-20.89-4.07-27.94-14.47-7.45-11-9.16-27.32-4-38C28.1,35,54.34,22.54,85.78,19.64c40.83-3.77,76.55,9.35,95.56,35.1,30.32,41.07,16.23,106.66-16.57,131.55h0l-.3-.4.3.4C149.6,197.79,135.2,200.49,125,200.49ZM99.44,20q-6.67,0-13.56.63c-31.11,2.87-57,15.14-64.5,30.53-5,10.38-3.36,26.28,3.91,37,6.83,10.06,17.24,12.09,27.31,14.05,10.29,2,20,3.9,25.2,14,5.72,11.18,4,22.44,2.36,33.34-1.79,11.84-3.49,23,4.19,33.41,7.21,9.75,20.68,15.59,37.93,16.44,10.07.5,25.51-1.52,41.89-13.94l.3.4-.3-.4C196.62,160.86,210.55,96,180.54,55.33,163.87,32.76,134.17,20,99.44,20Z"/><path class="cls-5" d="M122.79,123.25q-2.35,0-4.76-.13C93.85,121.78,74.11,111,65.24,94.35,51.08,67.73,65,30.64,86.3,18.94c10.79-5.92,20.13-5.76,26.06-4.58,10.18,2,17.68,6.7,21.13,13.18,3.69,6.94,1.7,13.43-.41,20.31-1.88,6.14-3.83,12.49-1.51,19.36,2.07,6.12,7.47,8,13.18,10s11.84,4.18,15.06,10.86c3.4,7.05,3,16.73-1,22.51C153.56,118.38,139.4,123.25,122.79,123.25Zm-17.15-109a39.4,39.4,0,0,0-19.1,5.17h0C65.42,31,51.64,67.73,65.68,94.11c8.79,16.53,28.37,27.18,52.37,28.5,18.46,1,34.68-3.92,40.39-12.29,3.85-5.64,4.25-15.1.92-22-3.13-6.49-9-8.58-14.77-10.6s-11.35-4-13.49-10.35c-2.37-7-.4-13.45,1.51-19.67,2.08-6.77,4-13.17.44-19.93-3.38-6.34-10.76-10.93-20.79-12.92A34,34,0,0,0,105.64,14.2Zm-19.22,5h0Z"/><rect class="cls-6" x="125.02" y="128.83" width="51.48" height="29.06" transform="translate(-20.68 25.5) rotate(-9.05)"/><polygon class="cls-7" points="150.76 143.36 173.89 124.97 123.05 133.06 150.76 143.36"/><path class="cls-8" d="M116.64,26.94,41,33.19a3.32,3.32,0,0,0-3,3.58L39.78,58.9a3.32,3.32,0,0,0,3.58,3l7.46-.62,3.62-.3c.71.78,2.53,2.75,3.29,3.46a1.64,1.64,0,0,0,2.4-.2c.63-.83,2.1-3.07,2.67-4l18.39-1.52L119,55.68a3.32,3.32,0,0,0,3-3.58L120.22,30A3.32,3.32,0,0,0,116.64,26.94Z"/><rect class="cls-8" x="142.33" y="24.14" width="27.74" height="27.74" rx="1.86" ry="1.86" transform="translate(99.9 188.57) rotate(-83.18)"/><path class="cls-8" d="M65.72,75.64a4.32,4.32,0,0,0-5.43-2.82L32.47,81.63a4.32,4.32,0,0,0-2.82,5.43l5.74,18.11A4.32,4.32,0,0,0,40.82,108l2.72-.86s5.07,3.52,6.84,4.57A2.59,2.59,0,0,0,54,110.55c.85-1.88,3-7.68,3-7.68l11.68-3.7a4.32,4.32,0,0,0,2.82-5.43Z"/><path class="cls-8" d="M159.07,83.84a1.33,1.33,0,0,0-2.42-.39l-2.51,4.08-1.41-5.92A2.23,2.23,0,0,0,150,80l-16.28,3.88a2.23,2.23,0,0,0-1.65,2.68L136,102.82a2.23,2.23,0,0,0,2.68,1.65l16.28-3.88a2.23,2.23,0,0,0,1.65-2.68L155.19,92l4.08,2.51a1.33,1.33,0,0,0,2-1.44Z"/><circle class="cls-8" cx="19.4" cy="22.17" r="6.48" transform="translate(-5.79 6.9) rotate(-17.58)"/><circle class="cls-8" cx="192.81" cy="183.46" r="4.34" transform="translate(-69.66 227.51) rotate(-53.1)"/><circle class="cls-8" cx="186.14" cy="62.27" r="8.2" transform="translate(58.24 211.16) rotate(-67.83)"/><path class="cls-9" d="M118,21.53,36.79,28.24a3.56,3.56,0,0,0-3.25,3.84l2,23.75a3.56,3.56,0,0,0,3.84,3.25l8-.66,3.88-.32c.77.83,2.72,3,3.53,3.72a1.76,1.76,0,0,0,2.57-.21c.67-.89,2.25-3.3,2.87-4.25l19.73-1.63,40.58-3.35a3.56,3.56,0,0,0,3.25-3.84l-2-23.75A3.56,3.56,0,0,0,118,21.53Z"/><path class="cls-10" d="M53.31,43.13a3.91,3.91,0,0,0,1.06-3l-.16-1.93a4,4,0,0,0-4.13-3.76,3.93,3.93,0,0,0-3.71,4.25l.17,2.09a3.91,3.91,0,0,0,1.54,2.8,8.3,8.3,0,0,0-4.9,6.2A1.69,1.69,0,0,0,45,51.7l12.68-1a1.69,1.69,0,0,0,1.48-2.21A8.3,8.3,0,0,0,53.31,43.13Z"/><path class="cls-10" d="M86.06,31.44,69.89,32.78a2.41,2.41,0,0,0-2.2,2.6l.66,7.95a2.41,2.41,0,0,0,2.6,2.2l1.58-.13s2.31,2.54,3.15,3.32a1.44,1.44,0,0,0,2.1-.17c.69-.91,2.56-3.8,2.56-3.8l6.79-.56a2.41,2.41,0,0,0,2.2-2.6l-.66-7.95A2.41,2.41,0,0,0,86.06,31.44Z"/><path class="cls-11" d="M71.68,36.82a1,1,0,0,1-.08-2l13.12-1.08a1,1,0,1,1,.16,2L71.76,36.82Z"/><path class="cls-11" d="M72,40.26a1,1,0,0,1-.08-2L85,37.18a1,1,0,1,1,.16,2L72,40.26Z"/><path class="cls-11" d="M72.25,43.7a1,1,0,0,1-.08-2l5.91-.49a1,1,0,1,1,.16,2l-5.91.49Z"/><path class="cls-10" d="M116.41,42.49a7.28,7.28,0,0,0-1.79-4.22l-.14-1.71a5.88,5.88,0,0,0-5.31-5.37l0-.5a1,1,0,1,0-2.05.17l0,.5a5.88,5.88,0,0,0-4.36,6.16l.14,1.71h0a7.31,7.31,0,0,0-1.07,4.45l.06.74a.69.69,0,0,0,.74.63l2.9-.24a.58.58,0,0,0,.27.58,5.89,5.89,0,0,0,7-.58.58.58,0,0,0,.17-.61l2.9-.24a.69.69,0,0,0,.63-.74Z"/><circle class="cls-6" cx="100.87" cy="44.37" r="3.1" transform="translate(-3.31 8.46) rotate(-4.73)"/><rect class="cls-12" x="145.51" y="18.53" width="29.75" height="29.75" rx="2" ry="2" transform="translate(108.16 188.69) rotate(-83.18)"/><rect class="cls-13" x="148.28" y="21.29" width="24.23" height="24.23" rx="1.21" ry="1.21" transform="translate(108.16 188.69) rotate(-83.18)"/><path class="cls-14" d="M161,35.38l-2.66,2.09a1.13,1.13,0,0,1-1.58-.19h0a1.13,1.13,0,0,0-1.58-.19l-3.94,3.1a1.13,1.13,0,0,0,.56,2l.46.06,9.28,1.11,5.22.62a1.13,1.13,0,0,0,1-1.82l-5.19-6.6A1.13,1.13,0,0,0,161,35.38Z"/><circle class="cls-14" cx="154.21" cy="30.67" r="1.99" transform="translate(105.44 180.14) rotate(-83.18)"/><path class="cls-15" d="M55.51,68.69,25.67,78.14a4.64,4.64,0,0,0-3,5.82l6.15,19.43a4.64,4.64,0,0,0,5.82,3l2.91-.92s5.44,3.78,7.34,4.9a2.78,2.78,0,0,0,3.88-1.23c.91-2,3.18-8.23,3.18-8.23l12.53-4a4.64,4.64,0,0,0,3-5.82L61.34,71.71A4.64,4.64,0,0,0,55.51,68.69Z"/><path class="cls-16" d="M55.6,78.77,31.4,86.43a1.5,1.5,0,0,1-.91-2.86l24.19-7.66a1.5,1.5,0,0,1,.91,2.86Z"/><path class="cls-16" d="M57.76,85.59,33.57,93.25a1.5,1.5,0,0,1-.91-2.86l24.19-7.66a1.5,1.5,0,0,1,.91,2.86Z"/><path class="cls-16" d="M46.64,96.62l-10.91,3.45a1.5,1.5,0,0,1-.91-2.86l10.91-3.45a1.5,1.5,0,0,1,.91,2.86Z"/><path class="cls-17" d="M158.58,79l-2.7,4.38-1.51-6.35a2.39,2.39,0,0,0-2.88-1.77L134,79.46a2.39,2.39,0,0,0-1.77,2.88l4.16,17.47a2.39,2.39,0,0,0,2.88,1.77l17.47-4.16a2.39,2.39,0,0,0,1.77-2.88L157,88.19l4.38,2.7a1.43,1.43,0,0,0,2.13-1.54l-2.36-9.89A1.43,1.43,0,0,0,158.58,79Z"/><polyline class="cls-10" points="142.28 83.74 148.66 87.66 144.74 94.05"/><circle class="cls-6" cx="15.48" cy="18.17" r="6.95" transform="matrix(0.95, -0.3, 0.3, 0.95, -4.77, 5.53)"/><path class="cls-10" d="M18.19,14.82a2.48,2.48,0,0,0-3.45,1A2.48,2.48,0,0,0,11.34,17a2.53,2.53,0,0,0,1.17,3.27L16,22.06a1,1,0,0,0,1.31-.41l1.8-3.48A2.53,2.53,0,0,0,18.19,14.82Z"/><circle class="cls-6" cx="196.65" cy="186.42" r="4.66" transform="translate(-70.5 231.76) rotate(-53.1)"/><path class="cls-10" d="M199.53,186.59a49.81,49.81,0,0,0-3.85-2.89,1.69,1.69,0,0,0-1.33,1.91l.37,2.6a.65.65,0,0,0,.74.55l2.6-.37A1.69,1.69,0,0,0,199.53,186.59Z"/><circle class="cls-18" cx="191.99" cy="57.14" r="8.8" transform="translate(66.64 213.39) rotate(-67.83)"/><path class="cls-10" d="M195.2,52.59a1,1,0,0,0-1.36-.11,15.55,15.55,0,0,1-2.62,2.11l-.83-.34a.14.14,0,0,0-.18.07l-1.79,4.4a.14.14,0,0,0,.07.18l.62.25a2.37,2.37,0,0,0,1.47,1.93l.37.15,2.41,1,.54.22a1,1,0,0,0,1.24-1.27l.39.16a1,1,0,0,0,1.2-1.36,1,1,0,0,0,.4-1.85h0a1,1,0,0,0,0-1.78l-3.39-1.38C194.57,54.26,195.8,53.28,195.2,52.59Z"/><rect class="cls-10" x="185.19" y="55.01" width="5.55" height="1.91" rx="0.35" ry="0.35" transform="translate(65.22 208.93) rotate(-67.84)"/><path class="cls-19" d="M70.5,166.17a4,4,0,1,0,4,4,4,4,0,0,0-4-4Zm-12-32v4h4l7.19,15.19-2.8,4.8a7.22,7.22,0,0,0-.4,2,4,4,0,0,0,4,4h24v-4H71.3a.42.42,0,0,1-.4-.4v-.2l1.8-3.4H87.5a3.66,3.66,0,0,0,3.4-2l7.2-13a1.11,1.11,0,0,0,.4-1,1.89,1.89,0,0,0-2-2H66.9l-1.79-4Zm32,32a4,4,0,1,0,4,4,4,4,0,0,0-4-4Zm0,0"/></g></g></svg>