<svg id="Layer_1" data-name="Layer 1" xmlns="http://www.w3.org/2000/svg" viewBox="0 0 169.5 97"><defs><style>.cls-1{fill:#293892;}.cls-2{fill:none;}.cls-3{fill:#fff203;}</style></defs><title>logo</title><path class="cls-1" d="M164.66,14.21,145.35,6.67c-2.15-.71-4.11,1.74-4.82,3.88l-12.87,39.7.89,16.92,3.59,2c2.53-.6,3.18-3,3.33-4.41a2.74,2.74,0,1,1,2.79.93,2.51,2.51,0,0,1-.44.06,4,4,0,0,0-.7-1.43,10,10,0,0,1-.43,3.45,6.53,6.53,0,0,1-1.11,1.65,3.79,3.79,0,0,1-.42.32,10.34,10.34,0,0,1-.89.56c-.32.17-.66.32-1,.53a6.5,6.5,0,0,0,1.18,0l.59-.11,4.16,2.31,13.73-10.3,14.33-43.43A4.09,4.09,0,0,0,164.66,14.21Z"/><path class="cls-1" d="M108,44.49c6.16,0,10.93,3.63,10.93,10.88,0,5.31-.25,13.56-.4,13.86s-6.41,0-6.41,0l-.45-2.14a8.55,8.55,0,0,1-6.36,2.73c-5.41,0-7.7-3.18-7.7-7.5s3.92-7.3,8.89-7.3a7.39,7.39,0,0,1,4.62,1.34c0-2.14.15-5.07-4.32-5.07-3.08,0-4.52,2.19-5,2.24S97.95,50.55,98,50C98,49.16,101.33,44.49,108,44.49ZM107.49,65c2.19,0,3.28-1.29,3.28-2.78,0-1.74-1.44-2.83-3.28-2.83a2.94,2.94,0,0,0-3.23,2.83C104.26,63.81,105.65,65,107.49,65Z"/><path class="cls-1" d="M23.2,56.72c1.89-7.95,4.49-18.95,5.39-19.74.5-.5,8.82-3.7,9.81-3.45.35.2,7.1,39.7,7.1,41.53-.6.94-8.24,1.59-8.34,1.19-.25-1.24-3.83-22.51-4.52-28.92h-.2C31,53.1,27.72,65.17,26.53,68.59c-.79.3-6.85.3-7.15-.1-.6-1.34-4.37-16.14-5.56-21.26h-.2c-.79,5.61-2.38,18.67-3.08,21.55-1.59.15-8.24-.6-8.29-1.14.2-2.58,5.21-31.74,5.86-33.77.3-.84,7.15-.69,8.24-.45.89,1.39,5,16.14,6.61,23.29Z"/><path class="cls-1" d="M58.07,62.63a10.6,10.6,0,0,0,5.81-1.74,23.25,23.25,0,0,1,2.58,5.36,14.14,14.14,0,0,1-8.79,2.83c-9,0-12.62-6-12.62-12.37,0-6.7,4.17-13,12-13A10.28,10.28,0,0,1,67.66,54.29a13.7,13.7,0,0,1-.45,3.82c-2.48.35-11.47.35-14.45.25C52.76,61,54.64,62.63,58.07,62.63Zm2.43-9c.1-2.43-1.14-4.32-3.53-4.32a4.2,4.2,0,0,0-4.27,4.47Z"/><path class="cls-2" d="M35.37,16.79c0-2.73-3.08-3.63-5.27-3.63a20.77,20.77,0,0,0-2.28.15c0,1,0,7.05,0,7.05.55,0,1.14,0,2.14,0C33.53,20.41,35.37,19.12,35.37,16.79Z"/><path class="cls-1" d="M65,41.07c0-1,0-2.48,0-2.83a9,9,0,0,1-7.35,3.68c-6,0-8.89-3.68-8.89-10.63,0-3.58.5-12.07.65-14.4.1-.5,7.55-.4,7.7-.25.1.55-.4,11.87-.4,13.81,0,2.78,1.19,4.47,3.77,4.47a4.13,4.13,0,0,0,4.22-4.27c0-1.44.2-13.66.4-13.86s7.35-.1,7.55.2-.1,13.51-.3,24.09C72,41.72,65.52,41.52,65,41.07Z"/><path class="cls-1" d="M84.84,3.82c.35.6-.35,33.92-.6,37.75,0,0-6.7,0-7.1-.2s-.4-36.7.35-37.35S84.7,3.48,84.84,3.82Z"/><path class="cls-1" d="M95.87,3.82c.35.6-.35,33.92-.6,37.75,0,0-6.7,0-7.1-.2s-.4-36.7.35-37.35S95.72,3.48,95.87,3.82Z"/><path class="cls-1" d="M97.71,39.29c-.4-.5,1.89-5.91,2.28-5.71.79.4,3.87,2.63,7.05,2.63,2,0,3-.69,3-1.79s-.79-1.69-4-2.28c-5.56-.94-8.15-3.28-8.15-7.45,0-5.31,3.63-8.39,9.73-8.39,4.57,0,8.59,1.54,9.24,2.19.45.45-1.84,5.66-2.19,5.71s-3.43-1.94-6.31-1.94c-1.94,0-2.78.94-2.78,1.94s.84,1.59,3.72,2c5.91.84,8.54,2.88,8.54,7.5,0,4.37-3,8.34-9.93,8.34C102.93,42,98.41,40,97.71,39.29Z"/><path class="cls-1" d="M128.06,7.15a57.32,57.32,0,0,1-4.67,11.77l-2.78.35A70.29,70.29,0,0,0,123.54,7.6Z"/><path class="cls-1" d="M128.22,70.75c-5.71,9.67-12.58,15-20.41,15.81s-15.86-3-21.76-7c5.25-.89,10-4.7,9.88-15.86,0-3-.35-18.82-.45-19.37-.15-.15-6.16-.55-7,0,0,.3-.1,2.38-.1,2.68a9.88,9.88,0,0,0-7.15-2.83c-6,0-11.62,4.87-11.62,12.61A11.44,11.44,0,0,0,81.13,68.58c4.42,0,6.41-2.24,6.8-2.93C88,70,86.49,73.1,82.22,73.1a12,12,0,0,1-5.78-1.56l-.17-.18-.06.06c-.62-.34-1-.58-1.09-.5a18.49,18.49,0,0,0-1.59,2.95l-2.76,2.52c.7.76,16.44,17.75,34.79,17.75a29.08,29.08,0,0,0,3-.15c10.32-1.07,19.09-7.61,26.08-19.43ZM83.07,62.07c-3.13,0-4.82-2.09-4.82-5.22,0-3.38,2.14-5.17,4.82-5.17,3.38,0,5,2.24,5,5.21A4.85,4.85,0,0,1,83.07,62.07Z"/><path class="cls-2" d="M108,58.36a2.94,2.94,0,0,0-3.23,2.83c0,1.64,1.39,2.78,3.23,2.78,2.19,0,3.28-1.29,3.28-2.78C111.27,59.45,109.83,58.36,108,58.36Z"/><path d="M111.36,52.59a4,4,0,0,0,.25,1.35,5.4,5.4,0,0,0-.25-1.38S111.36,52.58,111.36,52.59Z"/><path d="M119.42,52.59a4,4,0,0,0-.47-1.85,12.75,12.75,0,0,1,.42,2.38A4,4,0,0,0,119.42,52.59Z"/><path class="cls-3" d="M140.75,21.75l7.94-5.81a.61.61,0,0,1,1,.56l-1.06,9.78a.61.61,0,0,0,.36.62l9,4a.61.61,0,0,1,0,1.11l-9,4a.61.61,0,0,0-.36.62l1.06,9.78a.61.61,0,0,1-1,.56l-7.94-5.81a.61.61,0,0,0-.72,0l-7.94,5.81a.61.61,0,0,1-1-.56l1.06-9.78a.61.61,0,0,0-.36-.62l-9-4a.61.61,0,0,1,0-1.11l9-4a.61.61,0,0,0,.36-.62l-1.06-9.78a.61.61,0,0,1,1-.56L140,21.75A.61.61,0,0,0,140.75,21.75Z"/><path class="cls-1" d="M131.73,48.87a2.47,2.47,0,0,1-2.45-2.74l1-8.86-8.16-3.6a2.47,2.47,0,0,1,0-4.52l8.16-3.6-1-8.86a2.47,2.47,0,0,1,3.91-2.26l7.19,5.27,7.2-5.27a2.47,2.47,0,0,1,3.91,2.26l-1,8.86,8.16,3.6a2.47,2.47,0,0,1,0,4.52l-8.16,3.6,1,8.86a2.47,2.47,0,0,1-3.91,2.26l-7.2-5.27-7.19,5.27A2.47,2.47,0,0,1,131.73,48.87Zm8.65-9.77a2.46,2.46,0,0,1,1.46.48l5.64,4.13-.75-6.95a2.46,2.46,0,0,1,1.46-2.53l6.39-2.82-6.39-2.82a2.46,2.46,0,0,1-1.46-2.53l.75-6.94-5.64,4.13a2.46,2.46,0,0,1-2.92,0l-5.64-4.13.75,6.95a2.46,2.46,0,0,1-1.46,2.53l-6.39,2.82,6.39,2.82A2.46,2.46,0,0,1,134,36.76l-.75,6.94,5.64-4.13A2.46,2.46,0,0,1,140.39,39.1Zm-10-2.74h0Zm20.09,0h0Zm-20.09-9.88h0Zm20.09,0h0Z"/><path class="cls-1" d="M41,23.18c3.18.66,6.51,3.58,6.51,8.68,0,6.81-5.25,9.79-14.13,9.79A131.82,131.82,0,0,1,20.21,41c-.25-.2-.56-34-.4-34.41S29.19,6,29.95,6C38,6,45.14,8.25,45.14,15.61c0,4.09-1.72,6-4.14,7.27Zm-12.51-3c.56.05,1.16.05,2.17.05,3.68,0,5.55-1.31,5.55-3.68,0-2.77-3.13-3.68-5.35-3.68a21.1,21.1,0,0,0-2.32.15C28.49,14.1,28.49,20.21,28.49,20.21Zm.35,14.18a25.56,25.56,0,0,0,3.43.2c4,0,5.75-1.66,5.75-3.94,0-2.62-2.17-4-6.06-4-1.21,0-2.12.1-3,.15C28.84,27.72,28.84,34.38,28.84,34.38Z"/></svg>