<svg id="Layer_1" data-name="Layer 1" xmlns="http://www.w3.org/2000/svg" viewBox="0 0 84.63 22.63"><defs><style>.cls-1{fill:#929497;}.cls-2{fill:#ec1c24;}.cls-3{fill:#4a4949;}</style></defs><title>avg-logo</title><path class="cls-1" d="M13.16,20.93H21l-.33-.23a3.58,3.58,0,0,1-1.25-1.55L12,1.34,9.26,7.66,13.9,18.54a1.92,1.92,0,0,1-.75,2.39"/><path class="cls-2" d="M22.34,1.34H14.5l.33.23a3.58,3.58,0,0,1,1.25,1.55l7.78,18,2.39-5.76L21.6,3.73A1.92,1.92,0,0,1,22.34,1.34Z"/><path class="cls-2" d="M33.86,1.34c-1.39.6-3.15,2.92-4.21,5.87.17-1.76.28-5.19-2.2-5.87Z"/><path class="cls-1" d="M2.21,20.93c1.39-.6,3.15-2.92,4.21-5.87-.17,1.76-.28,5.19,2.2,5.87Z"/><path class="cls-1" d="M30.29,11.22c0,2.61.89,8.82,8.62,10-1.6-.63-2.56-3.64-2.71-5.39s0-7.69,0-8.66.3-4.38,2.71-5.5a9.41,9.41,0,0,0-8.62,9.5"/><path class="cls-1" d="M45.26,3.93a12.77,12.77,0,0,1,2,3.9V3.09a8.65,8.65,0,0,0-5.63-1.5,7.94,7.94,0,0,1,3.65,2.34"/><path class="cls-1" d="M42,13.71h6.83a2.25,2.25,0,0,0-1.43,2.09c0,1.6,0,3.92,0,4.21a10,10,0,0,1-5.57,1.25,2.36,2.36,0,0,0,1.84-2.51V16A2.4,2.4,0,0,0,42,13.71"/><path class="cls-3" d="M53.83,3.21,52.77,5.58h2.12ZM56.2,7.28h-.57L55.09,6H52.56L52,7.28h-.54l2.12-4.68h.49Z"/><path class="cls-3" d="M61.85,4.23a1.74,1.74,0,0,0-.39-.59,1.77,1.77,0,0,0-.61-.39,2.14,2.14,0,0,0-.8-.14H59V6.79h1.09a2.18,2.18,0,0,0,.8-.14,1.72,1.72,0,0,0,1-1A1.9,1.9,0,0,0,62,5a1.93,1.93,0,0,0-.14-.72m.5,1.63a2.16,2.16,0,0,1-.51.74,2.39,2.39,0,0,1-.78.49,2.71,2.71,0,0,1-1,.18H58.44V2.63h1.61a2.73,2.73,0,0,1,1,.18,2.35,2.35,0,0,1,.78.49,2.18,2.18,0,0,1,.51.74,2.32,2.32,0,0,1,.18.92,2.35,2.35,0,0,1-.18.92"/><path class="cls-3" d="M68.37,4.23A1.74,1.74,0,0,0,68,3.65a1.77,1.77,0,0,0-.61-.39,2.14,2.14,0,0,0-.8-.14H65.49V6.79h1.09a2.18,2.18,0,0,0,.8-.14,1.72,1.72,0,0,0,1-1A1.9,1.9,0,0,0,68.51,5a1.93,1.93,0,0,0-.14-.72m.5,1.63a2.16,2.16,0,0,1-.51.74,2.39,2.39,0,0,1-.78.49,2.71,2.71,0,0,1-1,.18H65V2.63h1.61a2.73,2.73,0,0,1,1,.18,2.35,2.35,0,0,1,.78.49,2.18,2.18,0,0,1,.51.74,2.32,2.32,0,0,1,.18.92,2.35,2.35,0,0,1-.18.92"/><polygon class="cls-3" points="74.85 3.11 72.01 3.11 72.01 4.69 74.55 4.69 74.55 5.17 72.01 5.17 72.01 6.8 74.88 6.8 74.88 7.28 71.49 7.28 71.49 2.63 74.85 2.63 74.85 3.11"/><path class="cls-3" d="M80.67,4.23a1.74,1.74,0,0,0-.39-.59,1.77,1.77,0,0,0-.61-.39,2.14,2.14,0,0,0-.8-.14H77.79V6.79h1.09a2.18,2.18,0,0,0,.8-.14,1.72,1.72,0,0,0,1-1A1.9,1.9,0,0,0,80.8,5a1.93,1.93,0,0,0-.14-.72m.5,1.63a2.16,2.16,0,0,1-.51.74,2.39,2.39,0,0,1-.78.49,2.71,2.71,0,0,1-1,.18H77.26V2.63h1.61a2.73,2.73,0,0,1,1,.18,2.35,2.35,0,0,1,.78.49,2.18,2.18,0,0,1,.51.74,2.32,2.32,0,0,1,.18.92,2.35,2.35,0,0,1-.18.92"/><polygon class="cls-2" points="55.37 8.96 55.93 8.96 53.94 13.64 53.47 13.64 51.47 8.96 52.06 8.96 53.71 12.96 55.37 8.96"/><path class="cls-2" d="M60,9.54l-1.06,2.37h2.12Zm2.37,4.06h-.56l-.54-1.23H58.74l-.55,1.23h-.54l2.12-4.68h.49Z"/><polygon class="cls-2" points="65.42 8.96 65.94 8.96 65.94 13.12 68.56 13.12 68.56 13.61 65.42 13.61 65.42 8.96"/><path class="cls-2" d="M75.05,11.62a2.63,2.63,0,0,1-.14.9,1.75,1.75,0,0,1-.4.64,1.63,1.63,0,0,1-.61.39,2.47,2.47,0,0,1-1.58,0,1.65,1.65,0,0,1-.61-.39,1.72,1.72,0,0,1-.39-.63,2.51,2.51,0,0,1-.14-.87V9h.53v2.67a1.65,1.65,0,0,0,.38,1.16,1.55,1.55,0,0,0,2.07,0,1.58,1.58,0,0,0,.38-1.15V9h.53Z"/><polygon class="cls-2" points="80.98 9.44 78.15 9.44 78.15 11.02 80.69 11.02 80.69 11.5 78.15 11.5 78.15 13.13 81.02 13.13 81.02 13.61 77.62 13.61 77.62 8.96 80.98 8.96 80.98 9.44"/><path class="cls-3" d="M55.09,19.81A2.63,2.63,0,0,1,54,20a2.49,2.49,0,0,1-1-.19,2.18,2.18,0,0,1-1.22-1.27,2.66,2.66,0,0,1-.16-.94,2.52,2.52,0,0,1,.17-.92,2.41,2.41,0,0,1,.47-.77A2.24,2.24,0,0,1,54,15.21a3.38,3.38,0,0,1,.53,0,2.36,2.36,0,0,1,.45.12,2.11,2.11,0,0,1,.39.2,3.21,3.21,0,0,1,.35.26l-.34.4a2.37,2.37,0,0,0-.28-.22,1.86,1.86,0,0,0-.32-.17,2,2,0,0,0-.37-.11,2.37,2.37,0,0,0-.45,0,1.65,1.65,0,0,0-.71.15,1.75,1.75,0,0,0-.56.41,1.94,1.94,0,0,0-.37.61,2.08,2.08,0,0,0-.13.74,2.25,2.25,0,0,0,.13.77,1.79,1.79,0,0,0,.37.62,1.69,1.69,0,0,0,.58.41,1.92,1.92,0,0,0,.76.15,2.06,2.06,0,0,0,.75-.14,2.21,2.21,0,0,0,.59-.33V17.92H54v-.46h1.92v1.85a3,3,0,0,1-.8.5"/><path class="cls-3" d="M61.25,16a1.41,1.41,0,0,0-.88-.24H58.93v1.89h1.43a1.62,1.62,0,0,0,.48-.07,1.17,1.17,0,0,0,.38-.19.87.87,0,0,0,.25-.3.9.9,0,0,0,.09-.41.82.82,0,0,0-.31-.68m.36,3.92-1.35-1.81H58.93v1.81H58.4V15.29h2a2.27,2.27,0,0,1,.69.1,1.57,1.57,0,0,1,.53.28,1.26,1.26,0,0,1,.34.44,1.33,1.33,0,0,1,.12.57,1.38,1.38,0,0,1-.09.52,1.19,1.19,0,0,1-.26.4,1.49,1.49,0,0,1-.4.28,1.87,1.87,0,0,1-.5.16l1.43,1.9Z"/><path class="cls-3" d="M68.39,16.87a1.82,1.82,0,0,0-1-1,1.87,1.87,0,0,0-1.47,0,1.74,1.74,0,0,0-.57.41,1.91,1.91,0,0,0-.37.61,2,2,0,0,0-.14.75,2.06,2.06,0,0,0,.14.75,1.82,1.82,0,0,0,1,1,1.74,1.74,0,0,0,.73.15,1.79,1.79,0,0,0,.73-.15A1.74,1.74,0,0,0,68,19a1.91,1.91,0,0,0,.38-.61,2,2,0,0,0,.14-.75,2.06,2.06,0,0,0-.14-.75m.51,1.66a2.4,2.4,0,0,1-.49.77,2.32,2.32,0,0,1-.75.53,2.51,2.51,0,0,1-1.94,0A2.3,2.3,0,0,1,65,19.3a2.32,2.32,0,0,1-.48-.76,2.53,2.53,0,0,1-.17-.92,2.47,2.47,0,0,1,.17-.92,2.38,2.38,0,0,1,.49-.77,2.29,2.29,0,0,1,.75-.53,2.34,2.34,0,0,1,1-.2,2.37,2.37,0,0,1,1,.19,2.29,2.29,0,0,1,1.23,1.28,2.51,2.51,0,0,1,.17.92,2.47,2.47,0,0,1-.17.92"/><path class="cls-3" d="M75.31,18a2.63,2.63,0,0,1-.14.9,1.75,1.75,0,0,1-.4.64,1.63,1.63,0,0,1-.61.39,2.47,2.47,0,0,1-1.58,0A1.65,1.65,0,0,1,72,19.5a1.72,1.72,0,0,1-.39-.63,2.51,2.51,0,0,1-.14-.87v-2.7H72V18a1.65,1.65,0,0,0,.38,1.16,1.55,1.55,0,0,0,2.07,0A1.58,1.58,0,0,0,74.78,18v-2.7h.53Z"/><path class="cls-3" d="M80.49,16a1.49,1.49,0,0,0-.91-.26H78.4v2h1.15a1.76,1.76,0,0,0,.52-.07,1.22,1.22,0,0,0,.41-.21.91.91,0,0,0,.26-.32,1,1,0,0,0,.09-.42.89.89,0,0,0-.34-.76m.72,1.4a1.4,1.4,0,0,1-.4.48,1.71,1.71,0,0,1-.58.29,2.53,2.53,0,0,1-.7.1H78.4v1.64h-.53V15.29h1.74a2.33,2.33,0,0,1,.71.1,1.64,1.64,0,0,1,.55.29,1.25,1.25,0,0,1,.35.47,1.51,1.51,0,0,1,.12.62,1.44,1.44,0,0,1-.15.66"/></svg>