<?xml version="1.0" encoding="utf-8"?>
<!-- Generator: Adobe Illustrator 21.0.0, SVG Export Plug-In . SVG Version: 6.00 Build 0)  -->
<svg version="1.1" id="Layer_1" xmlns="http://www.w3.org/2000/svg" xmlns:xlink="http://www.w3.org/1999/xlink" x="0px" y="0px"
	 viewBox="0 0 46 46" style="enable-background:new 0 0 46 46;" xml:space="preserve">
<style type="text/css">
	.st0{fill:#642523;}
</style>
<title>banks</title>
<path class="st0" d="M33.7,31.6H27l-0.2-0.3c-1-1.6-1-3.6-0.1-5.2c0.1-0.2,0.1-0.3,0-0.5L23.3,22c-0.5-0.6-0.5-1.4,0.1-1.9
	c0.6-0.5,1.4-0.5,1.9,0.1l0,0l6.5,6.5l0.6-0.6l-1.6-1.5l0.4-0.2c1-0.4,1.6-1.5,1.2-2.6c0,0,0,0,0-0.1L31,18.2l1.3,1.3
	c0.8,0.8,1.3,2,1.3,3.2L33.7,31.6z M33.7,35.7h-6.5v-3.3h6.5V35.7z M15.7,29.5c-0.6,0.2-1.3-0.1-1.6-0.7c0,0,0,0,0,0L13.5,27
	l4.9-1.9H25l0.5,0.6L15.7,29.5z M16.1,25.1l-2.9,1.1l-0.4-1.1H16.1z M10.9,23.1v-9c0-0.7,0.5-1.2,1.2-1.2l0,0h16.3
	c0.7,0,1.2,0.5,1.2,1.2v2.6l0,0v6.4c0,0.1,0,0.1,0,0.2l-3.7-3.7c-0.9-0.8-2.2-0.8-3.1,0.1c-0.8,0.8-0.8,2.1-0.1,2.9l1.6,1.7H12.1
	C11.4,24.3,10.9,23.8,10.9,23.1 M30.4,18.9l1.2,3.2c0.2,0.6-0.1,1.3-0.7,1.6c0,0,0,0,0,0l-0.7,0.3c0.1-0.3,0.2-0.5,0.2-0.8V18.9z
	 M30.4,16.4v-2.3c0-1.1-0.9-2-2-2H12.1c-1.1,0-2,0.9-2,2v9c0,1,0.8,1.9,1.8,2l1.5,4c0.4,1,1.5,1.5,2.6,1.1l9.5-3.7
	c-0.7,1.7-0.5,3.7,0.5,5.2l0.2,0.4v4c0,0.2,0.2,0.4,0.4,0.4H34c0.2,0,0.4-0.2,0.4-0.4V22.7c0-1.4-0.6-2.8-1.6-3.8L30.4,16.4z"/>
<path class="st0" d="M12.5,16.7v-0.6h0.8v-0.8h-0.8v-0.6c0-0.1,0.1-0.2,0.2-0.2h2c0.1,0,0.2,0.1,0.2,0.2v0.6h-0.8v0.8H15v0.6
	c0,0.1-0.1,0.2-0.2,0.2h-2C12.6,17,12.5,16.9,12.5,16.7 M14.7,17.8c0.6,0,1.1-0.5,1.1-1.1v-2c0-0.6-0.5-1.1-1.1-1.1h-2
	c-0.6,0-1.1,0.5-1.1,1.1v2c0,0.6,0.5,1.1,1.1,1.1H14.7z"/>
<rect x="12.1" y="19" class="st0" width="1.6" height="0.8"/>
<rect x="12.1" y="21.5" class="st0" width="1.6" height="0.8"/>
<rect x="19.4" y="21.5" class="st0" width="1.6" height="0.8"/>
<rect x="14.5" y="19" class="st0" width="1.6" height="0.8"/>
<rect x="17" y="19" class="st0" width="1.6" height="0.8"/>
<rect x="19.4" y="19" class="st0" width="1.6" height="0.8"/>
<rect x="27.1" y="14.1" class="st0" width="0.8" height="1.2"/>
<rect x="25.5" y="14.1" class="st0" width="0.8" height="1.2"/>
<rect x="23.9" y="14.1" class="st0" width="0.8" height="1.2"/>
<rect x="22.3" y="14.1" class="st0" width="0.8" height="1.2"/>
<rect x="28" y="33.3" class="st0" width="0.8" height="0.8"/>
</svg>
