<?xml version="1.0" encoding="utf-8"?>
<!-- Generator: Adobe Illustrator 21.0.0, SVG Export Plug-In . SVG Version: 6.00 Build 0)  -->
<svg version="1.1" id="Layer_1" xmlns="http://www.w3.org/2000/svg" xmlns:xlink="http://www.w3.org/1999/xlink" x="0px" y="0px"
	 viewBox="0 0 46 46" style="enable-background:new 0 0 46 46;" xml:space="preserve">
<style type="text/css">
	.st0{fill:#642523;}
</style>
<title>basketball</title>
<path class="st0" d="M34.6,27.2l-3.1,1c-0.8,0.2-1.6,0.4-2.4,0.4l0.3-1.9h0.3c0.9,0,1.6-0.8,1.6-1.7c0-0.9-0.7-1.6-1.6-1.7
	c0,0,0,0,0,0H29v-6c0-0.6-0.5-1.1-1.1-1.1c0,0,0,0,0,0h-9.8c-0.6,0-1.1,0.5-1.1,1.1v6h-0.7c-0.9,0.1-1.6,0.9-1.5,1.8
	c0.1,0.8,0.7,1.5,1.5,1.5H17l0.3,1.9h-0.1c-0.7,0-1.5-0.1-2.2-0.3l-3.6-1v-11c0-0.2,0.1-0.4,0.3-0.5l2.9-2.3
	c4.9-3.9,11.9-3.9,16.8,0l2.9,2.3c0.2,0.1,0.3,0.3,0.3,0.5L34.6,27.2z M28,30.2L26.8,29l1.6-1.6l-0.2,1.5l0,0L28,30.2z M27.3,35.2
	L26.1,34l1.5-1.5L27.3,35.2z M20.4,33.9l-1.2,1.3l-0.4-2.8L20.4,33.9z M18.1,27.4l1.6,1.6l-1.2,1.1l-0.2-1.2l0,0L18.1,27.4z
	 M20.4,28.4l-1.8-1.8h3.6L20.4,28.4z M24.2,26.6h3.6l-1.8,1.8L24.2,26.6z M23.2,31.2L21,29l2.2-2l2.2,2L23.2,31.2z M21.1,33.3
	l-2.3-2.1l1.6-1.5l2.2,2.2L21.1,33.3z M23.2,32.5l1.6,1.5l-1.3,1.4l-1.6-1.6L23.2,32.5z M25.5,33.4l-1.6-1.6l2.2-2.2l1.6,1.5
	L25.5,33.4z M29,24.2h0.7c0.4,0,0.7,0.3,0.7,0.7c0,0.4-0.3,0.7-0.7,0.7H16.3c-0.4,0-0.7-0.3-0.7-0.7c0-0.4,0.3-0.7,0.7-0.7H29z
	 M28.1,23.2H17.9v-6c0-0.1,0.1-0.2,0.2-0.2c0,0,0,0,0,0h9.8c0.1,0,0.2,0.1,0.2,0.2c0,0,0,0,0,0L28.1,23.2z M34.9,14.8L32,12.5
	c-5.2-4.2-12.7-4.2-17.9,0l-2.9,2.3c-0.4,0.3-0.6,0.8-0.6,1.3v11.4c0,0.2,0.1,0.4,0.3,0.5l4,1.1c0.8,0.2,1.6,0.3,2.4,0.3h0.2
	l0.9,6.8c0,0,0,0,0,0.1l0,0c0,0.1,0.1,0.1,0.1,0.1l0,0c0,0,0.1,0.1,0.1,0.1l0,0l0,0h0.1l0,0h0.1l0,0l0.1-0.1l0,0l2-1.9l2,1.9h0.1
	l0,0l0,0l0,0h0.1h0.1h0.1l0,0h0l0.1,0l1.8-1.6l1.6,1.6l0.1,0.1c0,0,0.1,0.1,0.1,0.1c0.1,0,0.1,0,0.2,0h0.1l0,0l0,0
	c0,0,0.1,0,0.1-0.1l0,0c0,0,0.1-0.1,0.1-0.1l0,0c0,0,0,0,0-0.1l1.2-6.7h0.1c0.9,0,1.8-0.1,2.6-0.4l3.4-1.1c0.2-0.1,0.3-0.3,0.3-0.5
	V16.1C35.5,15.6,35.3,15.2,34.9,14.8"/>
</svg>
