<?xml version="1.0" encoding="utf-8"?>
<!-- Generator: Adobe Illustrator 21.0.0, SVG Export Plug-In . SVG Version: 6.00 Build 0)  -->
<svg version="1.1" id="Layer_1" xmlns="http://www.w3.org/2000/svg" xmlns:xlink="http://www.w3.org/1999/xlink" x="0px" y="0px"
	 viewBox="0 0 46 46" style="enable-background:new 0 0 46 46;" xml:space="preserve">
<style type="text/css">
	.st0{fill:#652524;}
</style>
<title>camera</title>
<path class="st0" d="M33.9,23.4l-16.2-9.3l1-1.5c0.5-0.8,1.6-1,2.4-0.5l16.5,9.5L33.9,23.4z M35.9,24.2c0,1.6-1.2,3-2.8,3.2l1.4-2.7
	l1.4-0.7C35.9,24.1,35.9,24.1,35.9,24.2 M31.1,28.5l-15.2-8.8c-0.7-0.4-1-1.4-0.6-2.1c0,0,0-0.1,0.1-0.1l1.6-2.3l16.1,9.3L31.1,28.5
	z M23.7,27.3c-0.5,0.8-1.5,1-2.3,0.6l-1.6-1c-0.7-0.4-1-1.4-0.5-2.1l0.1-0.1l0.8-1l4.3,2.5L23.7,27.3z M19.5,30.2
	c-0.5,0.7-1.3,1.2-2.2,1.2h-4.8v-1.3h4.8c0.4,0,0.8-0.2,1.1-0.6l0.9-1.4l1.2,0.7L19.5,30.2z M11.3,32.7H9.9v-5.2h1.3L11.3,32.7z
	 M39.5,21.1L21.8,11c-1.4-0.8-3.2-0.4-4.1,0.9l-3.4,4.9c-0.9,1.3-0.6,3.1,0.7,4c0.1,0,0.1,0.1,0.2,0.1l3.7,2.1l-0.7,0.9
	c-0.4,0.5-0.6,1.1-0.6,1.7s0.2,1.2,0.6,1.7l-1,1.5h-4.8v-1.9c0-0.4-0.3-0.6-0.6-0.6l0,0H9.3c-0.4,0-0.6,0.3-0.7,0.6l0,0v6.5
	c0,0.4,0.3,0.7,0.7,0.7l0,0h2.6c0.4,0,0.7-0.3,0.7-0.7l0,0v-0.7h4.8c1.3,0,2.5-0.6,3.2-1.7l1.1-1.6c0.2,0,0.4,0.1,0.6,0.1
	c1,0,2-0.5,2.5-1.4l0.7-1.2L31,30c0.1,0.1,0.2,0.1,0.3,0.1h0.2c0.2,0,0.3-0.2,0.4-0.3l0.5-1h0.2c2.5,0,4.5-2,4.5-4.5
	c0-0.3,0-0.6-0.1-0.8l2.3-1.2c0.3-0.2,0.5-0.6,0.3-0.9C39.6,21.2,39.5,21.1,39.5,21.1"/>
<path class="st0" d="M29.4,22.3c0.3,0,0.6,0.3,0.6,0.6c0,0.3-0.3,0.6-0.6,0.6c-0.3,0-0.6-0.3-0.6-0.6l0,0
	C28.8,22.5,29.1,22.3,29.4,22.3"/>
</svg>
