<svg id="Layer_1" data-name="Layer 1" xmlns="http://www.w3.org/2000/svg" viewBox="0 0 46 46"><defs><style>.cls-1{fill:#fff;}.cls-2{fill:#652524;}.cls-3{fill:none;}</style></defs><title>camera</title><path class="cls-1" d="M23,44.93A21.93,21.93,0,1,0,1.07,23,21.93,21.93,0,0,0,23,44.93"/><path class="cls-2" d="M32.72,24,18.81,16l.89-1.27a1.57,1.57,0,0,1,2.07-.46L36,22.41Zm1.66.64A2.78,2.78,0,0,1,32,27.43l1.17-2.34,1.24-.62c0,.07,0,.14,0,.21m-4.14,3.68L17.18,20.83a1.32,1.32,0,0,1-.42-1.9l1.4-2,13.81,8Zm-6.36-1a1.47,1.47,0,0,1-2,.49L20.5,27a1.3,1.3,0,0,1-.37-1.9l.66-.88,3.69,2.13Zm-3.6,2.49a2.23,2.23,0,0,1-1.86,1H14.29V29.7h4.13a1.11,1.11,0,0,0,.93-.5L20.12,28l1,.57Zm-7.1,2.11H12.06V27.46h1.12Zm24.27-10L22.31,13.29a2.75,2.75,0,0,0-3.53.79l-2.93,4.19a2.44,2.44,0,0,0,.78,3.51l3.19,1.84-.58.77a2.44,2.44,0,0,0-.48,1.45,2.41,2.41,0,0,0,.51,1.45l-.85,1.28H14.29V26.9a.55.55,0,0,0-.56-.55H11.5a.55.55,0,0,0-.56.55v5.58a.56.56,0,0,0,.56.56h2.23a.56.56,0,0,0,.56-.56v-.56h4.13a3.34,3.34,0,0,0,2.79-1.49l.91-1.37a2.48,2.48,0,0,0,.53.07,2.56,2.56,0,0,0,2.18-1.23l.61-1,4.75,2.74a.55.55,0,0,0,.28.07l.16,0a.56.56,0,0,0,.34-.28l.41-.83.2,0a3.91,3.91,0,0,0,3.91-3.91,3.6,3.6,0,0,0-.09-.73l2-1a.56.56,0,0,0,0-1"/><path class="cls-2" d="M29.36,22.26a.56.56,0,1,1-.56.56.56.56,0,0,1,.56-.56"/><rect class="cls-3" x="3.49" y="1.92" width="37.6" height="37.6"/></svg>