<svg id="Layer_1" data-name="Layer 1" xmlns="http://www.w3.org/2000/svg" viewBox="0 0 359 259"><defs><style>.cls-1{fill:#fff;}</style></defs><title>faithfount</title><path class="cls-1" d="M68,51.63V96.09c3.36,1.18,4.06-.17,4-2.9-.08-12.56,0-25.12,0-37.68,0-1.28,0-2.57,0-4.1h4.46c0,1.67,0,3.18,0,4.69,0,12.09,0,24.17,0,36.26,0,1.17.28,3.1,1,3.38,2.2.9,3.07-.3,3.05-2.66-.08-12.44,0-24.88,0-37.33,0-1.39,0-2.78,0-4.37h4.11c.07,1.45.18,2.72.18,4,0,12.56.05,25.12,0,37.68,0,2.7.66,4.13,4,3.26V51.82c4.24-1.09,4.32-1,4.32,2.94,0,13.27.05,26.54,0,39.82,0,2.25.6,3.28,2.89,4,10.85,3.26,20,9,26.27,18.75,3,4.64,4.62,10.44,4.11,15.35-.85.09-1.76.18-2.67.3-2.75.37-4-.4-4.59-3.56-2-11.23-15.38-23.22-26-23.36V141l-4.18-.21c0-9.59,0-18.93,0-28.26,0-1.78-.11-3.56,0-5.33.23-2.8-1-3.65-4-2.91v36.35H80.42c0-4,0-7.9,0-11.78,0-7.11.08-14.22-.06-21.33,0-1.53,1.36-4.32-2-4.19s-1.83,2.82-1.85,4.37c-.13,9.24-.05,18.48-.08,27.73,0,1.74-.16,3.48-.26,5.38H72v-36.5c-3.12-.82-4,.29-4,2.94.09,9.83,0,19.67,0,29.51,0,1.27,0,2.54,0,4H63.86V106.22c-.7-.21-1.08-.47-1.35-.38-11.64,3.62-21.25,9.79-24.33,22.36-1,4-.38,8.81.9,12.8,3.75,11.69,2.22,21.92-6.47,30.82-7,7.18-11.72,15.51-12.07,25.74-.48,14.1,6.23,24.71,17,33.09,23.67,18.47,62.87,17.23,85-2.68,7.75-7,12.69-15.5,13.74-26.07.55-5.54,4.67-1.1,7-3.47a35.66,35.66,0,0,1-4.88,21.11c-8.73,15.65-22.66,24.61-39.61,28.78-25.14,6.17-48.54,2.42-68.82-14.53C8.65,216,7.58,186.66,27.16,167.06c6.26-6.26,8.61-13.81,5.31-22.11-5.89-14.83,0-29.6,11.79-38A72.93,72.93,0,0,1,60,99c3.14-1.23,4-2.62,4-5.81-.18-12.91,0-25.83-.11-38.75C63.79,51.48,64.76,50.5,68,51.63Z"/><path class="cls-1" d="M94.24,44.82c-10.05,0-19.75,0-29.45,0-1.8,0-2.51-.63-2.5-2.49.06-9.83,0-19.65.12-29.48a3.17,3.17,0,0,1,2.14-2.24c9.8-.15,19.61-.1,29.68-.1ZM69.56,17.91c0,6.15-.08,11.92.1,17.68,0,.68,1.41,1.86,2.2,1.9,4.36.19,8.74.18,13.1,0,.78,0,2.16-1,2.18-1.55.16-6,.1-11.95.1-18.06Z"/><path class="cls-1" d="M193.16,192.1c-.12-2.2-1.15-4.08,1.83-4.79.75-.18,1.64-1.72,1.68-2.66.18-4.26.24-8.53,0-12.79-.19-3.79-2-5.43-5.26-5.3a6,6,0,0,0-5.95,5.84c-.11,4.73,0,9.47,0,14.2l.89-.44,3.19,5.66H175v-4c3.24-.14,3.48-2.21,3.46-4.86-.08-8.17.06-16.34.15-24.52,0-2.36.18-4.74-3.23-4.3-.46-4.72-.44-4.73,3.84-4.65,2,0,4,0,6.21,0v14.43c3.33-.86,6.47-2.19,9.67-2.37,4.72-.26,8,3.13,8.22,7.92.2,5,.08,9.95.08,14.92,0,1.59-.11,3,2.18,3.31.51.06,1.11,1.79,1.12,2.76,0,.54-1.09,1.54-1.72,1.56C201.11,192.17,197.23,192.1,193.16,192.1Z"/><path class="cls-1" d="M314.71,192.54l-.23-3.68c3.9-.18,3.93-2.88,3.86-5.74-.08-3.32,0-6.64,0-10-.1-4.11-1.68-5.88-5-5.85a5.85,5.85,0,0,0-6.17,5.93c-.08,4.73,0,9.47,0,14.47l3.08.86v3.91H296.58l-.22-3.8c3.61-.31,3.82-2.66,3.7-5.52-.18-4.14.15-8.3-.09-12.43-.07-1.12-1.45-2.14-2.13-3.26-.59-1-1.4-2-1.39-3.06,0-.55,1.52-1.42,2.43-1.52a63,63,0,0,1,6.59-.07l.9,3,1.13-.42c2.9-1.1,5.76-2.92,8.72-3.13,5.31-.38,8.56,3.07,8.77,8.52.17,4.5,0,9,0,13.51,0,3.56,0,3.56,3.27,4.62v3.64Z"/><path class="cls-1" d="M131.5,190.81c-6.56,1.35-8.82.82-9.68-1.85-2.15,1-4.24,2.52-6.51,2.87-6.37,1-11.09-2-12.37-8.28A29,29,0,0,1,103,171c2.49-9.71,10.32-11.49,19.8-9.88,5.56.95,5.51,1.25,5.43,6.88-.07,5.09-.22,10.18-.14,15.26,0,1.13.64,3.08,1.29,3.22C132.57,187.17,131.1,189.25,131.5,190.81Zm-10-24.49c-6.87-1.57-10-.5-11.35,4.84a32.84,32.84,0,0,0-.18,11.82c.42,3.26,3.2,4.49,6.44,4.08,2.93-.37,4.92-2,5-5C121.61,176.84,121.46,171.64,121.46,166.32Z"/><path class="cls-1" d="M278.63,163h10.09c0,3.5,0,6.88,0,10.26,0,3.79,0,7.58-.06,11.37,0,1.76.19,3.07,2.28,3.82.87.31,1.13,2.31,1.87,4h-9.65l-.37-1.76c-3.64.93-7,2.34-10.49,2.53-4.74.26-7.76-2.79-8-7.58s-.08-9.7-.27-14.54a7.84,7.84,0,0,0-1.22-3.36,45,45,0,0,0-2.69-3.8l.86-.87h9.89c0,3.27,0,6.65,0,10,0,3.2,0,6.39,0,9.59,0,2.73.83,4.93,3.9,5.46s6.38-1.36,6.73-4.4a138.69,138.69,0,0,0,.47-14.16c0-.56-.63-1.57-1.07-1.63C277.52,167.6,278.86,165.23,278.63,163Z"/><path class="cls-1" d="M258.21,177.59c-1,3.22-1.66,6.62-3.13,9.61-2.38,4.85-8,7-14.28,6.18a11.41,11.41,0,0,1-9.69-9.55,32.76,32.76,0,0,1-.15-10.49c1.3-7.89,6.94-11.78,15.37-11.22,6.7.44,10.78,5.22,11.18,13.14,0,.71,0,1.42,0,2.13Zm-21-.12a48.17,48.17,0,0,0,.64,5.48c1,4.08,2.78,5.6,6.2,5.52s5.58-1.89,6-5.78a45,45,0,0,0-.2-10.92,5.22,5.22,0,0,0-5.42-4.67,5.71,5.71,0,0,0-6.18,4.29A40.37,40.37,0,0,0,237.21,177.47Z"/><path class="cls-1" d="M90.21,186.23,95,187V191H79.72c-.11-2-1.07-3.94,1.91-4.54a2.59,2.59,0,0,0,1.45-2c.12-5.9.07-11.8.07-17.95-2.68-.4-6.43,0-4.43-5l4.61-.45c.44-4.68,0-10,5.54-12a15.16,15.16,0,0,1,12.81,1.3l-.94,3.07c-3.45.45-6.68.31-9.32,1.48-1.09.48-.93,3.79-1.43,6.26h8.9v5H90.21v20Z"/><path class="cls-1" d="M225.21,187.7v4.06H209.88l-.22-3.82c3.41-.16,3.82-2.32,3.75-5.07-.14-5.18,0-10.36,0-15.73l-4.75-.41v-4.35l4.94-.52c.38-4.57-.22-9.72,5.15-11.83,4.38-1.72,8.75-1.05,13,.95-.37,3-.8,4.76-4.59,3.58-5.1-1.59-7,.77-6.42,7.58h8.33V167h-8.72c0,3.57,0,6.84,0,10.11s0,6.37,0,9.77Z"/><path class="cls-1" d="M349.45,193.36c-4.26.24-7.62.85-10.88.5-4.06-.44-5.87-3.1-5.91-7.49-.06-5.89,0-11.78,0-17.73l-3.82-.52c-.44-2.23.06-3.52,2.18-4.63,1.63-.85,2.67-2.81,4.08-4.15a43.68,43.68,0,0,1,3.47-2.71l.91.84v6h8.07l-.75,4.92H339.6c0,5.91-.1,11.54,0,17.15.07,2.91,2.14,3.71,4.7,3.44a24.26,24.26,0,0,0,3.09-.78Z"/><path class="cls-1" d="M156.27,167.22l-3.84-.56c-.3-2.3.16-3.73,2.59-4.69,1.43-.56,2.61-2.33,3.39-3.83,1-2,2.13-3.07,4.74-1.93l.3,5.8h7.6l-.57,4.86-7.43.35c0,5.45-.11,10.74,0,16,.1,3.55,1.85,4.78,5.39,4.19.8-.13,1.58-.31,2.32-.46,2.18,3.89,2,4.52-1.94,5.37a19.21,19.21,0,0,1-5.27.32c-4.95-.33-7.25-2.76-7.32-7.72C156.21,179.05,156.27,173.16,156.27,167.22Z"/><path class="cls-1" d="M135.13,191.72V187.8c3.25-.12,3.63-2.12,3.55-4.8-.13-4.12.14-8.26.15-12.39,0-1.56.31-3.16-2.09-3.85-.92-.26-1.26-2.58-2.08-4.47h10.85V187l3.2.71v4Z"/><path class="cls-1" d="M50.32,26.9c1.12-.84,2.56-2.58,4.37-3.13,2.15-.66,4.4,1.94,4.29,4.43a4,4,0,0,1-4.27,4.17C52.13,32.36,50.74,30.66,50.32,26.9Z"/><path class="cls-1" d="M146.11,153.75a4,4,0,0,1-4.2,4.1c-2.79.11-4.55-1.4-4.61-4.17-.06-2.59,1.59-4.14,4.17-4.26C144.28,149.28,145.75,150.9,146.11,153.75Z"/><path class="cls-1" d="M54.37,18.47a4.17,4.17,0,0,1-3.89-4.24,4.17,4.17,0,0,1,4.46-4.37c2.59.23,4.06,1.71,4,4.39C59,16.71,57.13,18.5,54.37,18.47Z"/><path class="cls-1" d="M102,37.6c2.59.26,4.2,1.59,4.36,4.22a4.17,4.17,0,0,1-4.47,4.35,3.94,3.94,0,0,1-4.11-4.32C97.82,39.19,99.45,37.85,102,37.6Z"/><path class="cls-1" d="M102.29,32.62c-2.69-.23-4.35-1.54-4.49-4.19s1.58-4.16,4-4.61c2.1-.4,4.67,2.13,4.62,4.4C106.37,30.92,104.66,32.15,102.29,32.62Z"/><path class="cls-1" d="M102.53,10a4.2,4.2,0,0,1,3.91,4.23,4.25,4.25,0,0,1-4.57,4.29c-2.69-.17-4-1.75-4-4.39C97.83,11.79,99.8,9.94,102.53,10Z"/><path class="cls-1" d="M55.28,37.49A3.92,3.92,0,0,1,59,41.88a3.94,3.94,0,0,1-4.19,4.21,4.43,4.43,0,0,1-4.3-4.57A4.5,4.5,0,0,1,55.28,37.49Z"/></svg>