<?xml version="1.0" encoding="utf-8"?>
<!-- Generator: Adobe Illustrator 21.0.0, SVG Export Plug-In . SVG Version: 6.00 Build 0)  -->
<svg version="1.1" id="Layer_1" xmlns="http://www.w3.org/2000/svg" xmlns:xlink="http://www.w3.org/1999/xlink" x="0px" y="0px"
	 viewBox="0 0 46 46" style="enable-background:new 0 0 46 46;" xml:space="preserve">
<style type="text/css">
	.st0{fill:#642523;}
</style>
<title>games</title>
<path class="st0" d="M9.9,26.7c0.1-1.7,0.3-3.4,0.8-5c0.3-1.4,0.8-2.8,1.5-4.1c2-3.6,4.3-3,7-2.3c1.2,0.3,2.3,0.6,3.5,0.7h0.5
	c1.2-0.1,2.4-0.3,3.6-0.7c2.7-0.7,5-1.3,7,2.3c0.7,1.3,1.2,2.6,1.5,4.1c0.4,1.6,0.7,3.3,0.8,5c0.1,1.2,0,2.4-0.4,3.5
	c-0.1,0.4-0.5,0.7-0.9,0.9c-0.5,0.1-1,0-1.5-0.2c-1.6-0.7-3-1.8-4.2-3c-1.4-1.4-3.8-2-6.2-2c-2.2-0.1-4.4,0.6-6.2,2
	c-1.2,1.2-2.6,2.2-4.2,3c-0.5,0.2-1,0.3-1.5,0.2c-0.4-0.2-0.7-0.5-0.9-0.9C9.9,29.1,9.8,27.9,9.9,26.7 M10.8,32.4
	c0.8,0.2,1.6,0.1,2.3-0.3c1.7-0.8,3.3-1.9,4.6-3.3c1.5-1.2,3.4-1.8,5.3-1.7c1.9-0.1,3.8,0.5,5.3,1.6c1.3,1.3,2.9,2.4,4.6,3.3
	c0.7,0.3,1.5,0.4,2.3,0.3c0.8-0.2,1.4-0.9,1.7-1.6c0.5-1.3,0.6-2.7,0.5-4.1c-0.1-1.8-0.4-3.5-0.8-5.2c-0.4-1.5-0.9-3-1.6-4.4
	c-2.5-4.4-5.3-3.7-8.5-2.9c-1.1,0.3-2.2,0.5-3.3,0.6h-0.4c-1.1-0.1-2.2-0.4-3.3-0.6c-3.3-0.8-6-1.6-8.5,2.9
	c-0.7,1.4-1.3,2.9-1.6,4.4c-0.4,1.7-0.7,3.5-0.8,5.2c-0.1,1.4,0,2.8,0.5,4.1C9.4,31.5,10,32.1,10.8,32.4"/>
<path class="st0" d="M13.6,21.1c0-0.2,0.1-0.4,0.2-0.5l0,0c0.1-0.1,0.3-0.2,0.5-0.2h0.5c0.4,0,0.7-0.3,0.7-0.7l0,0v-0.5
	c0-0.4,0.3-0.8,0.8-0.8c0.2,0,0.4,0.1,0.5,0.2l0,0c0.1,0.1,0.2,0.3,0.2,0.5v0.5c0,0.4,0.3,0.7,0.7,0.7l0,0h0.5
	c0.4,0,0.8,0.3,0.8,0.7s-0.3,0.8-0.7,0.8c-0.1,0-0.1,0-0.2,0h-0.5c-0.4,0-0.7,0.3-0.7,0.7l0,0V23c0,0.4-0.3,0.8-0.7,0.8
	s-0.8-0.3-0.8-0.7c0-0.1,0-0.1,0-0.2v-0.5c0-0.4-0.3-0.7-0.7-0.7c0,0,0,0,0,0h-0.5C13.9,21.8,13.6,21.5,13.6,21.1
	C13.5,21.1,13.5,21.1,13.6,21.1 M14.2,23.2c0,0.5,0.2,1,0.6,1.3c0.4,0.4,0.9,0.6,1.5,0.6c0.6,0,1.1-0.2,1.5-0.6
	c0.3-0.3,0.6-0.8,0.6-1.3c0.5,0,1-0.2,1.3-0.6c0.4-0.4,0.6-0.9,0.6-1.5c0-0.6-0.2-1.1-0.6-1.5c-0.3-0.3-0.7-0.6-1.2-0.6
	c0-0.5-0.2-0.9-0.6-1.3l0,0c-0.4-0.4-0.9-0.6-1.5-0.6c-0.6,0-1.1,0.2-1.5,0.6c-0.4,0.3-0.6,0.8-0.7,1.3c-0.5,0-0.9,0.2-1.3,0.6l0,0
	c-0.4,0.4-0.6,0.9-0.6,1.5c0,0.6,0.2,1.1,0.6,1.5c0.4,0.4,0.8,0.6,1.3,0.6"/>
<path class="st0" d="M29.3,17.3c0.7,0,1.3,0.6,1.3,1.3s-0.6,1.3-1.3,1.3S28,19.2,28,18.5S28.6,17.3,29.3,17.3L29.3,17.3"/>
<path class="st0" d="M29.3,22.4c0.7,0,1.3,0.6,1.3,1.3s-0.6,1.3-1.3,1.3S28,24.3,28,23.6S28.6,22.4,29.3,22.4L29.3,22.4"/>
<path class="st0" d="M26.7,19.8c0.7,0,1.3,0.6,1.3,1.3s-0.6,1.3-1.3,1.3s-1.3-0.6-1.3-1.3S26,19.8,26.7,19.8L26.7,19.8"/>
<path class="st0" d="M31.8,19.8c0.7,0,1.3,0.6,1.3,1.3s-0.6,1.3-1.3,1.3s-1.3-0.6-1.3-1.3S31.1,19.8,31.8,19.8L31.8,19.8"/>
</svg>
