<?xml version="1.0" encoding="utf-8"?>
<!-- Generator: Adobe Illustrator 21.0.0, SVG Export Plug-In . SVG Version: 6.00 Build 0)  -->
<svg version="1.1" id="Layer_1" xmlns="http://www.w3.org/2000/svg" xmlns:xlink="http://www.w3.org/1999/xlink" x="0px" y="0px"
	 viewBox="0 0 46 46" style="enable-background:new 0 0 46 46;" xml:space="preserve">
<style type="text/css">
	.st0{fill:#642523;}
</style>
<title>gym</title>
<path class="st0" d="M28.8,34.5l0.1-1.2l0.5,0.2l-0.6-1.9c-0.1,0-0.2-0.1-0.3,0h-11c-0.3,0-0.7,0-1-0.1l-0.9,1.8l0.8,0.2l-0.1,1.1
	L13,34.5l0.1-1.2l1.1,0.2l1-2.2c-2.3-1-3.7-3.3-3.8-5.7c0-2.1,1.1-4.1,3-5.2c0.3-0.2,0.6-0.3,0.9-0.4l0.1-3.1l-0.3-0.1
	c-1,0-1.8-0.8-1.9-1.8c0-1,0.8-1.8,1.8-1.9h0.3l4.5,0.7c0.8,0.1,1.4,0.8,1.3,1.6c-0.1,0.8-0.8,1.4-1.6,1.3H19l-0.1,2.9
	c0.6,0.2,1.1,0.5,1.6,0.8l6.3,3.6l2.1-7.6l-1.5-0.2l0.1-1.2l5.1,0.1l0.9-3.6l1.2,0.4l-1,4.4l-0.9-0.1L30,25.7
	c0.8,0.7,1.2,1.6,1.2,2.6c0,1-0.5,2-1.4,2.6l0.9,2.4l1.4,0.1L32,34.6L28.8,34.5z M17.5,20.6c-0.9,0-1.7,0.2-2.5,0.7
	c-1.5,0.9-2.5,2.5-2.5,4.3c0,2.8,2.2,5,5,5l0,0H28c1.2,0,2.2-0.9,2.2-2c0-0.8-0.4-1.6-1.1-2l-9.2-5.3C19.2,20.8,18.3,20.6,17.5,20.6
	z M27.9,24.5l1,0.7l2.5-8.9L30,16.1L27.9,24.5z M16.5,16.7v2.7c0.2,0.1,0.3,0.1,0.5,0.1h0.7l0.2-2.7l-1.2-0.2L16.5,16.7z M15.1,14.1
	c-0.4,0-0.8,0.3-0.8,0.8c0,0.4,0.3,0.8,0.8,0.8h4.5c0.2,0,0.4-0.2,0.4-0.5c0-0.2-0.1-0.3-0.3-0.4l-4.4-0.7L15.1,14.1z"/>
<path class="st0" d="M19.4,29.6l0.1-1.2l-0.2-0.3c-0.6,0.3-1.2,0.4-1.9,0.5c-1.7,0-3.1-1.4-3.1-3.1c0-1.7,1.4-3.1,3.1-3.1
	s3.1,1.4,3.1,3.1c0,0.6-0.2,1.2-0.5,1.7l1.1,1.3h0.9l-0.1,1.1L19.4,29.6z M17.5,23.5c-1.1,0-2,1-1.9,2.1c0,1.1,1,2,2.1,1.9
	c0.2,0,0.5-0.1,0.7-0.1l-1.2-1.5l1-0.8l1,1.2c0.3-0.2,0.4-0.5,0.4-0.9C19.5,24.4,18.6,23.5,17.5,23.5C17.5,23.5,17.5,23.5,17.5,23.5
	z"/>
</svg>
