<svg id="Layer_1" data-name="Layer 1" xmlns="http://www.w3.org/2000/svg" viewBox="0 0 55.01 22.63"><defs><style>.cls-1{fill:#f48120;}.cls-2{fill:#005aa9;}</style></defs><title>hfc-logo</title><polygon class="cls-1" points="11.46 9.76 19.94 9.76 17.48 7.3 13.92 7.3 13.92 3.74 11.46 1.28 11.46 9.76"/><polygon class="cls-1" points="13.9 16.53 11.46 18.97 11.46 10.53 13.9 10.53 13.9 16.53"/><rect class="cls-1" x="14.68" y="4.5" width="2.05" height="2.05"/><polygon class="cls-2" points="2.26 10.53 4.7 12.97 8.25 12.97 8.25 16.52 10.69 18.96 10.69 10.53 2.26 10.53"/><polygon class="cls-2" points="10.69 1.17 8.25 3.62 8.25 9.76 10.69 9.76 10.69 1.17"/><rect class="cls-2" x="5.49" y="13.74" width="1.99" height="1.99"/><rect class="cls-2" x="4.98" y="4.04" width="2.5" height="5.71"/><path class="cls-2" d="M15.86,21H16c.6,0,1.11-.22,1.11-.9s-.52-.9-1.11-.9h-.1Zm-.29-2.07H16a1.18,1.18,0,1,1,0,2.34h-.47Z"/><path class="cls-2" d="M18.36,20h0a.42.42,0,0,1,.4-.28.44.44,0,0,1,.23.07l-.13.25a.24.24,0,0,0-.17-.06c-.3,0-.34.28-.34.52v.71h-.28V19.78h.28Z"/><path class="cls-2" d="M20.58,20.34a.39.39,0,0,0-.4-.36.42.42,0,0,0-.41.36Zm-.83.21a.46.46,0,0,0,.44.48.47.47,0,0,0,.43-.28l.24.13a.76.76,0,0,1-.67.4.71.71,0,0,1-.71-.76.69.69,0,0,1,.71-.78c.46,0,.68.34.68.77v0Z"/><path class="cls-2" d="M22.63,20.5a.47.47,0,1,0-.93,0,.47.47,0,1,0,.93,0m.26.73h-.28V21h0a.59.59,0,0,1-.49.28.78.78,0,0,1,0-1.55.59.59,0,0,1,.5.29h0v-.24h.28Z"/><path class="cls-2" d="M24,20h0a.47.47,0,0,1,.39-.23.46.46,0,0,1,.42.26.53.53,0,0,1,.45-.26c.38,0,.48.3.48.63v.87h-.28v-.82c0-.19,0-.42-.27-.42s-.32.31-.32.53v.71h-.28v-.77c0-.19,0-.48-.27-.48s-.32.31-.32.53v.71h-.28V19.78H24Z"/><path class="cls-2" d="M27.09,20.11A.21.21,0,0,0,26.9,20a.15.15,0,0,0-.15.14c0,.13.17.18.34.26s.34.18.34.41a.49.49,0,0,1-.5.48.54.54,0,0,1-.5-.33l.24-.11a.29.29,0,0,0,.26.19.21.21,0,0,0,.22-.2.17.17,0,0,0-.1-.16l-.27-.15c-.16-.09-.28-.17-.28-.37a.42.42,0,0,1,.43-.42.43.43,0,0,1,.4.25Z"/><polygon class="cls-2" points="30.59 20.63 29.79 18.79 29.31 21.23 29.61 21.23 29.89 19.68 29.89 19.68 30.59 21.28 31.29 19.68 31.3 19.68 31.57 21.23 31.88 21.23 31.4 18.79 30.59 20.63"/><path class="cls-2" d="M33.64,20.5a.47.47,0,1,0-.93,0,.47.47,0,1,0,.93,0m.26.73h-.28V21h0a.59.59,0,0,1-.49.28.78.78,0,0,1,0-1.55.59.59,0,0,1,.5.29h0v-.24h.28Z"/><path class="cls-2" d="M35.8,20.5a.48.48,0,0,0-.47-.52.53.53,0,1,0,.47.52m0,.5h0a.6.6,0,0,1-.49.28.78.78,0,0,1,0-1.55.59.59,0,0,1,.51.29h0V18.54h.28v2.69h-.28Z"/><path class="cls-2" d="M37.86,20.34a.39.39,0,0,0-.4-.36.42.42,0,0,0-.41.36Zm-.83.21a.46.46,0,0,0,.44.48.47.47,0,0,0,.43-.28l.24.13a.76.76,0,0,1-.67.4.71.71,0,0,1-.71-.76.69.69,0,0,1,.71-.78c.46,0,.68.34.68.77v0Z"/><path class="cls-2" d="M40.46,20h.09c.3,0,.62-.06.62-.43s-.35-.41-.64-.41h-.08Zm0,1.24h-.29V18.89h.34c.72,0,.94.25.94.68s-.38.68-.82.68h-.17Z"/><path class="cls-2" d="M42.26,20.51a.5.5,0,1,0,.5-.51.5.5,0,0,0-.5.51m1.27,0a.78.78,0,1,1-.78-.77.76.76,0,0,1,.78.77"/><path class="cls-2" d="M44.8,20.11a.21.21,0,0,0-.19-.13.15.15,0,0,0-.15.14c0,.13.17.18.34.26s.34.18.34.41a.49.49,0,0,1-.5.48.54.54,0,0,1-.5-.33l.24-.11a.29.29,0,0,0,.26.19.21.21,0,0,0,.22-.2.17.17,0,0,0-.1-.16l-.27-.15c-.16-.09-.28-.17-.28-.37a.42.42,0,0,1,.43-.42A.43.43,0,0,1,45,20Z"/><path class="cls-2" d="M46.43,20.11a.21.21,0,0,0-.19-.13.15.15,0,0,0-.15.14c0,.13.17.18.34.26s.34.18.34.41a.49.49,0,0,1-.5.48.54.54,0,0,1-.5-.33l.24-.11a.29.29,0,0,0,.26.19.21.21,0,0,0,.22-.2.17.17,0,0,0-.1-.16l-.27-.15c-.16-.09-.28-.17-.28-.37a.42.42,0,0,1,.43-.42.43.43,0,0,1,.4.25Z"/><path class="cls-2" d="M47.82,21.23h-.28V19.78h.28Zm.05-2.12a.19.19,0,0,1-.39,0,.19.19,0,1,1,.39,0"/><path class="cls-2" d="M49.87,20.5a.47.47,0,1,0-.93,0,.47.47,0,1,0,.93,0m-1.19-2H49V20h0a.6.6,0,0,1,.51-.29.78.78,0,0,1,0,1.55A.6.6,0,0,1,49,21h0v.23h-.28Z"/><rect class="cls-2" x="50.87" y="18.54" width="0.28" height="2.69"/><path class="cls-2" d="M53,20.34a.39.39,0,0,0-.4-.36.42.42,0,0,0-.41.36Zm-.83.21a.46.46,0,0,0,.44.48.47.47,0,0,0,.43-.28l.24.13a.76.76,0,0,1-.67.4.71.71,0,0,1-.71-.76.69.69,0,0,1,.71-.78c.46,0,.68.34.68.77v0Z"/><polygon class="cls-2" points="15.43 10.43 16.59 10.43 16.59 12.7 18.59 12.7 18.59 10.43 19.75 10.43 19.75 16.44 18.59 16.44 18.59 13.8 16.59 13.8 16.59 16.44 15.43 16.44 15.43 10.43"/><polygon class="cls-2" points="21.14 10.43 24.12 10.43 24.12 11.55 22.27 11.55 22.27 12.64 24.12 12.64 24.12 13.73 22.27 13.73 22.27 16.44 21.14 16.44 21.14 10.43"/><path class="cls-2" d="M30.65,11.49l-.8.76A2.48,2.48,0,0,0,28,11.39a2,2,0,0,0-2,2,2.15,2.15,0,0,0,.26,1.07,1.87,1.87,0,0,0,.74.73,2.15,2.15,0,0,0,1.06.27,2.19,2.19,0,0,0,.91-.19,3.27,3.27,0,0,0,.91-.68l.77.81a4.23,4.23,0,0,1-1.26.9,3.44,3.44,0,0,1-1.35.25,3.11,3.11,0,0,1-2.29-.89,3.07,3.07,0,0,1-.89-2.28,3.11,3.11,0,0,1,.41-1.6,3,3,0,0,1,1.16-1.12A3.28,3.28,0,0,1,28,10.28a3.47,3.47,0,0,1,2.62,1.21"/></svg>