<svg xmlns="http://www.w3.org/2000/svg" xmlns:xlink="http://www.w3.org/1999/xlink" viewBox="0 0 357.33 253.09"><defs><style>.cls-1{fill:none;}.cls-2{clip-path:url(#clip-path);}.cls-3{fill:#fff;}</style><clipPath id="clip-path"><rect class="cls-1" x="2.72" y="2.72" width="351.11" height="250.37"/></clipPath></defs><title>house-plan</title><g id="OBJECTS"><g class="cls-2"><rect class="cls-3" x="82.16" y="115.76" width="0.5" height="15.55" transform="translate(-41.21 41.25) rotate(-22.65)"/><rect class="cls-3" x="85.33" y="112.59" width="0.5" height="15.55" transform="translate(-39.75 42.23) rotate(-22.65)"/><rect class="cls-3" x="88.5" y="109.42" width="0.5" height="15.55" transform="translate(-38.28 43.21) rotate(-22.65)"/><rect class="cls-3" x="91.66" y="106.25" width="0.5" height="15.55" transform="translate(-36.82 44.18) rotate(-22.65)"/><rect class="cls-3" x="94.83" y="103.08" width="0.5" height="15.55" transform="translate(-35.35 45.16) rotate(-22.65)"/><rect class="cls-3" x="98" y="99.91" width="0.5" height="15.55" transform="translate(-33.89 46.13) rotate(-22.65)"/><polygon class="cls-3" points="104.65 111.6 98.65 97.25 98.19 97.45 104.19 111.79 104.65 111.6"/><rect class="cls-3" x="104.37" y="93.52" width="0.5" height="15.59" transform="translate(-30.67 47.4) rotate(-22.35)"/><rect class="cls-3" x="107.46" y="90.48" width="0.5" height="15.5" transform="translate(-29.95 50.28) rotate(-23.16)"/><rect class="cls-3" x="110.68" y="87.23" width="0.5" height="15.55" transform="translate(-28.03 50.04) rotate(-22.65)"/><rect class="cls-3" x="113.85" y="84.06" width="0.5" height="15.55" transform="translate(-26.56 51.01) rotate(-22.65)"/><rect class="cls-3" x="117.02" y="80.89" width="0.5" height="15.55" transform="translate(-25.1 51.99) rotate(-22.65)"/><rect class="cls-3" x="120.19" y="77.72" width="0.5" height="15.56" transform="translate(-23.62 52.89) rotate(-22.62)"/><rect class="cls-3" x="123.34" y="74.58" width="0.5" height="15.53" transform="translate(-22.27 54.41) rotate(-22.83)"/><rect class="cls-3" x="126.62" y="71.24" width="0.5" height="15.66" transform="translate(-20.27 52.65) rotate(-21.75)"/><rect class="cls-3" x="129.69" y="68.23" width="0.5" height="15.54" transform="translate(-19.28 56.17) rotate(-22.75)"/><rect class="cls-3" x="132.87" y="65.05" width="0.5" height="15.55" transform="translate(-17.78 56.88) rotate(-22.65)"/><rect class="cls-3" x="136.04" y="61.88" width="0.5" height="15.55" transform="translate(-16.31 57.85) rotate(-22.65)"/><rect class="cls-3" x="139.21" y="58.71" width="0.5" height="15.55" transform="translate(-14.85 58.83) rotate(-22.65)"/><polygon class="cls-3" points="145.34 70.63 145.8 70.44 145.79 70.42 145.85 70.39 139.86 56.04 139.4 56.23 139.41 56.26 139.35 56.28 145.34 70.63"/><rect class="cls-3" x="145.5" y="52.42" width="0.5" height="15.55" transform="translate(-11.94 60.76) rotate(-22.65)"/><rect class="cls-3" x="148.67" y="49.25" width="0.5" height="15.55" transform="translate(-10.47 61.73) rotate(-22.65)"/><rect class="cls-3" x="151.84" y="46.08" width="0.5" height="15.55" transform="translate(-9.01 62.71) rotate(-22.65)"/><rect class="cls-3" x="155.01" y="42.91" width="0.5" height="15.55" transform="translate(-7.54 63.69) rotate(-22.65)"/><rect class="cls-3" x="158.18" y="39.74" width="0.5" height="15.55" transform="translate(-6.08 64.66) rotate(-22.65)"/><polygon class="cls-3" points="164.82 51.42 158.82 37.08 158.36 37.27 164.36 51.62 164.82 51.42"/><rect class="cls-3" x="164.54" y="33.35" width="0.5" height="15.59" transform="translate(-3.26 65.77) rotate(-22.35)"/><rect class="cls-3" x="167.63" y="30.31" width="0.5" height="15.5" transform="translate(-1.44 69.08) rotate(-23.16)"/><rect class="cls-3" x="170.85" y="27.06" width="0.5" height="15.55" transform="translate(-0.22 68.57) rotate(-22.65)"/><rect class="cls-3" x="174.02" y="23.89" width="0.5" height="15.55" transform="translate(1.24 69.54) rotate(-22.65)"/><rect class="cls-3" x="177.19" y="20.72" width="0.5" height="15.55" transform="translate(2.71 70.52) rotate(-22.65)"/><rect class="cls-3" x="180.36" y="17.55" width="0.5" height="15.56" transform="translate(4.15 71.41) rotate(-22.62)"/><rect class="cls-3" x="183.51" y="14.41" width="0.5" height="15.53" transform="translate(5.79 73.05) rotate(-22.83)"/><rect class="cls-3" x="186.79" y="11.07" width="0.5" height="15.66" transform="translate(6.32 70.66) rotate(-21.75)"/><rect class="cls-3" x="189.86" y="8.06" width="0.5" height="15.54" transform="translate(8.68 74.77) rotate(-22.76)"/><path class="cls-3" d="M188.71,193,177.28,204.4l17.29,17.29L206,210.26ZM178,204.4l10.72-10.72,16.58,16.58L194.57,221Z"/><path class="cls-3" d="M176.09,197.58a4.1,4.1,0,1,0,0-5.79A4.07,4.07,0,0,0,176.09,197.58Zm.35-5.44a3.6,3.6,0,1,1,0,5.09A3.57,3.57,0,0,1,176.45,192.14Z"/><path class="cls-3" d="M204.27,215.86a4.1,4.1,0,1,0,2.9,1.2A4.07,4.07,0,0,0,204.27,215.86Zm2.54,6.64a3.6,3.6,0,1,1,0-5.09A3.57,3.57,0,0,1,206.81,222.5Z"/><path class="cls-3" d="M205.47,197.31a4.1,4.1,0,1,0,2.9,1.2A4.07,4.07,0,0,0,205.47,197.31ZM208,204a3.6,3.6,0,1,1,0-5.09A3.58,3.58,0,0,1,208,204Z"/><path class="cls-3" d="M198.18,198.22a4.09,4.09,0,1,0-2.9-1.2A4.09,4.09,0,0,0,198.18,198.22Zm-2.54-6.64a3.6,3.6,0,1,1-1.05,2.54A3.59,3.59,0,0,1,195.64,191.58Z"/><path class="cls-3" d="M185.64,217.14a4.1,4.1,0,1,0,2.9,1.2A4.07,4.07,0,0,0,185.64,217.14Zm2.54,6.64a3.6,3.6,0,1,1,0-5.09A3.57,3.57,0,0,1,188.18,223.78Z"/><path class="cls-3" d="M181.25,211.06a4.07,4.07,0,0,0-2.9-1.2h0a4.1,4.1,0,1,0,2.9,1.2Zm-.35,5.44a3.6,3.6,0,1,1-2.54-6.14h0a3.6,3.6,0,0,1,2.54,6.14Z"/><path class="cls-3" d="M227.85,137.07l.27,0,17.17,17.17.13-.13a1.86,1.86,0,0,0,3.11,1.81l7.93-7.93a1.86,1.86,0,0,0-1.15-3.17l.08-.08L237.71,127l-.08.08a1.84,1.84,0,0,0-.53-1.15,1.92,1.92,0,0,0-2.64,0l-7.93,7.93a1.86,1.86,0,0,0,1.32,3.18Zm7.35-6.57,8,8L236.78,145l-8.11-8.11a1.84,1.84,0,0,0,.51-.35Zm1.93,14.84,6.46-6.45,8.34,8.34-6,6a1.84,1.84,0,0,0-.35.51Zm19,2.26-7.93,7.93a1.4,1.4,0,0,1-1.93,0,1.37,1.37,0,0,1,0-1.93l7.93-7.93a1.37,1.37,0,1,1,1.93,1.93Zm-1.33-2.79a1.85,1.85,0,0,0-1,.51l-1.55,1.55-16.73-16.73,1.55-1.55a1.85,1.85,0,0,0,.51-1Zm-27.9-10.57,7.93-7.93a1.4,1.4,0,0,1,1.93,0,1.37,1.37,0,0,1,0,1.93l-7.93,7.93a1.29,1.29,0,0,1-.55.31h0a1.39,1.39,0,0,1-1.37-.31A1.37,1.37,0,0,1,226.89,134.24Z"/><path class="cls-3" d="M246.45,165.4a1.92,1.92,0,0,0-2.64,0,1.86,1.86,0,0,0-.52,1.59l-17.17,17.17.16.16a1.9,1.9,0,0,0-1.84.45,1.87,1.87,0,0,0,0,2.64l7.93,7.93a1.85,1.85,0,0,0,3.17-1.15l.08.08,17.68-17.68-.08-.08a1.86,1.86,0,0,0,1.15-3.17ZM243.81,168l6,6-8,8-6.45-6.45,8.11-8.11A1.84,1.84,0,0,0,243.81,168ZM235,176l6.45,6.45-8.34,8.34-6-6a1.74,1.74,0,0,0-.51-.35Zm-.33,19a1.4,1.4,0,0,1-1.93,0L224.8,187a1.37,1.37,0,0,1,0-1.93,1.4,1.4,0,0,1,1.93,0l7.93,7.93a1.37,1.37,0,0,1,0,1.93Zm.86-1.33a1.85,1.85,0,0,0-.51-1l-1.55-1.55,16.73-16.73,1.55,1.55a1.85,1.85,0,0,0,1,.51Zm18.5-18a1.4,1.4,0,0,1-1.93,0l-7.93-7.93a1.33,1.33,0,0,1-.32-.54h0l0,0a1.35,1.35,0,0,1,.32-1.36,1.4,1.4,0,0,1,1.93,0l7.93,7.93a1.37,1.37,0,0,1,0,1.93Z"/><path class="cls-3" d="M122.64,229.28a3.86,3.86,0,0,0,2.74-1.13l1.29-1.29a2.54,2.54,0,0,0,2.93-4.06l-4.35-4.35a2.54,2.54,0,0,0-4.06,2.93l-1.29,1.29a3.87,3.87,0,0,0,2.74,6.61ZM122,218.81a2,2,0,0,1,2.89,0l4.35,4.35a2,2,0,0,1,0,2.89,2.1,2.1,0,0,1-2.89,0L122,221.7a2,2,0,0,1,0-2.89ZM120.26,223l1.21-1.21a2.53,2.53,0,0,0,.19.23L126,226.4a2.52,2.52,0,0,0,.23.19L125,227.8a3.37,3.37,0,1,1-4.77-4.77Z"/><path class="cls-3" d="M53.09,138.29,33.37,158l26.27,26.27,19.72-19.72ZM34.08,158l19-19,25.57,25.57-19,19Z"/><path class="cls-3" d="M45.79,151.39a1.73,1.73,0,0,0-2.38,0l-5.1,5.1a1.69,1.69,0,0,0,0,2.39l1.93,1.93a1.69,1.69,0,0,0,2.39,0l5.1-5.1a1.69,1.69,0,0,0,0-2.39Zm1.58,4-5.1,5.1a1.22,1.22,0,0,1-1.68,0l-1.93-1.93a1.19,1.19,0,0,1,0-1.68l5.1-5.1a1.19,1.19,0,0,1,1.68,0l1.93,1.93A1.19,1.19,0,0,1,47.37,155.35Z"/><path class="cls-3" d="M54.29,142.89a1.73,1.73,0,0,0-2.38,0l-5.1,5.1a1.69,1.69,0,0,0,0,2.39l1.93,1.93a1.69,1.69,0,0,0,2.39,0l5.1-5.1a1.69,1.69,0,0,0,0-2.39Zm1.58,4-5.1,5.1a1.19,1.19,0,0,1-1.68,0L47.16,150a1.19,1.19,0,0,1,0-1.68l5.1-5.1a1.19,1.19,0,0,1,1.68,0l1.93,1.93A1.19,1.19,0,0,1,55.87,146.85Z"/><path class="cls-3" d="M341,200.61,268.38,128l17.33-17.33,1-1-5.27-5.27-.07-.07h0L278,100.94h0l-1-1h0l-3.39-3.39h0l-1-1h0l-3.39-3.39h0L269,92l-4.8-4.8-.3-.3h0L213.83,36.82l-1-1-18.3,18.3-8.28-8.28-.49.49-.49.49L140.63,91.51l-1,1L123,109.14l-1.72-1.72-18.32,18.32,1.72,1.72L89.29,142.85,64.74,118.3l-.49.49h0L18.7,164.34l-1,1,1,1h0l6.4,6.4-1.72,1.72L41.7,192.73,43.42,191l8,8-1.72,1.72L68,219l1.72-1.72,18.08,18.08-1.72,1.72,18.32,18.32,1.72-1.72,22.55,22.55L126.93,278l18.32,18.32,1.72-1.72,24.53,24.53h0l1,1,1-1h0l13.32-13.32,1.72,1.72,18.32-18.32-1.72-1.72L218.51,274l1-1-1-1L194.46,248l26.08-26.08,26.21,26.21,1,1,10.23,10.23,1,1,10.23,10.23,1,1,1-1h0l69.45-69.45ZM267.41,127,264,123.61l17.33-17.33,3.39,3.39Zm13-21.7L263,122.64l-3.39-3.39L277,101.91ZM276,100.94l-17.33,17.33-3.39-3.39,17.33-17.33Zm-4.36-4.36-17.33,17.33-3.39-3.39,17.33-17.33Zm-25.09,9.58L263.9,88.82l3.39,3.39L250,109.55l-3.39-3.39ZM174.71,59.37l35.07,35.07L189,115.23a18.39,18.39,0,0,0-25-.38L141.6,92.48Zm-53.44,48.75,3.71,3.71-17.62,17.62-3.71-3.71Zm-15.63,20.31,1.72,1.72,18.32-18.32L124,110.11l16.66-16.66L163,115.8a18.34,18.34,0,0,0,0,25.41l-37.68,37.68L90.26,143.82Zm-81.56,46,3.71-3.71,17.62,17.62L41.7,192Zm26.27,26.27L54.07,197l17.62,17.62L68,218.3Zm36.41,36.41,3.71-3.71L108.09,251l-3.71,3.71ZM127.64,278l3.71-3.71L149,291.87l-3.71,3.71Zm60.85,28.83-3.71-3.71,17.62-17.62,3.71,3.71Zm5-59.74L161.7,215.26l-1,1L193,248.5h0l5,5,9,9h0l10.56,10.56-13.43,13.43-1.72-1.72-18.32,18.32,1.72,1.72-13.32,13.32-24.53-24.53,1.72-1.72-18.32-18.32-1.72,1.72-13-13,26.89-26.89,1-1h0l4.23-4.23a18.37,18.37,0,0,0,25.5-.46l-.35-.35a17.9,17.9,0,0,1-24.79.46l.05-.05-1-1-4.63,4.63L120.4,210.32l-1,1,.33.33a17.9,17.9,0,0,1-24.54-.69l-.35.35a18.37,18.37,0,0,0,25.25.69l22.43,22.43L115.66,261.3l-8.58-8.58L108.8,251,90.47,232.67l-1.72,1.72-8.5-8.5,2.41-2.41a5.16,5.16,0,0,0,7.28,0l1-1a5.16,5.16,0,0,0,0-7.28l21.85-21.85-1-1-.12.12a17.9,17.9,0,0,1,.26-25l-.35-.35a18.4,18.4,0,0,0-.26,25.72L79.28,224.93l-8.61-8.61,1.72-1.72L54.07,196.27,52.35,198l-8-8,1.72-1.72L27.8,170l-1.72,1.72-6.4-6.4,45.07-45.07,23.57,23.57h0l1,1,15,15h0l-.71.71a.25.25,0,1,0,.35.35l.71-.71h0l19.73,19.73,1,1,1-1,38.19-38.19-1-1-.16.16a17.84,17.84,0,0,1,0-24.7l12.36,12.36-1.78,1.78,1,1,1.78-1.78,1-1,1.46-1.46-1-1-1.46,1.46L164.32,115.2a17.9,17.9,0,0,1,24.6.64l0,0,.7.7,21.11-21.11h0l1-1-36-36,10.59-10.59,13.25,13.25,1-1-5-5,17.33-17.33,50.06,50.06-17.33,17.33-3.38-3.38,1.72-1.72L225.61,81.76l-1.72,1.72L211.53,71.12l-1,1,12.36,12.36-1.72,1.72,18.32,18.32,1.72-1.72,3.38,3.38h0l.8.8-.22.22a.25.25,0,1,0,.35.35l.22-.22L289.5,151l-69,69h0l-1,1h0ZM90.61,215.55a4.66,4.66,0,0,1,0,6.58l-1,1a4.66,4.66,0,0,1-6.58,0Zm135-133.08,17.62,17.62-3.71,3.71L221.9,86.17ZM221.5,221l69-69,26.21,26.21-69,69Zm27.18,27.18,69-69,10.23,10.23-69,69Zm11.2,11.2,69-69,10.23,10.23-69,69Z"/><path class="cls-3" d="M81.92,202.49,89.44,210l13-13-7.52-7.52Zm7.52,6.81-6.81-6.81L94.9,190.22l6.81,6.81Z"/><path class="cls-3" d="M144.31,238.92l-13,13,7.52,7.52,13-13ZM132,251.9l12.27-12.27,6.81,6.81-12.27,12.27Z"/><path class="cls-3" d="M71.47,135.16,64,127.64l-8.88,8.88L62.59,144ZM64,128.35l6.81,6.81-8.18,8.18-6.81-6.81Z"/><path class="cls-3" d="M227.06,152.52a10.73,10.73,0,1,0,0,15.19A10.66,10.66,0,0,0,227.06,152.52Zm-7.59,17.82a10.23,10.23,0,1,1,7.24-3A10.17,10.17,0,0,1,219.46,170.34Z"/><path class="cls-3" d="M260.48,218.22a9.59,9.59,0,1,0-2.81,6.8A9.55,9.55,0,0,0,260.48,218.22Zm-9.61,9.11a9.08,9.08,0,1,1,6.45-2.66A9.06,9.06,0,0,1,250.87,227.33Z"/><path class="cls-3" d="M258.42,206.4,256.87,208l4.26,4.26,1.55-1.55Zm-.84,1.55.84-.84,3.55,3.55-.84.84Z"/><path class="cls-3" d="M262,222.48l2.18.24.67-6-2.18-.24Zm2.29-5.3-.55,5-1.18-.13.55-5Z"/><path class="cls-3" d="M254.48,229.55l1.17,1.85,5.09-3.22-1.17-1.85Zm1.33,1.16-.64-1,4.25-2.69.64,1Z"/><path class="cls-3" d="M243.56,230.19l5.7,2,.71-2.07-5.7-2Zm5.77.2-.39,1.13-4.75-1.63.39-1.13Z"/><path class="cls-3" d="M237,220l2,5.67,2.06-.74-2-5.67Zm2.33,5-1.69-4.73,1.12-.4,1.69,4.73Z"/><path class="cls-3" d="M242.65,209.62l-1.87-1.15-3.16,5.13,1.87,1.15Zm-4.34,3.82,2.64-4.28,1,.63-2.64,4.28Z"/><path class="cls-3" d="M252.45,206.43l-.27-2.17-6,.74.27,2.17Zm-.7-1.62.15,1.18-5,.61-.15-1.18Z"/><path class="cls-3" d="M289.58,156.27,258.65,187.2l9.84,9.84,30.93-30.93ZM259.36,187.2,289.58,157l9.13,9.14-30.22,30.22Z"/><path class="cls-3" d="M195.87,157.1a.25.25,0,0,0,.18-.07l.71-.71a.25.25,0,1,0-.35-.35l-.71.71a.25.25,0,0,0,.18.43Z"/><path class="cls-3" d="M199.41,153.56a.25.25,0,0,0,.18-.07l.71-.71a.25.25,0,0,0-.35-.35l-.71.71a.25.25,0,0,0,.18.43Z"/><path class="cls-3" d="M188.8,164.17a.25.25,0,0,0,.18-.07l.71-.71a.25.25,0,0,0-.35-.35l-.71.71a.25.25,0,0,0,.18.43Z"/><path class="cls-3" d="M181.73,171.24a.25.25,0,0,0,.18-.07l.71-.71a.25.25,0,1,0-.35-.35l-.71.71a.25.25,0,0,0,.18.43Z"/><path class="cls-3" d="M150.44,201.92l-.71.71a.25.25,0,1,0,.35.35l.71-.71a.25.25,0,0,0-.35-.35Z"/><path class="cls-3" d="M178.2,174.77a.25.25,0,0,0,.18-.07l.71-.71a.25.25,0,0,0-.35-.35l-.71.71a.25.25,0,0,0,.18.43Z"/><path class="cls-3" d="M174.66,178.31a.25.25,0,0,0,.18-.07l.71-.71a.25.25,0,0,0-.35-.35l-.71.71a.25.25,0,0,0,.18.43Z"/><path class="cls-3" d="M192.34,160.63a.25.25,0,0,0,.18-.07l.71-.71a.25.25,0,0,0-.35-.35l-.71.71a.25.25,0,0,0,.18.43Z"/><path class="cls-3" d="M151.62,205.46a.25.25,0,0,0-.35.35l.71.71a.25.25,0,0,0,.35-.35Z"/><path class="cls-3" d="M185.27,167.7a.25.25,0,0,0,.18-.07l.71-.71a.25.25,0,0,0-.35-.35l-.71.71a.25.25,0,0,0,.18.43Z"/><path class="cls-3" d="M154,198.39l-.71.71a.25.25,0,1,0,.35.35l.71-.71a.25.25,0,0,0-.35-.35Z"/><path class="cls-3" d="M202.94,150a.25.25,0,0,0,.18-.07l.71-.71a.25.25,0,1,0-.35-.35l-.71.71a.25.25,0,0,0,.18.43Z"/><path class="cls-3" d="M206.48,146.49a.25.25,0,0,0,.18-.07l.71-.71a.25.25,0,0,0-.35-.35l-.71.71a.25.25,0,0,0,.18.43Z"/><path class="cls-3" d="M234.76,118.2a.25.25,0,0,0,.18-.07l.71-.71a.25.25,0,1,0-.35-.35l-.71.71a.25.25,0,0,0,.18.43Z"/><path class="cls-3" d="M164.58,187.78l-.71.71a.25.25,0,1,0,.35.35l.71-.71a.25.25,0,1,0-.35-.35Z"/><path class="cls-3" d="M168.12,184.25l-.71.71a.25.25,0,1,0,.35.35l.71-.71a.25.25,0,1,0-.35-.35Z"/><path class="cls-3" d="M224.16,128.81a.25.25,0,0,0,.18-.07L225,128a.25.25,0,0,0-.35-.35l-.71.71a.25.25,0,0,0,.18.43Z"/><path class="cls-3" d="M171.66,180.71l-.71.71a.25.25,0,1,0,.35.35l.71-.71a.25.25,0,1,0-.35-.35Z"/><path class="cls-3" d="M227.69,125.28a.25.25,0,0,0,.18-.07l.71-.71a.25.25,0,1,0-.35-.35l-.71.71a.25.25,0,0,0,.18.43Z"/><path class="cls-3" d="M238.3,114.67a.25.25,0,0,0,.18-.07l.71-.71a.25.25,0,0,0-.35-.35l-.71.71a.25.25,0,0,0,.18.43Z"/><path class="cls-3" d="M231.23,121.74a.25.25,0,0,0,.18-.07l.71-.71a.25.25,0,0,0-.35-.35l-.71.71a.25.25,0,0,0,.18.43Z"/><path class="cls-3" d="M241.84,111.13a.25.25,0,0,0,.18-.07l.71-.71a.25.25,0,1,0-.35-.35l-.71.71a.25.25,0,0,0,.18.43Z"/><path class="cls-3" d="M161,191.32l-.71.71a.25.25,0,1,0,.35.35l.71-.71a.25.25,0,0,0-.35-.35Z"/><path class="cls-3" d="M157.51,194.85l-.71.71a.25.25,0,1,0,.35.35l.71-.71a.25.25,0,1,0-.35-.35Z"/><path class="cls-3" d="M158.69,212.53a.25.25,0,0,0-.35.35l.71.71a.25.25,0,0,0,.35-.35Z"/><path class="cls-3" d="M220.62,132.35a.25.25,0,0,0,.18-.07l.71-.71a.25.25,0,1,0-.35-.35l-.71.71a.25.25,0,0,0,.18.43Z"/><path class="cls-3" d="M155.15,209a.25.25,0,1,0-.35.35l.71.71a.25.25,0,0,0,.35-.35Z"/><path class="cls-3" d="M217.09,135.88a.25.25,0,0,0,.18-.07l.71-.71a.25.25,0,0,0-.35-.35l-.71.71a.25.25,0,0,0,.18.43Z"/><path class="cls-3" d="M213.55,139.42a.25.25,0,0,0,.18-.07l.71-.71a.25.25,0,0,0-.35-.35l-.71.71a.25.25,0,0,0,.18.43Z"/><path class="cls-3" d="M210,143a.25.25,0,0,0,.18-.07l.71-.71a.25.25,0,1,0-.35-.35l-.71.71a.25.25,0,0,0,.18.43Z"/><path class="cls-3" d="M96.67,168a.25.25,0,0,0,.18-.07l.71-.71a.25.25,0,1,0-.35-.35l-.71.71a.25.25,0,0,0,.18.43Z"/><path class="cls-3" d="M61.85,202.21l-.71.71a.25.25,0,1,0,.35.35l.71-.71a.25.25,0,1,0-.35-.35Z"/><path class="cls-3" d="M86.07,178.59a.25.25,0,0,0,.18-.07l.71-.71a.25.25,0,1,0-.35-.35l-.71.71a.25.25,0,0,0,.18.43Z"/><path class="cls-3" d="M82.53,182.13a.25.25,0,0,0,.18-.07l.71-.71a.25.25,0,0,0-.35-.35l-.71.71a.25.25,0,0,0,.18.43Z"/><path class="cls-3" d="M65.38,198.67l-.71.71a.25.25,0,1,0,.35.35l.71-.71a.25.25,0,0,0-.35-.35Z"/><path class="cls-3" d="M79.52,184.53l-.71.71a.25.25,0,1,0,.35.35l.71-.71a.25.25,0,0,0-.35-.35Z"/><path class="cls-3" d="M68.92,195.14l-.71.71a.25.25,0,1,0,.35.35l.71-.71a.25.25,0,0,0-.35-.35Z"/><path class="cls-3" d="M72.45,191.6l-.71.71a.25.25,0,1,0,.35.35l.71-.71a.25.25,0,0,0-.35-.35Z"/><path class="cls-3" d="M76,188.07l-.71.71a.25.25,0,1,0,.35.35l.71-.71a.25.25,0,1,0-.35-.35Z"/><path class="cls-3" d="M100.21,164.45a.25.25,0,0,0,.18-.07l.71-.71a.25.25,0,1,0-.35-.35L100,164a.25.25,0,0,0,.18.43Z"/><path class="cls-3" d="M89.6,175.06a.25.25,0,0,0,.18-.07l.71-.71a.25.25,0,1,0-.35-.35l-.71.71a.25.25,0,0,0,.18.43Z"/><path class="cls-3" d="M93.14,171.52a.25.25,0,0,0,.18-.07l.71-.71a.25.25,0,0,0-.35-.35l-.71.71a.25.25,0,0,0,.18.43Z"/><path class="cls-3" d="M102,221.4H102a8.55,8.55,0,0,1,.93-.26.25.25,0,0,0,.19-.3.25.25,0,0,0-.3-.19,9,9,0,0,0-1,.28.25.25,0,0,0,.08.49Z"/><path class="cls-3" d="M104.31,238.33h.49l.53,0a.25.25,0,0,0,.24-.26.25.25,0,0,0-.26-.23,8.7,8.7,0,0,1-1,0,.25.25,0,0,0-.26.24A.25.25,0,0,0,104.31,238.33Z"/><path class="cls-3" d="M106.84,221.17a8.52,8.52,0,0,1,.93.29l.09,0a.25.25,0,0,0,.09-.48,9,9,0,0,0-1-.3.25.25,0,1,0-.12.49Z"/><path class="cls-3" d="M109.12,237.2a.25.25,0,0,0,.12,0,8.85,8.85,0,0,0,.86-.56.25.25,0,0,0-.3-.4,8.45,8.45,0,0,1-.81.53.25.25,0,0,0,.12.47Z"/><path class="cls-3" d="M96.44,232.61a9.08,9.08,0,0,0,.42.94.25.25,0,0,0,.22.13l.12,0a.25.25,0,0,0,.11-.34,8.59,8.59,0,0,1-.4-.89.25.25,0,1,0-.47.18Z"/><path class="cls-3" d="M96.1,228.84h0a.25.25,0,0,0,.25-.23,8.35,8.35,0,0,1,.14-1,.25.25,0,0,0-.19-.3.25.25,0,0,0-.3.19,8.89,8.89,0,0,0-.15,1A.25.25,0,0,0,96.1,228.84Z"/><path class="cls-3" d="M111.43,224.13a.25.25,0,1,0,.39-.31,9.38,9.38,0,0,0-.68-.77.25.25,0,1,0-.35.35A8.81,8.81,0,0,1,111.43,224.13Z"/><path class="cls-3" d="M97.95,224.26a.25.25,0,0,0,.2-.1,8.72,8.72,0,0,1,.64-.73.25.25,0,0,0-.36-.35,9.06,9.06,0,0,0-.68.77.25.25,0,0,0,.2.4Z"/><path class="cls-3" d="M100.39,237.19a.25.25,0,0,0,.25-.44,8.32,8.32,0,0,1-.82-.53.25.25,0,1,0-.29.4A8.85,8.85,0,0,0,100.39,237.19Z"/><path class="cls-3" d="M112.54,233.64a.25.25,0,0,0,.22-.14,8.76,8.76,0,0,0,.42-.94.25.25,0,1,0-.47-.18,8.4,8.4,0,0,1-.4.89.25.25,0,0,0,.22.37Z"/><path class="cls-3" d="M113.47,228.8h0a.25.25,0,0,0,.22-.27,9.12,9.12,0,0,0-.16-1,.25.25,0,1,0-.49.1,8.82,8.82,0,0,1,.15,1A.25.25,0,0,0,113.47,228.8Z"/><path class="cls-3" d="M118.67,253.34a3.83,3.83,0,0,0,2.72-1.13L132,241.6a3.85,3.85,0,1,0-5.45-5.45l-10.61,10.61a3.85,3.85,0,0,0,2.72,6.58Zm-2.37-6.22,10.61-10.61a3.35,3.35,0,0,1,4.74,4.74L121,251.86a3.35,3.35,0,1,1-4.74-4.74Z"/><path class="cls-3" d="M186.51,104.93,197,94.44l-17.9-17.9L168.61,87Zm9.78-10.49-9.78,9.78L169.32,87l9.78-9.78Z"/><path class="cls-3" d="M144.25,92.57l4.13,4.13,8.35-8.35-4.13-4.13ZM148.38,96,145,92.57l7.65-7.65L156,88.34Z"/><path class="cls-3" d="M167.69,77.39l-4.13-4.13-8.36,8.35,4.13,4.13ZM163.56,74,167,77.39,159.33,85l-3.42-3.42Z"/><path class="cls-3" d="M178.64,66.44l-4.13-4.13-8.35,8.35,4.13,4.13ZM174.51,63l3.42,3.42-7.65,7.65-3.42-3.42Z"/><path class="cls-3" d="M130.51,167.1l-27.19-27.19-7.63,7.63,27.19,27.19ZM122.88,174l-5.22-5.22,6.93-6.93,5.22,5.22Zm-5.57-5.57-6.8-6.8,6.93-6.93,6.8,6.8Zm-14-27.84,13.76,13.76-6.93,6.93L96.39,147.54Z"/><path class="cls-3" d="M115.88,160.54a1.65,1.65,0,1,0,0,2.33A1.65,1.65,0,0,0,115.88,160.54Zm-.35,2a1.15,1.15,0,1,1,0-1.62A1.15,1.15,0,0,1,115.53,162.52Z"/><path class="cls-3" d="M116.31,157.78a1.65,1.65,0,1,0,2.33,0A1.65,1.65,0,0,0,116.31,157.78Zm2,2a1.15,1.15,0,1,1,0-1.62A1.15,1.15,0,0,1,118.29,159.75Z"/><path class="cls-3" d="M116.23,163.22a1.65,1.65,0,1,0,2.33,0A1.65,1.65,0,0,0,116.23,163.22Zm2,2a1.15,1.15,0,1,1,0-1.62A1.15,1.15,0,0,1,118.21,165.2Z"/><path class="cls-3" d="M119,162.79a1.65,1.65,0,1,0,0-2.33A1.64,1.64,0,0,0,119,162.79Zm.35-2a1.15,1.15,0,1,1,0,1.62A1.14,1.14,0,0,1,119.35,160.81Z"/><path class="cls-3" d="M113,153.38a1.22,1.22,0,0,0,0-1.72l-4.61-4.61a1.25,1.25,0,0,0-1.72,0l-3.83,3.83a1.22,1.22,0,0,0,0,1.72l4.61,4.61a1.22,1.22,0,0,0,1.72,0Zm-5.2,3.48-4.61-4.61a.72.72,0,0,1,0-1L107,147.4a.72.72,0,0,1,1,0l4.61,4.61a.72.72,0,0,1,0,1l-3.83,3.83A.74.74,0,0,1,107.79,156.86Z"/><path class="cls-3" d="M121.16,132.52a.25.25,0,0,0,.22-.13q.23-.43.49-.85a.25.25,0,0,0-.42-.27q-.27.43-.51.88a.25.25,0,0,0,.22.37Z"/><path class="cls-3" d="M121.42,145.44a.25.25,0,0,0-.08.34c.17.29.36.57.56.85a.25.25,0,0,0,.2.1.25.25,0,0,0,.2-.4q-.29-.4-.54-.82A.25.25,0,0,0,121.42,145.44Z"/><path class="cls-3" d="M124.24,128.62a.25.25,0,0,0,.17-.06q.37-.33.76-.62a.25.25,0,1,0-.3-.4q-.4.3-.79.64a.25.25,0,0,0,.17.44Z"/><path class="cls-3" d="M119.76,140.75a.25.25,0,0,0-.2.29q.09.5.21,1a.25.25,0,0,0,.24.19h.06a.25.25,0,0,0,.18-.3q-.12-.48-.21-1A.25.25,0,0,0,119.76,140.75Z"/><path class="cls-3" d="M124.67,149.21a.25.25,0,0,0,0,.35q.4.31.83.59a.25.25,0,0,0,.14,0,.25.25,0,0,0,.14-.46q-.41-.27-.8-.57A.25.25,0,0,0,124.67,149.21Z"/><path class="cls-3" d="M119.65,137.26h0a.25.25,0,0,0,.25-.22q.06-.49.15-1a.25.25,0,0,0-.2-.29.25.25,0,0,0-.29.2q-.1.5-.16,1A.25.25,0,0,0,119.65,137.26Z"/><path class="cls-3" d="M134,152.18a.25.25,0,0,0,.25.23h0q.51,0,1-.11a.25.25,0,0,0,.21-.28.24.24,0,0,0-.28-.21q-.49.07-1,.11A.25.25,0,0,0,134,152.18Z"/><path class="cls-3" d="M142.62,129.17q.35.35.67.72a.25.25,0,0,0,.38-.33q-.33-.38-.69-.75l-.32-.31a.25.25,0,1,0-.34.37Z"/><path class="cls-3" d="M143.52,147.06q-.31.38-.65.74a.25.25,0,0,0,.36.34q.35-.37.67-.76a.25.25,0,0,0-.39-.32Z"/><path class="cls-3" d="M145.87,142.78q-.15.47-.34.92a.25.25,0,0,0,.14.33l.09,0a.25.25,0,0,0,.23-.15q.19-.47.35-1a.25.25,0,1,0-.47-.16Z"/><path class="cls-3" d="M138.81,151a.25.25,0,0,0,.23.14l.11,0q.46-.22.9-.47a.25.25,0,0,0-.25-.43c-.29.16-.58.31-.87.45A.25.25,0,0,0,138.81,151Z"/><path class="cls-3" d="M145.75,134.1a.25.25,0,0,0,.24.17h.08a.25.25,0,0,0,.15-.32q-.17-.48-.38-.95a.25.25,0,0,0-.46.2Q145.59,133.64,145.75,134.1Z"/><path class="cls-3" d="M128.52,126.09l.08,0q.46-.17.93-.3a.25.25,0,1,0-.14-.48q-.49.14-1,.31a.25.25,0,0,0,.08.48Z"/><path class="cls-3" d="M129,151.56a.25.25,0,0,0,.17.31q.49.15,1,.26h.05a.25.25,0,0,0,.05-.49c-.32-.07-.64-.15-.95-.25A.25.25,0,0,0,129,151.56Z"/><path class="cls-3" d="M138.2,126.24q.45.18.89.4l.11,0a.25.25,0,0,0,.11-.47q-.46-.23-.93-.42a.25.25,0,0,0-.19.46Z"/><path class="cls-3" d="M133.42,125.26c.33,0,.65,0,1,.05h0a.25.25,0,0,0,0-.5c-.34,0-.68,0-1-.06h0a.25.25,0,0,0,0,.5Z"/><path class="cls-3" d="M146.53,138.92a.25.25,0,0,0,.24.26h0a.25.25,0,0,0,.25-.24c0-.11,0-.22,0-.33s0-.46,0-.69a.25.25,0,0,0-.26-.24.25.25,0,0,0-.24.26q0,.33,0,.67C146.53,138.71,146.53,138.82,146.53,138.92Z"/></g></g></svg>