<svg id="Layer_1" data-name="Layer 1" xmlns="http://www.w3.org/2000/svg" viewBox="0 0 248 139.33"><defs><style>.cls-1{fill:#f58a1f;}.cls-2{fill:#662626;}.cls-3{fill:#666;}</style></defs><title>logo</title><path class="cls-1" d="M185.9,70.72A61.87,61.87,0,1,1,124,8.85,61.87,61.87,0,0,1,185.9,70.72"/><path class="cls-2" d="M34.44,74.64c-.21-.05-.36-.05-.52-.1a2.22,2.22,0,0,1-.57-.1,4.69,4.69,0,0,1-.72-.36,10.61,10.61,0,0,1-1-.88A17.27,17.27,0,0,0,29.08,71a58.16,58.16,0,0,1-5.93-4.9,27.71,27.71,0,0,1-4.74-5.83,17.62,17.62,0,0,1-2.32-12.12,23.67,23.67,0,0,1,3.4-8.87A47.37,47.37,0,0,1,41.81,21.64a30.9,30.9,0,0,1,5.57-2c.15,0,.26-.05.36-.05.67-.15,1.34-.26,2.11-.41s1.44-.31,2-.41a15.1,15.1,0,0,1,10.47,2,34.39,34.39,0,0,1,7.12,6.34,9.44,9.44,0,0,1,2.42,8.66c-.1.05-.21-.1-.31-.36s-.21-.57-.31-.93a4.25,4.25,0,0,0-.21-.62c-.05-.21-.1-.31-.15-.31s-.1.05-.15.26a9.79,9.79,0,0,0-.15,1.14,7.6,7.6,0,0,1-1.49,3.3c-.88,1.29-1.7,2.37-2.47,3.3-.15.15-.26.31-.41.46a4.64,4.64,0,0,1-.36.52,15.78,15.78,0,0,0-1,1.34,9.86,9.86,0,0,0-1,1.44c-.46.62-1,1.29-1.65,2a17.41,17.41,0,0,0-1.75,2.22c-.15.26-.36.57-.62,1-.46.67-1,1.44-1.55,2.37s-1.19,1.65-1.75,2.32a3.09,3.09,0,0,1-1.34,1.24H55c-.05-.05-.05-.05-.1-.05a.05.05,0,0,0-.05-.05l.05.05v.05a.19.19,0,0,1-.05.15.19.19,0,0,1-.05.15c0,.1-.05.16-.1.26l-.15.31A2,2,0,0,1,54,58c-.15.16-.31.36-.52.62a5.73,5.73,0,0,0-.57,1.13,3.11,3.11,0,0,1-.21.41c-.15.47-.41,1-.67,1.6a5.32,5.32,0,0,1-.88,1.44c-.31.41-.62.52-.93.36s-.62-.77-.88-1.8c-.21-.67-.36-1.13-.46-1.44a2.18,2.18,0,0,0-.31-.62.24.24,0,0,0-.26,0,1.07,1.07,0,0,0-.15.26,1.11,1.11,0,0,1-.21.26c-.05.05-.1.05-.2-.05a3.57,3.57,0,0,1-.26-.67,8.09,8.09,0,0,1,.67-6.19,25.21,25.21,0,0,1,3.92-5.05l1.44-1.6c.51-.57,1-1.08,1.44-1.65,1-1.08,2-2.22,2.89-3.35.26-.31.57-.62.83-1a44.83,44.83,0,0,0,4.59-5.93c1.5-2.27,2-4.33,1.6-6.29a6.77,6.77,0,0,0-.88-.82.73.73,0,0,1-.21-.15,5.73,5.73,0,0,0-1.7-.93,2.77,2.77,0,0,0-1.13-.1,7.17,7.17,0,0,1-2.11-.21c-.36-.05-.62-.1-.77-.1a2.92,2.92,0,0,0-.36.05.69.69,0,0,0-.21.16c0,.05-.05.05-.1.1s-.15.05-.26,0a1.25,1.25,0,0,1-.52-.1,6.16,6.16,0,0,1-.82-.31,1.78,1.78,0,0,0-.62-.15.78.78,0,0,0-.36.05c-.1.05-.15.1-.26.16a1.15,1.15,0,0,1-.62.36,3,3,0,0,1-1.29.1,4.15,4.15,0,0,0-1.55.15,2.76,2.76,0,0,0-.88.41,5.32,5.32,0,0,1-.77.41A8.14,8.14,0,0,1,48.2,28c-.41.1-.72.2-1,.26a8.19,8.19,0,0,0-1.44.41,8.37,8.37,0,0,0-1.7.93,3.28,3.28,0,0,1-.93.31,4,4,0,0,0-1.19.31,25.84,25.84,0,0,0-3.2,1.91c-.77.62-1.6,1.29-2.47,2.06-.41.36-.88.77-1.39,1.19a10.4,10.4,0,0,1-1.65,1.19l-1.13.83A8.64,8.64,0,0,0,30.57,39c-.31.36-.52.62-.67.83a3.45,3.45,0,0,1-.46.41c-.15.1-.31.26-.57.41s-.41.26-.67.46a4,4,0,0,0-.46.47.47.47,0,0,0-.15.26v.26a.65.65,0,0,1,.05.31,3.09,3.09,0,0,1-.21.41,3.39,3.39,0,0,1-.62.62,7.21,7.21,0,0,0-1.7,2.84l-.46,1.08Q22,52.58,23.09,56.44a18.5,18.5,0,0,0,4.85,7.79,54.2,54.2,0,0,0,8.61,7.06c3,2,6.19,3.76,9.43,5.47,3.09,1.65,6.14,3.4,9,5.26a16.51,16.51,0,0,1,5.11,5.62,15.14,15.14,0,0,1,1.39,7.58,7.25,7.25,0,0,1-3.2,5.93,24.68,24.68,0,0,1-6.55,2.73,20,20,0,0,1-2.06.57,15.46,15.46,0,0,1-2.63.41,2.61,2.61,0,0,1-1.86-.41q-.23-.23-.15-.31c.05-.1.21-.15.41-.26a.39.39,0,0,1,.21-.1,24,24,0,0,1,3.87-1.14c1.08-.26,2.06-.57,2.94-.83q.93-.31,2.63-.93a31.5,31.5,0,0,0,3.3-1.44,5.64,5.64,0,0,0,2.06-1.55l.05-.52a6,6,0,0,0-1.39.52c-.57.31-1.18.62-1.75,1a15.51,15.51,0,0,1-1.81.93c-4.85,2.27-9.08,3.3-12.63,3.2a54.08,54.08,0,0,1-12.58-2.17,36.6,36.6,0,0,1-7.53-3.35,26.06,26.06,0,0,1-6.55-4.9,13,13,0,0,0,3.35,4.18A38.12,38.12,0,0,0,24.13,100a3,3,0,0,1,.93.72c.21.26.15.41-.15.52a24.3,24.3,0,0,1-10.62-7.73,12.45,12.45,0,0,1-2.17-12c.41-1.14.77-1.7,1.08-1.8s.57.1.77.62a7,7,0,0,1,.62,1.75c.15.52.36,1,.52,1.39a15.54,15.54,0,0,0,7.27,7.17,59,59,0,0,0,10,3.92,45,45,0,0,0,8.35,1.65,35.61,35.61,0,0,0,8.61-.31,26.07,26.07,0,0,0,3.71-.67,8.36,8.36,0,0,0,3.46-1.7c.88-.83,1-2,.46-3.45A11.49,11.49,0,0,0,52.85,86a63.34,63.34,0,0,0-5.78-3.35c-.62-.36-1.19-.62-1.65-.93l-.52-.26-.46-.31a42.91,42.91,0,0,0-4.59-2.37,10.15,10.15,0,0,1-1.55-.93,10.74,10.74,0,0,1-1.08-1.08A10.76,10.76,0,0,0,35.16,75a2.74,2.74,0,0,0-.72-.31M20.93,42.37a2.82,2.82,0,0,0-1,1.49c-.31.77-.62,1.44-.88,2a24.4,24.4,0,0,0-.93,2.47,14,14,0,0,0-.31,3.3c.15,2.53.57,2.58,1.24.1.21-.88.31-1.65.41-2.32s.31-1.55.52-2.27a15.27,15.27,0,0,1,1-2.79l.26-.72c.1-1,0-1.44-.31-1.29m1.91-2.27a.9.9,0,0,0-.62-.31.47.47,0,0,0-.52.15c-.15.15-.15.36,0,.72s.31.52.57.57.46-.1.67-.41a.7.7,0,0,0-.1-.72m1.5-3a.6.6,0,0,0-.46.31.58.58,0,0,0-.15.57c.05.21.26.36.62.52a.37.37,0,0,0,.41-.1,1,1,0,0,0,.1-.41c0-.16-.05-.31-.05-.41-.15-.31-.26-.46-.46-.46m1.6-.67a.74.74,0,0,0,.26.57.41.41,0,0,0,.36.26q.23,0,.31-.46a1,1,0,0,0-.15-.67.67.67,0,0,0-.62-.21.5.5,0,0,0-.15.52m4.59-2.06a1.51,1.51,0,0,0,.36-.88,1.42,1.42,0,0,0-.05-.93.7.7,0,0,0-.77-.31c-.36.1-.57.26-.62.52a1.49,1.49,0,0,0,.05.83,2.66,2.66,0,0,0,.36.77c.26.21.46.21.67,0m.36-3a1.72,1.72,0,0,0,.21.67c.1.15.26.21.36.1s.26-.41.31-.88v-.41a.47.47,0,0,0-.21-.31c-.05-.05-.21-.05-.36.1a1,1,0,0,0-.31.72"/><path class="cls-2" d="M64.13,79.68a8.17,8.17,0,0,1-2.27-5.12,19.2,19.2,0,0,1,.74-5.12c1.13-4.29,2.32-7.14,3.6-8.62a6.75,6.75,0,0,0,1.13-1.67.93.93,0,0,1,.35-.64,8.67,8.67,0,0,1,.69-.59,13.38,13.38,0,0,0,1.08-.84l1.43-1.13a7,7,0,0,1,4.39-1.77,5.54,5.54,0,0,1,3.3,1,6.37,6.37,0,0,1,1.18,1,2.14,2.14,0,0,0,1,.39c.44,0,.89-.44,1.38-1.28a3.5,3.5,0,0,1,2.71-1.77,4,4,0,0,1,3.3,2.07,3.7,3.7,0,0,1,.79,2.22A5.12,5.12,0,0,1,88.07,60c-2,3.05-3.35,5.27-4.09,6.6-.2.44-.49,1.23-.89,2.46a11.64,11.64,0,0,0-.74,3.74q0,1.63,1.48,1.63A6.52,6.52,0,0,0,86,73.37c3.69-2.56,7.44-6.55,11.28-12a42.13,42.13,0,0,1,3.45-4.78l.54-.74s0,0,0,.1,0,.1,0,.2c0,1-.84,3-2.46,5.86-.64,1.18-1.18,2.22-1.58,3.1a3.65,3.65,0,0,0,.89-1c.39-.59,1.13-1.67,2.27-3.4.29-.49.49-.74.59-.74l0,0-.1.34c-1.73,5.07-6.6,11.33-14.53,18.87A15.1,15.1,0,0,0,91,76.08l2.41-2.76q2.66-3,3.1-3.1c.1,0,.15.1.15.2,0,.44-1,1.87-3,4.24l-1.92,2.22q-3.7,4.58-6.8,4.58a9.1,9.1,0,0,1-3.35-.79c-2.12-1-3.5-2.27-4.09-3.69a14.78,14.78,0,0,1-1.08-5.37.83.83,0,0,0-.29.54,5.63,5.63,0,0,1-.34.94,4.52,4.52,0,0,1-1,1.28,12.54,12.54,0,0,0-2.22,3.1,10.71,10.71,0,0,1-3.25,3.74,2.32,2.32,0,0,1-1.28.39c-1,0-2.36-.64-3.94-1.92m5-12.12a42.63,42.63,0,0,1,2.41-4,11,11,0,0,0,1-1.67h0c-.64.15-1.58,1.23-2.71,3.25a10,10,0,0,0-1.43,3.2.26.26,0,0,0,.1.2c.2-.1.39-.39.64-.94m2.12,6a33.75,33.75,0,0,0,3.6-5.07l.3-.44a25.56,25.56,0,0,0,2.51-5,13.51,13.51,0,0,0,.79-2.22c0-.25-.15-.35-.49-.35a4.45,4.45,0,0,0-2,.64,11,11,0,0,0-2.51,2,18.37,18.37,0,0,0-3.15,4.63,13.51,13.51,0,0,0-1.43,5.57c0,1,.2,1.53.59,1.53h.4c.24,0,.69-.44,1.43-1.28M81.76,70a16,16,0,0,1,1.43-3.89A27,27,0,0,1,86.1,61.3c.34-.44.54-.69.54-.84a1,1,0,0,0-.2-.39l-.25-.25-.79.74a3.34,3.34,0,0,0-.39.84c-.1.34-.2.69-.29.94a5.88,5.88,0,0,1-.69.94,5.89,5.89,0,0,0-.59,1.08A1.57,1.57,0,0,1,83,65a4,4,0,0,0-1,1.58c-.15.44-.3.64-.39.64a.79.79,0,0,0-.64.89,2.84,2.84,0,0,0,0,.59,4.81,4.81,0,0,1,0,.89L81,71c0,.74,0,1.13.2,1.13s.35-.69.54-2.17m-.05,3.79a.86.86,0,0,0-.29-.74h-.1c-.15,0-.2,0-.2.2v.49l.39.59c.15,0,.2-.2.2-.54m4,6.21c0-.34-.2-.49-.54-.49s-.39.15-.39.25v.1a.45.45,0,0,0,.15.25,1.06,1.06,0,0,0,.59.15.54.54,0,0,0,.2-.25m11-13.6a2,2,0,0,0,.29-.69c0-.1,0-.1,0-.1s-.25.15-.49.54a.91.91,0,0,0-.2.49s0,.1,0,.1.15-.1.39-.34"/><path class="cls-2" d="M94.18,83.47c-.1-.44-.44-.69-1.13-.79-.29,0-.44-.15-.44-.2a.37.37,0,0,1-.05-.25,2.47,2.47,0,0,0-.1-.64,1.55,1.55,0,0,0-.54-.69,2.24,2.24,0,0,1-.59-1.28,15.75,15.75,0,0,1,0-1.58,29.64,29.64,0,0,1,1-2.81l3.2-7.73c1.68-4.19,3.2-7.83,4.63-10.84.59-1.28,1.23-1.92,2-1.92a3.5,3.5,0,0,1,.64.1,2.28,2.28,0,0,1,1.18.69,2.52,2.52,0,0,1,.44.69.94.94,0,0,0,.2.4l.25-.35c.39,0,.59.15.59.39a3.22,3.22,0,0,1-.1.54,2.75,2.75,0,0,0-.15,1,2.91,2.91,0,0,0,.35,1.43,2,2,0,0,1,.39,1.08,6.19,6.19,0,0,1-.49,1.67l-.29.74s0,.1,0,.1.49-.29,1.08-.94c2.51-2.51,4.43-4.34,5.81-5.52A5.06,5.06,0,0,1,115,55.59a2.59,2.59,0,0,1,2.22.89,6.11,6.11,0,0,0,1.13,1,1.19,1.19,0,0,1,.54.59l.15.74a3.5,3.5,0,0,0,.54,1.72,3.64,3.64,0,0,1,.49,1.82l0,.49c0,1,0,1.53.15,1.53s1.77-1.33,4.63-3.94c2.46-2.22,4.43-3.3,5.86-3.3a2.78,2.78,0,0,1,1.68.59,3,3,0,0,0,1.48.74c.35.1.54.2.54.25a.37.37,0,0,1,0,.25.92.92,0,0,0-.2.54,2,2,0,0,0,.1.3,4,4,0,0,1,.29,1.53,12.36,12.36,0,0,1-1.53,5c-.54,1.33-.84,2-.89,2.17s-.1.2-.15.2l.2-1.33c0-.15,0-.25,0-.3a6.63,6.63,0,0,1-.29.79c-.2.54-.39,1.18-.64,1.92a15,15,0,0,0-.74,3.65c0,.79.25,1.18.79,1.18a18,18,0,0,0,5.91-4.19,72.55,72.55,0,0,0,5.32-6.26,67.31,67.31,0,0,1,4.78-5.62,1.55,1.55,0,0,0,.35-.29.79.79,0,0,1,.54-.25c.1,0,.15,0,.15.2a1.88,1.88,0,0,1-.89,1.53c-.1,0-.15.1-.15.15l.94-.15c.25,0,.39.1.39.35a2.12,2.12,0,0,1-.35,1.08c-.25.44-.49.89-.69,1.33a59,59,0,0,1-3.2,5.47,50.88,50.88,0,0,1-3.6,4.83,49.53,49.53,0,0,1-6.85,6l-.25.15a5.35,5.35,0,0,0-1.28,1.13s0,0,.1,0A9.57,9.57,0,0,0,135,79c1.43-.79,2.51-1.38,3.15-1.77,2.17-1.63,3.4-2.41,3.7-2.41,0,0,0,0,0,0a1.45,1.45,0,0,1-.3.49,18.29,18.29,0,0,1-6.3,5.27,7.68,7.68,0,0,1-3.6.94,8,8,0,0,1-2.37-.39,11.38,11.38,0,0,1-2.66-1.77,5.18,5.18,0,0,1-1.87-3.69,13.5,13.5,0,0,1,.64-4,17.2,17.2,0,0,0,.59-2.51c0-.15,0-.25-.15-.25s-.39.25-.84.69a1.35,1.35,0,0,1-.34.39c-1.68,1.72-3.3,3.55-4.88,5.42l-.1.1c-2.76,3.45-5,5.42-6.6,6a1.84,1.84,0,0,1-1.38-.84c-.1-.2-.2-.3-.25-.3h0c-.05.05-.1.05-.15.1a.74.74,0,0,1-.35,0c-.64,0-1.18-.54-1.58-1.72a4.56,4.56,0,0,1-.54-1.67,2.65,2.65,0,0,1,.2-1.08c.1-.35.2-.69.29-1.08a35.88,35.88,0,0,1,1.13-3.74,17.42,17.42,0,0,0,1.23-4.58c0-.25,0-.34-.15-.34s-.39.24-.84.69l-1.53,1.53A20.11,20.11,0,0,0,107.13,71a17.54,17.54,0,0,1-1.72,2.12,2.25,2.25,0,0,0-.74,1,1,1,0,0,1-.69.79,1.07,1.07,0,0,0-.74.84.71.71,0,0,0,.1.44c.25,0,.84-.59,1.72-1.72a10.89,10.89,0,0,1,1.53-1.58s0,0,0,.05a12.71,12.71,0,0,1-1.08,1.58c-1.82,2.32-3.65,4.48-5.42,6.5s-3.4,3.05-4.78,3.05a1.19,1.19,0,0,1-1.18-.59m6.45-5.81c1.13-1.43,2.46-3.05,3.89-4.83s2.66-3.25,3.69-4.48c.54-.64,1.63-1.82,3.2-3.5s2.41-2.71,2.41-3.1c0-.15-.1-.2-.25-.2-.84.15-4.88,4.73-12,13.7A39.7,39.7,0,0,1,99,78.3c-1,1.08-1.53,1.77-1.53,2s.1.3.2.3c.44,0,1.43-1,3-3m6.9-6c0-.34.3-.74.84-1.18l.69-.49-.59.89c-.39.59-.69.94-.88.94s-.05,0-.05-.15m2-2.41c0-.2.25-.54.69-1,.25-.34.49-.49.59-.49s0,0,0,0-.2.54-.64,1a2.28,2.28,0,0,1-.64.44s0,0,0,0m5.27,8.62c.15-.15.35-.3.59-.49s1.38-1.33,2.91-3c.3-.35,1.77-1.82,4.34-4.38q5-4.43,5-5.47a.13.13,0,0,0-.15-.15,2,2,0,0,0-.49.25,6,6,0,0,1-.69.49c-.2.15-.74.59-1.63,1.43a76.54,76.54,0,0,0-9.56,10.34,5.19,5.19,0,0,0-.74,1.18s0,0,.05,0a.88.88,0,0,0,.34-.25M126.25,68v-.25c0-.1-.1-.15-.15-.15a1,1,0,0,1-.25.15.71.71,0,0,0-.1.3c0,.25.05.35.25.35s.25-.15.25-.4m6.16-1.48.15-.29c0-.05,0-.1.1-.15a2.7,2.7,0,0,0,.2-.84c0-.15,0-.2-.1-.2s-.1,0-.2.1a1.75,1.75,0,0,0-.29.54,4.26,4.26,0,0,0-.1.79v.3a.41.41,0,0,0,.25-.25m1.13-2.76s.05-.1.1-.15a.38.38,0,0,0,0-.25c0-.25,0-.34-.1-.34s-.15.2-.3.64a2.69,2.69,0,0,0-.15.64v.15c.05,0,.2-.25.39-.69m7.93,10.49a3.69,3.69,0,0,1,1.18-1.58c.29-.3.49-.44.59-.44s.05,0,.05.1l-.05.35a2.2,2.2,0,0,1-1.77,1.72Zm4.78-11.68c0-.3,0-.44-.15-.44s-.2.15-.2.39.1.35.2.35.15-.1.15-.3"/><path class="cls-2" d="M141,79.68a8.16,8.16,0,0,1-2.27-5.12,19.24,19.24,0,0,1,.74-5.12c1.13-4.29,2.32-7.14,3.6-8.62a6.77,6.77,0,0,0,1.13-1.67.92.92,0,0,1,.34-.64,8.67,8.67,0,0,1,.69-.59,13.21,13.21,0,0,0,1.08-.84l1.43-1.13a7,7,0,0,1,4.39-1.77,5.54,5.54,0,0,1,3.3,1,6.43,6.43,0,0,1,1.18,1,2.14,2.14,0,0,0,1,.39c.44,0,.89-.44,1.38-1.28a3.5,3.5,0,0,1,2.71-1.77,4,4,0,0,1,3.3,2.07,3.7,3.7,0,0,1,.79,2.22A5.13,5.13,0,0,1,165,60c-2,3.05-3.35,5.27-4.09,6.6-.2.44-.49,1.23-.89,2.46a11.64,11.64,0,0,0-.74,3.74q0,1.63,1.48,1.63A6.52,6.52,0,0,0,163,73.37c3.69-2.56,7.44-6.55,11.28-12a42.14,42.14,0,0,1,3.45-4.78l.54-.74c.05,0,.05,0,.05.1s0,.1,0,.2c0,1-.84,3-2.46,5.86-.64,1.18-1.18,2.22-1.58,3.1a3.61,3.61,0,0,0,.89-1c.4-.59,1.13-1.67,2.27-3.4q.44-.74.59-.74l0,0-.1.34c-1.73,5.07-6.6,11.33-14.53,18.87a15.11,15.11,0,0,0,4.48-3.2l2.41-2.76q2.66-3,3.1-3.1c.1,0,.15.1.15.2,0,.44-1,1.87-3,4.24l-1.92,2.22q-3.69,4.58-6.8,4.58a9.1,9.1,0,0,1-3.35-.79c-2.12-1-3.5-2.27-4.09-3.69a14.8,14.8,0,0,1-1.08-5.37.83.83,0,0,0-.29.54,5.65,5.65,0,0,1-.35.94,4.54,4.54,0,0,1-1,1.28,12.54,12.54,0,0,0-2.22,3.1,10.72,10.72,0,0,1-3.25,3.74,2.32,2.32,0,0,1-1.28.39c-1,0-2.36-.64-3.94-1.92m5-12.12a42.26,42.26,0,0,1,2.42-4,11.14,11.14,0,0,0,1-1.67h-.05c-.64.15-1.58,1.23-2.71,3.25a10,10,0,0,0-1.43,3.2.26.26,0,0,0,.1.2c.2-.1.39-.39.64-.94m2.12,6a33.75,33.75,0,0,0,3.6-5.07l.3-.44a25.5,25.5,0,0,0,2.51-5,13.46,13.46,0,0,0,.79-2.22c0-.25-.15-.35-.49-.35a4.45,4.45,0,0,0-2,.64,11,11,0,0,0-2.51,2,18.34,18.34,0,0,0-3.15,4.63,13.49,13.49,0,0,0-1.43,5.57c0,1,.2,1.53.59,1.53h.39c.25,0,.69-.44,1.43-1.28M158.67,70a16,16,0,0,1,1.43-3.89A27.06,27.06,0,0,1,163,61.3c.34-.44.54-.69.54-.84a1,1,0,0,0-.2-.39l-.25-.25-.79.74a3.34,3.34,0,0,0-.39.84c-.1.34-.2.69-.29.94a5.88,5.88,0,0,1-.69.94,5.89,5.89,0,0,0-.59,1.08,1.57,1.57,0,0,1-.39.64,4,4,0,0,0-1,1.58c-.15.44-.3.64-.4.64a.79.79,0,0,0-.64.89,2.79,2.79,0,0,0,.05.59,4.91,4.91,0,0,1,0,.89l0,1.43c0,.74,0,1.13.2,1.13s.34-.69.54-2.17m-.05,3.79a.86.86,0,0,0-.29-.74h-.1c-.15,0-.2,0-.2.2v.49l.39.59c.15,0,.2-.2.2-.54m4,6.21c0-.34-.2-.49-.54-.49s-.4.15-.4.25v.1a.45.45,0,0,0,.15.25,1.06,1.06,0,0,0,.59.15.55.55,0,0,0,.2-.25m11-13.6a2.06,2.06,0,0,0,.3-.69c0-.1,0-.1-.05-.1s-.25.15-.49.54a.91.91,0,0,0-.2.49s0,.1,0,.1.15-.1.39-.34"/><path class="cls-2" d="M170.1,80.42a2.21,2.21,0,0,1-.59-1.23,6.3,6.3,0,0,1,.49-2.36l2.81-7.54,1.13-3.1q2.22-6.65,3-9.75a3.31,3.31,0,0,1,.74-1.77,3.26,3.26,0,0,1,2.22-.54c2.17,0,3.65.59,4.48,1.77,0,.1,0,.2.1.29a3,3,0,0,1-.1,1.13l-.1.44,0,.34a2.61,2.61,0,0,0,.39,0,.6.6,0,0,0,.15-.1l.44-.15,1.08-.44c.84-.49,1.72-.94,2.56-1.33,1.18-.54,2.36-1.08,3.6-1.68a5.86,5.86,0,0,1,2.66-.64c2.12.25,3.25,1.33,3.35,3.25a4.29,4.29,0,0,1,0,1.13c-.39,3.35-1.13,4.68-2.26,4l0-.1a3.07,3.07,0,0,0,.15-1c0-.2-.25-.29-.64-.25a7.59,7.59,0,0,0-2.56.44c-.89.34-1.73.69-2.61,1.13a13.55,13.55,0,0,0-2.12,1.18l-.1,0A5.06,5.06,0,0,0,187,64.65a1,1,0,0,1-.44.44c-.39,0-.94.54-1.67,1.38l-1.73,1.58c-.79.74-1.58,1.48-2.36,2.27a12.81,12.81,0,0,1-1.08,1,6.37,6.37,0,0,0-1.08,2c0,.25-.2.74-.39,1.43s-.44,1.48-.64,2.22a13.58,13.58,0,0,1-.54,2.66c-.1.1-.2.1-.39.1a0,0,0,0,0,0,0l0,0v.49A1.64,1.64,0,0,1,174.78,82a7.61,7.61,0,0,1-4.68-1.63m6.55-3.25v0s0-.1-.1-.15-.1-.1-.15-.1a.18.18,0,0,0-.1,0,.15.15,0,0,0,0,.1c0,.15.1.2.3.2s.1,0,.1,0m4.48-10.05c.15-.2.25-.34.2-.44s0-.1-.1-.1a.75.75,0,0,0-.15.1c-.05,0-.1.2-.2.35s-.1.24,0,.29v0s.15-.1.29-.25m1.58-1.18a2.63,2.63,0,0,0,1.18-.79c.3-.25,1-.89,2.37-1.82a19.84,19.84,0,0,1,2-1.43s1-.49,2.71-1.48c1.53-.79,3.05-1.53,4.58-2.27.69-.35,1-.59,1-.69s-.1-.1-.25-.1a5,5,0,0,0-1.53.44c-.35.1-.64.25-.94.35a4.18,4.18,0,0,1-1.43.59,5.87,5.87,0,0,0-1.77.94,16,16,0,0,1-1.63,1c-.64.39-1.23.74-1.77,1.08s-1,.69-1.53,1-.84.59-1.08.74c-.39.34-.79.69-1.18,1A7.49,7.49,0,0,0,182,66.28Z"/><path class="cls-2" d="M199.31,79.68A8.17,8.17,0,0,1,197,74.56a19.24,19.24,0,0,1,.74-5.12c1.13-4.29,2.32-7.14,3.6-8.62a6.77,6.77,0,0,0,1.13-1.67.92.92,0,0,1,.34-.64,8.85,8.85,0,0,1,.69-.59,13.38,13.38,0,0,0,1.08-.84l1.43-1.13a7,7,0,0,1,4.39-1.77,5.54,5.54,0,0,1,3.3,1,6.39,6.39,0,0,1,1.18,1,2.14,2.14,0,0,0,1,.39c.44,0,.89-.44,1.38-1.28A3.5,3.5,0,0,1,220,53.47a4,4,0,0,1,3.3,2.07,3.7,3.7,0,0,1,.79,2.22,5.13,5.13,0,0,1-.84,2.27c-2,3.05-3.35,5.27-4.09,6.6-.2.44-.49,1.23-.89,2.46a11.64,11.64,0,0,0-.74,3.74q0,1.63,1.48,1.63a6.52,6.52,0,0,0,2.22-1.08c3.7-2.56,7.44-6.55,11.28-12A42,42,0,0,1,236,56.62l.54-.74s0,0,0,.1,0,.1,0,.2c0,1-.84,3-2.46,5.86-.64,1.18-1.18,2.22-1.58,3.1a3.63,3.63,0,0,0,.89-1c.39-.59,1.13-1.67,2.27-3.4q.44-.74.59-.74l0,0-.1.34c-1.73,5.07-6.6,11.33-14.53,18.87a15.12,15.12,0,0,0,4.48-3.2l2.41-2.76q2.66-3,3.1-3.1c.1,0,.15.1.15.2,0,.44-1,1.87-3,4.24L227,76.87q-3.69,4.58-6.8,4.58a9.1,9.1,0,0,1-3.35-.79c-2.12-1-3.5-2.27-4.09-3.69a14.82,14.82,0,0,1-1.08-5.37.83.83,0,0,0-.29.54,5.74,5.74,0,0,1-.35.94,4.52,4.52,0,0,1-1,1.28,12.54,12.54,0,0,0-2.22,3.1,10.71,10.71,0,0,1-3.25,3.74,2.32,2.32,0,0,1-1.28.39c-1,0-2.36-.64-3.94-1.92m5-12.12a41.91,41.91,0,0,1,2.41-4,11.07,11.07,0,0,0,1-1.67h0c-.64.15-1.58,1.23-2.71,3.25a10,10,0,0,0-1.43,3.2.26.26,0,0,0,.1.2c.2-.1.39-.39.64-.94m2.12,6A33.74,33.74,0,0,0,210,68.5l.3-.44a25.5,25.5,0,0,0,2.51-5,13.46,13.46,0,0,0,.79-2.22c0-.25-.15-.35-.49-.35a4.45,4.45,0,0,0-2,.64,11,11,0,0,0-2.51,2,18.34,18.34,0,0,0-3.15,4.63A13.48,13.48,0,0,0,204,73.32c0,1,.2,1.53.59,1.53h.4c.25,0,.69-.44,1.43-1.28M216.95,70a15.93,15.93,0,0,1,1.43-3.89,27,27,0,0,1,2.91-4.78c.34-.44.54-.69.54-.84a1,1,0,0,0-.2-.39l-.25-.25-.79.74a3.34,3.34,0,0,0-.39.84c-.1.34-.2.69-.29.94a5.88,5.88,0,0,1-.69.94,5.89,5.89,0,0,0-.59,1.08,1.57,1.57,0,0,1-.39.64,4,4,0,0,0-1,1.58c-.15.44-.3.64-.39.64a.79.79,0,0,0-.64.89,2.84,2.84,0,0,0,0,.59,4.91,4.91,0,0,1,0,.89l0,1.43c0,.74,0,1.13.2,1.13s.35-.69.54-2.17m-.05,3.79a.86.86,0,0,0-.29-.74h-.1c-.15,0-.2,0-.2.2v.49l.39.59c.15,0,.2-.2.2-.54m4,6.21c0-.34-.2-.49-.54-.49s-.39.15-.39.25v.1a.45.45,0,0,0,.15.25,1.06,1.06,0,0,0,.59.15.54.54,0,0,0,.2-.25m11-13.6a2,2,0,0,0,.29-.69c0-.1,0-.1,0-.1s-.25.15-.49.54a.91.91,0,0,0-.2.49s0,.1,0,.1.15-.1.39-.34"/><path class="cls-2" d="M70.71,90.78a2.65,2.65,0,0,0-.09-.93c-.1-.26-.26-.36-.64-.41s-.47-.14-.47-.4.17-.38.54-.38h7.48a1,1,0,0,0,.59-.12l.19-.16a.48.48,0,0,1,.26-.1c.21,0,.26.07.45.36l1.3,2.07a.6.6,0,0,1,.1.29.35.35,0,0,1-.35.34c-.14,0-.28-.12-.48-.34A5.22,5.22,0,0,0,78,89.92a5.62,5.62,0,0,0-2.14-.35h-1.5c-1,0-1.18.14-1.18,1.16v2c0,.41.17.57.57.57h1.33c.5,0,.64-.05.79-.33a2.25,2.25,0,0,0,.14-.26.58.58,0,0,1,.33-.16c.16,0,.21,0,.4.38l1.28,2a1,1,0,0,1,.14.33.36.36,0,0,1-.38.35c-.14,0-.28-.1-.5-.35a3,3,0,0,0-2.25-1H73.78c-.38,0-.57.15-.57.55v4c0,1,.17,1.21,1.18,1.21h2.19a8.48,8.48,0,0,0,2.56-.36A4.68,4.68,0,0,0,81,98.3c.16-.24.28-.35.4-.35a.4.4,0,0,1,.4.35.84.84,0,0,1-.14.35l-1.43,2.5c-.17.33-.24.36-.45.36a.44.44,0,0,1-.29-.1l-.22-.16c-.21-.17-.22-.17-.73-.17H70c-.36,0-.53-.14-.53-.4s.12-.35.47-.38.54-.15.66-.43a2.59,2.59,0,0,0,.09-.93V90.78Z"/><path class="cls-2" d="M110,90.75a.45.45,0,0,1,.14.28.37.37,0,0,1-.38.34,1.1,1.1,0,0,1-.49-.28,4,4,0,0,0-.5-.36c-.48-.31-.86-.54-1.12-.69a5.67,5.67,0,0,0-2.54-.69c-1.14,0-1.94.64-1.94,1.52s.66,1.33,2.54,1.76l1.64.38c3.23.74,4.79,2.13,4.79,4.29,0,2.37-2.12,4-5.06,4a14.87,14.87,0,0,1-3.34-.48,3.59,3.59,0,0,0-.66-.11c-.21,0-.31.07-.41.3s-.26.36-.48.36-.24,0-.4-.31l-1.55-2.64a1,1,0,0,1-.14-.38.37.37,0,0,1,.36-.38c.17,0,.31.12.55.43a7.57,7.57,0,0,0,5.32,2.23c2,0,3.28-1,3.28-2.42,0-1.23-.86-2-2.92-2.47l-1.61-.41a11.81,11.81,0,0,1-3-1.14,2.75,2.75,0,0,1-1.49-2.47c0-1.8,1.52-3.06,3.73-3.06a8.32,8.32,0,0,1,2.07.28l.28.07a1.27,1.27,0,0,0,.4.07.65.65,0,0,0,.52-.24.72.72,0,0,1,.16-.19.29.29,0,0,1,.21-.09.28.28,0,0,1,.23.1l.17.24Z"/><path class="cls-2" d="M133.72,90.21c0-.43-.1-.55-.54-.55h-.85a3.11,3.11,0,0,0-1.9.52,5.68,5.68,0,0,0-1.29,1.24c-.17.21-.31.29-.45.29a.34.34,0,0,1-.36-.33.85.85,0,0,1,.1-.35l1.31-2.45a.47.47,0,0,1,.43-.31.33.33,0,0,1,.26.09l.17.14c.1.12.24.16.57.16H139c.35,0,.43,0,.6-.19s.26-.21.38-.21h0a.39.39,0,0,1,.24.12s.07.1.14.28l1.19,2.45a.8.8,0,0,1,.07.28.34.34,0,0,1-.36.33.59.59,0,0,1-.47-.31,5.79,5.79,0,0,0-1.14-1.23,3.41,3.41,0,0,0-1.85-.54l-1,0c-.4,0-.55.14-.55.54v8.74a2.22,2.22,0,0,0,.09.93c.1.26.24.36.6.42s.47.14.47.4-.17.4-.53.4H133c-.36,0-.54-.14-.54-.4s.12-.35.47-.38c.62-.09.74-.31.74-1.36V90.21Z"/><path class="cls-2" d="M157.14,100.69c0-.26.14-.35.48-.38a1.17,1.17,0,0,0,.79-.43,4,4,0,0,0,.47-.93l4-9.9c.14-.33.19-.38.4-.38h1.63a.52.52,0,0,1,.26.07c0,.05.05.12.12.29l3.87,9.92a3.64,3.64,0,0,0,.47.93,1,1,0,0,0,.79.41c.35.05.47.14.47.4s-.17.4-.54.4h-4.15c-.38,0-.57-.14-.57-.4s.17-.36.48-.38.6-.17.6-.52a2.7,2.7,0,0,0-.22-.83l-.35-.86a1.07,1.07,0,0,0-.28-.48,1.27,1.27,0,0,0-.5-.07h-4.1a1.27,1.27,0,0,0-.5.07,3.48,3.48,0,0,0-.19.43l-.36.9a2.46,2.46,0,0,0-.28.9c0,.29.16.4.59.45s.48.16.48.4-.19.4-.55.4h-2.76c-.38,0-.57-.14-.57-.4m4.56-4.22H165c.23,0,.36-.09.36-.26a.75.75,0,0,0,0-.21l-1.83-4.56c0-.1-.12-.19-.15-.19s-.1.07-.14.17L161.41,96a.63.63,0,0,0,0,.17c0,.19.12.28.33.28"/><path class="cls-2" d="M191.79,90.21c0-.43-.1-.55-.54-.55h-.85a3.11,3.11,0,0,0-1.9.52,5.68,5.68,0,0,0-1.29,1.24c-.17.21-.31.29-.45.29a.34.34,0,0,1-.36-.33.85.85,0,0,1,.1-.35l1.31-2.45a.47.47,0,0,1,.43-.31.33.33,0,0,1,.26.09l.17.14c.1.12.24.16.57.16H197c.35,0,.43,0,.61-.19s.26-.21.38-.21h0a.39.39,0,0,1,.24.12s.07.1.14.28l1.19,2.45a.8.8,0,0,1,.07.28.34.34,0,0,1-.36.33.59.59,0,0,1-.47-.31,5.79,5.79,0,0,0-1.14-1.23,3.41,3.41,0,0,0-1.85-.54l-1,0c-.4,0-.55.14-.55.54v8.74a2.22,2.22,0,0,0,.09.93c.1.26.24.36.6.42s.47.14.47.4-.17.4-.53.4h-3.8c-.36,0-.54-.14-.54-.4s.12-.35.47-.38c.62-.09.74-.31.74-1.36V90.21Z"/><path class="cls-2" d="M219,90.78a2.65,2.65,0,0,0-.09-.93c-.1-.26-.26-.36-.64-.41s-.47-.14-.47-.4.17-.38.54-.38h7.48a1,1,0,0,0,.59-.12l.19-.16a.49.49,0,0,1,.26-.1c.21,0,.26.07.45.36l1.3,2.07a.6.6,0,0,1,.1.29.35.35,0,0,1-.35.34c-.14,0-.28-.12-.48-.34a5.21,5.21,0,0,0-1.55-1.09,5.63,5.63,0,0,0-2.14-.35h-1.5c-1,0-1.18.14-1.18,1.16v2c0,.41.17.57.57.57h1.33c.5,0,.64-.05.79-.33a2.25,2.25,0,0,0,.14-.26.58.58,0,0,1,.33-.16c.16,0,.21,0,.4.38l1.28,2a1,1,0,0,1,.14.33.36.36,0,0,1-.38.35c-.14,0-.28-.1-.5-.35a3,3,0,0,0-2.25-1h-1.28c-.38,0-.57.15-.57.55v4c0,1,.17,1.21,1.18,1.21h2.19a8.48,8.48,0,0,0,2.56-.36,4.68,4.68,0,0,0,1.81-1.42c.16-.24.28-.35.4-.35a.4.4,0,0,1,.4.35.84.84,0,0,1-.14.35l-1.43,2.5c-.17.33-.24.36-.45.36a.44.44,0,0,1-.29-.1l-.22-.16c-.21-.17-.22-.17-.73-.17h-8.45c-.36,0-.53-.14-.53-.4s.12-.35.47-.38.54-.15.66-.43a2.59,2.59,0,0,0,.09-.93V90.78Z"/><path class="cls-1" d="M186.92,34.55c0-.43-.1-.55-.54-.55h-.85a3.1,3.1,0,0,0-1.9.52,5.68,5.68,0,0,0-1.29,1.24c-.17.21-.31.29-.45.29a.34.34,0,0,1-.36-.33.85.85,0,0,1,.1-.35l1.31-2.45a.47.47,0,0,1,.43-.31.33.33,0,0,1,.26.09l.17.14c.1.12.24.16.57.16h7.77c.35,0,.43,0,.6-.19s.26-.21.38-.21h0a.4.4,0,0,1,.24.12s.07.1.14.28l1.19,2.45a.83.83,0,0,1,.07.28.34.34,0,0,1-.36.33.58.58,0,0,1-.47-.31,5.78,5.78,0,0,0-1.14-1.23A3.42,3.42,0,0,0,191,34l-1,0c-.4,0-.55.14-.55.54v8.74a2.21,2.21,0,0,0,.09.93c.1.26.24.36.6.42s.47.14.47.4-.17.4-.53.4h-3.8c-.36,0-.53-.14-.53-.4s.12-.35.47-.38c.62-.09.74-.31.74-1.36V34.55Z"/><path class="cls-1" d="M198.24,35.14c0-1-.1-1.28-.62-1.36s-.48-.12-.48-.38.19-.4.55-.4h3.56c.38,0,.55.14.55.4s-.09.33-.47.38-.61.33-.61,1.35v2.32c0,.54.19.69.69.69l4.54,0c.5,0,.69-.19.69-.73V35.14c0-1-.12-1.28-.62-1.36s-.47-.12-.47-.38.19-.4.54-.4h3.59c.38,0,.55.14.55.4s-.09.35-.48.38-.43.15-.52.43a3.06,3.06,0,0,0-.07.93v8.14c0,1.05.1,1.28.59,1.37s.48.1.48.38-.17.4-.55.4h-3.61c-.36,0-.55-.14-.55-.4s.1-.35.49-.38.66-.33.66-1.37V40.16c0-.54-.17-.71-.69-.71h-4.56c-.5,0-.69.19-.69.71v3.11a2.85,2.85,0,0,0,.07.93.58.58,0,0,0,.52.43c.38,0,.48.1.48.38s-.19.4-.57.4h-3.58c-.36,0-.55-.14-.55-.4s.12-.35.47-.4c.55-.07.67-.31.67-1.23V35.14Z"/><path class="cls-1" d="M214.3,35.12a2.64,2.64,0,0,0-.09-.93c-.1-.26-.26-.36-.64-.42s-.47-.14-.47-.4.17-.38.54-.38h7.48a1,1,0,0,0,.59-.12l.19-.16a.49.49,0,0,1,.26-.1c.21,0,.26.07.45.36L223.9,35a.6.6,0,0,1,.1.29.35.35,0,0,1-.35.34c-.14,0-.28-.12-.48-.34a5.21,5.21,0,0,0-1.55-1.09,5.63,5.63,0,0,0-2.14-.35H218c-1,0-1.18.14-1.18,1.16v2c0,.41.17.57.57.57h1.33c.5,0,.64-.05.79-.33a2.25,2.25,0,0,0,.14-.26.58.58,0,0,1,.33-.16c.16,0,.21,0,.4.38l1.28,2a1,1,0,0,1,.14.33.36.36,0,0,1-.38.35c-.14,0-.28-.1-.5-.35a3,3,0,0,0-2.25-1h-1.28c-.38,0-.57.16-.57.55v4c0,1,.17,1.21,1.18,1.21h2.19a8.49,8.49,0,0,0,2.56-.36,4.68,4.68,0,0,0,1.81-1.42c.16-.24.28-.35.4-.35a.4.4,0,0,1,.4.35.84.84,0,0,1-.14.35l-1.43,2.5c-.17.33-.24.36-.45.36a.44.44,0,0,1-.29-.1l-.22-.16c-.21-.17-.22-.17-.73-.17h-8.45c-.36,0-.53-.14-.53-.4s.12-.35.47-.38.54-.15.66-.43a2.59,2.59,0,0,0,.09-.93V35.12Z"/><polygon class="cls-3" points="184.04 120.56 183.98 120.56 179.57 114.1 179.57 123.88 178.24 123.88 178.24 111.78 179.62 111.78 184.03 118.38 188.44 111.78 189.82 111.78 189.82 123.88 188.45 123.88 188.45 114.08 184.04 120.56"/><path class="cls-3" d="M193.4,111.52h1.52V113H193.4Zm.09,3.42h1.33v8.93h-1.33Z"/><path class="cls-3" d="M206.44,124.23a3.6,3.6,0,0,1-.92,1.36,3.91,3.91,0,0,1-1.43.82,5.94,5.94,0,0,1-1.87.28,7.29,7.29,0,0,1-2.14-.31,6.92,6.92,0,0,1-1.92-.93l.61-1a6.42,6.42,0,0,0,1.62.85,5.52,5.52,0,0,0,1.82.29,3.37,3.37,0,0,0,2.37-.8,3,3,0,0,0,.88-2.38V121.3a5.64,5.64,0,0,1-1.43,1.33,3.71,3.71,0,0,1-2.07.55,4.38,4.38,0,0,1-1.57-.28,4.06,4.06,0,0,1-2.28-2.15,4.21,4.21,0,0,1-.35-1.76,4.27,4.27,0,0,1,.35-1.77,4.07,4.07,0,0,1,.94-1.33,4.18,4.18,0,0,1,1.35-.84,4.39,4.39,0,0,1,2.71-.15,4.18,4.18,0,0,1,1,.39,4,4,0,0,1,.77.57,5.81,5.81,0,0,1,.62.69v-1.61h1.33v7.38a5.2,5.2,0,0,1-.32,1.9m-1.24-6.51a3,3,0,0,0-.73-1,3.33,3.33,0,0,0-1-.61,3.54,3.54,0,0,0-1.23-.22,3.45,3.45,0,0,0-1.2.21,2.88,2.88,0,0,0-1,.6,2.84,2.84,0,0,0-.66,1,3.11,3.11,0,0,0-.24,1.25,3,3,0,0,0,.92,2.22,2.9,2.9,0,0,0,1,.62,3.25,3.25,0,0,0,1.18.22,3.51,3.51,0,0,0,1.23-.22,3.31,3.31,0,0,0,1-.61,3,3,0,0,0,.73-1,3,3,0,0,0,0-2.51"/><path class="cls-3" d="M211.86,116.18a8.22,8.22,0,0,0-1.27.48l-.4-1.09a8.92,8.92,0,0,1,1.5-.54,7,7,0,0,1,1.75-.2,4,4,0,0,1,2.82.91,3.47,3.47,0,0,1,1,2.69v5.46H216v-1.35a4.39,4.39,0,0,1-1.25,1.07,3.83,3.83,0,0,1-2,.47,4.37,4.37,0,0,1-1.22-.17,3.32,3.32,0,0,1-1.07-.53,2.71,2.71,0,0,1-.76-.87,2.51,2.51,0,0,1-.28-1.23,2.73,2.73,0,0,1,.27-1.25,2.48,2.48,0,0,1,.79-.91,3.81,3.81,0,0,1,1.21-.55,5.89,5.89,0,0,1,1.55-.19,9.53,9.53,0,0,1,1.5.1,11,11,0,0,1,1.25.28v-.31a2.3,2.3,0,0,0-.7-1.82,2.88,2.88,0,0,0-2-.61,5.35,5.35,0,0,0-1.44.18m-.42,3.67a1.62,1.62,0,0,0-.67,1.37,1.55,1.55,0,0,0,.18.76,1.76,1.76,0,0,0,.49.56,2.24,2.24,0,0,0,.71.35,3,3,0,0,0,.85.12,3.65,3.65,0,0,0,1.16-.18,3,3,0,0,0,.95-.5,2.37,2.37,0,0,0,.64-.76,2,2,0,0,0,.23-1v-.86q-.5-.14-1.15-.26a8,8,0,0,0-1.47-.12,3.18,3.18,0,0,0-1.93.5"/><path class="cls-3" d="M222.21,116.18a8.22,8.22,0,0,0-1.27.48l-.4-1.09A8.92,8.92,0,0,1,222,115a7,7,0,0,1,1.75-.2,4,4,0,0,1,2.82.91,3.47,3.47,0,0,1,1,2.69v5.46h-1.28v-1.35a4.39,4.39,0,0,1-1.25,1.07,3.83,3.83,0,0,1-2,.47,4.37,4.37,0,0,1-1.22-.17,3.32,3.32,0,0,1-1.07-.53,2.73,2.73,0,0,1-.76-.87,2.52,2.52,0,0,1-.28-1.23A2.73,2.73,0,0,1,220,120a2.48,2.48,0,0,1,.79-.91,3.81,3.81,0,0,1,1.21-.55,5.89,5.89,0,0,1,1.55-.19,9.53,9.53,0,0,1,1.5.1,11.1,11.1,0,0,1,1.25.28v-.31a2.3,2.3,0,0,0-.7-1.82,2.88,2.88,0,0,0-2-.61,5.35,5.35,0,0,0-1.44.18m-.42,3.67a1.62,1.62,0,0,0-.67,1.37,1.55,1.55,0,0,0,.18.76,1.76,1.76,0,0,0,.49.56,2.24,2.24,0,0,0,.71.35,3,3,0,0,0,.85.12,3.63,3.63,0,0,0,1.16-.18,3,3,0,0,0,.95-.5,2.37,2.37,0,0,0,.64-.76,2,2,0,0,0,.23-1v-.86q-.5-.14-1.15-.26a8,8,0,0,0-1.47-.12,3.18,3.18,0,0,0-1.93.5"/><rect class="cls-3" x="15.38" y="118.55" width="156.4" height="2.59"/></svg>