<svg id="Layer_1" data-name="Layer 1" xmlns="http://www.w3.org/2000/svg" viewBox="0 0 294 163"><defs><style>.cls-1{fill:#f6891f;}.cls-2{fill:#fff;}</style></defs><title>logo-white</title><path class="cls-1" d="M221.92,81.63a74.1,74.1,0,1,1-74.1-74.1,74.1,74.1,0,0,1,74.1,74.1"/><path class="cls-2" d="M36.26,34.46a2.06,2.06,0,0,0,.25.8c.12.19.31.25.43.12s.31-.49.37-1v-.49a.57.57,0,0,0-.25-.37c-.06-.06-.25-.06-.43.12a1.22,1.22,0,0,0-.37.86M35.83,38a1.8,1.8,0,0,0,.43-1,1.7,1.7,0,0,0-.06-1.11.84.84,0,0,0-.93-.37c-.43.12-.68.31-.74.62a1.8,1.8,0,0,0,.06,1A3.23,3.23,0,0,0,35,38a.53.53,0,0,0,.8,0m-5.5,2.47a.88.88,0,0,0,.31.68.49.49,0,0,0,.43.31c.19,0,.31-.18.37-.55a1.21,1.21,0,0,0-.18-.8.8.8,0,0,0-.74-.25.6.6,0,0,0-.18.62m-1.91.8a.71.71,0,0,0-.56.37.7.7,0,0,0-.18.68c.06.25.31.43.74.62a.44.44,0,0,0,.49-.12,1.15,1.15,0,0,0,.12-.49c0-.19-.06-.37-.06-.49-.18-.37-.31-.55-.56-.55M26.63,45a1.08,1.08,0,0,0-.74-.37.56.56,0,0,0-.62.18c-.19.18-.19.43,0,.86s.37.62.68.68.56-.12.8-.49a.84.84,0,0,0-.12-.86m-2.28,2.72a3.37,3.37,0,0,0-1.17,1.79c-.37.93-.74,1.73-1,2.41a29,29,0,0,0-1.11,3,16.78,16.78,0,0,0-.37,4c.19,3,.68,3.09,1.48.12.25-1,.37-2,.49-2.78s.37-1.85.62-2.72a18.29,18.29,0,0,1,1.17-3.33l.31-.86c.12-1.23,0-1.73-.37-1.54M40.52,86.33c-.25-.06-.43-.06-.62-.12a2.66,2.66,0,0,1-.68-.12,5.51,5.51,0,0,1-.86-.43,12.44,12.44,0,0,1-1.24-1,20.74,20.74,0,0,0-3-2.66A69.49,69.49,0,0,1,27,76.08a33.16,33.16,0,0,1-5.68-7,21.1,21.1,0,0,1-2.78-14.51A28.33,28.33,0,0,1,22.61,44,56.73,56.73,0,0,1,49.35,22.85,37.12,37.12,0,0,1,56,20.5c.18,0,.31-.06.43-.06.8-.19,1.61-.31,2.53-.49s1.73-.37,2.41-.49A18.08,18.08,0,0,1,73.93,21.8a41.2,41.2,0,0,1,8.52,7.6c2.78,3.21,3.77,6.67,2.9,10.37-.12.06-.25-.12-.37-.43s-.25-.68-.37-1.11a5.11,5.11,0,0,0-.25-.74c-.06-.25-.12-.37-.18-.37s-.12.06-.18.31a11.79,11.79,0,0,0-.18,1.36,9.1,9.1,0,0,1-1.79,4c-1,1.54-2,2.84-3,4-.19.18-.31.37-.49.55a5.33,5.33,0,0,1-.43.62,18.74,18.74,0,0,0-1.23,1.61,11.7,11.7,0,0,0-1.17,1.73c-.56.74-1.24,1.54-2,2.41a20.85,20.85,0,0,0-2.1,2.65c-.18.31-.43.68-.74,1.17-.56.8-1.17,1.73-1.85,2.84s-1.42,2-2.1,2.78a3.71,3.71,0,0,1-1.61,1.48h-.18c-.06-.06-.06-.06-.12-.06a.06.06,0,0,0-.06-.06l.06.06v.06a492.82,492.82,0,0,0-.12.37c0,.12-.06.19-.12.31l-.18.37a2.47,2.47,0,0,1-.68.86c-.18.18-.37.43-.62.74a6.84,6.84,0,0,0-.68,1.36,3.72,3.72,0,0,1-.25.5c-.19.56-.49,1.23-.8,1.91a6.36,6.36,0,0,1-1.05,1.73c-.37.49-.74.62-1.11.43s-.74-.93-1.05-2.16c-.25-.8-.43-1.36-.55-1.73a2.62,2.62,0,0,0-.37-.74.28.28,0,0,0-.31,0,1.29,1.29,0,0,0-.18.31,1.37,1.37,0,0,1-.25.31c-.06.06-.12.06-.25-.06a4.27,4.27,0,0,1-.31-.8,9.68,9.68,0,0,1,.8-7.41,30.14,30.14,0,0,1,4.69-6.05l1.73-1.91c.62-.68,1.17-1.3,1.73-2,1.17-1.3,2.35-2.66,3.46-4,.31-.37.68-.74,1-1.17A53.53,53.53,0,0,0,75,38.6c1.79-2.72,2.41-5.19,1.91-7.53a8,8,0,0,0-1-1,.91.91,0,0,1-.25-.18,6.83,6.83,0,0,0-2-1.11,3.3,3.3,0,0,0-1.36-.12,8.59,8.59,0,0,1-2.53-.25,9.33,9.33,0,0,0-.93-.12,3.5,3.5,0,0,0-.43.06.85.85,0,0,0-.25.19c0,.06-.06.06-.12.12s-.18.06-.31,0a1.5,1.5,0,0,1-.62-.12,7.47,7.47,0,0,1-1-.37,2.12,2.12,0,0,0-.74-.18.93.93,0,0,0-.43.06c-.12.06-.18.12-.31.19a1.37,1.37,0,0,1-.74.43,3.55,3.55,0,0,1-1.54.12,5,5,0,0,0-1.85.18,3.31,3.31,0,0,0-1,.49,6.39,6.39,0,0,1-.93.49,9.69,9.69,0,0,1-1.48.56c-.49.12-.86.25-1.23.31a9.81,9.81,0,0,0-1.73.49,10,10,0,0,0-2,1.11,3.93,3.93,0,0,1-1.11.37,4.8,4.8,0,0,0-1.42.37,30.94,30.94,0,0,0-3.83,2.28c-.93.74-1.91,1.54-3,2.47-.49.43-1,.93-1.67,1.42a12.46,12.46,0,0,1-2,1.42c-.43.31-.86.62-1.36,1a10.35,10.35,0,0,0-1.79,1.85c-.37.43-.62.74-.8,1a4,4,0,0,1-.56.49c-.18.12-.37.31-.68.49s-.49.31-.8.55a4.7,4.7,0,0,0-.56.56.56.56,0,0,0-.18.31v.31a.78.78,0,0,1,.06.37,3.69,3.69,0,0,1-.25.49,4.08,4.08,0,0,1-.74.74,8.65,8.65,0,0,0-2,3.4l-.56,1.3q-3.15,6.3-1.85,10.93a22.13,22.13,0,0,0,5.8,9.32,64.8,64.8,0,0,0,10.31,8.46c3.64,2.35,7.41,4.51,11.3,6.54,3.71,2,7.35,4.08,10.81,6.3a19.76,19.76,0,0,1,6.11,6.73A18.12,18.12,0,0,1,72.94,111c-.25,3.27-1.54,5.62-3.83,7.1a29.59,29.59,0,0,1-7.84,3.27,23.74,23.74,0,0,1-2.47.68,18.47,18.47,0,0,1-3.15.49,3.12,3.12,0,0,1-2.22-.49c-.18-.18-.25-.31-.18-.37s.25-.18.49-.31a.47.47,0,0,1,.25-.12,28.74,28.74,0,0,1,4.63-1.36c1.3-.31,2.47-.68,3.52-1q1.11-.37,3.15-1.11a37.92,37.92,0,0,0,4-1.73,6.77,6.77,0,0,0,2.47-1.85l.06-.62a7.14,7.14,0,0,0-1.67.62c-.68.37-1.42.74-2.1,1.17a18.6,18.6,0,0,1-2.16,1.11c-5.8,2.72-10.87,4-15.13,3.83a64.73,64.73,0,0,1-15.07-2.59,43.78,43.78,0,0,1-9-4,31.19,31.19,0,0,1-7.84-5.87,15.61,15.61,0,0,0,4,5,45.54,45.54,0,0,0,5.37,3.89,3.63,3.63,0,0,1,1.11.86c.25.31.18.49-.19.62a29.12,29.12,0,0,1-12.72-9.26A14.91,14.91,0,0,1,13.78,94.6c.49-1.36.93-2,1.3-2.16s.68.12.93.74a8.32,8.32,0,0,1,.74,2.1c.19.62.43,1.17.62,1.67a18.62,18.62,0,0,0,8.71,8.58,70.69,70.69,0,0,0,12,4.69,53.86,53.86,0,0,0,10,2,42.64,42.64,0,0,0,10.31-.37,31.2,31.2,0,0,0,4.45-.8,10,10,0,0,0,4.14-2c1-1,1.23-2.35.56-4.14A13.77,13.77,0,0,0,62.57,100a76.12,76.12,0,0,0-6.92-4c-.74-.43-1.42-.74-2-1.11l-.62-.31-.55-.37A51.32,51.32,0,0,0,47,91.33a12.21,12.21,0,0,1-1.85-1.11,12.9,12.9,0,0,1-1.3-1.3,12.86,12.86,0,0,0-2.47-2.22,3.31,3.31,0,0,0-.86-.37"/><path class="cls-2" d="M115.07,76.43a2.45,2.45,0,0,0,.35-.83c0-.12,0-.12-.06-.12s-.29.18-.59.65a1.09,1.09,0,0,0-.24.59c0,.06,0,.12.06.12s.18-.12.47-.41M101.91,92.71c0-.41-.24-.59-.65-.59s-.47.18-.47.29v.12a.54.54,0,0,0,.18.3,1.26,1.26,0,0,0,.71.18.64.64,0,0,0,.24-.3m-4.78-7.43a1,1,0,0,0-.35-.89h-.12c-.18,0-.23.06-.23.24v.59l.47.71c.18,0,.23-.23.23-.65m.06-4.54a19.09,19.09,0,0,1,1.71-4.66,32.33,32.33,0,0,1,3.48-5.72c.41-.53.65-.83.65-1a1.17,1.17,0,0,0-.24-.47l-.29-.29-.94.88a4,4,0,0,0-.47,1c-.12.41-.23.83-.35,1.12a7,7,0,0,1-.82,1.12A7,7,0,0,0,99.2,74a1.86,1.86,0,0,1-.47.77,4.79,4.79,0,0,0-1.24,1.89c-.18.53-.35.77-.47.77a.94.94,0,0,0-.77,1.06,3.38,3.38,0,0,0,.06.71,5.84,5.84,0,0,1,.06,1.06L96.31,82c0,.89.06,1.36.23,1.36s.41-.83.65-2.6M84.57,85A40.38,40.38,0,0,0,88.88,79l.35-.53a30.58,30.58,0,0,0,3-6,16.19,16.19,0,0,0,.94-2.66c0-.29-.18-.41-.59-.41a5.33,5.33,0,0,0-2.42.77,13.15,13.15,0,0,0-3,2.36,21.94,21.94,0,0,0-3.78,5.55,16.17,16.17,0,0,0-1.71,6.67c0,1.24.24,1.83.71,1.83h.47c.29-.06.83-.53,1.71-1.53M82,77.85A50.63,50.63,0,0,1,84.92,73a13.15,13.15,0,0,0,1.24-2H86.1c-.77.18-1.89,1.48-3.24,3.89-1.12,2-1.71,3.24-1.71,3.83a.31.31,0,0,0,.12.24c.24-.12.47-.47.77-1.12m-6,14.51a9.78,9.78,0,0,1-2.71-6.14,23,23,0,0,1,.89-6.14C75.6,75,77,71.53,78.55,69.76a8.1,8.1,0,0,0,1.36-2,1.11,1.11,0,0,1,.41-.77,10.12,10.12,0,0,1,.83-.71c.29-.18.71-.53,1.3-1l1.71-1.36a8.36,8.36,0,0,1,5.25-2.12,6.64,6.64,0,0,1,4,1.18,7.65,7.65,0,0,1,1.42,1.18,2.56,2.56,0,0,0,1.18.47c.53,0,1.06-.53,1.65-1.53A4.19,4.19,0,0,1,100.85,61a4.75,4.75,0,0,1,4,2.48,4.43,4.43,0,0,1,.94,2.66,6.14,6.14,0,0,1-1,2.71c-2.42,3.66-4,6.31-4.9,7.91-.24.53-.59,1.47-1.06,2.95a14,14,0,0,0-.89,4.48q0,1.95,1.77,1.95a7.83,7.83,0,0,0,2.65-1.3c4.42-3.07,8.91-7.85,13.51-14.34A50.38,50.38,0,0,1,120,64.75l.65-.89c.06,0,.06.06.06.12s.06.12.06.23c0,1.24-1,3.6-2.95,7-.77,1.42-1.42,2.66-1.89,3.72A4.37,4.37,0,0,0,117,73.77c.47-.71,1.36-2,2.72-4.07.35-.59.59-.89.71-.89l.06.06-.12.41c-2.07,6.08-7.91,13.57-17.4,22.6a18.09,18.09,0,0,0,5.37-3.83l2.89-3.3q3.19-3.63,3.72-3.72c.12,0,.18.12.18.24,0,.53-1.18,2.24-3.54,5.08L109.23,89q-4.43,5.49-8.14,5.49a10.91,10.91,0,0,1-4-.94c-2.54-1.24-4.19-2.71-4.9-4.42a17.73,17.73,0,0,1-1.3-6.43,1,1,0,0,0-.35.65,6.78,6.78,0,0,1-.41,1.12A5.43,5.43,0,0,1,88.88,86a15,15,0,0,0-2.66,3.72,12.82,12.82,0,0,1-3.89,4.48,2.78,2.78,0,0,1-1.53.47c-1.24,0-2.83-.77-4.72-2.3"/><path class="cls-2" d="M174.42,71.89c0-.35-.06-.53-.18-.53s-.24.18-.24.47.12.41.24.41.18-.12.18-.35m-5.72,14A4.42,4.42,0,0,1,170.12,84q.53-.53.71-.53c.06,0,.06.06.06.12l-.06.41A2.64,2.64,0,0,1,168.7,86ZM159.2,73.3c0-.06.06-.12.12-.18a.45.45,0,0,0,.06-.3c0-.29-.06-.41-.12-.41s-.18.24-.36.77a3.19,3.19,0,0,0-.18.77v.18c.06,0,.24-.3.47-.83m-1.36,3.3.18-.35c.06-.06.06-.12.12-.18a3.2,3.2,0,0,0,.24-1c0-.18,0-.24-.12-.24s-.12.06-.23.12a2.12,2.12,0,0,0-.35.65,5.17,5.17,0,0,0-.12.94v.35a.49.49,0,0,0,.29-.29m-7.37,1.77v-.3c-.06-.12-.12-.18-.18-.18a1.2,1.2,0,0,1-.29.18.85.85,0,0,0-.12.35c0,.29.06.41.3.41s.29-.18.29-.47M136.72,90.24c.18-.18.41-.36.71-.59.47-.41,1.65-1.59,3.48-3.6.35-.41,2.12-2.18,5.19-5.25q6-5.31,6-6.55a.16.16,0,0,0-.18-.18,2.46,2.46,0,0,0-.59.29,7.14,7.14,0,0,1-.83.59c-.24.18-.88.71-1.95,1.71a91.68,91.68,0,0,0-11.45,12.39,6.2,6.2,0,0,0-.89,1.42c0,.06,0,.06.06.06a1.06,1.06,0,0,0,.41-.29m-6.31-10.33c0-.24.29-.65.83-1.18.29-.41.59-.59.71-.59s.06,0,.06.06c0,.23-.23.65-.77,1.24a2.76,2.76,0,0,1-.77.53c-.06,0-.06,0-.06-.06m-2.36,2.89c0-.41.35-.88,1-1.42l.83-.59-.71,1.06c-.47.71-.83,1.12-1.06,1.12-.06,0-.06-.06-.06-.18m-8.26,7.14c1.36-1.71,3-3.66,4.66-5.78s3.19-3.89,4.42-5.37c.65-.77,1.95-2.18,3.84-4.19s2.89-3.24,2.89-3.72c0-.18-.12-.23-.29-.23-1,.18-5.84,5.66-14.39,16.4a47.65,47.65,0,0,1-3.13,3.66C116.55,92,116,92.83,116,93.13s.12.35.24.35c.53,0,1.71-1.18,3.6-3.54m-7.73,7c-.12-.53-.53-.83-1.36-.94-.35-.06-.53-.18-.53-.24a.44.44,0,0,1-.06-.3,3,3,0,0,0-.12-.77,1.86,1.86,0,0,0-.65-.83,2.67,2.67,0,0,1-.71-1.53,18.66,18.66,0,0,1,.06-1.89A35.19,35.19,0,0,1,109.88,87l3.83-9.26c2-5,3.84-9.38,5.55-13,.71-1.53,1.48-2.3,2.36-2.3a4.14,4.14,0,0,1,.77.12,2.74,2.74,0,0,1,1.42.83,3,3,0,0,1,.53.83,1.14,1.14,0,0,0,.24.47l.29-.41c.47,0,.71.18.71.47a3.85,3.85,0,0,1-.12.65,3.31,3.31,0,0,0-.18,1.18,3.49,3.49,0,0,0,.41,1.71,2.34,2.34,0,0,1,.47,1.3,7.4,7.4,0,0,1-.59,2l-.35.89c0,.06,0,.12.06.12s.59-.35,1.3-1.12c3-3,5.31-5.19,7-6.61A6.06,6.06,0,0,1,137,63.51a3.11,3.11,0,0,1,2.65,1.06A7.27,7.27,0,0,0,141,65.81a1.43,1.43,0,0,1,.65.71l.18.89a4.19,4.19,0,0,0,.65,2.07,4.35,4.35,0,0,1,.59,2.18l-.06.59c0,1.24.06,1.83.18,1.83.3,0,2.12-1.59,5.55-4.72,3-2.66,5.31-4,7-4a3.33,3.33,0,0,1,2,.71,3.57,3.57,0,0,0,1.77.89c.41.12.65.24.65.3a.45.45,0,0,1-.06.29,1.1,1.1,0,0,0-.24.65,2.37,2.37,0,0,0,.12.35,4.81,4.81,0,0,1,.35,1.83,14.81,14.81,0,0,1-1.83,6c-.65,1.59-1,2.42-1.06,2.6s-.12.24-.18.24l.23-1.59c0-.18,0-.29-.06-.35a8.05,8.05,0,0,1-.35.94c-.24.65-.47,1.42-.77,2.3a17.9,17.9,0,0,0-.89,4.37c0,.94.29,1.42.94,1.42a21.49,21.49,0,0,0,7.08-5,87,87,0,0,0,6.37-7.49,80.43,80.43,0,0,1,5.72-6.73,1.88,1.88,0,0,0,.41-.35,1,1,0,0,1,.65-.3c.12,0,.18.06.18.24a2.25,2.25,0,0,1-1.06,1.83q-.18.09-.18.18l1.12-.18c.29,0,.47.12.47.41a2.55,2.55,0,0,1-.41,1.3c-.29.53-.59,1.06-.83,1.59a70.4,70.4,0,0,1-3.83,6.55,61.05,61.05,0,0,1-4.31,5.78,59.22,59.22,0,0,1-8.2,7.2l-.29.18a6.39,6.39,0,0,0-1.53,1.36c0,.06.06.06.12.06A11.49,11.49,0,0,0,161,91.53c1.71-.94,3-1.65,3.78-2.12,2.6-1.95,4.07-2.89,4.43-2.89.06,0,.06,0,.06.06a1.72,1.72,0,0,1-.35.59,21.9,21.9,0,0,1-7.55,6.31A9.2,9.2,0,0,1,157,94.6a9.5,9.5,0,0,1-2.83-.47A13.65,13.65,0,0,1,151,92a6.21,6.21,0,0,1-2.24-4.42,16.17,16.17,0,0,1,.77-4.84,20.56,20.56,0,0,0,.71-3c0-.18-.06-.29-.18-.29s-.47.29-1,.82a1.59,1.59,0,0,1-.41.47c-2,2.07-4,4.25-5.84,6.49l-.12.12c-3.3,4.13-6,6.49-7.9,7.14a2.21,2.21,0,0,1-1.65-1c-.12-.24-.24-.35-.29-.35h-.06c-.06.06-.12.06-.18.12a.88.88,0,0,1-.41.06c-.77,0-1.42-.65-1.89-2.06a5.44,5.44,0,0,1-.65-2,3.18,3.18,0,0,1,.24-1.3c.12-.41.23-.83.35-1.3a42.76,42.76,0,0,1,1.36-4.49,20.88,20.88,0,0,0,1.48-5.49c0-.29-.06-.41-.18-.41s-.47.29-1,.83l-1.83,1.83a24,24,0,0,0-2.48,3,21,21,0,0,1-2.07,2.54,2.69,2.69,0,0,0-.88,1.24,1.13,1.13,0,0,1-.83.94,1.27,1.27,0,0,0-.89,1,.85.85,0,0,0,.12.53c.29,0,1-.71,2.06-2.07a13,13,0,0,1,1.83-1.89c.06,0,.06,0,.06.06a15.07,15.07,0,0,1-1.3,1.89c-2.18,2.77-4.37,5.37-6.49,7.79s-4.07,3.66-5.72,3.66a1.43,1.43,0,0,1-1.42-.71"/><path class="cls-2" d="M207.17,76.43a2.46,2.46,0,0,0,.35-.83c0-.12,0-.12-.06-.12s-.29.18-.59.65a1.1,1.1,0,0,0-.23.59c0,.06,0,.12.06.12s.18-.12.47-.41M194,92.71c0-.41-.24-.59-.65-.59s-.47.18-.47.29v.12a.54.54,0,0,0,.18.3,1.26,1.26,0,0,0,.71.18.65.65,0,0,0,.24-.3m-4.78-7.43a1,1,0,0,0-.35-.89h-.12c-.18,0-.23.06-.23.24v.59l.47.71c.18,0,.23-.23.23-.65m.06-4.54A19.12,19.12,0,0,1,191,76.08a32.38,32.38,0,0,1,3.48-5.72c.41-.53.65-.83.65-1a1.17,1.17,0,0,0-.24-.47l-.29-.29-.94.88a4,4,0,0,0-.47,1c-.12.41-.23.83-.35,1.12a7,7,0,0,1-.82,1.12,7.09,7.09,0,0,0-.71,1.3,1.86,1.86,0,0,1-.47.77,4.78,4.78,0,0,0-1.24,1.89c-.18.53-.35.77-.47.77a.94.94,0,0,0-.77,1.06,3.37,3.37,0,0,0,.06.71,5.84,5.84,0,0,1,.06,1.06L188.41,82c0,.89.06,1.36.24,1.36s.41-.83.65-2.6M176.67,85A40.38,40.38,0,0,0,181,79l.35-.53a30.52,30.52,0,0,0,3-6,16.08,16.08,0,0,0,.94-2.66c0-.29-.18-.41-.59-.41a5.34,5.34,0,0,0-2.42.77,13.15,13.15,0,0,0-3,2.36,21.91,21.91,0,0,0-3.78,5.55,16.17,16.17,0,0,0-1.71,6.67c0,1.24.24,1.83.71,1.83H175c.29-.06.83-.53,1.71-1.53m-2.54-7.2A50.63,50.63,0,0,1,177,73a13.22,13.22,0,0,0,1.24-2h-.06c-.77.18-1.89,1.48-3.24,3.89-1.12,2-1.71,3.24-1.71,3.83a.31.31,0,0,0,.12.24c.24-.12.47-.47.77-1.12m-6,14.51a9.78,9.78,0,0,1-2.71-6.14,23,23,0,0,1,.89-6.14c1.36-5.13,2.77-8.55,4.31-10.32a8.12,8.12,0,0,0,1.36-2,1.11,1.11,0,0,1,.41-.77,10.12,10.12,0,0,1,.83-.71,16.33,16.33,0,0,0,1.3-1l1.71-1.36a8.36,8.36,0,0,1,5.25-2.12,6.64,6.64,0,0,1,4,1.18,7.69,7.69,0,0,1,1.42,1.18,2.56,2.56,0,0,0,1.18.47c.53,0,1.06-.53,1.65-1.53A4.19,4.19,0,0,1,193,61a4.75,4.75,0,0,1,4,2.48,4.43,4.43,0,0,1,.94,2.66,6.14,6.14,0,0,1-1,2.71c-2.42,3.66-4,6.31-4.9,7.91-.24.53-.59,1.47-1.06,2.95a14,14,0,0,0-.89,4.48q0,1.95,1.77,1.95a7.83,7.83,0,0,0,2.66-1.3c4.42-3.07,8.91-7.85,13.51-14.34a50.38,50.38,0,0,1,4.13-5.72l.65-.89c.06,0,.06.06.06.12s.06.12.06.23c0,1.24-1,3.6-2.95,7-.77,1.42-1.42,2.66-1.89,3.72a4.33,4.33,0,0,0,1.06-1.18c.47-.71,1.36-2,2.71-4.07.35-.59.59-.89.71-.89l.06.06-.12.41c-2.07,6.08-7.91,13.57-17.41,22.6a18.07,18.07,0,0,0,5.37-3.83l2.89-3.3Q206.46,81.12,207,81c.12,0,.18.12.18.24,0,.53-1.18,2.24-3.54,5.08L201.33,89q-4.42,5.49-8.14,5.49a10.9,10.9,0,0,1-4-.94c-2.54-1.24-4.19-2.71-4.9-4.42a17.71,17.71,0,0,1-1.3-6.43,1,1,0,0,0-.35.65,6.78,6.78,0,0,1-.41,1.12A5.44,5.44,0,0,1,181,86a15,15,0,0,0-2.66,3.72,12.83,12.83,0,0,1-3.89,4.48,2.78,2.78,0,0,1-1.53.47c-1.24,0-2.83-.77-4.72-2.3"/><path class="cls-2" d="M218.09,75.9A3.16,3.16,0,0,0,219.5,75c.35-.29,1.24-1.06,2.83-2.18a23.66,23.66,0,0,1,2.42-1.71c.06,0,1.18-.59,3.24-1.77,1.83-.94,3.66-1.83,5.49-2.71.83-.41,1.18-.71,1.18-.83s-.12-.12-.29-.12a6,6,0,0,0-1.83.53c-.41.12-.77.3-1.12.41a5,5,0,0,1-1.71.71,7,7,0,0,0-2.12,1.12,19.23,19.23,0,0,1-1.95,1.24c-.77.47-1.47.88-2.12,1.3s-1.24.83-1.83,1.18-1,.71-1.3.89c-.47.41-.94.83-1.42,1.18a9,9,0,0,0-1.71,2.12Zm-1.89,1.42c.18-.24.3-.41.24-.53s0-.12-.12-.12a.87.87,0,0,0-.18.12c-.06.06-.12.24-.24.41s-.12.29-.06.35v.06c.06,0,.18-.12.35-.3m-5.37,12v-.06c0-.06-.06-.12-.12-.18s-.12-.12-.18-.12a.21.21,0,0,0-.12.06.18.18,0,0,0-.06.12c0,.18.12.24.35.24.06,0,.12,0,.12-.06M203,93.24a2.65,2.65,0,0,1-.71-1.47,7.56,7.56,0,0,1,.59-2.83l3.36-9,1.36-3.72q2.66-8,3.54-11.68a4,4,0,0,1,.89-2.12,3.91,3.91,0,0,1,2.65-.65c2.6,0,4.37.71,5.37,2.12.06.12.06.23.12.35a3.62,3.62,0,0,1-.12,1.36l-.12.53.06.41a3.09,3.09,0,0,0,.47-.06.69.69,0,0,0,.18-.12l.53-.18,1.3-.53c1-.59,2.06-1.12,3.07-1.59,1.42-.65,2.83-1.3,4.31-2a7,7,0,0,1,3.19-.77c2.54.3,3.89,1.59,4,3.89a5.13,5.13,0,0,1,0,1.36c-.47,4-1.36,5.6-2.71,4.78l.06-.12a3.68,3.68,0,0,0,.18-1.18c-.06-.24-.3-.35-.77-.29a9.1,9.1,0,0,0-3.07.53c-1.06.41-2.06.83-3.13,1.36A16.24,16.24,0,0,0,225,73l-.12.06a6.07,6.07,0,0,0-1.71,1.3,1.17,1.17,0,0,1-.53.53c-.47.06-1.12.65-2,1.65l-2.07,1.89c-.94.89-1.89,1.77-2.83,2.71a15.3,15.3,0,0,1-1.3,1.18,7.62,7.62,0,0,0-1.3,2.36c-.06.3-.24.89-.47,1.71s-.53,1.77-.77,2.66a16.35,16.35,0,0,1-.65,3.18c-.12.12-.24.12-.47.12a.06.06,0,0,0-.06-.06l-.06.06v.59a2,2,0,0,1-2.12,2.24,9.12,9.12,0,0,1-5.6-1.95"/><path class="cls-2" d="M277,76.43a2.45,2.45,0,0,0,.35-.83c0-.12,0-.12-.06-.12s-.3.18-.59.65a1.09,1.09,0,0,0-.24.59c0,.06,0,.12.06.12s.18-.12.47-.41M263.81,92.71c0-.41-.24-.59-.65-.59s-.47.18-.47.29v.12a.54.54,0,0,0,.18.3,1.25,1.25,0,0,0,.71.18.64.64,0,0,0,.24-.3M259,85.28a1,1,0,0,0-.35-.89h-.12c-.18,0-.23.06-.23.24v.59l.47.71c.18,0,.23-.23.23-.65m.06-4.54a19.09,19.09,0,0,1,1.71-4.66,32.33,32.33,0,0,1,3.48-5.72c.41-.53.65-.83.65-1a1.17,1.17,0,0,0-.24-.47l-.3-.29-.94.88a4,4,0,0,0-.47,1c-.12.41-.23.83-.35,1.12a7,7,0,0,1-.82,1.12,7,7,0,0,0-.71,1.3,1.86,1.86,0,0,1-.47.77,4.79,4.79,0,0,0-1.24,1.89c-.18.53-.35.77-.47.77a.94.94,0,0,0-.77,1.06,3.38,3.38,0,0,0,.06.71,5.84,5.84,0,0,1,.06,1.06L258.21,82c0,.89.06,1.36.23,1.36s.41-.83.65-2.6M246.47,85A40.38,40.38,0,0,0,250.77,79l.35-.53a30.58,30.58,0,0,0,3-6,16.08,16.08,0,0,0,.94-2.66c0-.29-.18-.41-.59-.41a5.33,5.33,0,0,0-2.42.77,13.15,13.15,0,0,0-3,2.36,21.94,21.94,0,0,0-3.78,5.55,16.17,16.17,0,0,0-1.71,6.67c0,1.24.24,1.83.71,1.83h.47c.29-.06.83-.53,1.71-1.53m-2.54-7.2A50.63,50.63,0,0,1,246.82,73a13.16,13.16,0,0,0,1.24-2H248c-.77.18-1.89,1.48-3.24,3.89-1.12,2-1.71,3.24-1.71,3.83a.31.31,0,0,0,.12.24c.24-.12.47-.47.77-1.12m-6,14.51a9.78,9.78,0,0,1-2.71-6.14,23,23,0,0,1,.89-6.14c1.36-5.13,2.77-8.55,4.31-10.32a8.12,8.12,0,0,0,1.36-2,1.11,1.11,0,0,1,.41-.77,10.28,10.28,0,0,1,.83-.71c.29-.18.71-.53,1.3-1l1.71-1.36a8.36,8.36,0,0,1,5.25-2.12,6.64,6.64,0,0,1,4,1.18,7.65,7.65,0,0,1,1.42,1.18,2.56,2.56,0,0,0,1.18.47c.53,0,1.06-.53,1.65-1.53A4.19,4.19,0,0,1,262.75,61a4.75,4.75,0,0,1,4,2.48,4.43,4.43,0,0,1,.94,2.66,6.14,6.14,0,0,1-1,2.71c-2.42,3.66-4,6.31-4.9,7.91-.24.53-.59,1.47-1.06,2.95a14,14,0,0,0-.89,4.48q0,1.95,1.77,1.95a7.83,7.83,0,0,0,2.65-1.3c4.43-3.07,8.91-7.85,13.51-14.34a50.38,50.38,0,0,1,4.13-5.72l.65-.89c.06,0,.06.06.06.12s.06.12.06.23c0,1.24-1,3.6-2.95,7-.77,1.42-1.42,2.66-1.89,3.72a4.35,4.35,0,0,0,1.06-1.18c.47-.71,1.36-2,2.72-4.07.35-.59.59-.89.71-.89l.06.06-.12.41c-2.07,6.08-7.91,13.57-17.4,22.6a18.09,18.09,0,0,0,5.37-3.83l2.89-3.3q3.19-3.63,3.72-3.72c.12,0,.18.12.18.24,0,.53-1.18,2.24-3.54,5.08L271.13,89q-4.43,5.49-8.14,5.49a10.91,10.91,0,0,1-4-.94c-2.54-1.24-4.19-2.71-4.9-4.42a17.73,17.73,0,0,1-1.3-6.43,1,1,0,0,0-.35.65,6.78,6.78,0,0,1-.41,1.12A5.43,5.43,0,0,1,250.77,86a15,15,0,0,0-2.66,3.72,12.82,12.82,0,0,1-3.89,4.48,2.78,2.78,0,0,1-1.53.47c-1.24,0-2.83-.77-4.72-2.3"/><path class="cls-2" d="M84,105.66a3.17,3.17,0,0,0-.1-1.12c-.12-.31-.31-.43-.77-.5s-.56-.17-.56-.48.21-.46.64-.46h9a1.23,1.23,0,0,0,.7-.14l.23-.19a.58.58,0,0,1,.31-.12c.25,0,.31.08.54.44l1.55,2.48a.72.72,0,0,1,.12.35.42.42,0,0,1-.41.41c-.17,0-.33-.15-.58-.41a6.27,6.27,0,0,0-1.86-1.3,6.76,6.76,0,0,0-2.57-.41h-1.8c-1.22,0-1.41.17-1.41,1.39V108c0,.5.21.68.68.68h1.59c.6,0,.77-.06,1-.39a2.54,2.54,0,0,0,.16-.31.7.7,0,0,1,.39-.19c.19,0,.25,0,.48.46l1.53,2.38a1.13,1.13,0,0,1,.17.39.43.43,0,0,1-.46.41c-.17,0-.33-.12-.6-.41a3.54,3.54,0,0,0-2.69-1.16H87.64c-.46,0-.68.19-.68.66v4.78c0,1.22.21,1.45,1.41,1.45H91a10.15,10.15,0,0,0,3.06-.43,5.6,5.6,0,0,0,2.17-1.7c.19-.29.33-.41.48-.41a.47.47,0,0,1,.48.41,1,1,0,0,1-.17.41l-1.72,3c-.21.39-.29.43-.54.43a.53.53,0,0,1-.35-.12l-.27-.19c-.25-.21-.27-.21-.87-.21H83.15c-.43,0-.64-.16-.64-.48s.14-.41.56-.46.64-.19.79-.52a3.1,3.1,0,0,0,.1-1.12v-9.77Z"/><path class="cls-2" d="M131,105.62a.53.53,0,0,1,.17.33.44.44,0,0,1-.45.41,1.32,1.32,0,0,1-.58-.33,5,5,0,0,0-.6-.43c-.58-.37-1-.64-1.34-.83a6.78,6.78,0,0,0-3-.83c-1.37,0-2.32.77-2.32,1.82s.79,1.59,3,2.11l2,.46c3.87.89,5.73,2.54,5.73,5.13,0,2.83-2.54,4.84-6.06,4.84a17.78,17.78,0,0,1-4-.58,4.25,4.25,0,0,0-.79-.12c-.25,0-.37.08-.5.35s-.31.43-.58.43-.29,0-.48-.37l-1.86-3.17a1.23,1.23,0,0,1-.17-.46.44.44,0,0,1,.43-.46c.21,0,.37.15.66.52a9.07,9.07,0,0,0,6.37,2.67c2.34,0,3.93-1.16,3.93-2.9,0-1.47-1-2.34-3.5-3l-1.92-.5a14.17,14.17,0,0,1-3.54-1.37,3.3,3.3,0,0,1-1.78-3c0-2.15,1.82-3.66,4.47-3.66a10,10,0,0,1,2.48.33l.33.08a1.5,1.5,0,0,0,.47.08.78.78,0,0,0,.62-.29.83.83,0,0,1,.19-.23.35.35,0,0,1,.25-.1.34.34,0,0,1,.27.12l.21.29Z"/><path class="cls-2" d="M159.42,105c0-.52-.12-.66-.64-.66h-1a3.72,3.72,0,0,0-2.28.62,6.82,6.82,0,0,0-1.55,1.49c-.21.25-.37.35-.54.35a.4.4,0,0,1-.43-.39,1,1,0,0,1,.12-.41l1.57-2.94a.56.56,0,0,1,.52-.37.39.39,0,0,1,.31.1l.21.17c.12.15.29.19.68.19h9.31c.41,0,.52,0,.72-.23s.31-.25.46-.25h0a.48.48,0,0,1,.29.14s.08.12.17.33l1.43,2.94a1,1,0,0,1,.08.33.4.4,0,0,1-.43.39.7.7,0,0,1-.56-.37,7,7,0,0,0-1.36-1.47,4.09,4.09,0,0,0-2.21-.64l-1.22,0c-.48,0-.66.17-.66.64v10.47a2.66,2.66,0,0,0,.1,1.12c.12.31.29.43.72.5s.56.17.56.48-.21.48-.64.48h-4.55c-.43,0-.64-.16-.64-.48s.14-.41.56-.45c.74-.1.89-.37.89-1.64V105Z"/><path class="cls-2" d="M192.93,112.47h4c.27,0,.44-.1.44-.31a.9.9,0,0,0,0-.25l-2.19-5.46c0-.12-.14-.23-.19-.23s-.12.08-.17.21l-2.19,5.5a.77.77,0,0,0,0,.21c0,.23.15.33.39.33m-5.46,5c0-.31.17-.41.58-.45a1.4,1.4,0,0,0,1-.52,4.75,4.75,0,0,0,.56-1.12l4.8-11.86c.16-.39.23-.45.47-.45h1.95a.62.62,0,0,1,.31.08c0,.06.06.14.15.35l4.63,11.88a4.34,4.34,0,0,0,.56,1.12,1.23,1.23,0,0,0,1,.5c.41.06.56.17.56.48s-.21.48-.64.48h-5c-.45,0-.68-.16-.68-.48s.21-.43.58-.45c.54-.08.72-.21.72-.62a3.23,3.23,0,0,0-.27-1l-.41-1a1.28,1.28,0,0,0-.33-.58,1.51,1.51,0,0,0-.6-.08h-4.9a1.52,1.52,0,0,0-.6.08,4.29,4.29,0,0,0-.23.52l-.43,1.08a3,3,0,0,0-.33,1.08c0,.35.19.48.7.54s.58.19.58.48-.23.48-.66.48h-3.31c-.46,0-.68-.16-.68-.48"/><path class="cls-2" d="M229,105c0-.52-.12-.66-.64-.66h-1a3.72,3.72,0,0,0-2.28.62,6.82,6.82,0,0,0-1.55,1.49c-.21.25-.37.35-.54.35a.4.4,0,0,1-.43-.39,1,1,0,0,1,.12-.41l1.57-2.94a.56.56,0,0,1,.52-.37.39.39,0,0,1,.31.1l.21.17c.12.15.29.19.68.19h9.31c.41,0,.52,0,.72-.23s.31-.25.46-.25h0a.48.48,0,0,1,.29.14s.08.12.17.33l1.43,2.94a1,1,0,0,1,.08.33.4.4,0,0,1-.43.39.7.7,0,0,1-.56-.37,7,7,0,0,0-1.36-1.47,4.09,4.09,0,0,0-2.21-.64l-1.22,0c-.48,0-.66.17-.66.64v10.47a2.66,2.66,0,0,0,.1,1.12c.12.31.29.43.72.5s.56.17.56.48-.21.48-.64.48h-4.55c-.44,0-.64-.16-.64-.48s.14-.41.56-.45c.74-.1.89-.37.89-1.64V105Z"/><path class="cls-2" d="M261.53,105.66a3.17,3.17,0,0,0-.1-1.12c-.12-.31-.31-.43-.77-.5s-.56-.17-.56-.48.21-.46.64-.46h9a1.23,1.23,0,0,0,.7-.14l.23-.19a.58.58,0,0,1,.31-.12c.25,0,.31.08.54.44l1.55,2.48a.72.72,0,0,1,.12.35.42.42,0,0,1-.41.41c-.17,0-.33-.15-.58-.41a6.25,6.25,0,0,0-1.86-1.3,6.76,6.76,0,0,0-2.57-.41h-1.8c-1.22,0-1.41.17-1.41,1.39V108c0,.5.21.68.68.68h1.59c.6,0,.77-.06,1-.39a2.54,2.54,0,0,0,.17-.31.7.7,0,0,1,.39-.19c.19,0,.25,0,.48.46l1.53,2.38a1.13,1.13,0,0,1,.17.39.43.43,0,0,1-.46.41c-.17,0-.33-.12-.6-.41a3.54,3.54,0,0,0-2.69-1.16h-1.53c-.46,0-.68.19-.68.66v4.78c0,1.22.21,1.45,1.41,1.45h2.63a10.16,10.16,0,0,0,3.06-.43,5.6,5.6,0,0,0,2.17-1.7c.19-.29.33-.41.48-.41a.48.48,0,0,1,.48.41,1,1,0,0,1-.17.41l-1.72,3c-.21.39-.29.43-.54.43a.53.53,0,0,1-.35-.12l-.27-.19c-.25-.21-.27-.21-.87-.21H260.72c-.43,0-.64-.16-.64-.48s.14-.41.56-.46.64-.19.79-.52a3.1,3.1,0,0,0,.1-1.12v-9.77Z"/><path class="cls-1" d="M223.13,38.31c0-.52-.12-.66-.64-.66h-1a3.72,3.72,0,0,0-2.28.62,6.82,6.82,0,0,0-1.55,1.49c-.21.25-.37.35-.54.35a.4.4,0,0,1-.43-.39,1,1,0,0,1,.12-.41l1.57-2.94a.56.56,0,0,1,.52-.37.39.39,0,0,1,.31.1l.21.17c.12.15.29.19.68.19h9.31c.41,0,.52,0,.72-.23s.31-.25.46-.25h0a.48.48,0,0,1,.29.14s.08.12.17.33l1.43,2.94a1,1,0,0,1,.08.33.4.4,0,0,1-.43.39.7.7,0,0,1-.56-.37,7,7,0,0,0-1.36-1.47,4.09,4.09,0,0,0-2.21-.64l-1.22,0c-.48,0-.66.17-.66.64V48.76a2.66,2.66,0,0,0,.1,1.12c.12.31.29.43.72.5s.56.17.56.48-.21.48-.64.48h-4.55c-.43,0-.64-.16-.64-.48s.14-.41.56-.45c.74-.1.89-.37.89-1.64V38.31Z"/><path class="cls-1" d="M236.69,39c0-1.24-.12-1.53-.75-1.63-.45,0-.58-.15-.58-.46s.23-.47.66-.47h4.26c.46,0,.66.17.66.47s-.1.39-.56.46-.73.39-.73,1.61v2.77c0,.64.23.83.83.83l5.44,0c.6,0,.83-.23.83-.87V39c0-1.24-.14-1.53-.74-1.63s-.56-.15-.56-.46.23-.47.64-.47h4.3c.46,0,.66.17.66.47s-.1.41-.58.46-.52.19-.62.52a3.67,3.67,0,0,0-.08,1.12v9.75c0,1.26.12,1.53.7,1.64s.58.12.58.46-.21.48-.66.48h-4.32c-.43,0-.66-.17-.66-.48s.12-.41.58-.46c.62-.1.79-.39.79-1.64V45c0-.64-.21-.85-.83-.85H240.5c-.6,0-.83.23-.83.85v3.72a3.39,3.39,0,0,0,.08,1.12.69.69,0,0,0,.62.52c.46,0,.58.12.58.46s-.23.48-.68.48H236c-.44,0-.66-.17-.66-.48s.14-.41.56-.48c.66-.08.81-.37.81-1.47V39Z"/><path class="cls-1" d="M255.92,39a3.17,3.17,0,0,0-.1-1.12c-.12-.31-.31-.43-.77-.5s-.56-.17-.56-.48.21-.46.64-.46h9a1.23,1.23,0,0,0,.7-.14l.23-.19a.58.58,0,0,1,.31-.12c.25,0,.31.08.54.44l1.55,2.48a.72.72,0,0,1,.12.35.42.42,0,0,1-.41.41c-.17,0-.33-.15-.58-.41a6.25,6.25,0,0,0-1.86-1.3,6.76,6.76,0,0,0-2.57-.41h-1.8c-1.22,0-1.41.17-1.41,1.39v2.44c0,.5.21.68.68.68h1.59c.6,0,.77-.06,1-.39a2.54,2.54,0,0,0,.17-.31.7.7,0,0,1,.39-.19c.19,0,.25,0,.48.46L264.71,44a1.13,1.13,0,0,1,.17.39.43.43,0,0,1-.46.41c-.17,0-.33-.12-.6-.41a3.54,3.54,0,0,0-2.69-1.16H259.6c-.46,0-.68.19-.68.66v4.78c0,1.22.21,1.45,1.41,1.45H263a10.16,10.16,0,0,0,3.06-.43,5.6,5.6,0,0,0,2.17-1.7c.19-.29.33-.41.48-.41a.48.48,0,0,1,.48.41,1,1,0,0,1-.17.41l-1.72,3c-.21.39-.29.43-.54.43a.53.53,0,0,1-.35-.12l-.27-.19c-.25-.21-.27-.21-.87-.21H255.11c-.43,0-.64-.16-.64-.48s.14-.41.56-.46.64-.19.79-.52a3.1,3.1,0,0,0,.1-1.12V39Z"/><polygon class="cls-2" points="219.69 141.32 219.61 141.32 214.33 133.58 214.33 145.29 212.74 145.29 212.74 130.81 214.39 130.81 219.67 138.71 224.95 130.81 226.6 130.81 226.6 145.29 224.97 145.29 224.97 133.56 219.69 141.32"/><path class="cls-2" d="M231,134.59h1.59v10.7H231Zm-.1-4.1h1.82v1.76h-1.82Z"/><path class="cls-2" d="M245,137.92a3.61,3.61,0,0,0-.88-1.15,4,4,0,0,0-1.25-.73,4.24,4.24,0,0,0-1.47-.26A4.11,4.11,0,0,0,240,136a3.45,3.45,0,0,0-1.18.72,3.4,3.4,0,0,0-.8,1.15,3.75,3.75,0,0,0-.29,1.5,3.61,3.61,0,0,0,1.11,2.66,3.49,3.49,0,0,0,1.18.74,3.9,3.9,0,0,0,1.42.26,4.22,4.22,0,0,0,1.47-.26,4,4,0,0,0,1.25-.73,3.61,3.61,0,0,0,.88-1.15,3.55,3.55,0,0,0,0-3m1.48,7.79a4.3,4.3,0,0,1-1.1,1.62,4.68,4.68,0,0,1-1.72,1,7.14,7.14,0,0,1-2.24.33,8.73,8.73,0,0,1-2.57-.37,8.27,8.27,0,0,1-2.3-1.12l.72-1.24a7.72,7.72,0,0,0,1.94,1,6.6,6.6,0,0,0,2.17.35,4,4,0,0,0,2.83-1,3.65,3.65,0,0,0,1.06-2.85v-1.26a6.74,6.74,0,0,1-1.72,1.59,4.43,4.43,0,0,1-2.48.66,5.24,5.24,0,0,1-1.87-.34,4.85,4.85,0,0,1-2.73-2.58,5,5,0,0,1-.42-2.11,5.11,5.11,0,0,1,.42-2.12,4.87,4.87,0,0,1,1.13-1.59,5,5,0,0,1,1.61-1,5.26,5.26,0,0,1,3.24-.18,5,5,0,0,1,1.14.47,4.83,4.83,0,0,1,.92.68,7,7,0,0,1,.74.83v-1.92h1.59v8.84a6.21,6.21,0,0,1-.38,2.28"/><path class="cls-2" d="M252.49,140.47a1.93,1.93,0,0,0-.81,1.64,1.86,1.86,0,0,0,.22.91,2.11,2.11,0,0,0,.59.67,2.68,2.68,0,0,0,.86.43,3.56,3.56,0,0,0,1,.14,4.36,4.36,0,0,0,1.39-.22,3.67,3.67,0,0,0,1.14-.6,2.84,2.84,0,0,0,.76-.91,2.46,2.46,0,0,0,.28-1.17v-1c-.4-.11-.86-.21-1.37-.31a9.61,9.61,0,0,0-1.76-.15,3.81,3.81,0,0,0-2.31.6m.51-4.4a9.81,9.81,0,0,0-1.52.57l-.48-1.3a10.66,10.66,0,0,1,1.8-.65,8.33,8.33,0,0,1,2.09-.24,4.81,4.81,0,0,1,3.37,1.09,4.16,4.16,0,0,1,1.18,3.22v6.54h-1.53v-1.61a5.23,5.23,0,0,1-1.5,1.28,4.58,4.58,0,0,1-2.37.56,5.22,5.22,0,0,1-1.46-.21,4,4,0,0,1-1.28-.63,3.26,3.26,0,0,1-.91-1,3,3,0,0,1-.34-1.47,3.28,3.28,0,0,1,.33-1.5,3,3,0,0,1,.94-1.09,4.55,4.55,0,0,1,1.45-.66,7,7,0,0,1,1.85-.23,11.37,11.37,0,0,1,1.8.12,13.23,13.23,0,0,1,1.49.33v-.37a2.75,2.75,0,0,0-.84-2.18,3.45,3.45,0,0,0-2.35-.73,6.4,6.4,0,0,0-1.73.22"/><path class="cls-2" d="M264.89,140.47a1.93,1.93,0,0,0-.81,1.64,1.86,1.86,0,0,0,.22.91,2.11,2.11,0,0,0,.59.67,2.68,2.68,0,0,0,.86.43,3.56,3.56,0,0,0,1,.14,4.36,4.36,0,0,0,1.39-.22,3.67,3.67,0,0,0,1.14-.6,2.84,2.84,0,0,0,.76-.91,2.46,2.46,0,0,0,.28-1.17v-1c-.4-.11-.86-.21-1.37-.31a9.61,9.61,0,0,0-1.76-.15,3.81,3.81,0,0,0-2.31.6m.51-4.4a9.81,9.81,0,0,0-1.52.57l-.48-1.3a10.66,10.66,0,0,1,1.8-.65,8.33,8.33,0,0,1,2.09-.24,4.81,4.81,0,0,1,3.37,1.09,4.16,4.16,0,0,1,1.18,3.22v6.54h-1.53v-1.61a5.23,5.23,0,0,1-1.5,1.28,4.58,4.58,0,0,1-2.37.56,5.22,5.22,0,0,1-1.46-.21,4,4,0,0,1-1.28-.63,3.26,3.26,0,0,1-.91-1,3,3,0,0,1-.34-1.47,3.28,3.28,0,0,1,.33-1.5,3,3,0,0,1,.94-1.09,4.55,4.55,0,0,1,1.45-.66,7,7,0,0,1,1.85-.23,11.37,11.37,0,0,1,1.8.12,13.23,13.23,0,0,1,1.49.33v-.37a2.75,2.75,0,0,0-.84-2.18,3.45,3.45,0,0,0-2.35-.73,6.4,6.4,0,0,0-1.73.22"/><rect class="cls-2" x="17.69" y="138.91" width="187.31" height="3.1"/></svg>