<?xml version="1.0" encoding="utf-8"?>
<!-- Generator: Adobe Illustrator 21.0.0, SVG Export Plug-In . SVG Version: 6.00 Build 0)  -->
<svg version="1.1" id="Layer_1" xmlns="http://www.w3.org/2000/svg" xmlns:xlink="http://www.w3.org/1999/xlink" x="0px" y="0px"
	 viewBox="0 0 46 46" style="enable-background:new 0 0 46 46;" xml:space="preserve">
<style type="text/css">
	.st0{fill:#642523;}
</style>
<title>mall</title>
<g>
	<path class="st0" d="M34.6,32.6c0,0-0.3,0-0.3,0V11.5c0-0.3-0.2-0.5-0.5-0.5H18.4c-0.3,0-0.5,0.2-0.5,0.5v4.9h-5.7
		c-0.3,0-0.5,0.2-0.5,0.5v15.7h-0.2c-0.3,0-0.5,0.2-0.5,0.5v1.5c0,0.3,0.2,0.5,0.5,0.5h23.2c0.3,0,0.5-0.2,0.5-0.5v-1.6
		C35.1,32.9,34.9,32.6,34.6,32.6z M29.4,29.8v2.8h-1.3v-2.8H29.4z M29.9,28.8h-1.8v-0.5h5.1v4.4h-2.8v-3.3
		C30.5,29,30.2,28.8,29.9,28.8z M28.1,20.3v-2.8h1.3v2.8H28.1z M33.3,20.3h-2.8v-2.8h2.8L33.3,20.3z M33.3,22.9l0,2.8h-2.8v-2.8
		H33.3z M28.1,21.8v-0.5h5.1v0.5H28.1z M28.1,25.7v-2.8h1.3v2.8H28.1z M33.3,26.7v0.5h-5.1v-0.5H33.3z M25.6,29.8v2.8h-1.3v-2.8
		H25.6z M23.2,29.8v2.8H22v-2.8H23.2z M17.9,29.8v2.8h-1.3v-2.8H17.9z M15.5,29.8v2.8h-1.3v-2.8H15.5z M16.5,22.9h2.8v2.8h-2.8
		L16.5,22.9z M20.4,22.9h2.8v2.8h-2.8L20.4,22.9z M24.3,22.9h2.8v2.8h-2.8L24.3,22.9z M26.1,28.8h-4.6c-0.3,0-0.5,0.2-0.5,0.5v3.3
		h-2v-3.3c0-0.3-0.2-0.5-0.5-0.5h-4.6c-0.3,0-0.5,0.2-0.5,0.5v3.3h-0.5v-5.9h14.4v5.9h-0.5v-3.3C26.6,29,26.4,28.8,26.1,28.8z
		 M15.5,22.9v2.8h-2.8l0-2.8H15.5z M12.7,21.8v-4.4h14.4l0,4.4H12.7z M22.8,14.9v-2.8h2.8v2.8H22.8z M26.6,14.9v-2.8h2.8v2.8H26.6z
		 M33.3,15.9v0.5H18.9l0-0.5H33.3z M18.9,14.9V12h2.8l0,2.8H18.9z M33.3,14.9h-2.8V12h2.8L33.3,14.9z M11.9,34.2v-0.5h22.2v0.5H11.9
		z"/>
	<rect x="13.2" y="27.2" class="st0" width="5.7" height="1.1"/>
	<rect x="20.9" y="27.2" class="st0" width="5.7" height="1.1"/>
</g>
</svg>
