<svg id="Layer_1" data-name="Layer 1" xmlns="http://www.w3.org/2000/svg" viewBox="0 0 46 46"><defs><style>.cls-1{fill:#fff;}.cls-2{fill:#652524;}</style></defs><title>parking</title><path class="cls-1" d="M23,44.93A21.93,21.93,0,1,0,1.07,23,21.93,21.93,0,0,0,23,44.93"/><path class="cls-2" d="M16.69,11.92h-2a4.36,4.36,0,0,0-4.35,4.35V32.48a1.9,1.9,0,0,0,1.9,1.9h6.88a1.9,1.9,0,0,0,1.9-1.9V16.27A4.36,4.36,0,0,0,16.69,11.92Zm-2.43.88a3.75,3.75,0,0,1-2.59,3l-.42.09A3.53,3.53,0,0,1,14.26,12.8Zm2.18-.08a4.48,4.48,0,0,0,1.23,2.62,4.1,4.1,0,0,0,2.53,1.26v2.88a5.33,5.33,0,0,0-9,0l0-2.81a4.36,4.36,0,0,0,3.9-3.9Zm-5,17.11a1,1,0,0,1-.19-.59V22.36a4.43,4.43,0,0,1,.36-1.77l.91,1.24a1.15,1.15,0,0,0-.16.58v5.4a.74.74,0,0,0,.12.44l-.78,1.21Zm6.82-7.42v5.4a.31.31,0,0,1-.31.31H13.5a.31.31,0,0,1-.31-.31v-5.4a.31.31,0,0,1,.31-.31h4.42A.31.31,0,0,1,18.23,22.41Zm.1-1.09a1.17,1.17,0,0,0-.41-.08H13.5a.5.5,0,0,0-.35.1L12,19.8a4.49,4.49,0,0,1,3.68-1.93,4.61,4.61,0,0,1,3.68,1.86Zm-6.29,9,1-1.43a1.14,1.14,0,0,0,.45.09h4.42a.59.59,0,0,0,.42-.13l.81,1,.25.36a1.06,1.06,0,0,1-.25,0h-7a.27.27,0,0,0-.13,0Zm-.82.51a1.88,1.88,0,0,0,1,.32h6.88a1.87,1.87,0,0,0,1-.32v1.66a1,1,0,0,1-1,1H12.27a1,1,0,0,1-1-1Zm8.85-1L19,28.31a1.14,1.14,0,0,0,.11-.49v-5.4a.8.8,0,0,0-.16-.52l.91-1.3a4.44,4.44,0,0,1,.36,1.77v6.88a2.18,2.18,0,0,1-.08.51Zm.14-14a3.66,3.66,0,0,1-2.9-3,3.66,3.66,0,0,1,2.8,2.5A3.53,3.53,0,0,1,20.21,15.78Z"/><path class="cls-2" d="M31.28,11.92h-2A4.36,4.36,0,0,0,25,16.27V32.48a1.9,1.9,0,0,0,1.9,1.9h6.88a1.9,1.9,0,0,0,1.9-1.9V16.27A4.36,4.36,0,0,0,31.28,11.92Zm-2.43.88a3.75,3.75,0,0,1-2.59,3l-.42.09A3.53,3.53,0,0,1,28.84,12.8ZM31,12.72a4.48,4.48,0,0,0,1.23,2.62,4.1,4.1,0,0,0,2.53,1.26v2.88a5.33,5.33,0,0,0-9,0l0-2.81a4.36,4.36,0,0,0,3.9-3.9ZM26,29.83a1,1,0,0,1-.19-.59V22.36a4.43,4.43,0,0,1,.36-1.77l.91,1.24a1.15,1.15,0,0,0-.16.58v5.4a.74.74,0,0,0,.12.44l-.78,1.21Zm6.82-7.42v5.4a.31.31,0,0,1-.31.31H28.08a.31.31,0,0,1-.31-.31v-5.4a.31.31,0,0,1,.31-.31H32.5A.31.31,0,0,1,32.81,22.41Zm.1-1.09a1.17,1.17,0,0,0-.41-.08H28.08a.5.5,0,0,0-.35.1L26.61,19.8a4.49,4.49,0,0,1,3.68-1.93A4.61,4.61,0,0,1,34,19.74Zm-6.29,9,1-1.43a1.14,1.14,0,0,0,.45.09H32.5a.59.59,0,0,0,.42-.13l.8,1,.25.36a1.06,1.06,0,0,1-.25,0h-7a.27.27,0,0,0-.13,0Zm-.82.51a1.88,1.88,0,0,0,1,.32h6.88a1.87,1.87,0,0,0,1-.32v1.66a1,1,0,0,1-1,1H26.86a1,1,0,0,1-1-1Zm8.85-1-1.1-1.52a1.14,1.14,0,0,0,.11-.49v-5.4a.8.8,0,0,0-.16-.52l.91-1.3a4.44,4.44,0,0,1,.36,1.77v6.88a2.18,2.18,0,0,1-.08.51Zm.14-14a3.66,3.66,0,0,1-2.9-3,3.66,3.66,0,0,1,2.8,2.5A3.53,3.53,0,0,1,34.8,15.78Z"/><polygon class="cls-2" points="22.6 34.84 22.66 35.63 23.45 35.63 23.45 35.57 23.39 34.78 22.6 34.84"/><polygon class="cls-2" points="22.6 11.9 22.66 34.16 23.45 34.16 23.39 11.84 22.6 11.9"/><polygon class="cls-2" points="22.6 10.43 22.66 11.22 23.45 11.22 23.45 11.16 23.39 10.37 22.6 10.43"/><polygon class="cls-2" points="12.67 32.9 12.67 32.85 12.61 32.05 11.82 32.11 11.88 32.9 12.67 32.9"/><polygon class="cls-2" points="19.59 32.9 19.59 32.85 19.54 32.05 18.75 32.11 18.8 32.9 19.59 32.9"/><polygon class="cls-2" points="27.35 32.9 27.35 32.85 27.3 32.05 26.5 32.11 26.56 32.9 27.35 32.9"/><polygon class="cls-2" points="34.28 32.9 34.28 32.85 34.22 32.05 33.43 32.11 33.49 32.9 34.28 32.9"/></svg>