<?xml version="1.0" encoding="utf-8"?>
<!-- Generator: Adobe Illustrator 21.0.0, SVG Export Plug-In . SVG Version: 6.00 Build 0)  -->
<svg version="1.1" id="Layer_1" xmlns="http://www.w3.org/2000/svg" xmlns:xlink="http://www.w3.org/1999/xlink" x="0px" y="0px"
	 viewBox="0 0 46 46" style="enable-background:new 0 0 46 46;" xml:space="preserve">
<style type="text/css">
	.st0{fill:#652524;}
</style>
<title>parking</title>
<path class="st0" d="M16.7,11.9h-2c-2.4,0-4.3,1.9-4.4,4.3v16.2c0,1,0.9,1.9,1.9,1.9l0,0h6.9c1,0,1.9-0.9,1.9-1.9l0,0V16.3
	C21,13.9,19.1,11.9,16.7,11.9z M14.3,12.8c-0.2,1.4-1.2,2.6-2.6,3l-0.4,0.1C11.4,14.3,12.7,13,14.3,12.8z M16.4,12.7
	c0.1,1,0.5,1.9,1.2,2.6s1.6,1.2,2.5,1.3v2.9c-1.6-2.5-4.9-3.2-7.4-1.6c-0.7,0.4-1.2,1-1.6,1.6v-2.8c2.1-0.2,3.7-1.8,3.9-3.9
	L16.4,12.7z M11.4,29.8c-0.1-0.2-0.2-0.4-0.2-0.6v-6.9c0-0.6,0.1-1.2,0.4-1.8l0.9,1.2c-0.1,0.2-0.2,0.4-0.2,0.6v5.4
	c0,0.2,0,0.3,0.1,0.4l-0.8,1.2L11.4,29.8z M18.3,22.4v5.4c0,0.2-0.1,0.3-0.3,0.3h-4.5c-0.2,0-0.3-0.1-0.3-0.3v-5.4
	c0-0.2,0.1-0.3,0.3-0.3h4.4C18.1,22.1,18.2,22.2,18.3,22.4L18.3,22.4z M18.4,21.3c-0.1-0.1-0.3-0.1-0.4-0.1h-4.5
	c-0.1,0-0.3,0-0.4,0.1L12,19.8c0.8-1.2,2.2-1.9,3.7-1.9s2.8,0.7,3.7,1.9L18.4,21.3z M12.1,30.3l1-1.4c0.1,0.1,0.3,0.1,0.4,0.1h4.4
	c0.2,0,0.3,0,0.4-0.1l0.8,1l0.3,0.4c-0.1,0-0.2,0-0.3,0H12.1H12H12.1z M11.3,30.8c0.3,0.2,0.6,0.3,1,0.3h6.9c0.4,0,0.7-0.1,1-0.3
	v1.7c0,0.6-0.4,1-1,1h-6.9c-0.6,0-1-0.4-1-1L11.3,30.8z M20.1,29.8L19,28.3c0.1-0.2,0.1-0.3,0.1-0.5v-5.4c0-0.2,0-0.4-0.2-0.5
	l0.9-1.3c0.2,0.6,0.4,1.2,0.4,1.8v6.9C20.2,29.4,20.2,29.6,20.1,29.8L20.1,29.8z M20.2,15.8c-1.5-0.3-2.7-1.5-2.9-3
	c1.3,0.3,2.4,1.2,2.8,2.5C20.2,15.5,20.2,15.6,20.2,15.8L20.2,15.8z"/>
<path class="st0" d="M31.3,11.9h-2c-2.4,0-4.3,2-4.3,4.3v16.2c0,1,0.9,1.9,1.9,1.9l0,0h6.9c1,0,1.9-0.9,1.9-1.9l0,0V16.3
	C35.7,13.9,33.7,11.9,31.3,11.9L31.3,11.9z M28.9,12.8c-0.2,1.4-1.2,2.6-2.6,3l-0.4,0.1C26,14.3,27.3,13,28.9,12.8L28.9,12.8z
	 M31,12.7c0.1,1,0.5,1.9,1.2,2.6s1.6,1.2,2.5,1.3v2.9c-1.6-2.5-4.9-3.2-7.4-1.6c-0.7,0.4-1.2,1-1.6,1.6v-2.8
	c2.1-0.2,3.7-1.8,3.9-3.9L31,12.7z M26,29.8c-0.1-0.2-0.2-0.4-0.2-0.6v-6.9c0-0.6,0.1-1.2,0.4-1.8l0.9,1.2c-0.1,0.2-0.2,0.4-0.2,0.6
	v5.4c0,0.2,0,0.3,0.1,0.4l-0.8,1.2L26,29.8z M32.8,22.4v5.4c0,0.2-0.1,0.3-0.3,0.3l0,0h-4.4c-0.2,0-0.3-0.1-0.3-0.3v-5.4
	c0-0.2,0.1-0.3,0.3-0.3h4.4C32.7,22.1,32.8,22.2,32.8,22.4L32.8,22.4L32.8,22.4z M32.9,21.3c-0.1-0.1-0.3-0.1-0.4-0.1h-4.4
	c-0.1,0-0.3,0-0.4,0.1l-1.1-1.5c0.8-1.2,2.2-1.9,3.7-1.9s2.8,0.7,3.7,1.9L32.9,21.3z M26.6,30.3l1-1.4c0.1,0.1,0.3,0.1,0.5,0.1h4.4
	c0.2,0,0.3,0,0.4-0.1l0.8,1l0.3,0.4c-0.1,0-0.2,0-0.3,0h-7H26.6L26.6,30.3z M25.8,30.8c0.3,0.2,0.6,0.3,1,0.3h6.9
	c0.4,0,0.7-0.1,1-0.3v1.7c0,0.6-0.4,1-1,1h-6.8c-0.6,0-1-0.4-1-1L25.8,30.8z M34.7,29.8l-1.1-1.5c0.1-0.2,0.1-0.3,0.1-0.5v-5.4
	c0-0.2,0-0.4-0.2-0.5l0.9-1.3c0.2,0.6,0.4,1.2,0.4,1.8v6.9C34.8,29.4,34.7,29.6,34.7,29.8L34.7,29.8z M34.8,15.8
	c-1.5-0.3-2.7-1.5-2.9-3c1.3,0.3,2.4,1.2,2.8,2.5C34.7,15.5,34.8,15.6,34.8,15.8L34.8,15.8z"/>
<polygon class="st0" points="22.6,34.8 22.7,35.6 23.5,35.6 23.5,35.6 23.4,34.8 "/>
<polygon class="st0" points="22.6,11.9 22.7,34.2 23.5,34.2 23.4,11.8 "/>
<polygon class="st0" points="22.6,10.4 22.7,11.2 23.5,11.2 23.5,11.2 23.4,10.4 "/>
<polygon class="st0" points="12.7,32.9 12.7,32.8 12.6,32 11.8,32.1 11.9,32.9 "/>
<polygon class="st0" points="19.6,32.9 19.6,32.8 19.5,32 18.8,32.1 18.8,32.9 "/>
<polygon class="st0" points="27.4,32.9 27.4,32.8 27.3,32 26.5,32.1 26.6,32.9 "/>
<polygon class="st0" points="34.3,32.9 34.3,32.8 34.2,32 33.4,32.1 33.5,32.9 "/>
</svg>
