<?xml version="1.0" encoding="utf-8"?>
<!-- Generator: Adobe Illustrator 21.0.0, SVG Export Plug-In . SVG Version: 6.00 Build 0)  -->
<svg version="1.1" id="Layer_1" xmlns="http://www.w3.org/2000/svg" xmlns:xlink="http://www.w3.org/1999/xlink" x="0px" y="0px"
	 viewBox="0 0 46 46" style="enable-background:new 0 0 46 46;" xml:space="preserve">
<style type="text/css">
	.st0{fill:#652524;}
	.st1{fill:#642523;}
</style>
<title>pavement</title>
<path class="st0" d="M13.8,34c0.4,0,0.7,0.3,0.7,0.7c0,0.4-0.3,0.7-0.7,0.7c-0.4,0-0.7-0.3-0.7-0.7l0,0C13,34.3,13.3,34,13.8,34
	C13.7,34,13.7,34,13.8,34"/>
<path class="st1" d="M14.8,19.1c1.4-0.2,2.7-1.1,3.3-2.4c0.5,1.3,1.6,2.2,2.9,2.4v4.4l-6.3,3.2V19.1z M11,14.6
	c0-1.7,1.4-3.1,3.1-3.1c1.7,0,3.1,1.4,3.1,3.1c0,1.7-1.4,3.1-3.1,3.1c0,0-0.1,0-0.1,0C12.3,17.7,11,16.3,11,14.6 M21.7,12.9
	c1.3,0,2.4,1.1,2.4,2.4s-1.1,2.4-2.4,2.4s-2.4-1.1-2.4-2.4l0,0C19.3,14,20.3,12.9,21.7,12.9 M25.2,16.9c0.4,0.7,1,1.2,1.8,1.4v2.1
	l-4.5,2.3v-3.6C23.6,18.8,24.7,18,25.2,16.9 M27.6,14.3c0.7,0,1.3,0.6,1.3,1.3c0,0.7-0.6,1.3-1.3,1.3s-1.3-0.6-1.3-1.3
	C26.3,14.9,26.9,14.3,27.6,14.3L27.6,14.3 M36.4,19.5c-0.1-0.2-0.4-0.4-0.6-0.4h-6.1c-0.1,0-0.2,0-0.3,0.1l-1,0.5v-1.4
	c1.5-0.4,2.3-1.9,2-3.4c-0.4-1.5-1.9-2.3-3.4-2c-0.7,0.2-1.2,0.6-1.6,1.2c-0.6-2-2.8-3.1-4.8-2.5c-0.9,0.3-1.7,0.9-2.1,1.7
	c-0.7-2.4-3.2-3.8-5.6-3.1C10.4,11,9,13.5,9.7,15.9c0.5,1.7,1.9,3,3.7,3.2v8.3L10.1,29c-0.4,0.1-0.5,0.6-0.4,0.9
	c0.1,0.4,0.6,0.5,0.9,0.4c0,0,0.1,0,0.1-0.1l19.1-9.8h0.8l-1.1,0.9c-0.3,0.2-0.4,0.7-0.1,1c0.2,0.3,0.7,0.4,1,0.1l0,0l2.6-2h1.4
	L23.7,34.7c-0.2,0.3-0.1,0.8,0.2,1c0.3,0.2,0.7,0.1,0.9-0.1l11.5-15.4C36.5,20,36.5,19.7,36.4,19.5"/>
<path class="st1" d="M20.4,28.6l-5.2,4.2c-0.3,0.3-0.3,0.7,0,1c0.2,0.2,0.6,0.3,0.9,0.1l5.2-4.2c0.3-0.3,0.3-0.7,0-1
	C21,28.4,20.6,28.4,20.4,28.6"/>
<path class="st1" d="M28.3,24.2c0.3-0.3,0.3-0.7,0-1c-0.2-0.2-0.6-0.3-0.9-0.1l-4.7,3.7c-0.3,0.3-0.3,0.7,0,1
	c0.2,0.2,0.6,0.3,0.9,0.1L28.3,24.2z"/>
</svg>
