<svg id="Layer_1" data-name="Layer 1" xmlns="http://www.w3.org/2000/svg" viewBox="0 0 46 46"><defs><style>.cls-1{fill:#fff;}.cls-2{fill:#652524;}</style></defs><title>perimeter-wall</title><path class="cls-1" d="M23,44.94A21.94,21.94,0,1,0,1.06,23,21.94,21.94,0,0,0,23,44.94"/><path class="cls-2" d="M33.12,14.86H34.3l0,.38a.54.54,0,0,1-1.08,0Zm1.39-1.71L34.4,14H33l-.11-.86ZM32,11.43h3.43v.86H32Zm3.43,7.28a.43.43,0,0,1-.43.43H32.43a.43.43,0,1,1,0-.86H35a.43.43,0,0,1,.43.43M32.85,20h1.71V35.42H32.85ZM23.43,32.85H32v2.57H23.43Zm-9.42,0h8.57v2.57H14ZM11.43,20h1.71V35.42H11.43ZM11,18.29h2.57a.43.43,0,1,1,0,.86H11a.43.43,0,0,1,0-.86m6.3.73a6,6,0,0,1,3.55-1.59h1.71v.86H21.29a6.06,6.06,0,0,0-3.38,1.34A7.33,7.33,0,0,1,14,21.71v-.86c1,0,2.66-1.2,3.3-1.84m-.73-1.59a.43.43,0,1,1-.43.43.43.43,0,0,1,.43-.43m.86-1.28a2,2,0,0,1,1.24.56L19,17a7.81,7.81,0,0,0-1.21.6,1.28,1.28,0,0,0-1.25-1h-.08a1.11,1.11,0,0,1,.94-.44M23,16a3,3,0,0,0,.48.61h-1A3,3,0,0,0,23,16m5.57.18a1.1,1.1,0,0,1,.94.44h-.08a1.28,1.28,0,0,0-1.25,1A7.76,7.76,0,0,0,27,17l.36-.26a2,2,0,0,1,1.24-.56m.86,2.14a.43.43,0,1,1,.43-.43.43.43,0,0,1-.43.43m-.86,2.85a10.08,10.08,0,0,0,1.71,1V32H28.57ZM26,30.06a4.71,4.71,0,0,0,0-7.27V19.42a4.43,4.43,0,0,1,1.48.81l.23.22V32H26Zm-2.57,1.06a4.65,4.65,0,0,0,1.71-.5V32H23.43Zm-2.57-.5a4.68,4.68,0,0,0,1.71.5V32H20.86Zm1.71-8.88a4.68,4.68,0,0,0-1.71.5v-3a2.49,2.49,0,0,1,.43,0h1.29Zm.86,0V19.14h1.28a2.49,2.49,0,0,1,.43,0v3a4.68,4.68,0,0,0-1.71-.5m0,3.83h.86v1.71h-.86Zm-.86,1.71h-.86V25.57h.86Zm-3.43-.86a3.86,3.86,0,0,1,3.43-3.83v2.12h-.86a.86.86,0,0,0-.86.86v1.71a.86.86,0,0,0,.86.86h.86v2.12a3.86,3.86,0,0,1-3.43-3.83m4.28,3.83V28.14h.86a.86.86,0,0,0,.86-.86V25.57a.86.86,0,0,0-.86-.86h-.86V22.6a3.85,3.85,0,0,1,0,7.66m-5.14-3.83v-6l.23-.22A4.4,4.4,0,0,1,20,19.42V22.8a4.7,4.7,0,0,0,0,7.26V32H18.29Zm-2.57-4.3a10.14,10.14,0,0,0,1.71-1V32H15.72ZM14,22.57a3.29,3.29,0,0,0,.86-.13V32H14ZM32,32h-.86V22.44a3.28,3.28,0,0,0,.86.13Zm0-10.28a7.33,7.33,0,0,1-3.91-2.09,6,6,0,0,0-3.38-1.34H23.43v-.86h1.71A6,6,0,0,1,28.69,19c.64.64,2.27,1.84,3.3,1.84ZM11.7,14.86h1.17l0,.38a.54.54,0,0,1-1.08,0Zm1.39-1.71L13,14H11.6l-.11-.86Zm-2.51-1.71H14v.86H10.58ZM35.1,15.35l.28-2.2h.05a.86.86,0,0,0,.86-.86v-.86a.86.86,0,0,0-.86-.86H34.14V9.72h-.86v.86H32a.86.86,0,0,0-.86.86v.86a.86.86,0,0,0,.86.86H32l.28,2.2a1.4,1.4,0,0,0,1,1.15v.93h-.86A1.28,1.28,0,0,0,32,19.92V20a4.53,4.53,0,0,1-2-1,1.28,1.28,0,0,0,.71-1.14c0-1.56-.84-2.57-2.14-2.57a2.8,2.8,0,0,0-1.76.73,2,2,0,0,1-1.24.56,2.14,2.14,0,0,1-2.14-2.14,1.35,1.35,0,0,1,1.28-1.28A1.29,1.29,0,0,1,26,14.43a.43.43,0,0,1-.86,0V14h-.86v.43a1.29,1.29,0,1,0,2.57,0A2.12,2.12,0,0,0,23,13.19a2.12,2.12,0,0,0-3.86,1.24,1.29,1.29,0,1,0,2.57,0V14h-.86v.43a.43.43,0,1,1-.86,0,1.29,1.29,0,0,1,1.28-1.28,1.35,1.35,0,0,1,1.29,1.28,2.14,2.14,0,0,1-2.14,2.14A2,2,0,0,1,19.19,16a2.79,2.79,0,0,0-1.76-.73c-1.3,0-2.14,1-2.14,2.57A1.28,1.28,0,0,0,16,19a4.53,4.53,0,0,1-2,1v-.08a1.28,1.28,0,0,0-.43-2.49h-.86V16.5a1.4,1.4,0,0,0,1-1.15l.28-2.2H14a.86.86,0,0,0,.86-.86v-.86a.86.86,0,0,0-.86-.86H12.72V9.72h-.86v.86H10.58a.86.86,0,0,0-.86.86v.86a.86.86,0,0,0,.86.86h.05l.27,2.2a1.4,1.4,0,0,0,1,1.15v.93H11a1.28,1.28,0,0,0-.43,2.49V36.28H35.42V19.92A1.28,1.28,0,0,0,35,17.43h-.86V16.5a1.4,1.4,0,0,0,1-1.15"/></svg>