<?xml version="1.0" encoding="utf-8"?>
<!-- Generator: Adobe Illustrator 21.0.0, SVG Export Plug-In . SVG Version: 6.00 Build 0)  -->
<svg version="1.1" id="Layer_1" xmlns="http://www.w3.org/2000/svg" xmlns:xlink="http://www.w3.org/1999/xlink" x="0px" y="0px"
	 viewBox="0 0 46 46" style="enable-background:new 0 0 46 46;" xml:space="preserve">
<style type="text/css">
	.st0{fill:#652524;}
</style>
<title>perimeter-wall</title>
<path class="st0" d="M33.1,14.9h1.2v0.4c0,0.3-0.2,0.5-0.5,0.5s-0.5-0.2-0.5-0.5l0,0L33.1,14.9z M34.5,13.1L34.4,14H33l-0.1-0.9
	L34.5,13.1z M32,11.4h3.4v0.9H32V11.4z M35.4,18.7c0,0.2-0.2,0.4-0.4,0.4l0,0h-2.6c-0.2,0-0.4-0.2-0.4-0.4s0.2-0.4,0.4-0.4H35
	C35.2,18.3,35.4,18.5,35.4,18.7L35.4,18.7 M32.8,20h1.7v15.4h-1.7V20z M23.4,32.8H32v2.6h-8.6V32.8z M14,32.8h8.6v2.6H14L14,32.8z
	 M11.4,20h1.7v15.4h-1.7V20z M11,18.3h2.6c0.2,0,0.4,0.2,0.4,0.4s-0.2,0.4-0.4,0.4H11c-0.2,0-0.4-0.2-0.4-0.4S10.8,18.3,11,18.3
	L11,18.3 M17.3,19c1-0.9,2.2-1.5,3.5-1.6h1.7v0.9h-1.3c-1.2,0.1-2.4,0.6-3.4,1.3c-1.1,1.1-2.4,1.8-3.9,2.1v-0.9
	C15,20.8,16.7,19.6,17.3,19 M16.6,17.4c0.2,0,0.4,0.2,0.4,0.4s-0.2,0.4-0.4,0.4s-0.4-0.2-0.4-0.4S16.3,17.4,16.6,17.4L16.6,17.4
	 M17.4,16.1c0.5,0,0.9,0.2,1.2,0.6L19,17c-0.4,0.2-0.8,0.4-1.2,0.6c-0.1-0.6-0.7-1-1.3-1h-0.1C16.7,16.3,17,16.1,17.4,16.1 M23,16
	c0.1,0.2,0.3,0.4,0.5,0.6h-1C22.7,16.4,22.9,16.2,23,16 M28.6,16.2c0.4,0,0.7,0.1,0.9,0.4h-0.1c-0.6,0-1.1,0.4-1.3,1
	c-0.4-0.2-0.8-0.4-1.2-0.6l0.4-0.3C27.7,16.4,28.1,16.2,28.6,16.2 M29.5,18.3c-0.2,0-0.4-0.2-0.4-0.4s0.2-0.4,0.4-0.4
	s0.4,0.2,0.4,0.4S29.7,18.3,29.5,18.3L29.5,18.3 M28.6,21.2c0.5,0.4,1.1,0.7,1.7,1V32h-1.7L28.6,21.2z M26,30.1
	c2-1.7,2.3-4.6,0.6-6.6c-0.2-0.2-0.4-0.4-0.6-0.6v-3.4c0.5,0.2,1,0.4,1.5,0.8l0.2,0.2V32H26V30.1z M23.4,31.1
	c0.6-0.1,1.2-0.2,1.7-0.5V32h-1.7V31.1z M20.9,30.6c0.5,0.3,1.1,0.4,1.7,0.5V32h-1.7V30.6z M22.6,21.7c-0.6,0.1-1.2,0.2-1.7,0.5v-3
	c0.1,0,0.3,0,0.4,0h1.3L22.6,21.7z M23.4,21.7v-2.6h1.3c0.1,0,0.3,0,0.4,0v3C24.6,21.9,24,21.7,23.4,21.7 M23.4,25.5h0.9v1.7h-0.9
	V25.5z M22.6,27.2h-0.9v-1.6h0.9V27.2z M19.1,26.3c0-2,1.5-3.6,3.4-3.8v2.1h-0.9c-0.5,0-0.9,0.4-0.9,0.9c0,0,0,0,0,0v1.7
	c0,0.5,0.4,0.9,0.9,0.9c0,0,0,0,0,0h0.9v2.1C20.6,29.9,19.1,28.3,19.1,26.3 M23.4,30.2v-2h0.9c0.5,0,0.9-0.4,0.9-0.9c0,0,0,0,0,0
	v-1.7c0-0.5-0.4-0.9-0.9-0.9c0,0,0,0,0,0h-0.9v-2.1c2.1,0.2,3.7,2.1,3.4,4.2c-0.2,1.8-1.6,3.3-3.4,3.4 M18.3,26.4v-6l0.2-0.2
	c0.4-0.4,0.9-0.6,1.5-0.8v3.4c-2,1.6-2.3,4.6-0.6,6.6c0.2,0.2,0.4,0.5,0.6,0.6V32h-1.7L18.3,26.4z M15.7,22.1c0.6-0.3,1.2-0.6,1.7-1
	V32h-1.7L15.7,22.1z M14,22.6c0.3,0,0.6,0,0.9-0.1V32H14V22.6z M32,32h-0.9v-9.6c0.3,0.1,0.6,0.1,0.9,0.1V32z M32,21.7
	c-1.5-0.3-2.9-1-3.9-2.1c-1-0.8-2.1-1.3-3.4-1.3h-1.3v-0.9h1.7c1.3,0.1,2.6,0.7,3.6,1.6c0.6,0.6,2.3,1.8,3.3,1.8L32,21.7z
	 M11.7,14.9h1.2v0.4c0,0.3-0.2,0.5-0.5,0.5c-0.3,0-0.5-0.2-0.5-0.5L11.7,14.9z M13.1,13.1L13,14h-1.4l-0.1-0.9L13.1,13.1z
	 M10.6,11.4H14v0.9h-3.4V11.4z M35.1,15.3l0.3-2.2h0c0.5,0,0.9-0.4,0.9-0.9l0,0v-0.9c0-0.5-0.4-0.9-0.9-0.9l0,0h-1.3V9.7h-0.9v0.9
	H32c-0.5,0-0.9,0.4-0.9,0.9l0,0v0.9c0,0.5,0.4,0.9,0.9,0.9l0,0l0,0l0.3,2.2c0.1,0.5,0.5,1,1,1.1v0.9h-0.9c-0.7,0-1.3,0.6-1.3,1.3
	c0,0.5,0.3,1,0.8,1.2V20c-0.7-0.2-1.4-0.5-2-1c0.4-0.2,0.7-0.7,0.7-1.1c0-1.6-0.8-2.6-2.1-2.6c-0.7,0-1.3,0.3-1.8,0.7
	c-0.3,0.3-0.8,0.5-1.2,0.6c-1.2,0-2.1-1-2.1-2.1c0-0.7,0.6-1.2,1.3-1.3c0.7,0,1.3,0.6,1.3,1.3c0,0.2-0.2,0.4-0.4,0.4
	s-0.4-0.2-0.4-0.4V14h-0.9v0.4c-0.1,0.7,0.5,1.3,1.2,1.4c0.7,0.1,1.3-0.5,1.4-1.2c0-0.1,0-0.2,0-0.2c0-1.2-0.9-2.1-2.1-2.1
	c-0.7,0-1.3,0.3-1.7,0.9c-0.7-1-2-1.2-3-0.5c-0.6,0.4-0.9,1.1-0.9,1.8c-0.1,0.7,0.5,1.3,1.2,1.4c0.7,0.1,1.3-0.5,1.4-1.2
	c0-0.1,0-0.2,0-0.2V14h-0.9v0.4c0,0.2-0.2,0.4-0.4,0.4S20,14.7,20,14.4c0-0.7,0.6-1.3,1.3-1.3c0.7,0,1.3,0.6,1.3,1.3
	c0,1.2-1,2.1-2.1,2.1c-0.5,0-0.9-0.2-1.2-0.6c-0.5-0.4-1.1-0.7-1.8-0.7c-1.3,0-2.1,1-2.1,2.6c0,0.5,0.3,0.9,0.7,1.2
	c-0.6,0.5-1.3,0.8-2,1v-0.1c0.7-0.2,1-1,0.8-1.6c-0.2-0.5-0.7-0.9-1.2-0.9h-0.9v-0.9c0.5-0.2,0.9-0.6,1-1.1l0.3-2.2h0
	c0.5,0,0.9-0.4,0.9-0.9v-0.9c0-0.5-0.4-0.9-0.9-0.9h-1.3V9.7h-0.9v0.9h-1.3c-0.5,0-0.9,0.4-0.9,0.9v0.9c0,0.5,0.4,0.9,0.9,0.9h0.1
	l0.3,2.2c0.1,0.5,0.5,1,1,1.1v0.9H11c-0.7,0-1.3,0.6-1.3,1.3c0,0.6,0.3,1,0.9,1.2v16.4h24.8V19.9c0.7-0.2,1-1,0.8-1.6
	c-0.2-0.5-0.7-0.9-1.2-0.9h-0.9v-0.9C34.7,16.3,35.1,15.9,35.1,15.3"/>
</svg>
