<svg id="Layer_1" data-name="Layer 1" xmlns="http://www.w3.org/2000/svg" viewBox="0 0 59.3 22.63"><defs><style>.cls-1,.cls-10{fill:#284c90;}.cls-2{fill:#b9baba;}.cls-10,.cls-2,.cls-4,.cls-5{fill-rule:evenodd;}.cls-3,.cls-4{fill:#f78f20;}.cls-5,.cls-9{fill:#fff;}.cls-6,.cls-7,.cls-8{fill:none;stroke-miterlimit:10;}.cls-6,.cls-8{stroke:#284c90;}.cls-6,.cls-7{stroke-linecap:square;stroke-width:0;}.cls-7{stroke:#101718;}.cls-8{stroke-width:0.18px;}</style></defs><title>property-point-logo</title><path class="cls-1" d="M17.59,20.29l.31-.19c.22.41.48.61.77.61a.73.73,0,0,0,.35-.09.6.6,0,0,0,.25-.23.6.6,0,0,0,.09-.31.61.61,0,0,0-.13-.36,3,3,0,0,0-.63-.59,3.28,3.28,0,0,1-.58-.51.92.92,0,0,1-.19-.56.88.88,0,0,1,.11-.44.85.85,0,0,1,.33-.31,1,1,0,0,1,.94,0,1.68,1.68,0,0,1,.48.48l-.3.23a1.48,1.48,0,0,0-.35-.36.61.61,0,0,0-.32-.09.5.5,0,0,0-.36.14.44.44,0,0,0-.14.33.57.57,0,0,0,0,.24.91.91,0,0,0,.18.25l.48.37a2.83,2.83,0,0,1,.66.63,1,1,0,0,1,.18.56.94.94,0,0,1-.3.7,1,1,0,0,1-.74.3,1.1,1.1,0,0,1-.61-.18,1.66,1.66,0,0,1-.51-.6"/><polygon class="cls-1" points="20.53 17.29 22.65 17.29 22.65 17.65 20.9 17.65 20.9 18.81 22.63 18.81 22.63 19.17 20.9 19.17 20.9 20.62 22.63 20.62 22.63 20.98 20.53 20.98 20.53 17.29"/><polygon class="cls-1" points="23.29 17.29 23.66 17.29 23.66 20.63 25.07 20.63 25.07 20.98 23.29 20.98 23.29 17.29"/><polygon class="cls-1" points="25.66 17.29 26.03 17.29 26.03 20.63 27.45 20.63 27.45 20.98 25.66 20.98 25.66 17.29"/><rect class="cls-1" x="27.98" y="17.29" width="0.37" height="3.69"/><polygon class="cls-1" points="29.2 20.98 29.2 17.29 29.28 17.29 31.74 20.12 31.74 17.29 32.1 17.29 32.1 20.98 32.02 20.98 29.58 18.18 29.58 20.98 29.2 20.98"/><path class="cls-1" d="M36.56,17.91l-.29.27a2.19,2.19,0,0,0-.68-.46,1.84,1.84,0,0,0-.72-.16,1.69,1.69,0,0,0-.83.21,1.53,1.53,0,0,0-.61.58,1.49,1.49,0,0,0-.22.77,1.53,1.53,0,0,0,.22.79,1.57,1.57,0,0,0,.62.59,1.78,1.78,0,0,0,.86.22,1.48,1.48,0,0,0,1-.32,1.26,1.26,0,0,0,.47-.83H35.19v-.35h1.59a1.85,1.85,0,0,1-.51,1.36,1.81,1.81,0,0,1-1.35.5,2,2,0,0,1-1.62-.7,1.87,1.87,0,0,1-.46-1.24,1.9,1.9,0,0,1,.26-1,1.85,1.85,0,0,1,.72-.71,2.13,2.13,0,0,1,1-.25,2.33,2.33,0,0,1,.88.17,2.63,2.63,0,0,1,.81.54"/><path class="cls-1" d="M40.42,17.29,42.14,21h-.4l-.58-1.21H39.57L39,21h-.41l1.74-3.69Zm0,.79-.63,1.34H41Z"/><path class="cls-1" d="M46.28,17.91l-.29.27a2.19,2.19,0,0,0-.68-.46,1.84,1.84,0,0,0-.72-.16,1.69,1.69,0,0,0-.83.21,1.53,1.53,0,0,0-.61.58,1.49,1.49,0,0,0-.22.77,1.53,1.53,0,0,0,.22.79,1.57,1.57,0,0,0,.62.59,1.78,1.78,0,0,0,.86.22,1.48,1.48,0,0,0,1-.32,1.26,1.26,0,0,0,.47-.83H44.9v-.35h1.59A1.85,1.85,0,0,1,46,20.57a1.81,1.81,0,0,1-1.35.5,2,2,0,0,1-1.62-.7,1.87,1.87,0,0,1-.46-1.24,1.9,1.9,0,0,1,.26-1,1.85,1.85,0,0,1,.72-.71,2.13,2.13,0,0,1,1-.25,2.33,2.33,0,0,1,.88.17,2.63,2.63,0,0,1,.81.54"/><polygon class="cls-1" points="47.2 17.29 49.31 17.29 49.31 17.65 47.57 17.65 47.57 18.81 49.3 18.81 49.3 19.17 47.57 19.17 47.57 20.62 49.3 20.62 49.3 20.98 47.2 20.98 47.2 17.29"/><polygon class="cls-1" points="49.96 20.98 49.96 17.29 50.03 17.29 52.49 20.12 52.49 17.29 52.86 17.29 52.86 20.98 52.77 20.98 50.34 18.18 50.34 20.98 49.96 20.98"/><polygon class="cls-1" points="53.39 17.65 53.39 17.29 55.41 17.29 55.41 17.65 54.59 17.65 54.59 20.98 54.21 20.98 54.21 17.65 53.39 17.65"/><path class="cls-1" d="M55.56,20.29l.31-.19c.22.41.48.61.77.61a.73.73,0,0,0,.35-.09.6.6,0,0,0,.25-.23.6.6,0,0,0,.09-.31.61.61,0,0,0-.13-.36,3,3,0,0,0-.63-.59,3.28,3.28,0,0,1-.58-.51.92.92,0,0,1-.19-.56.88.88,0,0,1,.11-.44.85.85,0,0,1,.33-.31,1,1,0,0,1,.94,0,1.68,1.68,0,0,1,.48.48l-.3.23a1.48,1.48,0,0,0-.35-.36.61.61,0,0,0-.32-.09.5.5,0,0,0-.36.14.44.44,0,0,0-.14.33.57.57,0,0,0,0,.24.91.91,0,0,0,.18.25l.48.37a2.83,2.83,0,0,1,.66.63,1,1,0,0,1,.18.56.94.94,0,0,1-.3.7,1,1,0,0,1-.74.3,1.1,1.1,0,0,1-.61-.18,1.66,1.66,0,0,1-.51-.6"/><path class="cls-1" d="M55.86,8.66l-.57-.21-8.85.05-.36-.1-.26-.21-.1-.26-.05-.15-.11-.15-.2-.1-.26-.05-.26-.05h-.31l-.26.05L44,7.63l-.15.15-.26.31-.31.21-.41.15-.41.05L42,8.45l-.41-.1-.41-.21-.31-.31H17.34l-.15-.31L17,7.22,16.88,7l-.21-.21-.2-.15-.26-.15-.19,0A7.46,7.46,0,0,0,1.58,9.13,7.46,7.46,0,0,0,16,11.83l.18,0,.26-.15.2-.15.21-.26L17,11l.15-.31.15-.36H41l.3-.31.36-.15L42,9.68h.41l.41.05.41.15.31.26.26.31.16.16.26.1.26.1h.31l.26,0,.26-.05.2-.1.1-.16.05-.21.1-.26L46,9.84l.36-.1h.41v5.55l.15.1.26.05.31-.05.1-.1v-.36l.05-.72.05-.67v-.41l.1-.1h.41l.1.1V14l.1.1H49v1.13l.15.1.36.05.31-.05.15-.1v-.46l.05-.82V12.67l.15,0h.57l.1.1v1.75l.15.2.36.05.31-.05.16-.1v-1.9l.1,0h.57l.1.1V13.8l.15.05h.57l.15,0v.31l.05.26v.31l.05.21.15.1.31.05.31-.05.15-.15V12.15l.1-.1h.57l.1-.1v-.51l.05-.72v-1l.51-.21.21-.46Z"/><path class="cls-1" d="M17.77,3.79c0-.92,0-1.09,0-1.28s-.06-.3-.26-.34l-.24,0c-.07,0-.1,0-.1-.05s0-.05.13-.05l.87,0L19,2a1.47,1.47,0,0,1,1.12.35,1,1,0,0,1,.3.72A1.42,1.42,0,0,1,19,4.57h-.13s-.07,0-.07-.05,0-.07.17-.07a1,1,0,0,0,.81-1,1.16,1.16,0,0,0-.35-.91.89.89,0,0,0-.6-.24.81.81,0,0,0-.24,0s0,0,0,.11V4.85c0,.56,0,1,0,1.29s.05.3.23.33l.31,0c.06,0,.09,0,.09,0s0,.06-.11.06l-.94,0-.76,0c-.08,0-.12,0-.12-.06s0,0,.09,0l.22,0c.12,0,.15-.16.17-.33s0-.73,0-1.29Z"/><path class="cls-1" d="M22.44,3.79c0-.92,0-1.09,0-1.28s-.06-.3-.26-.34l-.24,0c-.06,0-.1,0-.1-.05S21.87,2,22,2l.83,0,.85,0a1.91,1.91,0,0,1,1.11.26,1,1,0,0,1,.41.83,1.7,1.7,0,0,1-.8,1.35c.54.67,1,1.21,1.31,1.59a1.22,1.22,0,0,0,.67.41l.17,0s.07,0,.07.05,0,.06-.12.06h-.57a1.23,1.23,0,0,1-.65-.12,2.92,2.92,0,0,1-.83-.89c-.24-.33-.52-.74-.6-.83a.12.12,0,0,0-.11,0H23.2s0,0,0,0v.08c0,.56,0,1,0,1.29s.06.3.24.33l.3,0s.07,0,.07.05,0,.06-.12.06l-.89,0-.74,0c-.08,0-.12,0-.12-.06s0-.05.1-.05l.22,0c.12,0,.15-.16.17-.33s0-.73,0-1.29Zm.71.48c0,.06,0,.09.05.11a1.59,1.59,0,0,0,.46.06.59.59,0,0,0,.43-.1,1.06,1.06,0,0,0,.36-.9,1,1,0,0,0-.92-1.1,1.26,1.26,0,0,0-.32,0s-.05,0-.05.08Z"/><path class="cls-1" d="M27,4.32A2.33,2.33,0,0,1,29.53,2,2.19,2.19,0,0,1,32,4.21a2.39,2.39,0,0,1-2.5,2.47A2.3,2.3,0,0,1,27,4.32m4.09.11c0-1.35-.78-2.19-1.77-2.19-.69,0-1.48.39-1.48,1.89,0,1.26.69,2.25,1.85,2.25.42,0,1.4-.2,1.4-1.95"/><path class="cls-1" d="M33.95,3.79c0-.92,0-1.09,0-1.28s-.06-.3-.26-.34l-.24,0c-.07,0-.1,0-.1-.05s0-.05.13-.05l.87,0,.87,0a1.47,1.47,0,0,1,1.12.35,1,1,0,0,1,.3.72,1.42,1.42,0,0,1-1.48,1.46H35S35,4.55,35,4.5s0-.07.17-.07a1,1,0,0,0,.81-1,1.16,1.16,0,0,0-.36-.91A.89.89,0,0,0,35,2.3a.79.79,0,0,0-.24,0s0,0,0,.11V4.85c0,.56,0,1,0,1.29s.05.3.24.33l.31,0c.06,0,.1,0,.1,0s0,.06-.12.06l-.93,0-.76,0c-.08,0-.12,0-.12-.06s0,0,.1,0l.22,0c.12,0,.15-.16.17-.33s0-.73,0-1.29Z"/><path class="cls-1" d="M38.63,3.79c0-.92,0-1.09,0-1.28s-.06-.3-.26-.34l-.24,0c-.07,0-.1,0-.1-.05s0-.05.13-.05l.87,0h1.51l.26,0,.1,0s0,0,0,.05,0,.11-.05.39c0,.06,0,.33,0,.4s0,.07-.06.07-.05,0-.05-.08a.71.71,0,0,0,0-.22c0-.11-.1-.18-.41-.22l-.86,0s0,0,0,.06V3.95s0,.07,0,.07.83,0,1,0,.24,0,.29-.09.06-.08.1-.08,0,0,0,0,0,.14,0,.44c0,.12,0,.36,0,.4s0,.12-.05.12a0,0,0,0,1-.06-.05,1.1,1.1,0,0,0,0-.22c0-.12-.11-.21-.34-.24l-.86,0s0,0,0,.06v.48c0,.2,0,.76,0,.94,0,.42.11.5.72.5a1.57,1.57,0,0,0,.57-.07c.16-.07.23-.2.27-.45,0-.07,0-.09.07-.09s0,0,0,.11a4.6,4.6,0,0,1-.08.67c0,.16-.1.16-.33.16-.91,0-1.31,0-1.67,0l-.76,0c-.08,0-.12,0-.12-.06s0,0,.1,0l.22,0c.12,0,.15-.16.17-.33s0-.73,0-1.29Z"/><path class="cls-1" d="M43.16,3.79c0-.92,0-1.09,0-1.28s-.06-.3-.26-.34l-.24,0c-.06,0-.1,0-.1-.05s0-.05.13-.05l.83,0,.85,0a1.92,1.92,0,0,1,1.11.26,1,1,0,0,1,.41.83,1.7,1.7,0,0,1-.8,1.35c.54.67,1,1.21,1.31,1.59a1.22,1.22,0,0,0,.67.41l.17,0s.07,0,.07.05,0,.06-.11.06h-.57A1.23,1.23,0,0,1,46,6.49a2.91,2.91,0,0,1-.83-.89c-.24-.33-.52-.74-.6-.83a.13.13,0,0,0-.11,0h-.53s0,0,0,0v.08c0,.56,0,1,0,1.29s.05.3.24.33l.3,0s.07,0,.07.05,0,.06-.12.06l-.89,0-.74,0c-.08,0-.12,0-.12-.06s0-.05.1-.05l.22,0c.12,0,.15-.16.17-.33s0-.73,0-1.29Zm.71.48c0,.06,0,.09.05.11a1.56,1.56,0,0,0,.46.06.6.6,0,0,0,.43-.1,1.06,1.06,0,0,0,.35-.9,1,1,0,0,0-.92-1.1,1.26,1.26,0,0,0-.32,0s-.05,0-.05.08Z"/><path class="cls-1" d="M49,2.38l-.9,0c-.35,0-.49,0-.58.17a.64.64,0,0,0-.11.21s0,.07-.07.07-.06,0-.06-.1.12-.64.13-.69,0-.11.07-.11a1.55,1.55,0,0,0,.26.07l.61,0h2.39a3.14,3.14,0,0,0,.41,0l.16,0s0,0,0,.13,0,.54,0,.7,0,.1-.06.1-.06,0-.06-.12V2.74c0-.16-.17-.33-.71-.34l-.76,0V4.85c0,.56,0,1,0,1.29s.05.3.24.33l.31,0c.06,0,.09,0,.09.05s0,.06-.11.06l-.95,0-.76,0c-.08,0-.12,0-.12-.06s0-.05.1-.05l.22,0c.12,0,.16-.16.17-.33s0-.73,0-1.29Z"/><path class="cls-1" d="M53.92,5a1.26,1.26,0,0,0-.14-.63c0-.1-.85-1.42-1.06-1.74a1.47,1.47,0,0,0-.42-.44.62.62,0,0,0-.25-.08S52,2.14,52,2.1,52,2,52.08,2l.76,0,.65,0c.06,0,.09,0,.09.05s0,0-.13.07a.11.11,0,0,0-.09.11.55.55,0,0,0,.07.21c.08.18.93,1.64,1,1.8.06-.14.82-1.47.91-1.66a.78.78,0,0,0,.08-.31.14.14,0,0,0-.13-.15c-.05,0-.11,0-.11-.06s0-.05.1-.05l.57,0,.64,0c.07,0,.11,0,.11,0s0,.06-.11.06a.68.68,0,0,0-.27.07.91.91,0,0,0-.33.3,19.36,19.36,0,0,0-1.15,1.92,1.44,1.44,0,0,0-.09.6v.5c0,.1,0,.35,0,.6s.07.3.25.33l.3,0c.07,0,.1,0,.1.05s0,.06-.13.06l-.92,0-.75,0c-.08,0-.13,0-.13-.06s0-.05.1-.05l.21,0c.12,0,.17-.16.19-.33s0-.51,0-.6Z"/><path class="cls-1" d="M17.91,12.71c0-.38,0-.45,0-.53s0-.12-.09-.14h-.08s0,0,0,0,0,0,0,0h.62a.5.5,0,0,1,.4.14.47.47,0,0,1,.11.29.55.55,0,0,1-.53.6h0s0,0,0,0,0,0,.06,0a.38.38,0,0,0,.29-.41.53.53,0,0,0-.13-.37.3.3,0,0,0-.22-.1h-.09s0,0,0,0v1c0,.23,0,.43,0,.53s0,.13.08.13h.11s0,0,0,0,0,0,0,0h-.61s0,0,0,0,0,0,0,0h.08s.05-.06.06-.14,0-.3,0-.53Z"/><path class="cls-1" d="M23.32,12.93a.9.9,0,0,1,.89-1,.84.84,0,0,1,.87.93.92.92,0,0,1-.89,1,.89.89,0,0,1-.87-1m1.46,0c0-.56-.28-.9-.63-.9s-.53.16-.53.78.25.93.66.93c.15,0,.5-.08.5-.8"/><path class="cls-1" d="M29.76,12.71c0-.38,0-.45,0-.53s0-.13-.07-.14h-.08s0,0,0,0,0,0,.05,0h.54s0,0,0,0,0,0,0,0h-.06c-.06,0-.07.06-.08.14s0,.15,0,.53v.44c0,.24,0,.44,0,.55s0,.11.09.12h.11s0,0,0,0,0,0,0,0h-.61s0,0,0,0,0,0,0,0h.08s.06,0,.06-.12,0-.3,0-.54Z"/><path class="cls-1" d="M35.09,13.53c0,.19,0,.26.08.28l.11,0s0,0,0,0,0,0-.05,0h-.5s0,0,0,0,0,0,0,0h.1c.05,0,.06-.09.06-.31l0-1.47c0-.05,0-.08,0-.08s0,0,.08.08.35.44.67.8l.47.57h0l0-1.11c0-.15,0-.2-.07-.23A.29.29,0,0,0,36,12s0,0,0,0,0,0,.06,0h.47s.05,0,.05,0,0,0,0,0h-.06c-.06,0-.08.07-.08.21l0,1.57c0,.05,0,.08,0,.08s-.05,0-.07-.05l-.64-.73c-.23-.27-.48-.58-.51-.63h0Z"/><path class="cls-1" d="M41.53,12.13h-.32c-.12,0-.18,0-.21.07a.41.41,0,0,0,0,.09s0,0,0,0,0,0,0,0S41,12,41,12s0,0,0,0,0,0,.09,0h1.07a.86.86,0,0,0,.21,0s0,0,0,.05,0,.22,0,.29,0,0,0,0,0,0,0-.05v0c0-.06-.06-.13-.26-.14H41.8v1c0,.23,0,.43,0,.53s0,.12.08.13H42s0,0,0,0,0,0,0,0h-.61s0,0,0,0,0,0,0,0h.08s.06-.06.06-.14,0-.3,0-.53Z"/><path class="cls-2" d="M15.3,12.86c0,.18-2.75.33-6.14.34S3,13.08,3,12.9s2.75-.33,6.14-.34,6.14.13,6.14.3"/><path class="cls-3" d="M9.93,6.3A1.36,1.36,0,1,1,8.57,4.94,1.36,1.36,0,0,1,9.93,6.3"/><polygon class="cls-4" points="12.15 11.91 12.15 11.95 13.3 11.99 13.3 10.38 12.15 10.26 12.15 10.34 12.58 10.4 12.58 10.78 12.15 10.73 12.15 10.94 12.58 10.96 12.58 11.35 12.15 11.33 12.19 11.35 12.23 11.35 12.25 11.37 12.29 11.39 12.32 11.41 12.34 11.43 12.36 11.46 12.38 11.48 12.4 11.52 12.58 11.54 12.58 11.93 12.15 11.91"/><polygon class="cls-5" points="12.15 11.91 12.56 11.91 12.56 11.54 12.4 11.54 12.42 11.58 12.42 11.62 12.42 11.66 12.42 11.68 12.42 11.74 12.4 11.77 12.15 11.85 12.15 11.91"/><polygon class="cls-6" points="12.15 11.91 12.56 11.91 12.56 11.54 12.4 11.54 12.42 11.58 12.42 11.62 12.42 11.66 12.42 11.68 12.42 11.74 12.4 11.77 12.15 11.85 12.15 11.91"/><polygon class="cls-5" points="12.15 11.33 12.56 11.35 12.56 10.96 12.15 10.94 12.15 11.33"/><polygon class="cls-6" points="12.15 11.33 12.56 11.35 12.56 10.96 12.15 10.94 12.15 11.33"/><polygon class="cls-5" points="12.15 10.73 12.56 10.77 12.56 10.4 12.15 10.36 12.15 10.73"/><polygon class="cls-6" points="12.15 10.73 12.56 10.77 12.56 10.4 12.15 10.36 12.15 10.73"/><polygon class="cls-5" points="8.89 7.23 9.06 7.17 9.08 7.17 9.1 7.17 9.08 7.17 9.08 7.19 9.08 7.21 9.08 7.23 9.08 9.89 8.89 9.93 8.89 7.23"/><polygon class="cls-6" points="8.89 7.23 9.06 7.17 9.08 7.17 9.1 7.17 9.08 7.17 9.08 7.19 9.08 7.21 9.08 7.23 9.08 9.89 8.89 9.93 8.89 7.23"/><polygon class="cls-4" points="8.87 7.23 8.87 9.93 7.2 9.75 7.2 6.96 7.2 6.94 7.2 6.92 7.2 6.9 7.22 6.9 7.22 6.88 7.24 6.88 7.27 6.88 7.29 6.86 7.31 6.86 7.33 6.88 7.37 6.88 7.39 6.88 8.87 7.23"/><polygon class="cls-4" points="10.64 7.5 10.64 10.07 9.1 9.91 9.1 7.27 9.1 7.25 9.1 7.23 9.1 7.21 9.1 7.19 9.12 7.19 9.12 7.17 9.14 7.17 9.16 7.17 9.18 7.17 9.21 7.17 9.22 7.17 9.25 7.17 10.64 7.5"/><polygon class="cls-4" points="5.68 7.39 6.03 7.46 6.24 7.5 7.04 7.64 7.04 9.81 5.06 9.6 5.06 7.41 5.06 7.39 5.06 7.37 5.06 7.35 5.08 7.35 5.08 7.33 5.08 7.31 5.1 7.31 5.12 7.31 5.14 7.31 5.16 7.31 5.18 7.31 5.21 7.31 5.22 7.31 5.26 7.31 5.68 7.39"/><polygon class="cls-5" points="14.23 9.39 14.23 9.1 14.36 9.13 14.36 9.41 14.23 9.39"/><polygon class="cls-6" points="14.23 9.39 14.23 9.1 14.36 9.13 14.36 9.41 14.23 9.39"/><polygon class="cls-5" points="14.23 10.42 14.23 10.12 14.36 10.14 14.36 10.42 14.23 10.42"/><polygon class="cls-6" points="14.23 10.42 14.23 10.12 14.36 10.14 14.36 10.42 14.23 10.42"/><polygon class="cls-4" points="14.23 10.42 14.36 10.44 14.36 10.14 14.23 10.12 14.23 9.91 14.36 9.93 14.36 9.62 14.23 9.6 14.23 9.39 14.36 9.41 14.36 9.13 14.23 9.09 14.23 9 14.81 9.13 14.83 9.13 14.83 9.15 14.85 9.17 14.85 9.19 14.85 9.21 14.85 10.59 14.23 10.53 14.23 10.42"/><polygon class="cls-5" points="14.23 9.91 14.36 9.93 14.36 9.64 14.23 9.62 14.23 9.91"/><polygon class="cls-6" points="14.23 9.91 14.36 9.93 14.36 9.64 14.23 9.62 14.23 9.91"/><polygon class="cls-5" points="9.08 11.89 8.89 11.87 8.89 9.93 9.08 9.91 9.08 11.89"/><polygon class="cls-6" points="9.08 11.89 8.89 11.87 8.89 9.93 9.08 9.91 9.08 11.89"/><polygon class="cls-4" points="8.87 9.93 8.87 11.89 7.66 11.83 7.2 11.83 7.2 9.77 8.87 9.93"/><polygon class="cls-5" points="7.06 9.81 7.18 9.76 7.18 11.83 7.06 11.83 7.06 9.81"/><polygon class="cls-6" points="7.06 9.81 7.18 9.76 7.18 11.83 7.06 11.83 7.06 9.81"/><polygon class="cls-4" points="7.04 11.83 5.06 11.77 5.06 9.62 7.04 9.81 7.04 11.83"/><polygon class="cls-4" points="10.64 10.07 10.64 11.58 10.56 11.6 10.56 11.85 10.59 11.87 10.64 11.87 10.64 11.93 9.1 11.89 9.1 9.91 10.64 10.07"/><polygon class="cls-4" points="11.84 7.66 11.27 7.52 11.27 11.31 11.2 11.33 11.14 11.35 11.14 7.27 11.14 7.25 11.14 7.19 11.14 7.15 11.16 7.11 11.18 7.06 11.2 7.03 11.22 7 11.24 6.96 11.28 6.94 11.31 6.92 11.35 6.9 11.39 6.88 11.41 6.88 11.45 6.88 11.49 6.88 11.53 6.88 11.55 6.88 11.59 6.88 11.64 6.9 11.68 6.9 11.72 6.92 11.74 6.94 11.78 6.96 11.82 7 11.84 7.03 11.86 7.06 11.88 7.11 11.9 7.13 11.93 7.17 11.95 7.21 11.95 7.27 11.96 7.33 11.96 11.29 11.88 11.29 11.84 11.29 11.84 7.66"/><polygon class="cls-5" points="7.18 9.76 7.06 9.81 7.06 7.64 6.34 7.5 6.15 7.48 6.15 7.45 6.98 6.96 7.02 6.94 7.06 6.92 7.1 6.9 7.14 6.88 7.16 6.88 7.18 6.88 7.2 6.88 7.2 6.9 7.18 6.9 7.18 6.94 7.18 6.96 7.18 6.98 7.18 9.76"/><polygon class="cls-6" points="7.18 9.76 7.06 9.81 7.06 7.64 6.34 7.5 6.15 7.48 6.15 7.45 6.98 6.96 7.02 6.94 7.06 6.92 7.1 6.9 7.14 6.88 7.16 6.88 7.18 6.88 7.2 6.88 7.2 6.9 7.18 6.9 7.18 6.94 7.18 6.96 7.18 6.98 7.18 9.76"/><polygon class="cls-5" points="5.04 7.5 5.04 9.6 4.36 9.93 4.36 7.72 4.98 7.35 5.08 7.31 5.06 7.31 5.06 7.33 5.06 7.35 5.06 7.37 5.04 7.4 5.04 7.41 5.04 7.5"/><polygon class="cls-6" points="5.04 7.5 5.04 9.6 4.36 9.93 4.36 7.72 4.98 7.35 5.08 7.31 5.06 7.31 5.06 7.33 5.06 7.35 5.06 7.37 5.04 7.4 5.04 7.41 5.04 7.5"/><polygon class="cls-4" points="3.62 7.76 3.62 7.75 3.62 7.7 3.62 7.68 3.64 7.66 3.64 7.64 3.66 7.62 3.68 7.62 3.7 7.62 3.72 7.62 3.76 7.62 4.34 7.72 4.34 9.93 3.62 9.87 3.62 7.76"/><polygon class="cls-5" points="3.6 7.75 3.6 9.87 3.33 10.01 3.33 7.85 3.35 7.83 3.35 7.81 3.37 7.79 3.37 7.77 3.39 7.75 3.41 7.73 3.43 7.7 3.45 7.68 3.47 7.66 3.49 7.66 3.54 7.64 3.56 7.64 3.58 7.62 3.6 7.62 3.62 7.62 3.64 7.62 3.62 7.64 3.6 7.66 3.6 7.68 3.6 7.7 3.6 7.73 3.6 7.75"/><polygon class="cls-6" points="3.6 7.75 3.6 9.87 3.33 10.01 3.33 7.85 3.35 7.83 3.35 7.81 3.37 7.79 3.37 7.77 3.39 7.75 3.41 7.73 3.43 7.7 3.45 7.68 3.47 7.66 3.49 7.66 3.54 7.64 3.56 7.64 3.58 7.62 3.6 7.62 3.62 7.62 3.64 7.62 3.62 7.64 3.6 7.66 3.6 7.68 3.6 7.7 3.6 7.73 3.6 7.75"/><polygon class="cls-4" points="11.7 7.89 11.7 7.89 11.66 7.87 11.49 7.85 11.3 7.81 11.29 7.81 11.29 7.66 11.7 7.75 11.7 7.89"/><polygon class="cls-7" points="11.7 7.89 11.7 7.89 11.66 7.87 11.49 7.85 11.3 7.81 11.29 7.81 11.29 7.66 11.7 7.75 11.7 7.89"/><polygon class="cls-4" points="11.72 7.91 11.72 7.75 11.82 7.68 11.72 7.91"/><polygon class="cls-6" points="11.72 7.91 11.72 7.75 11.82 7.68 11.72 7.91"/><polygon class="cls-5" points="11.82 8.38 11.72 8.36 11.72 7.93 11.82 7.7 11.82 8.38"/><polygon class="cls-6" points="11.82 8.38 11.72 8.36 11.72 7.93 11.82 7.7 11.82 8.38"/><polygon class="cls-5" points="11.51 7.89 11.61 7.91 11.7 7.93 11.7 8.36 11.28 8.26 11.28 7.85 11.33 7.85 11.43 7.87 11.51 7.89"/><polygon class="cls-6" points="11.51 7.89 11.61 7.91 11.7 7.93 11.7 8.36 11.28 8.26 11.28 7.85 11.33 7.85 11.43 7.87 11.51 7.89"/><polygon class="cls-4" points="11.82 8.63 11.28 8.55 11.28 8.28 11.82 8.38 11.82 8.63"/><polygon class="cls-5" points="11.72 8.69 11.29 8.61 11.29 8.55 11.82 8.65 11.72 8.69"/><polygon class="cls-6" points="11.72 8.69 11.29 8.61 11.29 8.55 11.82 8.65 11.72 8.69"/><polygon class="cls-4" points="11.7 8.69 11.7 8.86 11.66 8.86 11.47 8.84 11.39 8.82 11.35 8.82 11.29 8.78 11.29 8.63 11.7 8.69"/><polygon class="cls-7" points="11.7 8.69 11.7 8.86 11.66 8.86 11.47 8.84 11.39 8.82 11.35 8.82 11.29 8.78 11.29 8.63 11.7 8.69"/><polygon class="cls-4" points="11.72 8.86 11.72 8.69 11.82 8.65 11.72 8.86"/><polygon class="cls-6" points="11.72 8.86 11.72 8.69 11.82 8.65 11.72 8.86"/><polygon class="cls-5" points="11.72 9.29 11.72 8.88 11.82 8.69 11.82 9.31 11.72 9.29"/><polygon class="cls-6" points="11.72 9.29 11.72 8.88 11.82 8.69 11.82 9.31 11.72 9.29"/><polygon class="cls-5" points="11.7 8.9 11.7 8.9 11.7 9.29 11.29 9.21 11.29 8.84 11.33 8.86 11.35 8.86 11.39 8.86 11.53 8.88 11.7 8.9"/><polygon class="cls-6" points="11.7 8.9 11.7 8.9 11.7 9.29 11.29 9.21 11.29 8.84 11.33 8.86 11.35 8.86 11.39 8.86 11.53 8.88 11.7 8.9"/><polygon class="cls-4" points="11.82 9.31 11.82 9.52 11.28 9.46 11.28 9.23 11.82 9.31"/><polygon class="cls-5" points="11.82 9.54 11.72 9.58 11.28 9.52 11.28 9.46 11.82 9.54"/><polygon class="cls-6" points="11.82 9.54 11.72 9.58 11.28 9.52 11.28 9.46 11.82 9.54"/><polygon class="cls-4" points="11.7 9.74 11.66 9.74 11.64 9.74 11.53 9.73 11.41 9.7 11.29 9.7 11.29 9.54 11.7 9.58 11.7 9.74"/><polygon class="cls-7" points="11.7 9.74 11.66 9.74 11.64 9.74 11.53 9.73 11.41 9.7 11.29 9.7 11.29 9.54 11.7 9.58 11.7 9.74"/><polygon class="cls-4" points="11.72 9.72 11.72 9.58 11.82 9.54 11.72 9.72"/><polygon class="cls-6" points="11.72 9.72 11.72 9.58 11.82 9.54 11.72 9.72"/><polygon class="cls-5" points="11.7 10.2 11.29 10.14 11.29 9.72 11.3 9.72 11.33 9.72 11.47 9.75 11.51 9.77 11.59 9.77 11.66 9.77 11.7 9.77 11.7 10.2"/><polygon class="cls-6" points="11.7 10.2 11.29 10.14 11.29 9.72 11.3 9.72 11.33 9.72 11.47 9.75 11.51 9.77 11.59 9.77 11.66 9.77 11.7 9.77 11.7 10.2"/><polygon class="cls-5" points="11.72 9.74 11.82 9.56 11.82 10.2 11.72 10.2 11.72 9.74"/><polygon class="cls-6" points="11.72 9.74 11.82 9.56 11.82 10.2 11.72 10.2 11.72 9.74"/><polygon class="cls-5" points="5.04 11.77 4.92 11.77 4.36 11.93 4.36 9.95 5.04 9.62 5.04 11.77"/><polygon class="cls-6" points="5.04 11.77 4.92 11.77 4.36 11.93 4.36 9.95 5.04 9.62 5.04 11.77"/><polygon class="cls-4" points="4.34 11.93 4.3 11.95 3.62 11.93 3.62 9.87 4.34 9.95 4.34 11.93"/><polygon class="cls-5" points="3.6 11.93 3.49 11.93 3.33 11.97 3.33 10.01 3.6 9.89 3.6 11.93"/><polygon class="cls-6" points="3.6 11.93 3.49 11.93 3.33 11.97 3.33 10.01 3.6 9.89 3.6 11.93"/><polygon class="cls-4" points="11.82 10.42 11.28 10.38 11.28 10.15 11.82 10.22 11.82 10.42"/><polygon class="cls-5" points="11.82 10.45 11.72 10.49 11.28 10.46 11.28 10.4 11.82 10.45"/><polygon class="cls-6" points="11.82 10.45 11.72 10.49 11.28 10.46 11.28 10.4 11.82 10.45"/><polygon class="cls-4" points="11.7 10.63 11.66 10.63 11.59 10.65 11.51 10.63 11.49 10.63 11.43 10.63 11.39 10.63 11.37 10.61 11.3 10.61 11.29 10.61 11.29 10.47 11.7 10.49 11.7 10.63"/><polygon class="cls-7" points="11.7 10.63 11.66 10.63 11.59 10.65 11.51 10.63 11.49 10.63 11.43 10.63 11.39 10.63 11.37 10.61 11.3 10.61 11.29 10.61 11.29 10.47 11.7 10.49 11.7 10.63"/><polygon class="cls-4" points="11.72 10.61 11.72 10.48 11.82 10.45 11.72 10.61"/><polygon class="cls-6" points="11.72 10.61 11.72 10.48 11.82 10.45 11.72 10.61"/><polygon class="cls-5" points="11.72 11.29 11.72 10.63 11.82 10.47 11.82 11.29 11.72 11.29"/><polygon class="cls-6" points="11.72 11.29 11.72 10.63 11.82 10.47 11.82 11.29 11.72 11.29"/><polygon class="cls-5" points="11.55 10.65 11.62 10.67 11.68 10.67 11.7 10.65 11.7 11.29 11.57 11.29 11.45 11.29 11.35 11.29 11.28 11.31 11.28 10.63 11.37 10.65 11.41 10.65 11.55 10.65"/><polygon class="cls-6" points="11.55 10.65 11.62 10.67 11.68 10.67 11.7 10.65 11.7 11.29 11.57 11.29 11.45 11.29 11.35 11.29 11.28 11.31 11.28 10.63 11.37 10.65 11.41 10.65 11.55 10.65"/><polygon class="cls-5" points="11.16 11.7 10.58 11.83 10.58 11.62 10.95 11.52 10.97 11.5 11.02 11.45 11.04 11.41 11.08 11.39 11.1 11.37 11.16 11.35 11.24 11.33 11.33 11.31 11.35 11.31 11.35 11.33 11.33 11.33 11.3 11.35 11.28 11.37 11.26 11.37 11.24 11.39 11.22 11.44 11.2 11.45 11.18 11.5 11.16 11.54 11.16 11.62 11.16 11.7"/><polygon class="cls-6" points="11.16 11.7 10.58 11.83 10.58 11.62 10.95 11.52 10.97 11.5 11.02 11.45 11.04 11.41 11.08 11.39 11.1 11.37 11.16 11.35 11.24 11.33 11.33 11.31 11.35 11.31 11.35 11.33 11.33 11.33 11.3 11.35 11.28 11.37 11.26 11.37 11.24 11.39 11.22 11.44 11.2 11.45 11.18 11.5 11.16 11.54 11.16 11.62 11.16 11.7"/><polygon class="cls-5" points="4.92 13.02 4.32 12.9 4.32 11.95 4.92 11.76 4.92 13.02"/><polygon class="cls-8" points="4.92 13.02 4.32 12.9 4.32 11.95 4.92 11.76 4.92 13.02"/><polygon class="cls-5" points="7.29 11.85 7.29 12.51 4.94 12.53 4.94 11.77 7.29 11.85"/><polygon class="cls-6" points="7.29 11.85 7.29 12.51 4.94 12.53 4.94 11.77 7.29 11.85"/><polygon class="cls-5" points="10.89 12.18 10.64 12.43 10.64 11.87 10.89 11.81 10.89 12.18"/><polygon class="cls-6" points="10.89 12.18 10.64 12.43 10.64 11.87 10.89 11.81 10.89 12.18"/><rect class="cls-9" x="10.92" y="11.81" width="0.18" height="0.37"/><rect class="cls-6" x="10.92" y="11.81" width="0.18" height="0.37"/><polygon class="cls-5" points="11.95 12.2 11.61 12.46 11.61 11.91 11.95 11.85 11.95 12.2"/><polygon class="cls-6" points="11.95 12.2 11.61 12.46 11.61 11.91 11.95 11.85 11.95 12.2"/><polygon class="cls-5" points="9.18 11.89 9.18 12.51 7.31 12.51 7.31 11.85 9.18 11.89"/><polygon class="cls-6" points="9.18 11.89 9.18 12.51 7.31 12.51 7.31 11.85 9.18 11.89"/><polygon class="cls-10" points="11.59 11.91 11.59 12.03 11.12 12.03 11.12 11.89 11.59 11.91"/><polygon class="cls-5" points="9.6 11.91 9.78 11.91 10.65 11.95 10.65 12.51 9.2 12.51 9.2 11.89 9.39 11.91 9.6 11.91"/><polygon class="cls-6" points="9.6 11.91 9.78 11.91 10.65 11.95 10.65 12.51 9.2 12.51 9.2 11.89 9.39 11.91 9.6 11.91"/><polygon class="cls-5" points="3.47 12.9 3.2 12.82 3.2 12.01 3.47 11.93 3.47 12.9"/><polygon class="cls-8" points="3.47 12.9 3.2 12.82 3.2 12.01 3.47 11.93 3.47 12.9"/><polygon class="cls-5" points="4.3 12.46 3.49 12.46 3.49 11.93 4.3 11.95 4.3 12.46"/><polygon class="cls-6" points="4.3 12.46 3.49 12.46 3.49 11.93 4.3 11.95 4.3 12.46"/><polygon class="cls-5" points="13.12 11.99 13.12 12.51 12.15 12.51 12.15 11.97 13.12 11.99"/><polygon class="cls-6" points="13.12 11.99 13.12 12.51 12.15 12.51 12.15 11.97 13.12 11.99"/><polygon class="cls-5" points="14.09 12.01 14.09 12.51 13.14 12.51 13.14 11.99 14.09 12.01"/><polygon class="cls-6" points="14.09 12.01 14.09 12.51 13.14 12.51 13.14 11.99 14.09 12.01"/><polygon class="cls-5" points="14.93 12.03 14.93 12.51 14.11 12.51 14.11 12.01 14.93 12.03"/><polygon class="cls-6" points="14.93 12.03 14.93 12.51 14.11 12.51 14.11 12.01 14.93 12.03"/><polygon class="cls-10" points="11.59 12.09 11.12 12.07 11.12 12.03 11.59 12.05 11.59 12.09"/><polygon class="cls-10" points="11.59 12.09 11.59 12.88 11.53 12.88 11.53 12.11 11.12 12.14 11.12 12.09 11.59 12.09"/><polygon class="cls-4" points="11.1 12.94 10.92 12.94 10.92 12.18 11.1 12.2 11.1 12.94"/><polygon class="cls-4" points="10.89 12.94 10.64 12.92 10.64 12.45 10.89 12.2 10.89 12.94"/><rect class="cls-3" x="11.97" y="12.2" width="0.16" height="0.74"/><polygon class="cls-4" points="11.95 12.94 11.61 12.9 11.61 12.49 11.95 12.22 11.95 12.94"/><polygon class="cls-5" points="7.29 12.53 7.29 12.98 4.94 13.02 4.94 12.53 7.29 12.53"/><polygon class="cls-8" points="7.29 12.53 7.29 12.98 4.94 13.02 4.94 12.53 7.29 12.53"/><polygon class="cls-5" points="9.18 12.53 9.18 12.94 7.31 12.98 7.31 12.53 9.18 12.53"/><polygon class="cls-8" points="9.18 12.53 9.18 12.94 7.31 12.98 7.31 12.53 9.18 12.53"/><polygon class="cls-5" points="13.12 12.88 12.15 12.9 12.15 12.53 13.12 12.53 13.12 12.88"/><polygon class="cls-8" points="13.12 12.88 12.15 12.9 12.15 12.53 13.12 12.53 13.12 12.88"/><polygon class="cls-5" points="13.14 12.53 14.09 12.53 14.09 12.86 13.14 12.88 13.14 12.53"/><polygon class="cls-8" points="13.14 12.53 14.09 12.53 14.09 12.86 13.14 12.88 13.14 12.53"/><polygon class="cls-5" points="14.11 12.53 14.93 12.53 14.93 12.84 14.11 12.86 14.11 12.53"/><polygon class="cls-8" points="14.11 12.53 14.93 12.53 14.93 12.84 14.11 12.86 14.11 12.53"/><polygon class="cls-5" points="10.64 12.53 10.64 12.92 9.21 12.94 9.21 12.53 10.64 12.53"/><polygon class="cls-8" points="10.64 12.53 10.64 12.92 9.21 12.94 9.21 12.53 10.64 12.53"/><rect class="cls-9" x="3.49" y="12.48" width="0.81" height="0.41"/><rect class="cls-8" x="3.49" y="12.48" width="0.81" height="0.41"/><polygon class="cls-5" points="13.33 8.67 13.33 8.34 13.68 8.43 13.68 8.73 13.33 8.67"/><polygon class="cls-6" points="13.33 8.67 13.33 8.34 13.68 8.43 13.68 8.73 13.33 8.67"/><polygon class="cls-5" points="13.33 9.21 13.33 8.9 13.68 8.96 13.68 9.27 13.33 9.21"/><polygon class="cls-6" points="13.33 9.21 13.33 8.9 13.68 8.96 13.68 9.27 13.33 9.21"/><polygon class="cls-4" points="13.33 10.32 13.33 10.4 14.21 10.51 14.21 8.51 14.21 8.49 14.21 8.47 14.19 8.45 14.17 8.45 14.17 8.43 14.15 8.43 14.13 8.43 14.13 8.4 14.11 8.4 14.09 8.4 13.33 8.24 13.33 8.34 13.68 8.43 13.68 8.75 13.33 8.67 13.33 8.88 13.68 8.96 13.68 9.29 13.33 9.23 13.33 9.44 13.68 9.5 13.68 9.83 13.33 9.77 13.33 9.97 13.68 10.01 13.68 10.36 13.33 10.32"/><polygon class="cls-5" points="13.33 10.3 13.68 10.34 13.68 10.01 13.33 9.97 13.33 10.3"/><polygon class="cls-6" points="13.33 10.3 13.68 10.34 13.68 10.01 13.33 9.97 13.33 10.3"/><polygon class="cls-5" points="13.33 9.76 13.68 9.81 13.68 9.5 13.33 9.44 13.33 9.76"/><polygon class="cls-6" points="13.33 9.76 13.68 9.81 13.68 9.5 13.33 9.44 13.33 9.76"/><polygon class="cls-4" points="14.23 11.66 14.36 11.66 14.36 11.97 14.23 11.97 14.23 12.01 14.85 12.03 14.85 10.59 14.23 10.53 14.23 10.63 14.36 10.63 14.36 10.94 14.23 10.94 14.23 11.14 14.36 11.14 14.36 11.45 14.23 11.45 14.23 11.66"/><polygon class="cls-4" points="14.21 12.01 13.33 11.99 13.33 11.95 13.68 11.95 13.68 11.62 13.33 11.6 13.33 11.41 13.68 11.41 13.68 11.08 13.33 11.06 13.33 10.86 13.68 10.9 13.68 10.55 13.33 10.51 13.33 10.42 14.21 10.51 14.21 12.01"/><polygon class="cls-5" points="14.23 11.66 14.23 11.97 14.36 11.97 14.36 11.68 14.23 11.66"/><polygon class="cls-6" points="14.23 11.66 14.23 11.97 14.36 11.97 14.36 11.68 14.23 11.66"/><polygon class="cls-5" points="14.23 11.45 14.36 11.45 14.36 11.16 14.23 11.15 14.23 11.45"/><polygon class="cls-6" points="14.23 11.45 14.36 11.45 14.36 11.16 14.23 11.15 14.23 11.45"/><polygon class="cls-5" points="14.23 10.94 14.36 10.94 14.36 10.65 14.23 10.63 14.23 10.94"/><polygon class="cls-6" points="14.23 10.94 14.36 10.94 14.36 10.65 14.23 10.63 14.23 10.94"/><polygon class="cls-5" points="12.15 9.56 12.15 9.19 12.56 9.25 12.56 9.62 12.15 9.56"/><polygon class="cls-6" points="12.15 9.56 12.15 9.19 12.56 9.25 12.56 9.62 12.15 9.56"/><polygon class="cls-5" points="12.15 10.14 12.15 9.76 12.56 9.83 12.56 10.2 12.15 10.14"/><polygon class="cls-6" points="12.15 10.14 12.15 9.76 12.56 9.83 12.56 10.2 12.15 10.14"/><polygon class="cls-4" points="12.15 10.15 12.58 10.2 12.58 9.83 12.15 9.77 12.15 9.56 12.58 9.62 12.58 9.25 12.15 9.19 12.15 8.98 12.58 9.06 12.58 8.67 12.15 8.59 12.15 8.38 12.58 8.49 12.58 8.12 12.15 8.01 12.15 7.85 13.2 8.12 13.22 8.12 13.24 8.12 13.26 8.14 13.29 8.16 13.29 8.18 13.3 8.2 13.3 8.22 13.3 8.26 13.3 10.38 12.15 10.24 12.15 10.15"/><polygon class="cls-5" points="11.12 6.73 9.9 7.31 10.67 7.5 10.67 11.58 10.94 11.52 10.94 7.17 10.94 7.15 10.94 7.11 10.94 7.06 10.95 7.04 10.95 7 10.98 6.98 10.98 6.94 11 6.92 11 6.88 11.02 6.86 11.04 6.84 11.06 6.82 11.06 6.79 11.08 6.78 11.1 6.75 11.12 6.73"/><polygon class="cls-6" points="11.12 6.73 9.9 7.31 10.67 7.5 10.67 11.58 10.94 11.52 10.94 7.17 10.94 7.15 10.94 7.11 10.94 7.06 10.95 7.04 10.95 7 10.98 6.98 10.98 6.94 11 6.92 11 6.88 11.02 6.86 11.04 6.84 11.06 6.82 11.06 6.79 11.08 6.78 11.1 6.75 11.12 6.73"/><polygon class="cls-4" points="10.96 7.13 10.96 11.5 10.97 11.45 11 11.43 11.04 11.41 11.08 11.37 11.12 11.35 11.12 7.29 11.12 7.25 11.12 7.21 11.12 7.15 11.14 7.11 11.16 7.07 11.18 7.03 11.2 6.98 11.22 6.96 11.27 6.92 11.29 6.9 11.32 6.88 11.37 6.88 11.41 6.86 11.45 6.86 11.47 6.86 11.53 6.86 11.55 6.86 11.59 6.86 11.64 6.88 11.68 6.88 11.72 6.9 11.74 6.92 11.78 6.94 11.82 6.98 11.84 7 11.88 7.04 11.91 7.09 11.93 7.13 11.95 7.17 11.97 7.21 11.97 7.27 11.99 7.35 11.99 11.29 12.03 11.31 12.07 11.31 12.13 11.33 12.13 7.33 12.13 7.31 12.11 7.23 12.09 7.17 12.07 7.11 12.05 7.04 12.01 6.98 11.99 6.92 11.95 6.88 11.91 6.82 11.86 6.78 11.8 6.75 11.76 6.71 11.7 6.69 11.64 6.67 11.57 6.65 11.47 6.65 11.45 6.65 11.41 6.65 11.35 6.65 11.3 6.67 11.24 6.69 11.2 6.71 11.16 6.74 11.12 6.75 11.1 6.79 11.06 6.84 11.04 6.88 11.02 6.92 11 6.96 10.97 7 10.96 7.04 10.96 7.13"/><polygon class="cls-5" points="7.41 9.21 7.99 9.29 7.99 9.7 7.41 9.64 7.41 9.21"/><polygon class="cls-6" points="7.41 9.21 7.99 9.29 7.99 9.7 7.41 9.64 7.41 9.21"/><polygon class="cls-5" points="7.41 8.51 7.99 8.59 7.99 9.02 7.41 8.94 7.41 8.51"/><polygon class="cls-6" points="7.41 8.51 7.99 8.59 7.99 9.02 7.41 8.94 7.41 8.51"/><polygon class="cls-5" points="8.15 7.93 8.73 8.05 8.73 8.47 8.15 8.36 8.15 7.93"/><polygon class="cls-6" points="8.15 7.93 8.73 8.05 8.73 8.47 8.15 8.36 8.15 7.93"/><polygon class="cls-5" points="8.15 8.61 8.73 8.71 8.73 9.13 8.15 9.04 8.15 8.61"/><polygon class="cls-6" points="8.15 8.61 8.73 8.71 8.73 9.13 8.15 9.04 8.15 8.61"/><polygon class="cls-5" points="8.15 9.31 8.73 9.39 8.73 9.81 8.15 9.72 8.15 9.31"/><polygon class="cls-6" points="8.15 9.31 8.73 9.39 8.73 9.81 8.15 9.72 8.15 9.31"/><polygon class="cls-5" points="8.15 9.99 8.73 10.05 8.73 10.47 8.15 10.42 8.15 9.99"/><polygon class="cls-6" points="8.15 9.99 8.73 10.05 8.73 10.47 8.15 10.42 8.15 9.99"/><polygon class="cls-5" points="7.41 9.91 7.99 9.97 7.99 10.4 7.41 10.34 7.41 9.91"/><polygon class="cls-6" points="7.41 9.91 7.99 9.97 7.99 10.4 7.41 10.34 7.41 9.91"/><polygon class="cls-5" points="7.41 10.61 7.99 10.67 7.99 11.08 7.41 11.04 7.41 10.61"/><polygon class="cls-6" points="7.41 10.61 7.99 10.67 7.99 11.08 7.41 11.04 7.41 10.61"/><polygon class="cls-5" points="8.15 10.67 8.73 10.71 8.73 11.13 8.15 11.1 8.15 10.67"/><polygon class="cls-6" points="8.15 10.67 8.73 10.71 8.73 11.13 8.15 11.1 8.15 10.67"/><polygon class="cls-5" points="11.82 7.66 11.72 7.75 11.28 7.64 11.28 7.54 11.82 7.66"/><polygon class="cls-6" points="11.82 7.66 11.72 7.75 11.28 7.64 11.28 7.54 11.82 7.66"/><polygon class="cls-5" points="12.73 8.71 13.18 8.8 13.18 9.17 12.73 9.09 12.73 8.71"/><polygon class="cls-6" points="12.73 8.71 13.18 8.8 13.18 9.17 12.73 9.09 12.73 8.71"/><polygon class="cls-5" points="12.15 8.38 12.56 8.47 12.56 8.12 12.15 8.01 12.15 8.38"/><polygon class="cls-6" points="12.15 8.38 12.56 8.47 12.56 8.12 12.15 8.01 12.15 8.38"/><polygon class="cls-5" points="12.15 8.98 12.56 9.04 12.56 8.69 12.15 8.61 12.15 8.98"/><polygon class="cls-6" points="12.15 8.98 12.56 9.04 12.56 8.69 12.15 8.61 12.15 8.98"/><polygon class="cls-5" points="12.73 9.85 13.18 9.91 13.18 10.28 12.73 10.22 12.73 9.85"/><polygon class="cls-6" points="12.73 9.85 13.18 9.91 13.18 10.28 12.73 10.22 12.73 9.85"/><polygon class="cls-5" points="12.73 10.4 13.18 10.46 13.18 10.84 12.73 10.79 12.73 10.4"/><polygon class="cls-6" points="12.73 10.4 13.18 10.46 13.18 10.84 12.73 10.79 12.73 10.4"/><polygon class="cls-5" points="12.73 10.98 13.18 11.02 13.18 11.39 12.73 11.37 12.73 10.98"/><polygon class="cls-6" points="12.73 10.98 13.18 11.02 13.18 11.39 12.73 11.37 12.73 10.98"/><polygon class="cls-5" points="12.73 11.54 13.18 11.56 13.18 11.95 12.73 11.93 12.73 11.54"/><polygon class="cls-6" points="12.73 11.54 13.18 11.56 13.18 11.95 12.73 11.93 12.73 11.54"/><rect class="cls-9" x="11.97" y="11.85" width="0.16" height="0.33"/><rect class="cls-6" x="11.96" y="11.85" width="0.16" height="0.33"/><polygon class="cls-5" points="12.38 11.74 12.13 11.83 11.96 11.83 11.59 11.89 11.12 11.89 11.12 11.79 10.89 11.79 10.64 11.85 10.61 11.85 10.61 11.83 11.14 11.7 12.38 11.74"/><polygon class="cls-6" points="12.38 11.74 12.13 11.83 11.96 11.83 11.59 11.89 11.12 11.89 11.12 11.79 10.89 11.79 10.64 11.85 10.61 11.85 10.61 11.83 11.14 11.7 12.38 11.74"/><polygon class="cls-5" points="12.73 8.14 13.18 8.24 13.18 8.61 12.73 8.51 12.73 8.14"/><polygon class="cls-6" points="12.73 8.14 13.18 8.24 13.18 8.61 12.73 8.51 12.73 8.14"/><polygon class="cls-5" points="12.73 9.27 13.18 9.35 13.18 9.73 12.73 9.64 12.73 9.27"/><polygon class="cls-6" points="12.73 9.27 13.18 9.35 13.18 9.73 12.73 9.64 12.73 9.27"/><polygon class="cls-4" points="12.4 11.74 11.18 11.7 11.16 11.66 11.18 11.6 11.18 11.56 11.18 11.54 11.2 11.48 11.22 11.43 11.26 11.41 11.28 11.37 11.33 11.35 11.37 11.33 11.41 11.33 11.45 11.31 11.55 11.31 11.72 11.29 11.93 11.31 12.03 11.33 12.15 11.35 12.19 11.37 12.25 11.39 12.28 11.41 12.31 11.43 12.34 11.45 12.36 11.5 12.38 11.52 12.4 11.56 12.4 11.6 12.4 11.66 12.4 11.72 12.4 11.74"/><polygon class="cls-4" points="12.34 11.68 11.24 11.64 11.24 11.62 11.24 11.58 11.24 11.56 11.24 11.52 11.27 11.5 11.29 11.45 11.3 11.43 11.35 11.41 11.37 11.39 11.41 11.39 11.45 11.37 11.49 11.37 11.57 11.37 11.72 11.35 11.8 11.35 11.91 11.37 11.97 11.37 12.05 11.39 12.13 11.41 12.17 11.41 12.21 11.43 12.23 11.43 12.28 11.45 12.29 11.48 12.32 11.5 12.32 11.52 12.34 11.56 12.34 11.58 12.34 11.62 12.34 11.66 12.34 11.68"/><polygon class="cls-4" points="11.35 11.58 11.35 11.58 11.37 11.58 11.37 11.56 11.39 11.56 11.41 11.56 11.43 11.56 11.45 11.54 11.47 11.54 11.49 11.54 11.51 11.54 11.53 11.54 11.53 11.56 11.53 11.58 11.51 11.58 11.49 11.6 11.47 11.6 11.45 11.6 11.43 11.6 11.39 11.6 11.37 11.6 11.37 11.58 11.35 11.58"/><polygon class="cls-5" points="13.74 8.98 14.13 9.04 14.13 9.35 13.74 9.29 13.74 8.98"/><polygon class="cls-6" points="13.74 8.98 14.13 9.04 14.13 9.35 13.74 9.29 13.74 8.98"/><polygon class="cls-5" points="13.74 9.5 14.13 9.56 14.13 9.89 13.74 9.83 13.74 9.5"/><polygon class="cls-6" points="13.74 9.5 14.13 9.56 14.13 9.89 13.74 9.83 13.74 9.5"/><polygon class="cls-5" points="13.76 10.03 14.13 10.07 14.13 10.4 13.76 10.36 13.76 10.03"/><polygon class="cls-6" points="13.76 10.03 14.13 10.07 14.13 10.4 13.76 10.36 13.76 10.03"/><polygon class="cls-5" points="13.76 10.57 14.13 10.61 14.13 10.92 13.76 10.9 13.76 10.57"/><polygon class="cls-6" points="13.76 10.57 14.13 10.61 14.13 10.92 13.76 10.9 13.76 10.57"/><polygon class="cls-5" points="13.76 11.1 14.13 11.13 14.13 11.43 13.76 11.41 13.76 11.1"/><polygon class="cls-6" points="13.76 11.1 14.13 11.13 14.13 11.43 13.76 11.41 13.76 11.1"/><rect class="cls-9" x="13.76" y="11.64" width="0.37" height="0.33"/><rect class="cls-6" x="13.76" y="11.64" width="0.37" height="0.33"/><polygon class="cls-5" points="13.74 8.45 14.13 8.53 14.13 8.84 13.74 8.75 13.74 8.45"/><polygon class="cls-6" points="13.74 8.45 14.13 8.53 14.13 8.84 13.74 8.75 13.74 8.45"/><polygon class="cls-5" points="5.27 7.54 5.91 7.64 5.91 8.12 5.27 8.04 5.27 7.54"/><polygon class="cls-6" points="5.27 7.54 5.91 7.64 5.91 8.12 5.27 8.04 5.27 7.54"/><polygon class="cls-5" points="6.17 7.68 6.81 7.81 6.81 8.28 6.17 8.18 6.17 7.68"/><polygon class="cls-6" points="6.17 7.68 6.81 7.81 6.81 8.28 6.17 8.18 6.17 7.68"/><polygon class="cls-5" points="6.17 8.4 6.81 8.51 6.81 8.98 6.17 8.9 6.17 8.4"/><polygon class="cls-6" points="6.17 8.4 6.81 8.51 6.81 8.98 6.17 8.9 6.17 8.4"/><polygon class="cls-5" points="6.17 9.13 6.81 9.21 6.81 9.66 6.17 9.6 6.17 9.13"/><polygon class="cls-6" points="6.17 9.13 6.81 9.21 6.81 9.66 6.17 9.6 6.17 9.13"/><polygon class="cls-5" points="6.17 9.83 6.81 9.89 6.81 10.36 6.17 10.32 6.17 9.83"/><polygon class="cls-6" points="6.17 9.83 6.81 9.89 6.81 10.36 6.17 10.32 6.17 9.83"/><polygon class="cls-5" points="6.17 10.55 6.81 10.59 6.81 11.06 6.17 11.02 6.17 10.55"/><polygon class="cls-6" points="6.17 10.55 6.81 10.59 6.81 11.06 6.17 11.02 6.17 10.55"/><polygon class="cls-5" points="6.17 11.27 6.81 11.29 6.81 11.74 6.17 11.74 6.17 11.27"/><polygon class="cls-6" points="6.17 11.27 6.81 11.29 6.81 11.74 6.17 11.74 6.17 11.27"/><polyline class="cls-5" points="5.27 10.49 5.27 10.49 5.91 10.53 5.91 11 5.27 10.96"/><polyline class="cls-6" points="5.27 10.49 5.27 10.49 5.91 10.53 5.91 11 5.27 10.96"/><polygon class="cls-5" points="5.27 11.23 5.91 11.25 5.91 11.72 5.27 11.7 5.27 11.23"/><polygon class="cls-6" points="5.27 11.23 5.91 11.25 5.91 11.72 5.27 11.7 5.27 11.23"/><polygon class="cls-5" points="5.27 9.76 5.91 9.81 5.91 10.28 5.27 10.24 5.27 9.76"/><polygon class="cls-6" points="5.27 9.76 5.91 9.81 5.91 10.28 5.27 10.24 5.27 9.76"/><polygon class="cls-5" points="5.27 9.02 5.91 9.09 5.91 9.56 5.27 9.5 5.27 9.02"/><polygon class="cls-6" points="5.27 9.02 5.91 9.09 5.91 9.56 5.27 9.5 5.27 9.02"/><polygon class="cls-5" points="5.27 8.28 5.91 8.36 5.91 8.84 5.27 8.76 5.27 8.28"/><polygon class="cls-6" points="5.27 8.28 5.91 8.36 5.91 8.84 5.27 8.76 5.27 8.28"/><polygon class="cls-5" points="7.41 7.08 7.99 7.23 7.99 7.64 7.41 7.52 7.41 7.08"/><polygon class="cls-6" points="7.41 7.08 7.99 7.23 7.99 7.64 7.41 7.52 7.41 7.08"/><polygon class="cls-5" points="8.15 7.25 8.73 7.37 8.73 7.81 8.15 7.68 8.15 7.25"/><polygon class="cls-6" points="8.15 7.25 8.73 7.37 8.73 7.81 8.15 7.68 8.15 7.25"/><polygon class="cls-5" points="7.41 7.79 7.99 7.91 7.99 8.32 7.41 8.22 7.41 7.79"/><polygon class="cls-6" points="7.41 7.79 7.99 7.91 7.99 8.32 7.41 8.22 7.41 7.79"/><polygon class="cls-5" points="7.41 11.33 7.99 11.35 7.99 11.79 7.41 11.77 7.41 11.33"/><polygon class="cls-6" points="7.41 11.33 7.99 11.35 7.99 11.79 7.41 11.77 7.41 11.33"/><polygon class="cls-5" points="8.15 11.35 8.73 11.37 8.73 11.8 8.15 11.79 8.15 11.35"/><polygon class="cls-6" points="8.15 11.35 8.73 11.37 8.73 11.8 8.15 11.79 8.15 11.35"/><polygon class="cls-5" points="9.22 7.37 9.78 7.5 9.78 7.91 9.22 7.79 9.22 7.37"/><polygon class="cls-6" points="9.22 7.37 9.78 7.5 9.78 7.91 9.22 7.79 9.22 7.37"/><polygon class="cls-5" points="9.97 7.54 10.54 7.66 10.54 8.07 9.97 7.95 9.97 7.54"/><polygon class="cls-6" points="9.97 7.54 10.54 7.66 10.54 8.07 9.97 7.95 9.97 7.54"/><polygon class="cls-5" points="9.22 8.05 9.78 8.16 9.78 8.57 9.22 8.45 9.22 8.05"/><polygon class="cls-6" points="9.22 8.05 9.78 8.16 9.78 8.57 9.22 8.45 9.22 8.05"/><polygon class="cls-5" points="9.22 8.71 9.78 8.8 9.78 9.21 9.22 9.13 9.22 8.71"/><polygon class="cls-6" points="9.22 8.71 9.78 8.8 9.78 9.21 9.22 9.13 9.22 8.71"/><polygon class="cls-5" points="9.22 9.37 9.78 9.46 9.78 9.87 9.22 9.81 9.22 9.37"/><polygon class="cls-6" points="9.22 9.37 9.78 9.46 9.78 9.87 9.22 9.81 9.22 9.37"/><polygon class="cls-5" points="9.22 10.05 9.78 10.11 9.78 10.53 9.22 10.47 9.22 10.05"/><polygon class="cls-6" points="9.22 10.05 9.78 10.11 9.78 10.53 9.22 10.47 9.22 10.05"/><polygon class="cls-5" points="9.22 10.71 9.78 10.75 9.78 11.17 9.22 11.15 9.22 10.71"/><polygon class="cls-6" points="9.22 10.71 9.78 10.75 9.78 11.17 9.22 11.15 9.22 10.71"/><polygon class="cls-5" points="9.22 11.39 9.78 11.41 9.78 11.83 9.22 11.81 9.22 11.39"/><polygon class="cls-6" points="9.22 11.39 9.78 11.41 9.78 11.83 9.22 11.81 9.22 11.39"/><polygon class="cls-5" points="9.97 8.18 10.54 8.3 10.54 8.69 9.97 8.59 9.97 8.18"/><polygon class="cls-6" points="9.97 8.18 10.54 8.3 10.54 8.69 9.97 8.59 9.97 8.18"/><polygon class="cls-5" points="9.97 8.84 10.54 8.92 10.54 9.33 9.97 9.25 9.97 8.84"/><polygon class="cls-6" points="9.97 8.84 10.54 8.92 10.54 9.33 9.97 9.25 9.97 8.84"/><polygon class="cls-5" points="9.97 9.48 10.54 9.56 10.54 9.97 9.97 9.89 9.97 9.48"/><polygon class="cls-6" points="9.97 9.48 10.54 9.56 10.54 9.97 9.97 9.89 9.97 9.48"/><polyline class="cls-5" points="9.97 10.53 9.97 10.12 10.54 10.18 10.54 10.59"/><polyline class="cls-6" points="9.97 10.53 9.97 10.12 10.54 10.18 10.54 10.59"/><polygon class="cls-5" points="9.97 10.77 10.54 10.81 10.54 11.23 9.97 11.19 9.97 10.77"/><polygon class="cls-6" points="9.97 10.77 10.54 10.81 10.54 11.23 9.97 11.19 9.97 10.77"/><polygon class="cls-5" points="9.97 11.41 10.54 11.43 10.54 11.85 9.97 11.82 9.97 11.41"/><polygon class="cls-6" points="9.97 11.41 10.54 11.43 10.54 11.85 9.97 11.82 9.97 11.41"/><polygon class="cls-5" points="13.33 10.86 13.33 10.53 13.68 10.55 13.68 10.88 13.33 10.86"/><polygon class="cls-6" points="13.33 10.86 13.33 10.53 13.68 10.55 13.68 10.88 13.33 10.86"/><polygon class="cls-5" points="13.33 11.39 13.33 11.06 13.68 11.09 13.68 11.41 13.33 11.39"/><polygon class="cls-6" points="13.33 11.39 13.33 11.06 13.68 11.09 13.68 11.41 13.33 11.39"/><polygon class="cls-5" points="13.33 11.95 13.33 11.6 13.68 11.62 13.68 11.95 13.33 11.95"/><polygon class="cls-6" points="13.33 11.95 13.33 11.6 13.68 11.62 13.68 11.95 13.33 11.95"/><polygon class="cls-5" points="14.44 9.15 14.81 9.21 14.81 9.5 14.44 9.43 14.44 9.15"/><polygon class="cls-6" points="14.44 9.15 14.81 9.21 14.81 9.5 14.44 9.43 14.44 9.15"/><polygon class="cls-5" points="14.44 10.65 14.81 10.69 14.81 10.98 14.44 10.94 14.44 10.65"/><polygon class="cls-6" points="14.44 10.65 14.81 10.69 14.81 10.98 14.44 10.94 14.44 10.65"/><polygon class="cls-5" points="14.44 10.15 14.81 10.2 14.81 10.46 14.44 10.45 14.44 10.15"/><polygon class="cls-6" points="14.44 10.15 14.81 10.2 14.81 10.46 14.44 10.45 14.44 10.15"/><polygon class="cls-5" points="14.44 11.16 14.81 11.19 14.81 11.48 14.44 11.45 14.44 11.16"/><polygon class="cls-6" points="14.44 11.16 14.81 11.19 14.81 11.48 14.44 11.45 14.44 11.16"/><polygon class="cls-5" points="14.44 11.68 14.81 11.7 14.81 11.99 14.44 11.97 14.44 11.68"/><polygon class="cls-6" points="14.44 11.68 14.81 11.7 14.81 11.99 14.44 11.97 14.44 11.68"/><polygon class="cls-5" points="14.44 9.64 14.81 9.7 14.81 9.99 14.44 9.93 14.44 9.64"/><polygon class="cls-6" points="14.44 9.64 14.81 9.7 14.81 9.99 14.44 9.93 14.44 9.64"/></svg>