<svg id="Layer_1" data-name="Layer 1" xmlns="http://www.w3.org/2000/svg" viewBox="0 0 46 46"><defs><style>.cls-1{fill:#fff;}.cls-2{fill:#652524;}</style></defs><title>restaurants</title><path class="cls-1" d="M23,44.93A21.93,21.93,0,1,0,1.07,23,21.93,21.93,0,0,0,23,44.93"/><path class="cls-2" d="M28.32,20.73a1.55,1.55,0,0,1-1,1.17.49.49,0,0,0-.32.48l.37,8.28a.56.56,0,0,1-.15.44.76.76,0,0,1-1.07,0,.59.59,0,0,1-.14-.48l.37-8.24a.49.49,0,0,0-.32-.48,1.55,1.55,0,0,1-1-1.17,4.82,4.82,0,0,1,.13-2.24l.31-1a1.27,1.27,0,0,1,2.38,0l.31,1a4.85,4.85,0,0,1,.13,2.24m1,.17a5.83,5.83,0,0,0-.16-2.7l-.31-1a2.25,2.25,0,0,0-4.26,0l-.31,1a5.83,5.83,0,0,0-.16,2.7,2.53,2.53,0,0,0,1.31,1.77L25,30.55a1.55,1.55,0,0,0,.39,1.21,1.71,1.71,0,0,0,2.42.11l.11-.11a1.53,1.53,0,0,0,.39-1.17L28,22.67a2.53,2.53,0,0,0,1.3-1.77"/><path class="cls-2" d="M21.88,20.9a.49.49,0,0,0,.14-.35V16.14a.49.49,0,0,0-1,0v4.21l-1.33,1.33a.49.49,0,0,0-.14.37L20,30.62a.67.67,0,0,1-.19.5.69.69,0,0,1-1,0h0a.67.67,0,0,1-.19-.5L19.08,22a.49.49,0,0,0-.14-.37l-1.33-1.33V16.14a.49.49,0,0,0-1,0v4.41a.49.49,0,0,0,.14.35l1.32,1.32-.42,8.36a1.66,1.66,0,1,0,3.31.16c0-.05,0-.11,0-.16l-.42-8.36Z"/><path class="cls-2" d="M18.59,20.55a.49.49,0,0,0,.49-.49V16.14a.49.49,0,1,0-1,0v3.92a.49.49,0,0,0,.49.49"/><path class="cls-2" d="M19.57,16.14v3.92a.49.49,0,1,0,1,0V16.14a.49.49,0,0,0-1,0"/><path class="cls-2" d="M23,36.72A13.73,13.73,0,1,1,36.73,23,13.72,13.72,0,0,1,23,36.72M23,8.29A14.71,14.71,0,1,0,37.71,23,14.71,14.71,0,0,0,23,8.29"/><path class="cls-2" d="M24,31.76a9,9,0,0,1-2.08,0,.49.49,0,0,0-.11,1,10,10,0,0,0,2.3,0,.49.49,0,0,0-.1-1h0Z"/><path class="cls-2" d="M29.81,16.62a.49.49,0,0,0-.06.69,8.82,8.82,0,0,1-.52,11.94.49.49,0,0,0,.69.69,9.8,9.8,0,0,0,.58-13.26.49.49,0,0,0-.69-.06h0"/><path class="cls-2" d="M19.71,14.77a.5.5,0,0,0,.17,0,8.91,8.91,0,0,1,5.2-.32.49.49,0,0,0,.23-1,9.9,9.9,0,0,0-5.77.36.49.49,0,0,0,.17.95Z"/><path class="cls-2" d="M14.18,23a8.75,8.75,0,0,1,1.69-5.19.49.49,0,0,0-.78-.59h0a9.81,9.81,0,0,0,1,12.69.49.49,0,0,0,.69-.69A8.77,8.77,0,0,1,14.18,23"/></svg>