<?xml version="1.0" encoding="utf-8"?>
<!-- Generator: Adobe Illustrator 21.0.0, SVG Export Plug-In . SVG Version: 6.00 Build 0)  -->
<svg version="1.1" id="Layer_1" xmlns="http://www.w3.org/2000/svg" xmlns:xlink="http://www.w3.org/1999/xlink" x="0px" y="0px"
	 viewBox="0 0 46 46" style="enable-background:new 0 0 46 46;" xml:space="preserve">
<style type="text/css">
	.st0{fill:#652524;}
</style>
<title>restaurants</title>
<path class="st0" d="M28.3,20.7c-0.1,0.5-0.5,1-1,1.2C27.1,22,27,22.2,27,22.4l0.4,8.3c0,0.2,0,0.3-0.1,0.4c-0.3,0.3-0.8,0.3-1.1,0
	C26,31,26,30.8,26,30.6l0.4-8.2c0-0.2-0.1-0.4-0.3-0.5c-0.5-0.2-0.9-0.6-1-1.2c-0.1-0.7-0.1-1.5,0.1-2.2l0.3-1c0.2-0.7,1-1,1.6-0.7
	c0.3,0.1,0.6,0.4,0.7,0.7l0.3,1C28.4,19.2,28.5,20,28.3,20.7 M29.3,20.9c0.2-0.9,0.1-1.8-0.2-2.7l-0.3-1c-0.4-1.2-1.7-1.8-2.9-1.4
	c-0.7,0.2-1.2,0.7-1.4,1.4l-0.3,1C24,19.1,24,20,24.1,20.9c0.1,0.8,0.6,1.4,1.3,1.8L25,30.5c0,0.4,0.1,0.9,0.4,1.2
	c0.6,0.7,1.7,0.7,2.4,0.1c0,0,0,0,0,0l0.1-0.1c0.3-0.3,0.4-0.7,0.4-1.2L28,22.7C28.7,22.3,29.2,21.7,29.3,20.9"/>
<path class="st0" d="M21.9,20.9c0.1-0.1,0.1-0.2,0.1-0.4v-4.4c0-0.3-0.2-0.5-0.5-0.5S21,15.9,21,16.1v4.2l-1.3,1.3
	c-0.1,0.1-0.1,0.2-0.1,0.4l0.5,8.6c0,0.2-0.1,0.4-0.2,0.5c-0.3,0.3-0.7,0.3-1,0c0,0,0,0,0,0l0,0c-0.1-0.1-0.2-0.3-0.2-0.5l0.5-8.6
	c0-0.1,0-0.3-0.1-0.4l-1.3-1.3v-4.2c0-0.3-0.2-0.5-0.5-0.5s-0.5,0.2-0.5,0.5v4.4c0,0.1,0,0.3,0.1,0.4l1.3,1.3l-0.4,8.4
	c-0.1,0.9,0.6,1.7,1.5,1.8s1.7-0.6,1.8-1.5c0-0.1,0-0.1,0-0.2c0,0,0-0.1,0-0.2l-0.4-8.4L21.9,20.9z"/>
<path class="st0" d="M18.6,20.5c0.3,0,0.5-0.2,0.5-0.5v-3.9c0-0.3-0.2-0.5-0.5-0.5s-0.5,0.2-0.5,0.5v3.9
	C18.1,20.3,18.3,20.5,18.6,20.5"/>
<path class="st0" d="M19.6,16.1v3.9c0,0.3,0.2,0.5,0.5,0.5s0.5-0.2,0.5-0.5v-3.9c0-0.3-0.2-0.5-0.5-0.5S19.6,15.9,19.6,16.1"/>
<path class="st0" d="M23,36.7c-7.6,0-13.7-6.1-13.7-13.7S15.4,9.3,23,9.3S36.7,15.4,36.7,23c0,0,0,0,0,0
	C36.7,30.6,30.6,36.7,23,36.7C23,36.7,23,36.7,23,36.7 M23,8.3C14.9,8.3,8.3,14.9,8.3,23S14.9,37.7,23,37.7S37.7,31.1,37.7,23l0,0
	C37.7,14.9,31.1,8.3,23,8.3"/>
<path class="st0" d="M24,31.8c-0.7,0.1-1.4,0.1-2.1,0c-0.3,0-0.5,0.2-0.6,0.4c0,0.3,0.2,0.5,0.4,0.6c0.8,0.1,1.5,0.1,2.3,0
	c0.3,0,0.5-0.3,0.4-0.5C24.5,31.9,24.3,31.7,24,31.8L24,31.8L24,31.8z"/>
<path class="st0" d="M29.8,16.6c-0.2,0.2-0.2,0.5-0.1,0.7c3,3.5,2.7,8.7-0.5,11.9c-0.2,0.2-0.1,0.5,0.1,0.7c0.2,0.2,0.4,0.2,0.6,0
	c3.6-3.6,3.9-9.4,0.6-13.3C30.3,16.5,30,16.4,29.8,16.6L29.8,16.6"/>
<path class="st0" d="M19.7,14.8c0.1,0,0.1,0,0.2,0c1.7-0.6,3.5-0.7,5.2-0.3c0.3,0.1,0.6-0.1,0.6-0.4s-0.1-0.6-0.4-0.6
	c-1.9-0.5-3.9-0.3-5.8,0.4c-0.3,0.1-0.4,0.4-0.3,0.6C19.3,14.6,19.5,14.8,19.7,14.8L19.7,14.8z"/>
<path class="st0" d="M14.2,23c0-1.9,0.6-3.7,1.7-5.2c0.1-0.2,0.1-0.5-0.1-0.7c-0.2-0.1-0.5-0.1-0.6,0.1l0,0c-2.8,3.9-2.4,9.3,1,12.7
	c0.2,0.2,0.5,0.1,0.7-0.1c0.2-0.2,0.2-0.4,0-0.6C15.1,27.6,14.2,25.3,14.2,23"/>
</svg>
