<?xml version="1.0" encoding="utf-8"?>
<!-- Generator: Adobe Illustrator 21.0.0, SVG Export Plug-In . SVG Version: 6.00 Build 0)  -->
<svg version="1.1" id="Layer_1" xmlns="http://www.w3.org/2000/svg" xmlns:xlink="http://www.w3.org/1999/xlink" x="0px" y="0px"
	 viewBox="0 0 46 46" style="enable-background:new 0 0 46 46;" xml:space="preserve">
<style type="text/css">
	.st0{fill:#642523;}
</style>
<title>salon</title>
<path class="st0" d="M33.3,20.8c-1,0-1.8,0.7-2,1.7l-0.5,3c-0.2,1-1.1,1.8-2.1,1.8H17.3c-1.1,0-2-0.8-2.1-1.8l-0.5-3
	c-0.2-1-1-1.7-2-1.7c-0.3,0-0.5-0.2-0.5-0.5s0.2-0.5,0.5-0.5c1.5,0,2.8,1.1,3.1,2.6l0.5,3c0.1,0.5,0.5,0.9,1.1,0.9h11.4
	c0.5,0,1-0.4,1.1-0.9l0.5-3c0.2-1.5,1.5-2.6,3.1-2.6c0.3,0,0.5,0.2,0.5,0.5S33.6,20.8,33.3,20.8 M16.5,19.7c0-0.6,0.5-1.1,1.1-1.1
	l0,0h10.9c0.6,0,1.1,0.5,1.1,1.1l0,0v1.4c-0.2,0.3-0.3,0.7-0.3,1l-0.5,3H17.3l-0.5-3c-0.1-0.3-0.2-0.7-0.3-1L16.5,19.7z M27.4,33.9
	c0,0.3-1.5,1.1-4.4,1.1s-4.4-0.8-4.4-1.1s1-0.9,3.3-1v0.4c0,0.3,0.2,0.6,0.5,0.6c0,0,0,0,0.1,0h1.1c0.3,0,0.5-0.2,0.5-0.5
	c0,0,0,0,0-0.1v-0.4C26.4,33,27.4,33.7,27.4,33.9 M18.6,14.3v-2.2c0-0.6,0.4-1.1,1-1.1c0,0,0,0,0,0h6.5c0.6,0,1.1,0.5,1.1,1.1l0,0
	v2.2c0,0.6-0.5,1.1-1.1,1.1l0,0h-6.5C19.1,15.4,18.6,14.9,18.6,14.3L18.6,14.3 M33.3,18.6c-1,0-2,0.4-2.7,1c0-1.2-1-2.1-2.2-2.1
	h-4.9v-1.1h2.7c1.2,0,2.2-1,2.2-2.2v-2.2c0-1.2-1-2.1-2.2-2.1h-6.5c-1.2,0-2.2,1-2.2,2.2v2.1c0,1.2,1,2.2,2.2,2.2h2.7v1.1h-4.9
	c-1.2,0-2.1,0.9-2.2,2.1c-0.8-0.6-1.7-1-2.7-1c-0.9,0-1.6,0.7-1.6,1.6c0,0.9,0.7,1.6,1.6,1.6l0,0c0.5,0,0.8,0.3,0.9,0.8l0.5,3
	c0.3,1.6,1.6,2.7,3.2,2.7h5.1l-0.3,3.3c-2.3,0.1-4.5,0.8-4.5,2.1c0,1.5,2.8,2.1,5.4,2.1s5.4-0.7,5.4-2.2c0-1.3-2.2-2-4.5-2.1
	l-0.3-3.3h5.1c1.6,0,3-1.2,3.2-2.7l0.5-3c0.1-0.5,0.5-0.8,0.9-0.8c0.9,0,1.6-0.7,1.6-1.6C35,19.3,34.2,18.6,33.3,18.6"/>
</svg>
