<?xml version="1.0" encoding="utf-8"?>
<!-- Generator: Adobe Illustrator 21.0.0, SVG Export Plug-In . SVG Version: 6.00 Build 0)  -->
<svg version="1.1" id="Layer_1" xmlns="http://www.w3.org/2000/svg" xmlns:xlink="http://www.w3.org/1999/xlink" x="0px" y="0px"
	 viewBox="0 0 157.3 160" style="enable-background:new 0 0 157.3 160;" xml:space="preserve">
<style type="text/css">
	.st0{clip-path:url(#SVGID_2_);fill:url(#SVGID_3_);}
	.st1{clip-path:url(#SVGID_5_);fill:url(#SVGID_6_);}
	.st2{fill:#FFFFFF;}
	.st3{fill:#0A9E4E;}
	.st4{fill:#221F20;}
</style>
<g>
	<defs>
		<path id="SVGID_1_" d="M7.3,74.2v14.9c3.5,33.7,30.3,60.6,64,64.2h15.6c36.2-3.9,64.4-34.5,64.4-71.6c0-39.8-32.3-72.1-72.2-72.1
			C41.8,9.6,11.1,37.9,7.3,74.2"/>
	</defs>
	<clipPath id="SVGID_2_">
		<use xlink:href="#SVGID_1_"  style="overflow:visible;"/>
	</clipPath>
	
		<linearGradient id="SVGID_3_" gradientUnits="userSpaceOnUse" x1="-341.7155" y1="396.9401" x2="-336.3212" y2="396.9401" gradientTransform="matrix(9760.9824 562.8148 562.8148 -9760.9824 3003262.75 4060650.5)">
		<stop  offset="0" style="stop-color:#FDCE2F"/>
		<stop  offset="3.906016e-03" style="stop-color:#F9C32C"/>
		<stop  offset="1.505069e-02" style="stop-color:#F0A926"/>
		<stop  offset="2.424904e-02" style="stop-color:#EC9A24"/>
		<stop  offset="3.030400e-02" style="stop-color:#EA9423"/>
		<stop  offset="6.142013e-02" style="stop-color:#EEA642"/>
		<stop  offset="0.1307" style="stop-color:#FAD797"/>
		<stop  offset="0.1636" style="stop-color:#FFF2C4"/>
		<stop  offset="0.1761" style="stop-color:#FFF1BE"/>
		<stop  offset="0.1955" style="stop-color:#FFEFAC"/>
		<stop  offset="0.2196" style="stop-color:#FFEB90"/>
		<stop  offset="0.2473" style="stop-color:#FEE665"/>
		<stop  offset="0.2777" style="stop-color:#FCE106"/>
		<stop  offset="0.2788" style="stop-color:#FCE100"/>
		<stop  offset="0.2818" style="stop-color:#FCE21C"/>
		<stop  offset="0.3003" style="stop-color:#FDE868"/>
		<stop  offset="0.3188" style="stop-color:#FEED94"/>
		<stop  offset="0.3368" style="stop-color:#FEF2B5"/>
		<stop  offset="0.3542" style="stop-color:#FFF7CF"/>
		<stop  offset="0.3709" style="stop-color:#FFFAE1"/>
		<stop  offset="0.3865" style="stop-color:#FFFDEC"/>
		<stop  offset="0.4" style="stop-color:#FFFEF0"/>
		<stop  offset="0.4709" style="stop-color:#FFF8DB"/>
		<stop  offset="0.5487" style="stop-color:#FFF4CA"/>
		<stop  offset="0.6" style="stop-color:#FFF2C4"/>
		<stop  offset="0.6246" style="stop-color:#FFF0BD"/>
		<stop  offset="0.6636" style="stop-color:#FCEBAB"/>
		<stop  offset="0.7122" style="stop-color:#F8E48E"/>
		<stop  offset="0.7679" style="stop-color:#F3DB62"/>
		<stop  offset="0.7879" style="stop-color:#F1D84E"/>
		<stop  offset="0.7948" style="stop-color:#F0D64B"/>
		<stop  offset="0.8816" style="stop-color:#EDBD34"/>
		<stop  offset="0.9531" style="stop-color:#ECAE26"/>
		<stop  offset="1" style="stop-color:#EBA923"/>
	</linearGradient>
	<polygon class="st0" points="7.8,1.1 159.4,10.1 150.8,161.8 -0.7,152.8 	"/>
</g>
<g>
	<defs>
		<path id="SVGID_4_" d="M11.7,81.4c0,37.4,30.3,67.6,67.8,67.6c37.4,0,67.8-30.3,67.8-67.6s-30.3-67.6-67.8-67.6
			C42,13.7,11.7,44,11.7,81.4"/>
	</defs>
	<clipPath id="SVGID_5_">
		<use xlink:href="#SVGID_4_"  style="overflow:visible;"/>
	</clipPath>
	
		<linearGradient id="SVGID_6_" gradientUnits="userSpaceOnUse" x1="-360.9536" y1="392.2126" x2="-355.5677" y2="392.2126" gradientTransform="matrix(722.7541 0 0 -722.7541 235364.7813 283554.6875)">
		<stop  offset="0" style="stop-color:#FDCE2F"/>
		<stop  offset="6.290427e-02" style="stop-color:#FFD969"/>
		<stop  offset="0.1277" style="stop-color:#FFE390"/>
		<stop  offset="0.1852" style="stop-color:#FFEBAC"/>
		<stop  offset="0.2323" style="stop-color:#FFF0BE"/>
		<stop  offset="0.2633" style="stop-color:#FFF2C4"/>
		<stop  offset="0.2798" style="stop-color:#FFF1BE"/>
		<stop  offset="0.3057" style="stop-color:#FFEFAC"/>
		<stop  offset="0.3376" style="stop-color:#FFEB90"/>
		<stop  offset="0.3744" style="stop-color:#FEE665"/>
		<stop  offset="0.4148" style="stop-color:#FCE106"/>
		<stop  offset="0.4163" style="stop-color:#FCE100"/>
		<stop  offset="0.4196" style="stop-color:#FCE21C"/>
		<stop  offset="0.4403" style="stop-color:#FDE868"/>
		<stop  offset="0.4609" style="stop-color:#FEED94"/>
		<stop  offset="0.481" style="stop-color:#FEF2B5"/>
		<stop  offset="0.5004" style="stop-color:#FFF7CF"/>
		<stop  offset="0.519" style="stop-color:#FFFAE1"/>
		<stop  offset="0.5364" style="stop-color:#FFFDEC"/>
		<stop  offset="0.5515" style="stop-color:#FFFEF0"/>
		<stop  offset="0.576" style="stop-color:#FFFBE9"/>
		<stop  offset="0.6149" style="stop-color:#FCF5D6"/>
		<stop  offset="0.6634" style="stop-color:#F9EDB8"/>
		<stop  offset="0.7195" style="stop-color:#F6E48F"/>
		<stop  offset="0.7813" style="stop-color:#F1D956"/>
		<stop  offset="0.7879" style="stop-color:#F1D84E"/>
		<stop  offset="0.7948" style="stop-color:#F0D64B"/>
		<stop  offset="0.8816" style="stop-color:#EDBD34"/>
		<stop  offset="0.9531" style="stop-color:#ECAE26"/>
		<stop  offset="1" style="stop-color:#EBA923"/>
	</linearGradient>
	<rect x="11.7" y="13.7" class="st1" width="135.5" height="135.3"/>
</g>
<path class="st2" d="M143.2,81.4c0,35.2-28.6,63.7-63.8,63.7c-35.2,0-63.8-28.5-63.8-63.7c0-35.2,28.6-63.7,63.8-63.7
	C114.7,17.7,143.2,46.2,143.2,81.4"/>
<path class="st3" d="M63.9,28.9c0,0,4.9,4.6,1.3,12.7c0,0,13.2-3.2,11.1,10.6l25.2-23.2H63.9z"/>
<path class="st3" d="M104.4,29L79,52.9c0,0,12.3-1.3,10.4,11c0,0,14.5-3.3,17,5.3l0.8-40.1"/>
<path class="st4" d="M47.2,53l0.2,28.9l32.3-0.1C79.7,81.8,56.1,71.8,47.2,53"/>
<path class="st2" d="M60.7,68.4l-4.6,5.7c0,0-0.3,0.7,0.5,0.3c0.9-0.4,5.7-4.7,5.7-4.7L60.7,68.4z"/>
<path class="st3" d="M52,94.8c-0.4-0.3-0.8-0.4-1.4-0.4c-0.2,0-0.4,0-0.7,0.1c-0.2,0-0.4,0.1-0.6,0.2c-0.2,0.1-0.3,0.3-0.4,0.4
	c-0.1,0.2-0.2,0.4-0.2,0.7c0,0.2,0.1,0.5,0.2,0.6c0.1,0.1,0.3,0.3,0.6,0.4c0.2,0.1,0.5,0.2,0.8,0.2c0.3,0.1,0.6,0.1,0.9,0.2
	c0.3,0.1,0.6,0.2,0.9,0.3c0.3,0.1,0.6,0.2,0.8,0.4c0.2,0.2,0.4,0.4,0.6,0.7c0.1,0.3,0.2,0.6,0.2,1c0,0.4-0.1,0.8-0.3,1.1
	c-0.2,0.3-0.4,0.6-0.7,0.8c-0.3,0.2-0.6,0.3-1,0.4c-0.4,0.1-0.7,0.1-1.1,0.1c-0.4,0-0.9-0.1-1.3-0.2c-0.4-0.1-0.7-0.3-1.1-0.5
	c-0.3-0.2-0.5-0.5-0.7-0.9c-0.2-0.4-0.3-0.8-0.3-1.3h1c0,0.3,0.1,0.6,0.2,0.9c0.1,0.3,0.3,0.5,0.5,0.6c0.2,0.2,0.5,0.3,0.7,0.4
	c0.3,0.1,0.6,0.1,0.9,0.1c0.2,0,0.5,0,0.7-0.1c0.2,0,0.5-0.1,0.7-0.2c0.2-0.1,0.4-0.3,0.5-0.5c0.1-0.2,0.2-0.4,0.2-0.7
	c0-0.3-0.1-0.5-0.2-0.7c-0.1-0.2-0.3-0.3-0.6-0.4c-0.2-0.1-0.5-0.2-0.8-0.3c-0.3-0.1-0.6-0.1-0.9-0.2c-0.3-0.1-0.6-0.2-0.9-0.2
	c-0.3-0.1-0.6-0.2-0.8-0.4c-0.2-0.2-0.4-0.4-0.6-0.6c-0.1-0.2-0.2-0.6-0.2-0.9c0-0.4,0.1-0.8,0.2-1.1c0.2-0.3,0.4-0.6,0.7-0.7
	c0.3-0.2,0.6-0.3,0.9-0.4c0.4-0.1,0.7-0.1,1.1-0.1c0.4,0,0.8,0.1,1.1,0.2c0.4,0.1,0.7,0.3,0.9,0.5c0.3,0.2,0.5,0.5,0.6,0.8
	c0.2,0.3,0.2,0.7,0.2,1.2h-1C52.5,95.5,52.3,95.1,52,94.8"/>
<path class="st3" d="M59.3,98.5L58,94.7h0l-1.4,3.8H59.3z M58.6,93.7l3.1,8.2h-1.2l-0.9-2.5h-3.4l-0.9,2.5h-1.1l3.1-8.2H58.6z"/>
<polygon class="st3" points="62.5,93.7 62.5,101.9 63.5,101.9 63.5,98.2 67.2,98.2 67.2,97.2 63.5,97.2 63.5,94.6 67.7,94.6 
	67.7,93.7 "/>
<path class="st3" d="M72.9,98.5l-1.3-3.8h0l-1.4,3.8H72.9z M72.2,93.7l3.1,8.2h-1.2l-0.9-2.5h-3.4l-0.9,2.5h-1.1l3.1-8.2H72.2z"/>
<path class="st3" d="M80.1,97.4c0.2,0,0.4-0.1,0.6-0.2s0.3-0.3,0.4-0.4c0.1-0.2,0.2-0.4,0.2-0.7c0-0.4-0.1-0.7-0.3-1
	c-0.2-0.3-0.6-0.4-1.1-0.4h-2.6v2.9h2.2C79.6,97.5,79.9,97.5,80.1,97.4 M79.9,93.7c0.8,0,1.4,0.2,1.8,0.6c0.4,0.4,0.6,0.9,0.6,1.6
	c0,0.5-0.1,0.9-0.3,1.3c-0.2,0.4-0.6,0.6-1.1,0.8v0c0.2,0,0.4,0.1,0.6,0.2c0.1,0.1,0.3,0.2,0.3,0.4c0.1,0.1,0.2,0.3,0.2,0.5
	c0,0.2,0.1,0.4,0.1,0.6c0,0.2,0,0.4,0,0.6c0,0.2,0,0.4,0.1,0.6c0,0.2,0.1,0.4,0.1,0.6c0.1,0.2,0.1,0.3,0.3,0.5h-1.2
	c-0.1-0.1-0.1-0.2-0.2-0.3c0-0.1-0.1-0.3-0.1-0.5c0-0.2,0-0.4,0-0.6c0-0.2,0-0.4-0.1-0.6c0-0.2-0.1-0.4-0.1-0.6
	c0-0.2-0.1-0.3-0.2-0.5c-0.1-0.1-0.2-0.2-0.4-0.3c-0.2-0.1-0.4-0.1-0.6-0.1h-2.6v3.5h-1.1v-8.2H79.9z"/>
<rect x="83.8" y="93.7" class="st3" width="1.1" height="8.2"/>
<path class="st3" d="M91.5,94.9c-0.4-0.3-0.9-0.4-1.5-0.4c-0.5,0-0.9,0.1-1.2,0.3c-0.3,0.2-0.6,0.4-0.8,0.7
	c-0.2,0.3-0.4,0.7-0.5,1.1c-0.1,0.4-0.1,0.8-0.1,1.2c0,0.5,0,0.9,0.1,1.3c0.1,0.4,0.3,0.8,0.5,1.1c0.2,0.3,0.5,0.6,0.8,0.7
	c0.3,0.2,0.7,0.3,1.2,0.3c0.4,0,0.7-0.1,0.9-0.2c0.3-0.1,0.5-0.3,0.7-0.5c0.2-0.2,0.4-0.5,0.5-0.8c0.1-0.3,0.2-0.6,0.2-0.9h1.1
	c-0.1,1-0.4,1.8-1,2.4c-0.6,0.6-1.4,0.9-2.4,0.9c-0.6,0-1.2-0.1-1.6-0.3c-0.5-0.2-0.8-0.5-1.1-0.9c-0.3-0.4-0.5-0.8-0.7-1.4
	c-0.1-0.5-0.2-1.1-0.2-1.7c0-0.6,0.1-1.2,0.2-1.7c0.2-0.5,0.4-1,0.7-1.4c0.3-0.4,0.7-0.7,1.2-0.9c0.5-0.2,1-0.3,1.6-0.3
	c0.4,0,0.8,0.1,1.2,0.2c0.4,0.1,0.7,0.3,1,0.5c0.3,0.2,0.5,0.5,0.7,0.8c0.2,0.3,0.3,0.7,0.4,1.2h-1.1C92.1,95.6,91.9,95.2,91.5,94.9
	"/>
<path class="st3" d="M95.5,99c0.1,0.4,0.3,0.8,0.5,1.1c0.2,0.3,0.5,0.6,0.9,0.8c0.4,0.2,0.8,0.3,1.3,0.3c0.5,0,0.9-0.1,1.2-0.3
	c0.4-0.2,0.6-0.5,0.9-0.8c0.2-0.3,0.4-0.7,0.5-1.1c0.1-0.4,0.2-0.8,0.2-1.2c0-0.4,0-0.8-0.2-1.2c-0.1-0.4-0.3-0.8-0.5-1.1
	c-0.2-0.3-0.5-0.6-0.9-0.8c-0.4-0.2-0.8-0.3-1.2-0.3c-0.5,0-0.9,0.1-1.3,0.3c-0.3,0.2-0.6,0.5-0.9,0.8c-0.2,0.3-0.4,0.7-0.5,1.1
	c-0.1,0.4-0.2,0.8-0.2,1.2C95.3,98.2,95.4,98.6,95.5,99 M94.5,96.2c0.2-0.5,0.4-1,0.7-1.4c0.3-0.4,0.7-0.7,1.2-1
	c0.5-0.2,1-0.4,1.7-0.4c0.6,0,1.2,0.1,1.7,0.4c0.5,0.2,0.9,0.6,1.2,1c0.3,0.4,0.6,0.9,0.7,1.4c0.2,0.5,0.2,1.1,0.2,1.6
	c0,0.6-0.1,1.1-0.2,1.6c-0.2,0.5-0.4,1-0.7,1.4c-0.3,0.4-0.7,0.7-1.2,0.9c-0.5,0.2-1,0.3-1.7,0.3c-0.6,0-1.2-0.1-1.7-0.3
	c-0.5-0.2-0.9-0.6-1.2-0.9c-0.3-0.4-0.6-0.9-0.7-1.4c-0.2-0.5-0.2-1.1-0.2-1.6C94.3,97.3,94.3,96.7,94.5,96.2"/>
<polygon class="st3" points="104.7,93.7 107.2,100.6 109.7,93.7 111.2,93.7 111.2,101.9 110.2,101.9 110.2,95.1 110.1,95.1 
	107.6,101.9 106.7,101.9 104.2,95.1 104.2,95.1 104.2,101.9 103.2,101.9 103.2,93.7 "/>
<rect x="45.9" y="107.5" class="st3" width="1.1" height="8.2"/>
<polygon class="st3" points="49.8,107.5 54,114.1 54,114.1 54,107.5 55,107.5 55,115.7 53.9,115.7 49.7,109.1 49.7,109.1 
	49.7,115.7 48.7,115.7 48.7,107.5 "/>
<polygon class="st3" points="58.7,115.7 55.9,107.5 57,107.5 59.3,114.6 59.3,114.6 61.6,107.5 62.7,107.5 59.9,115.7 "/>
<polygon class="st3" points="69.1,107.5 69.1,108.4 64.7,108.4 64.7,111 68.8,111 68.8,111.9 64.7,111.9 64.7,114.8 69.1,114.8 
	69.1,115.7 63.6,115.7 63.6,107.5 "/>
<path class="st3" d="M74.4,108.6c-0.4-0.3-0.8-0.4-1.4-0.4c-0.2,0-0.4,0-0.7,0.1c-0.2,0-0.4,0.1-0.6,0.2c-0.2,0.1-0.3,0.3-0.4,0.4
	c-0.1,0.2-0.2,0.4-0.2,0.7c0,0.2,0.1,0.5,0.2,0.6c0.1,0.2,0.3,0.3,0.6,0.4c0.2,0.1,0.5,0.2,0.8,0.2c0.3,0.1,0.6,0.1,0.9,0.2
	c0.3,0.1,0.6,0.2,0.9,0.3c0.3,0.1,0.6,0.2,0.8,0.4c0.2,0.2,0.4,0.4,0.6,0.7c0.2,0.3,0.2,0.6,0.2,1c0,0.4-0.1,0.8-0.3,1.1
	c-0.2,0.3-0.4,0.6-0.7,0.8c-0.3,0.2-0.6,0.3-1,0.4c-0.4,0.1-0.7,0.1-1.1,0.1c-0.4,0-0.9-0.1-1.3-0.2c-0.4-0.1-0.7-0.3-1.1-0.5
	c-0.3-0.2-0.5-0.5-0.7-0.9c-0.2-0.4-0.3-0.8-0.3-1.3h1c0,0.3,0.1,0.6,0.2,0.9c0.1,0.2,0.3,0.5,0.5,0.6c0.2,0.2,0.5,0.3,0.7,0.4
	c0.3,0.1,0.6,0.1,0.9,0.1c0.2,0,0.5,0,0.7-0.1c0.2,0,0.5-0.1,0.6-0.2c0.2-0.1,0.4-0.3,0.5-0.5c0.1-0.2,0.2-0.4,0.2-0.7
	c0-0.3-0.1-0.5-0.2-0.7c-0.1-0.2-0.3-0.3-0.6-0.4s-0.5-0.2-0.8-0.3c-0.3-0.1-0.6-0.1-0.9-0.2c-0.3-0.1-0.6-0.2-0.9-0.3
	c-0.3-0.1-0.6-0.2-0.8-0.4c-0.2-0.2-0.4-0.4-0.6-0.6c-0.1-0.2-0.2-0.6-0.2-0.9c0-0.4,0.1-0.8,0.2-1.1c0.2-0.3,0.4-0.5,0.6-0.7
	c0.3-0.2,0.6-0.3,0.9-0.4c0.4-0.1,0.7-0.1,1.1-0.1c0.4,0,0.8,0.1,1.1,0.2c0.4,0.1,0.7,0.3,0.9,0.5c0.3,0.2,0.5,0.5,0.6,0.8
	c0.2,0.3,0.2,0.7,0.2,1.2h-1C75,109.3,74.8,108.9,74.4,108.6"/>
<polygon class="st3" points="76.8,108.4 76.8,107.5 83.2,107.5 83.2,108.4 80.5,108.4 80.5,115.7 79.5,115.7 79.5,108.4 "/>
<polygon class="st3" points="85.5,107.5 88.1,114.4 90.6,107.5 92,107.5 92,115.7 91,115.7 91,108.9 91,108.9 88.5,115.7 
	87.6,115.7 85.1,108.9 85.1,108.9 85.1,115.7 84.1,115.7 84.1,107.5 "/>
<polygon class="st3" points="99.3,107.5 99.3,108.4 94.9,108.4 94.9,111 99,111 99,111.9 94.9,111.9 94.9,114.8 99.3,114.8 
	99.3,115.7 93.8,115.7 93.8,107.5 "/>
<polygon class="st3" points="101.7,107.5 105.9,114.1 106,114.1 106,107.5 107,107.5 107,115.7 105.8,115.7 101.6,109.1 
	101.6,109.1 101.6,115.7 100.6,115.7 100.6,107.5 "/>
<polygon class="st3" points="107.8,108.4 107.8,107.5 114.2,107.5 114.2,108.4 111.6,108.4 111.6,115.7 110.5,115.7 110.5,108.4 "/>
<path class="st3" d="M44.6,122.4c-0.4-0.3-0.9-0.4-1.4-0.4c-0.5,0-0.9,0.1-1.2,0.3c-0.3,0.2-0.6,0.4-0.8,0.7
	c-0.2,0.3-0.4,0.7-0.5,1.1c-0.1,0.4-0.1,0.8-0.1,1.2c0,0.5,0,0.9,0.1,1.3c0.1,0.4,0.3,0.8,0.5,1.1c0.2,0.3,0.5,0.6,0.8,0.7
	c0.3,0.2,0.8,0.3,1.2,0.3c0.4,0,0.7-0.1,0.9-0.2c0.3-0.1,0.5-0.3,0.7-0.5c0.2-0.2,0.4-0.5,0.5-0.8c0.1-0.3,0.2-0.6,0.2-0.9h1.1
	c-0.1,1-0.4,1.8-1,2.4c-0.6,0.6-1.4,0.9-2.4,0.9c-0.6,0-1.2-0.1-1.6-0.3c-0.5-0.2-0.8-0.5-1.2-0.9c-0.3-0.4-0.5-0.8-0.7-1.4
	c-0.2-0.5-0.2-1.1-0.2-1.7c0-0.6,0.1-1.2,0.2-1.7c0.2-0.5,0.4-1,0.7-1.4c0.3-0.4,0.7-0.7,1.2-0.9c0.5-0.2,1-0.3,1.6-0.3
	c0.4,0,0.8,0.1,1.2,0.2c0.4,0.1,0.7,0.3,1,0.5c0.3,0.2,0.5,0.5,0.7,0.8c0.2,0.3,0.3,0.7,0.4,1.2h-1.1
	C45.3,123.2,45,122.7,44.6,122.4"/>
<path class="st3" d="M48.6,126.6c0.1,0.4,0.3,0.8,0.5,1.1c0.2,0.3,0.5,0.6,0.9,0.8c0.4,0.2,0.8,0.3,1.3,0.3s0.9-0.1,1.2-0.3
	c0.4-0.2,0.6-0.4,0.9-0.8c0.2-0.3,0.4-0.7,0.5-1.1c0.1-0.4,0.2-0.8,0.2-1.2s0-0.8-0.2-1.2c-0.1-0.4-0.3-0.8-0.5-1.1
	c-0.2-0.3-0.5-0.6-0.9-0.8c-0.3-0.2-0.8-0.3-1.2-0.3s-0.9,0.1-1.3,0.3c-0.4,0.2-0.6,0.5-0.9,0.8c-0.2,0.3-0.4,0.7-0.5,1.1
	c-0.1,0.4-0.2,0.8-0.2,1.2S48.5,126.2,48.6,126.6 M47.7,123.7c0.2-0.5,0.4-1,0.7-1.4c0.3-0.4,0.7-0.7,1.2-1c0.5-0.2,1-0.4,1.7-0.4
	c0.6,0,1.2,0.1,1.7,0.4c0.5,0.2,0.9,0.6,1.2,1c0.3,0.4,0.6,0.9,0.7,1.4c0.2,0.5,0.2,1.1,0.2,1.6c0,0.6-0.1,1.1-0.2,1.6
	c-0.2,0.5-0.4,1-0.7,1.4c-0.3,0.4-0.7,0.7-1.2,0.9c-0.5,0.2-1,0.3-1.7,0.3c-0.6,0-1.2-0.1-1.7-0.3c-0.5-0.2-0.9-0.6-1.2-0.9
	c-0.3-0.4-0.6-0.9-0.7-1.4s-0.2-1.1-0.2-1.6C47.4,124.8,47.5,124.3,47.7,123.7"/>
<rect x="56" y="125.8" class="st3" width="3.2" height="0.9"/>
<path class="st3" d="M61.5,126.6c0.1,0.4,0.3,0.8,0.5,1.1c0.2,0.3,0.5,0.6,0.9,0.8c0.4,0.2,0.8,0.3,1.3,0.3c0.5,0,0.9-0.1,1.2-0.3
	s0.6-0.4,0.9-0.8c0.2-0.3,0.4-0.7,0.5-1.1c0.1-0.4,0.2-0.8,0.2-1.2s-0.1-0.8-0.2-1.2c-0.1-0.4-0.3-0.8-0.5-1.1
	c-0.2-0.3-0.5-0.6-0.9-0.8c-0.4-0.2-0.8-0.3-1.2-0.3c-0.5,0-0.9,0.1-1.3,0.3c-0.4,0.2-0.6,0.5-0.9,0.8c-0.2,0.3-0.4,0.7-0.5,1.1
	c-0.1,0.4-0.2,0.8-0.2,1.2S61.4,126.2,61.5,126.6 M60.5,123.7c0.2-0.5,0.4-1,0.7-1.4c0.3-0.4,0.7-0.7,1.2-1c0.5-0.2,1-0.4,1.7-0.4
	c0.6,0,1.2,0.1,1.7,0.4c0.5,0.2,0.9,0.6,1.2,1c0.3,0.4,0.6,0.9,0.7,1.4c0.2,0.5,0.2,1.1,0.2,1.6c0,0.6-0.1,1.1-0.2,1.6
	c-0.2,0.5-0.4,1-0.7,1.4c-0.3,0.4-0.7,0.7-1.2,0.9c-0.5,0.2-1,0.3-1.7,0.3c-0.6,0-1.2-0.1-1.7-0.3c-0.5-0.2-0.9-0.6-1.2-0.9
	c-0.3-0.4-0.6-0.9-0.7-1.4c-0.2-0.5-0.2-1.1-0.2-1.6C60.3,124.8,60.3,124.3,60.5,123.7"/>
<path class="st3" d="M72.3,125.2c0.6,0,1.1-0.1,1.3-0.4c0.3-0.3,0.4-0.6,0.4-1.1s-0.1-0.9-0.4-1.1c-0.3-0.3-0.7-0.4-1.3-0.4h-2.1v3
	H72.3z M72.7,121.3c0.8,0,1.4,0.2,1.8,0.6c0.4,0.4,0.6,1,0.6,1.8c0,0.8-0.2,1.4-0.6,1.8c-0.4,0.4-1,0.6-1.8,0.6h-2.4v3.4h-1.1v-8.2
	H72.7z"/>
<polygon class="st3" points="81.9,121.3 81.9,122.2 77.5,122.2 77.5,124.8 81.6,124.8 81.6,125.7 77.5,125.7 77.5,128.5 82,128.5 
	82,129.5 76.4,129.5 76.4,121.3 "/>
<path class="st3" d="M87.2,125c0.2,0,0.4-0.1,0.6-0.2c0.2-0.1,0.3-0.3,0.4-0.4c0.1-0.2,0.2-0.4,0.2-0.7c0-0.4-0.1-0.7-0.3-1
	c-0.2-0.3-0.6-0.4-1.1-0.4h-2.6v2.9h2.2C86.8,125,87,125,87.2,125 M87,121.3c0.8,0,1.4,0.2,1.8,0.6c0.4,0.4,0.6,0.9,0.6,1.6
	c0,0.5-0.1,0.9-0.3,1.3c-0.2,0.4-0.6,0.6-1.1,0.8v0c0.2,0,0.4,0.1,0.6,0.2c0.1,0.1,0.3,0.2,0.3,0.4c0.1,0.1,0.2,0.3,0.2,0.5
	c0,0.2,0.1,0.4,0.1,0.6c0,0.2,0,0.4,0,0.6c0,0.2,0,0.4,0.1,0.6c0,0.2,0.1,0.4,0.1,0.6c0.1,0.2,0.1,0.3,0.3,0.5h-1.2
	c-0.1-0.1-0.1-0.2-0.1-0.3c0-0.1,0-0.3-0.1-0.5c0-0.2,0-0.4,0-0.6c0-0.2,0-0.4-0.1-0.6c0-0.2-0.1-0.4-0.1-0.6c0-0.2-0.1-0.3-0.2-0.5
	c-0.1-0.1-0.2-0.2-0.4-0.3c-0.2-0.1-0.4-0.1-0.6-0.1h-2.6v3.5h-1.1v-8.2H87z"/>
<path class="st3" d="M95,126.1l-1.3-3.8h0l-1.4,3.8H95z M94.2,121.3l3.1,8.2h-1.2l-0.9-2.5h-3.4l-0.9,2.5H90l3.1-8.2H94.2z"/>
<polygon class="st3" points="97.3,122.2 97.3,121.3 103.7,121.3 103.7,122.2 101,122.2 101,129.5 100,129.5 100,122.2 "/>
<rect x="104.6" y="121.3" class="st3" width="1.1" height="8.2"/>
<polygon class="st3" points="109.4,129.5 106.6,121.3 107.7,121.3 110,128.4 110,128.4 112.3,121.3 113.4,121.3 110.6,129.5 "/>
<polygon class="st3" points="119.8,121.3 119.8,122.2 115.3,122.2 115.3,124.8 119.5,124.8 119.5,125.7 115.3,125.7 115.3,128.5 
	119.8,128.5 119.8,129.5 114.3,129.5 114.3,121.3 "/>
</svg>
