<svg id="Layer_1" data-name="Layer 1" xmlns="http://www.w3.org/2000/svg" viewBox="0 0 55.01 22.63"><defs><style>.cls-1{fill:#4d4d4d;}.cls-2{fill:#abdb26;}</style></defs><title>spl-logo</title><path class="cls-1" d="M16.83,12.66a2.21,2.21,0,0,0-.49-.74L11,6.57a2.23,2.23,0,0,0-3.15,0L4.21,10.19l1,1L8.88,7.62a.75.75,0,0,1,.25-.17.76.76,0,0,1,.57,0,.75.75,0,0,1,.25.17L15.29,13a.75.75,0,0,1,0,1.06L9.94,19.38a.75.75,0,0,1-.25.17.76.76,0,0,1-.57,0,.75.75,0,0,1-.25-.17L3.53,14a.75.75,0,0,1,0-1.06l.4-.4-1-1-.4.4a2.23,2.23,0,0,0,0,3.15l5.35,5.35a2.23,2.23,0,0,0,3.15,0l5.35-5.35a2.23,2.23,0,0,0,.49-2.41"/><path class="cls-2" d="M16.83,8.42a2.21,2.21,0,0,0-.49-.74L11,2.33a2.23,2.23,0,0,0-3.15,0L2.49,7.68a2.23,2.23,0,0,0,0,3.15l5.35,5.35a2.23,2.23,0,0,0,3.15,0l3.62-3.62-1-1L9.94,15.14a.75.75,0,0,1-.25.16.76.76,0,0,1-.57,0,.75.75,0,0,1-.25-.17L3.53,9.79a.75.75,0,0,1,0-1.06L8.88,3.38a.75.75,0,0,1,.25-.17.76.76,0,0,1,.57,0,.75.75,0,0,1,.25.17l5.35,5.35a.75.75,0,0,1,0,1.06l-.4.4,1,1,.4-.4a2.23,2.23,0,0,0,.49-2.41"/><path class="cls-1" d="M29.47,12.5a5,5,0,0,1-1.41,3.3,5.63,5.63,0,0,1-1.22,1,3.17,3.17,0,0,0,.23-.25,1.83,1.83,0,0,0,.39-.81,4.64,4.64,0,0,0,.16-1,3.06,3.06,0,0,0-1.17-2.62,6.72,6.72,0,0,0-2-1l-1-.37A6.27,6.27,0,0,1,21,9.31a3.46,3.46,0,0,1-.76-1.2A3.87,3.87,0,0,1,20,6.44a4.4,4.4,0,0,1,.55-2,4.66,4.66,0,0,1,1.75-1.64A5.72,5.72,0,0,0,22,4.15a3.2,3.2,0,0,0,1.11,2.7,4.94,4.94,0,0,0,1.73.85l.11,0,.81.25a.33.33,0,0,0,.12,0l0,0a6.07,6.07,0,0,1,2.3,1.13,3.55,3.55,0,0,1,1,1.27,4.76,4.76,0,0,1,.35,2.07m-6,4.14s-2.35-1.13-2.86,0l0-1.59V11.94a6.58,6.58,0,0,0,2.9,4.7M26.19,2.78s2.3,1.1,2.79,0l0,1.56v3a6.36,6.36,0,0,0-2.81-4.58"/><path class="cls-2" d="M35.68,16.89H32.28l.28-.21V3l-.28-.21h3.11V16.67ZM40.38,9a4.76,4.76,0,0,1-2.58,1.18c-.18,0-.34,0-.48,0l.19-.12a2.83,2.83,0,0,0,.78-2V5.47A3.78,3.78,0,0,0,37.6,3a1.52,1.52,0,0,0-.35-.23,6,6,0,0,1,1.84.37A3.37,3.37,0,0,1,41,4.78a3.59,3.59,0,0,1,.48,1.82A3.28,3.28,0,0,1,40.38,9"/><path class="cls-1" d="M47.32,16.89H43.93l.28-.21V3l-.28-.21H47.3L47,3v13.7ZM53,12.59v4.29h-4.1A5,5,0,0,0,53,12.59"/><path class="cls-1" d="M20,19.68l.23-.27a.81.81,0,0,0,.53.21c.16,0,.25-.06.25-.17h0c0-.1-.06-.15-.35-.22S20,19,20,18.69h0a.55.55,0,0,1,.62-.53,1,1,0,0,1,.65.22l-.2.29a.83.83,0,0,0-.46-.17c-.15,0-.23.07-.23.15h0c0,.12.08.15.38.23s.56.22.56.53h0c0,.35-.27.55-.65.55a1.12,1.12,0,0,1-.75-.28"/><polygon class="cls-1" points="22.12 19.25 21.45 18.18 21.9 18.18 22.32 18.89 22.75 18.18 23.19 18.18 22.51 19.24 22.51 19.94 22.12 19.94 22.12 19.25"/><path class="cls-1" d="M23.2,19.06h0a.89.89,0,0,1,.92-.91.91.91,0,0,1,.69.27l-.25.28a.65.65,0,0,0-.45-.2.52.52,0,0,0-.51.55h0a.52.52,0,0,0,.51.55.63.63,0,0,0,.46-.21l.25.25a.9.9,0,0,1-.72.31.89.89,0,0,1-.9-.9"/><path class="cls-1" d="M25.74,18.17h.36l.75,1.77h-.4l-.16-.39h-.74l-.16.39H25Zm.41,1-.23-.57-.23.57Z"/><polygon class="cls-1" points="27.12 18.18 27.54 18.18 28 18.92 28.46 18.18 28.88 18.18 28.88 19.94 28.49 19.94 28.49 18.79 28 19.54 27.99 19.54 27.5 18.8 27.5 19.94 27.12 19.94 27.12 18.18"/><path class="cls-1" d="M29.22,19.06h0a.94.94,0,0,1,1.87,0h0a.94.94,0,0,1-1.87,0m1.47,0h0a.53.53,0,0,0-.53-.55.53.53,0,0,0-.53.55h0a.53.53,0,0,0,.53.55.53.53,0,0,0,.53-.55"/><path class="cls-1" d="M31.43,18.18h.8a.7.7,0,0,1,.51.18.55.55,0,0,1,.15.4h0a.55.55,0,0,1-.38.55l.43.63H32.5l-.38-.56h-.3v.56h-.39Zm.78.85c.19,0,.3-.1.3-.25h0c0-.17-.12-.25-.3-.25h-.38V19Z"/><polygon class="cls-1" points="33.25 18.18 34.58 18.18 34.58 18.52 33.64 18.52 33.64 18.88 34.47 18.88 34.47 19.23 33.64 19.23 33.64 19.59 34.59 19.59 34.59 19.94 33.25 19.94 33.25 18.18"/><path class="cls-1" d="M35.69,18.18h.72a.6.6,0,0,1,.67.61h0a.63.63,0,0,1-.71.62h-.29v.53h-.39Zm.69.89a.27.27,0,0,0,.31-.27h0c0-.17-.12-.27-.31-.27h-.3v.54Z"/><rect class="cls-1" x="37.39" y="18.18" width="0.39" height="1.76"/><polygon class="cls-1" points="38.21 18.18 38.57 18.18 39.39 19.26 39.39 18.18 39.77 18.18 39.77 19.94 39.45 19.94 38.59 18.82 38.59 19.94 38.21 19.94 38.21 18.18"/><polygon class="cls-1" points="40.2 18.18 41.52 18.18 41.52 18.52 40.58 18.52 40.58 18.88 41.41 18.88 41.41 19.23 40.58 19.23 40.58 19.59 41.54 19.59 41.54 19.94 40.2 19.94 40.2 18.18"/><polygon class="cls-1" points="42.63 18.18 43.02 18.18 43.02 19.59 43.9 19.59 43.9 19.94 42.63 19.94 42.63 18.18"/><rect class="cls-1" x="44.21" y="18.18" width="0.39" height="1.76"/><polygon class="cls-1" points="45.03 18.18 45.45 18.18 45.91 18.92 46.38 18.18 46.79 18.18 46.79 19.94 46.41 19.94 46.41 18.79 45.91 19.54 45.9 19.54 45.41 18.8 45.41 19.94 45.03 19.94 45.03 18.18"/><rect class="cls-1" x="47.23" y="18.18" width="0.39" height="1.76"/><polygon class="cls-1" points="48.47 18.54 47.93 18.54 47.93 18.18 49.39 18.18 49.39 18.54 48.86 18.54 48.86 19.94 48.47 19.94 48.47 18.54"/><polygon class="cls-1" points="49.69 18.18 51.02 18.18 51.02 18.52 50.07 18.52 50.07 18.88 50.9 18.88 50.9 19.23 50.07 19.23 50.07 19.59 51.03 19.59 51.03 19.94 49.69 19.94 49.69 18.18"/><path class="cls-1" d="M51.37,18.18h.69a.88.88,0,0,1,.93.87h0a.88.88,0,0,1-.93.88h-.69Zm.69,1.41a.5.5,0,0,0,.53-.53h0a.51.51,0,0,0-.53-.53h-.3v1.06Z"/></svg>