<?xml version="1.0" encoding="utf-8"?>
<!-- Generator: Adobe Illustrator 21.0.0, SVG Export Plug-In . SVG Version: 6.00 Build 0)  -->
<svg version="1.1" id="Layer_1" xmlns="http://www.w3.org/2000/svg" xmlns:xlink="http://www.w3.org/1999/xlink" x="0px" y="0px"
	 viewBox="0 0 46 46" style="enable-background:new 0 0 46 46;" xml:space="preserve">
<style type="text/css">
	.st0{fill:#652524;}
</style>
<title>street-lights</title>
<path class="st0" d="M15.7,26.1c-0.2,0-0.4,0.2-0.4,0.4l0,0V27c0,0.2,0.2,0.4,0.4,0.4s0.4-0.2,0.4-0.4v-0.4
	C16.2,26.3,16,26.1,15.7,26.1C15.7,26.1,15.7,26.1,15.7,26.1z"/>
<path class="st0" d="M32.5,21.9l-2.2-4.2v-1.8c0-0.4-0.2-0.7-0.4-1v-0.4c0-2.7-2.2-4.9-4.9-4.9h-4.4c-2.7,0-4.9,2.2-4.9,4.9V23
	c-1.3,0.2-2.2,1.3-2.2,2.6v10.2c0,0.3,0.2,0.5,0.5,0.5H21c0.3,0,0.5-0.2,0.5-0.5V25.7c0-1.3-0.9-2.5-2.2-2.7v-8.4
	c0-0.7,0.6-1.3,1.3-1.3H25c0.7,0,1.3,0.6,1.3,1.3v0.3c-0.3,0.3-0.4,0.6-0.5,1v1.8l-2.2,4.2c-0.1,0.1-0.1,0.3,0,0.5
	c0.1,0.1,0.2,0.2,0.4,0.2h1.3v0.9c0,1.2,1,2.2,2.3,2.3h0.9c1.2,0,2.3-1,2.3-2.3v-0.9h1.3c0.3,0,0.5-0.2,0.5-0.5
	C32.6,22.1,32.6,22,32.5,21.9L32.5,21.9z M29,15.5c0.2,0,0.4,0.2,0.4,0.4v1.3h-2.6v-1.3c0-0.2,0.2-0.4,0.4-0.4H29z M29,14.5h-1.7
	c0-1.2-1-2.2-2.3-2.2h-4.4c-1.2,0-2.3,1-2.3,2.3v8.3V23h-1.7v-8.4c0-2.2,1.8-4,4-4H25c2.1,0,3.8,1.6,4,3.7C29,14.4,29,14.5,29,14.5
	L29,14.5z M16.2,35.4v-6.6c0-0.3-0.2-0.5-0.5-0.5s-0.5,0.2-0.5,0.5v6.6h-0.9l0,0v-9.7c0-1,0.8-1.7,1.7-1.7h2.7c1,0,1.7,0.8,1.7,1.7
	v9.7h-4.4L16.2,35.4z M28.5,24.7h-0.9c-0.7,0-1.3-0.6-1.3-1.3v-0.9h3.5v0.9C29.8,24.2,29.2,24.7,28.5,24.7z M24.9,21.7l1.8-3.5h2.8
	l1.3,2.4l0.6,1.1h-1h-3.7L24.9,21.7z"/>
<path class="st0" d="M28.1,27c-0.3,0-0.5,0.2-0.5,0.5v1.7c0,0.3,0.2,0.5,0.5,0.5s0.5-0.2,0.5-0.5v-1.8C28.6,27.2,28.4,27,28.1,27z"
	/>
<path class="st0" d="M25.7,26.3c-0.2-0.1-0.5-0.1-0.6,0.2c0,0,0,0,0,0L24.1,28c-0.1,0.2,0,0.5,0.3,0.6c0.2,0.1,0.4,0,0.6-0.1
	l0.9-1.5C26,26.8,25.9,26.5,25.7,26.3L25.7,26.3z"/>
<path class="st0" d="M31.2,26.5c-0.1-0.1-0.2-0.2-0.3-0.2c-0.1,0-0.2,0-0.4,0c-0.1,0.1-0.2,0.2-0.2,0.3c0,0.1,0,0.2,0,0.4l0.9,1.5
	c0.1,0.1,0.2,0.2,0.4,0.2c0.3,0,0.5-0.2,0.5-0.5c0-0.1,0-0.2-0.1-0.2L31.2,26.5z"/>
</svg>
