<svg id="Layer_1" data-name="Layer 1" xmlns="http://www.w3.org/2000/svg" viewBox="0 0 46 46"><defs><style>.cls-1{fill:#fff;}.cls-2{fill:#652524;}</style></defs><title>street-lights</title><path class="cls-1" d="M23,44.84A21.84,21.84,0,1,0,1.16,23,21.84,21.84,0,0,0,23,44.84"/><path class="cls-2" d="M15.69,26.1a.44.44,0,0,0-.44.44V27a.44.44,0,0,0,.89,0v-.44A.44.44,0,0,0,15.69,26.1Z"/><path class="cls-2" d="M32.51,21.9l-2.16-4.21V15.91a1.29,1.29,0,0,0-.44-1v-.35A4.92,4.92,0,0,0,25,9.67H20.56a4.92,4.92,0,0,0-4.91,4.91l0,8.43a2.68,2.68,0,0,0-2.24,2.65V35.85a.48.48,0,0,0,.48.48H21a.48.48,0,0,0,.48-.48V25.66A2.63,2.63,0,0,0,19.27,23V14.58a1.3,1.3,0,0,1,1.3-1.3H25a1.3,1.3,0,0,1,1.3,1.3v.32a1.35,1.35,0,0,0-.45,1v1.77L23.68,21.9a.48.48,0,0,0,0,.47.48.48,0,0,0,.41.23l1.3,0v.89a2.26,2.26,0,0,0,2.25,2.25h.89a2.25,2.25,0,0,0,2.25-2.25l0-.85h1.33a.48.48,0,0,0,.42-.69ZM29,15.5a.41.41,0,0,1,.41.41l0,1.3-2.63,0V15.91a.41.41,0,0,1,.41-.41Zm0-1-1.74,0A2.25,2.25,0,0,0,25,12.33H20.56a2.25,2.25,0,0,0-2.25,2.25l0,8.33V23l-1.74,0V14.58a4,4,0,0,1,4-4H25a4,4,0,0,1,4,3.71C29,14.41,29,14.47,29,14.55ZM16.16,35.41V28.76a.48.48,0,1,0-1,0l0,6.61-.85,0h0V25.66a1.74,1.74,0,0,1,1.74-1.74h2.66a1.74,1.74,0,0,1,1.74,1.74l0,9.72-4.39,0ZM28.54,24.74h-.89a1.3,1.3,0,0,1-1.3-1.3v-.85l3.48,0v.89A1.3,1.3,0,0,1,28.54,24.74Zm-3.67-3.07,1.81-3.51,2.83,0,1.27,2.41.56,1.09h-1l-3.73,0Z"/><path class="cls-2" d="M28.1,27a.48.48,0,0,0-.48.48V29.2a.48.48,0,1,0,1,0V27.43A.48.48,0,0,0,28.1,27Z"/><path class="cls-2" d="M25.67,26.31a.47.47,0,0,0-.65.17L24.14,28a.48.48,0,0,0,.82.48L25.85,27a.48.48,0,0,0-.17-.65Z"/><path class="cls-2" d="M31.17,26.48a.48.48,0,0,0-.29-.22.46.46,0,0,0-.36,0,.47.47,0,0,0-.22.29.48.48,0,0,0,0,.36l.89,1.53a.48.48,0,0,0,.41.24.48.48,0,0,0,.41-.71Z"/></svg>