<?xml version="1.0" encoding="utf-8"?>
<!-- Generator: Adobe Illustrator 21.0.0, SVG Export Plug-In . SVG Version: 6.00 Build 0)  -->
<svg version="1.1" id="Layer_1" xmlns="http://www.w3.org/2000/svg" xmlns:xlink="http://www.w3.org/1999/xlink" x="0px" y="0px"
	 viewBox="0 0 46 46" style="enable-background:new 0 0 46 46;" xml:space="preserve">
<style type="text/css">
	.st0{fill:#642523;}
</style>
<title>swimming-pool</title>
<path class="st0" d="M35.1,26c-0.8,0-1.5-0.2-2.2-0.5c-0.3-0.1-0.6,0-0.7,0.3c-0.1,0.3,0,0.6,0.3,0.7c0.8,0.4,1.7,0.6,2.6,0.6
	c0.3,0,0.5-0.2,0.5-0.5C35.6,26.3,35.4,26,35.1,26L35.1,26z"/>
<path class="st0" d="M10.9,24.9c-0.3,0-0.5,0.2-0.5,0.5c0,0.3,0.2,0.5,0.5,0.5c0.6,0,1.3,0.1,1.9,0.4l0.3,0.1
	c0.8,0.4,1.7,0.6,2.6,0.6c0.9,0,1.8-0.2,2.6-0.6c0.6-0.3,1.2-0.4,1.8-0.5h0.4c0.4,0,0.7,0,1.1,0.1c0.4,0.1,0.8,0.2,1.1,0.4
	c0.8,0.4,1.7,0.6,2.6,0.6c0.5,0,1.1-0.1,1.6-0.2c0.4-0.1,0.7-0.2,1.1-0.4c0.7-0.3,1.4-0.5,2.2-0.5c0.2,0,0.4,0,0.7,0
	c0.3-0.1,0.4-0.4,0.3-0.7c-0.1-0.1-0.2-0.3-0.3-0.3c-0.3,0-0.5,0-0.8,0c-0.6,0-1.2,0.1-1.8,0.3c0.1-0.6,0.1-1.2-0.1-1.7
	c0.6-0.3,1.3-0.4,1.9-0.4c0.8,0,1.5,0.2,2.2,0.5c0.8,0.4,1.7,0.6,2.6,0.6c0.3,0,0.5-0.2,0.5-0.5c0-0.3-0.2-0.5-0.5-0.5c0,0,0,0,0,0
	c-0.8,0-1.5-0.2-2.2-0.5c-0.8-0.4-1.7-0.6-2.6-0.6c-0.9,0-1.7,0.2-2.5,0.5c-0.8-1.1-2.2-1.4-3.4-0.7l-1.3,0.7
	c-0.5-0.2-1-0.4-1.5-0.5l0.7-2.2c0-0.1,0.1-0.1,0.1-0.1l5.3-2c0,0,0.1,0,0.1,0l2.3,1.1c0.1,0,0.2,0.1,0.3,0.1c0.6,0,1-0.4,1-1
	c0-0.3-0.1-0.5-0.3-0.7l-1.6-1.8C29.4,15.2,29,15,28.6,15h-0.2l-8.1,1.4c-0.6,0.1-1.2,0.5-1.5,1.1l-1.1,2.3c-0.1,0.3,0,0.6,0.3,0.7
	c0.3,0.1,0.6,0,0.7-0.3l1.1-2.3c0.1-0.3,0.4-0.4,0.7-0.5l8.1-1.4c0.1,0,0.2,0.1,0.3,0.1l1.4,1.6l-1.9-0.9c-0.2-0.1-0.4-0.1-0.6-0.1
	c-0.1,0-0.3,0-0.4,0.1L22,18.9c-0.4,0.1-0.6,0.4-0.7,0.8L19.7,25c-0.6,0.1-1.2,0.3-1.8,0.5c-0.7,0.3-1.4,0.5-2.2,0.5
	c-0.6,0-1.1-0.1-1.7-0.3l2.5-1.5c0.3-0.2,0.6-0.5,0.7-0.8l0.6-1.2c0.1-0.3,0-0.6-0.3-0.7c-0.3-0.1-0.6,0-0.7,0.3l0,0l-0.6,1.2
	c0,0.1-0.1,0.1-0.1,0.2h-0.5c-0.8,0-1.5-0.2-2.2-0.5c-0.8-0.4-1.7-0.6-2.6-0.6c-0.3,0-0.5,0.2-0.5,0.5c0,0.3,0.2,0.5,0.5,0.5
	c0.8,0,1.5,0.2,2.2,0.5c0.5,0.2,1,0.4,1.6,0.5l-1.8,1.1C12.2,25,11.5,24.9,10.9,24.9z M27,23.3l0.2,0.4c0.2,0.4,0.3,0.8,0.1,1.2
	c-0.1,0.4-0.4,0.8-0.8,1c-0.4,0.1-0.8,0.1-1.3,0.1c-0.8,0-1.5-0.2-2.2-0.5c-0.3-0.2-0.7-0.3-1-0.4c0-0.5,0.3-1,0.8-1.3l2-1.1
	C25.7,22.4,26.7,22.6,27,23.3L27,23.3z M20.8,24.9l0.5-1.8c0.2,0,0.5,0.1,0.7,0.1c-0.5,0.4-0.8,1.1-0.8,1.7L20.8,24.9z"/>
<path class="st0" d="M35.1,28.9c-0.8,0-1.5-0.2-2.2-0.5c-1.7-0.8-3.6-0.8-5.3,0c-1.4,0.7-3,0.7-4.4,0c-0.8-0.4-1.7-0.6-2.6-0.6
	c-0.8,0-1.6,0.1-2.3,0.5C18,28.4,17.8,28.7,18,29c0.1,0.3,0.4,0.4,0.7,0.3l0,0c0.6-0.3,1.3-0.4,1.9-0.4c0.8,0,1.5,0.2,2.2,0.5
	c0.8,0.4,1.7,0.6,2.6,0.6c0.9,0,1.8-0.2,2.6-0.6c1.4-0.7,3-0.7,4.4,0c0.8,0.4,1.7,0.6,2.6,0.6c0.3,0,0.5-0.2,0.5-0.5
	C35.7,29.2,35.4,28.9,35.1,28.9C35.1,28.9,35.1,28.9,35.1,28.9L35.1,28.9z"/>
<path class="st0" d="M10.9,28.9c0.8,0,1.5,0.2,2.2,0.5c0.8,0.4,1.7,0.6,2.6,0.6c0.4,0,0.8,0,1.2-0.1c0.1,0,0.3-0.1,0.3-0.2
	c0.2-0.2,0.1-0.6-0.1-0.7c0,0,0,0,0,0c-0.1-0.1-0.3-0.1-0.4-0.1c-0.3,0.1-0.7,0.1-1,0.1c-0.8,0-1.5-0.2-2.2-0.5
	c-0.8-0.4-1.7-0.6-2.6-0.6c-0.3,0-0.5,0.2-0.5,0.5C10.4,28.7,10.6,28.9,10.9,28.9C10.9,28.9,10.9,28.9,10.9,28.9L10.9,28.9z"/>
<path class="st0" d="M35.1,31.8c-0.8,0-1.5-0.2-2.2-0.5c-1.7-0.8-3.6-0.8-5.3,0c-1.4,0.7-3,0.7-4.4,0c-0.8-0.4-1.7-0.6-2.6-0.6
	c-0.9,0-1.8,0.2-2.6,0.6c-0.7,0.3-1.4,0.5-2.2,0.5c-0.8,0-1.5-0.2-2.2-0.5c-0.8-0.4-1.7-0.6-2.6-0.6c-0.3,0-0.5,0.2-0.5,0.5
	c0,0.3,0.2,0.5,0.5,0.5c0,0,0,0,0,0c0.8,0,1.5,0.2,2.2,0.5c0.8,0.4,1.7,0.6,2.6,0.6c0.9,0,1.8-0.2,2.6-0.6c0.7-0.3,1.4-0.5,2.2-0.5
	c0.8,0,1.5,0.2,2.2,0.5c0.8,0.4,1.7,0.6,2.6,0.6c0.9,0,1.8-0.2,2.6-0.6c1.4-0.7,3-0.7,4.4,0c0.8,0.4,1.7,0.6,2.7,0.6
	c0.3,0,0.5-0.2,0.5-0.5C35.7,32,35.4,31.8,35.1,31.8C35.2,31.8,35.2,31.8,35.1,31.8L35.1,31.8z"/>
<path class="st0" d="M33,18.7c-0.2,0-0.3,0.2-0.4,0.3c-0.3,0.4-0.4,0.9-0.3,1.4c0.1,0.5,0.6,0.9,1.1,0.9h0.2c0.6-0.1,1-0.7,0.9-1.3
	c0,0,0,0,0,0c-0.2-0.5-0.5-0.9-0.9-1.1c-0.1-0.1-0.3-0.1-0.4-0.1H33z"/>
<path class="st0" d="M13.4,18.9c0.1,0.1,0.2,0.1,0.4,0.1h0.2c0.5-0.1,0.9-0.3,1.2-0.7c0.3-0.5,0.2-1.2-0.3-1.5
	c-0.2-0.1-0.4-0.2-0.6-0.2H14c-0.3,0.1-0.5,0.2-0.7,0.5c-0.2,0.4-0.3,0.9-0.2,1.4C13.1,18.7,13.2,18.8,13.4,18.9z M14.2,17.6
	L14.2,17.6c0,0.1-0.1,0.1-0.1,0.1C14.1,17.7,14.2,17.7,14.2,17.6z"/>
<path class="st0" d="M18.3,15.3c-0.1,0-0.3,0-0.4,0.1c-1.7,1.6-3,3.6-3.8,5.8c-0.1,0.3,0,0.6,0.3,0.7c0.1,0,0.1,0,0.2,0
	c0.2,0,0.4-0.1,0.5-0.4c0.7-2,1.9-3.9,3.5-5.3c0.2-0.2,0.2-0.5,0-0.7C18.6,15.4,18.4,15.3,18.3,15.3L18.3,15.3z"/>
<path class="st0" d="M16,16.1c0.1,0,0.3,0,0.4-0.1c0.7-0.6,1.6-1.1,2.5-1.3c0.7-0.2,1.4-0.2,2.2-0.1c0.3,0,0.6-0.2,0.6-0.5
	c0-0.3-0.2-0.6-0.5-0.6l0,0c-0.9-0.1-1.8-0.1-2.6,0.1c-1.1,0.3-2.1,0.8-2.9,1.6c-0.1,0.1-0.2,0.2-0.2,0.4C15.4,15.8,15.6,16,16,16.1
	C15.9,16.1,15.9,16.1,16,16.1L16,16.1z"/>
<path class="st0" d="M28.3,14.2c1.9,0.1,3.6,1.5,4.1,3.4c0.1,0.2,0.3,0.4,0.5,0.4h0.1c0.3-0.1,0.4-0.4,0.4-0.6c-0.6-2.3-2.6-4-5-4.2
	c-0.3,0-0.5,0.2-0.6,0.5c0,0,0,0,0,0C27.9,13.9,28.1,14.2,28.3,14.2z"/>
</svg>
