<?xml version="1.0" encoding="utf-8"?>
<!-- Generator: Adobe Illustrator 21.0.0, SVG Export Plug-In . SVG Version: 6.00 Build 0)  -->
<svg version="1.1" id="Layer_1" xmlns="http://www.w3.org/2000/svg" xmlns:xlink="http://www.w3.org/1999/xlink" x="0px" y="0px"
	 viewBox="0 0 46 46" style="enable-background:new 0 0 46 46;" xml:space="preserve">
<style type="text/css">
	.st0{fill:#642523;}
</style>
<title>water</title>
<path class="st0" d="M34.1,18.6h-2.7c-0.3,0-0.5,0.2-0.5,0.5v0v1h-3.1v-0.2c0-0.3-0.2-0.5-0.5-0.5h0h-1.4v-1.8
	c0-0.3-0.2-0.5-0.5-0.5h0h-1v-2h0.9l2.3,0.5c1,0.2,1.9-0.4,2.1-1.4c0.2-1-0.4-1.9-1.4-2.1l0,0c-0.1,0-0.2,0-0.4,0
	c-0.1,0-0.2,0-0.4,0l-2.3,0.4h-1v-0.6c0-0.3-0.2-0.5-0.5-0.5l0,0h-1.5c-0.3,0-0.5,0.2-0.5,0.5v0v0.6h-0.9L18.5,12
	c-1-0.2-1.9,0.4-2.1,1.4c-0.2,1,0.4,1.9,1.4,2.1c0.2,0,0.5,0,0.7,0l2.3-0.4h1v2h-1c-0.3,0-0.5,0.2-0.5,0.5v0v1.8h-1.4
	c-0.3,0-0.5,0.2-0.5,0.5v0v0.6h-1.8c-2.8,0-5.1,2.3-5.1,5.1V28c0,0.3,0.2,0.5,0.5,0.5h0h3.8c0.3,0,0.5-0.2,0.5-0.5l0,0v-2.3
	c0-0.1,0.1-0.2,0.2-0.2h1.8v0.6c0,0.3,0.2,0.5,0.5,0.5h0h8.5c0.3,0,0.5-0.2,0.5-0.5v0v-0.2h3.1v1c0,0.3,0.2,0.5,0.5,0.5h0h2.7
	c0.3,0,0.5-0.2,0.5-0.5v0v-7.7C34.7,18.9,34.4,18.6,34.1,18.6L34.1,18.6z M32,26.3v-6.6h1.6v6.6L32,26.3z M30.9,21.2v3.5h-3.1v-3.5
	H30.9z M23.2,15.1v2h-0.5v-2H23.2z M23.2,13.5V14h-0.5v-0.5L23.2,13.5z M23.2,12.4L23.2,12.4l-0.5,0.1v-0.1L23.2,12.4z M28.5,14.2
	c-0.1,0.2-0.3,0.3-0.5,0.3h-0.3L25.3,14h-1v-0.5h1.1l2.3-0.5h0.1c0.4,0,0.7,0.3,0.7,0.7C28.6,13.9,28.5,14.1,28.5,14.2L28.5,14.2z
	 M21.3,19.4v-1.2h3.5v1.2L21.3,19.4z M18,13.1h0.3l2.4,0.5h1V14h-1.1l-2.3,0.5h-0.1c-0.4-0.1-0.7-0.4-0.6-0.8
	C17.6,13.4,17.7,13.2,18,13.1z M19.3,25.5v-5.1h7.4v5.1L19.3,25.5z M15.2,25.7v1.8h-2.8v-1.8c0-2.2,1.8-4.1,4.1-4.1h1.8v2.8h-1.8
	C15.7,24.4,15.2,25,15.2,25.7L15.2,25.7z"/>
<path class="st0" d="M14.3,29.3c-0.2-0.3-0.5-0.3-0.8-0.2c-0.1,0-0.1,0.1-0.2,0.2l-1.4,2.5c-0.3,0.6-0.3,1.3,0,1.9
	c0.4,0.6,1.1,1,1.8,1l0,0c0.7,0,1.4-0.4,1.8-1c0.3-0.6,0.3-1.3,0-1.9L14.3,29.3z M13.8,33.7v-0.2l0,0c-0.3,0-0.7-0.2-0.9-0.5
	c-0.1-0.2-0.1-0.5,0-0.8l0.9-1.7l0.9,1.7c0.1,0.2,0.1,0.5,0,0.8c-0.2,0.3-0.5,0.5-0.9,0.5L13.8,33.7L13.8,33.7z"/>
</svg>
