<?xml version="1.0" encoding="utf-8"?>
<!-- Generator: Adobe Illustrator 21.0.0, SVG Export Plug-In . SVG Version: 6.00 Build 0)  -->
<svg version="1.1" id="Layer_1" xmlns="http://www.w3.org/2000/svg" xmlns:xlink="http://www.w3.org/1999/xlink" x="0px" y="0px"
	 viewBox="0 0 46 46" style="enable-background:new 0 0 46 46;" xml:space="preserve">
<style type="text/css">
	.st0{fill:#642523;}
</style>
<title>youth</title>
<path class="st0" d="M32.9,25.5c-0.1-0.4-0.1-0.7-0.1-1.1c0-0.1,0-0.2-0.1-0.2c1.1-0.6,1.8-1.7,1.8-3v-2c0-1.9-1.6-3.5-3.5-3.5h-0.3
	c-1.1,0-2.2,0.6-2.9,1.5c-0.5-2.2-2.4-3.8-4.6-3.8H23c-2.1,0-3.9,1.4-4.5,3.4c-0.7-0.7-1.6-1.2-2.6-1.2h-0.6c-1.9,0-3.5,1.6-3.5,3.5
	v2.4c0,1.2,0.6,2.4,1.7,3c0,0.3,0,0.6,0,0.9H13c-2.2-0.2-4.1,1.5-4.3,3.7c0,0.1,0,0.2,0,0.3v1.9c0,0.3,0.2,0.5,0.5,0.5H14
	c-0.1,0.6-0.2,1.2-0.2,1.8v1.7c0,0.7,0.5,1.2,1.2,1.2h4.7c0.3,0,0.5-0.3,0.5-0.6c0-0.2-0.2-0.4-0.5-0.5h-1.2v-2.7
	c0-0.3-0.3-0.5-0.6-0.5c-0.2,0-0.4,0.2-0.5,0.5v2.7H15c-0.1,0-0.1,0-0.1-0.1c0,0,0,0,0,0v-1.7c0-2.1,0.7-5.7,5.7-5.7h0.3l1.3,3.5
	c0.2,0.4,0.5,0.6,0.9,0.6c0.4,0,0.8-0.2,1-0.6l1.6-3.6c5,0.2,5.7,3.7,5.7,5.8v1.7c0,0.1-0.1,0.1-0.1,0.1h-2.3v-2.7
	c0-0.3-0.3-0.5-0.6-0.5c-0.2,0-0.4,0.2-0.5,0.5v2.7h-1.3c-0.3,0-0.6,0.2-0.6,0.5c0,0.3,0.2,0.6,0.5,0.6c0,0,0.1,0,0.1,0h4.8
	c0.7,0,1.2-0.6,1.2-1.2v-1.7c0-0.6-0.1-1.2-0.2-1.8h4.5l0,0c0.3,0,0.5-0.2,0.5-0.5v-1.9C37.3,27.1,35.7,25.7,32.9,25.5z M31,23.5
	h-0.3c-1.3,0-2.4-1.1-2.4-2.4v-1.2c1.4,0.5,2.9,0.8,4.4,0.7h0.7v0.5C33.4,22.5,32.3,23.5,31,23.5z M28.8,25.5h-0.5
	c-0.9,0-1.9,0.3-2.6,0.8l-0.3-0.9c1.1-0.5,2-1.5,2.4-2.7c0.3,0.5,0.7,1,1.2,1.3c0,0.1,0,0.1,0,0.2C28.8,24.5,28.8,25,28.8,25.5
	L28.8,25.5z M20.9,26.8c-0.9-0.8-2.1-1.2-3.3-1.2c-0.1-0.3-0.1-0.6-0.1-0.9c0.6-0.3,1.1-0.7,1.4-1.3c0.5,1,1.4,1.8,2.5,2.2
	L20.9,26.8z M19.4,21.2V20c2.1,0,3.6-0.1,5.5-1.6c0.6,0.4,1.3,0.7,2,1l0,0v1.8c0,2-1.6,3.6-3.6,3.6H23C21,24.8,19.4,23.2,19.4,21.2
	L19.4,21.2z M30.7,16.8H31c1.3,0,2.4,1.1,2.4,2.4v0.4c-1.7,0.1-3.4-0.1-5-0.8C28.5,17.7,29.5,16.8,30.7,16.8L30.7,16.8z M23,14.5
	h0.2c2,0,3.6,1.6,3.6,3.6l0,0c-0.6-0.3-1.2-0.6-1.8-1c-0.2-0.2-0.5-0.2-0.7,0c-1.7,1.5-3,1.6-5,1.6v-0.8
	C19.5,16.1,21.1,14.6,23,14.5z M15.3,16.8h0.6c1.2,0,2.2,0.9,2.3,2c-1.7,0.7-3.5,1-5.4,1v-0.6C12.9,17.9,13.9,16.8,15.3,16.8
	C15.3,16.8,15.3,16.8,15.3,16.8L15.3,16.8z M12.9,20.9c1.8,0,3.7-0.3,5.4-0.9v1.5c0,1.3-1,2.4-2.3,2.4c0,0,0,0-0.1,0h-0.6
	c-1.3,0-2.4-1.1-2.4-2.4L12.9,20.9z M14.2,30.8H9.7v-1.4c0.1-1.7,1.4-3,3.1-2.9c0.1,0,0.1,0,0.2,0l1-0.1c0.3,0,0.5-0.2,0.5-0.4
	c0.1-0.4,0.1-0.8,0.1-1.1c0.2,0,0.5,0.1,0.7,0.1h0.6c0.2,0,0.3,0,0.5,0c0.1,0.9,0.3,1.3,0.5,1.5c0.1,0.1,0.2,0.1,0.3,0.1
	c0.7,0,1.4,0.1,2,0.4C16.9,27.2,15,28.7,14.2,30.8L14.2,30.8z M23.2,31l-1.4-3.6l0.6-1.6c0.2,0,0.4,0.1,0.6,0.1h0.2
	c0.3,0,0.7,0,1-0.1l0.5,1.5L23.2,31z M36.2,30.8H32c-0.8-2.2-2.9-3.8-5.3-3.9c0.5-0.2,1-0.3,1.5-0.3l1-0.1c0.3,0,0.5-0.2,0.5-0.4
	c0.1-0.5,0.1-1.1,0.1-1.6c0.3,0.1,0.5,0.1,0.8,0.1H31c0.2,0,0.4,0,0.7-0.1c0,1.3,0.3,1.8,0.5,1.9c0.1,0.1,0.2,0.1,0.3,0.1
	c1.7,0,3.7,0.6,3.7,2.9L36.2,30.8z"/>
<path class="st0" d="M19.6,13.2c0.2,0.2,0.6,0.1,0.8-0.1c0.1-0.2,0.1-0.5,0-0.7L19,11.1c-0.2-0.2-0.6-0.1-0.8,0.1
	c-0.1,0.2-0.1,0.5,0,0.7L19.6,13.2z"/>
<path class="st0" d="M26.4,13.3c0.1,0,0.3-0.1,0.4-0.2l1.3-1.3c0.2-0.2,0.1-0.6-0.1-0.8c-0.2-0.1-0.5-0.1-0.7,0L26,12.4
	c-0.2,0.2-0.2,0.6,0,0.8C26.1,13.3,26.3,13.3,26.4,13.3L26.4,13.3z"/>
<path class="st0" d="M23.2,12.7c0.3,0,0.5-0.2,0.5-0.6V9.9c0-0.3-0.3-0.5-0.6-0.5c-0.2,0-0.4,0.2-0.5,0.5v2.2
	C22.6,12.4,22.9,12.7,23.2,12.7z"/>
</svg>
